<?xml version="1.0" encoding="utf-8" ?>
<svg xmlns="http://www.w3.org/2000/svg" xmlns:xlink="http://www.w3.org/1999/xlink" width="24" height="24">
	<path transform="matrix(0.0375 0 0 0.0375 -7.62939e-06 1.90735e-06)" d="M272.648 80.061C274.535 79.9634 276.709 79.9105 278.54 80.4459L279.062 80.6336C295.183 86.2099 298.532 105.652 301.142 119.885C306.961 117.141 306.913 116.382 311.431 112.107C317.079 106.762 328.045 106.387 335.033 108.251L342.479 96.4444C350.062 85.565 363.974 74.8174 376.48 84.4005C386.737 92.2596 390.964 106.356 392.614 118.602C404.468 112.99 419.203 113.52 431.947 113.567L437.155 102.874C443.576 90.8966 458.174 76.2115 472.654 84.2845C483.814 90.5061 487.841 107.476 488.484 119.228C508.987 115.198 527.33 113.494 540.156 133.412C547.855 145.366 551.868 173.27 553.372 188.028L555.419 217.773C555.572 219.915 556.16 221.969 556.262 224.14C556.702 233.495 555.654 243.244 557.068 252.5C557.612 256.06 557.438 259.766 557.466 263.363L557.637 285.977C557.729 288.367 558.425 290.63 558.523 292.943C558.856 300.874 558.363 308.874 558.907 316.8C559.102 319.653 559.893 322.416 560.044 325.268L560.318 352.044C560.395 355.227 561.067 358.332 561.155 361.516L561.106 419.196C560.982 422.067 560.425 424.945 560.253 427.845L559.917 438.356C559.858 440.306 559.884 442.663 559.373 444.531C557.177 452.566 559.894 461.486 558.921 469.61C556.55 489.419 561.199 513.77 544.981 529.851C531.587 543.132 511.259 545.482 493.336 546.524L415.703 547.182L308.28 546.489L202.729 547.161L145.39 546.408C109.842 546.242 94.1792 540.611 86.6279 501.309C84.3867 489.643 84.1343 476.937 84.1043 465.118L84.4849 432.164C84.7161 427.933 85.4634 423.793 85.8176 419.581L88.7876 375.597C89.0488 371.271 88.8909 366.838 88.9077 362.501L89.001 333.566C89.1107 325.671 91.6204 314.248 90.4029 306.875C89.5952 301.983 90.0913 296.223 90.0873 291.247L90.1785 174.854C91.9616 138.916 105.022 114.708 144.68 114.927L147.67 107.547C153.408 95.689 167.955 76.9776 183.291 84.7921L186.114 86.3948C195.848 92.8863 200.829 108.193 202.97 118.913C205.717 118.659 208.685 117.447 211.428 116.881C218.301 115.464 236.233 113.168 243.277 115.258L243.557 115.345C246.948 102.112 257.745 82.3062 272.648 80.061ZM108.501 277.125L108.604 280.03L108.224 292.874C107.944 295.22 107.797 297.3 107.787 299.694L108.074 310.418C111.156 308.81 114.195 307.487 117.256 305.71L152.6 284.18L192.592 257.68C206.759 248.202 220.708 238.878 236.094 231.438L236.231 231.767C219.64 240.469 204.53 251.507 188.953 261.857L140.702 292.987L111.335 310.773C105.326 314.038 107.679 314.356 107.723 322.434L107.852 342.505L107.805 344.11L107.723 359.897C107.711 362.974 107.414 366.223 107.701 369.274L107.972 368.846C108.859 367.574 111.676 366.224 113.013 365.163L114.969 366.633C112.233 368.672 108.483 371.286 106.759 374.223L105.175 390.359C105.06 392.144 104.456 406.824 105.367 407.895C107.511 406.631 109.547 405.552 111.637 404.143L151.037 378.506C162.108 371.068 170.97 365.456 180.781 356.44L180.907 356.844C171.147 366.533 163.464 371.406 152.07 379.18L109.598 407.791C106.391 409.724 105.157 408.844 105.096 412.891L105.026 420.84C105.009 425.443 104.603 430.448 105.288 435.006C105.327 435.682 105.39 436.235 105.081 436.9C104.363 443.517 104.901 450.714 104.932 457.397L105.721 456.842C105.488 457.288 105.231 457.664 104.926 458.064L105.224 480.328L128.009 465.074C128.561 464.721 128.343 464.829 129.06 464.778L129.222 465.314C128.797 465.811 128.347 466.072 127.812 466.44L105.285 481.367L105.36 485.765C105.357 487.203 105.207 488.816 105.52 490.219C105.25 496.383 106.039 502.901 107.704 508.828C109.243 509.99 111.798 509.313 113.639 509.118L140.141 510.267C143.765 510.413 147.691 511.139 151.269 511.436L193.368 510.821L192.27 511.399C196.599 513.82 209.558 511.38 214.749 511.361L230.392 511.542C233.885 511.658 237.335 512.023 240.836 511.879C242.341 512.019 247.313 512.704 248.649 512.118L408.296 511.253C410.237 511.529 412.139 511.515 414.094 511.504C413.955 510.829 420.878 509.151 423.293 508.077L423.588 508.54C424.266 509.634 424.253 509.257 425.312 509.847L428.281 510.812C429.155 511.014 429.866 511.159 430.779 511.15L431.74 512.014L438.033 512.032L449.896 512.118L534.814 511.296C538.621 506.277 538.452 488.98 538.995 482.696L541.269 446.894C541.402 446.288 541.289 445.428 541.288 444.794L541.417 443.364C541.651 443.11 541.687 439.707 541.725 439.107C541.984 438.175 541.887 436.77 541.952 435.776L541.999 435.367C542.607 431.192 542.395 426.598 542.832 422.363C542.491 419.476 542.769 416.246 542.785 413.33L543.261 394.318L543.433 391.284L542.814 357.878L542.788 355.486C542.772 353.196 542.286 351.019 542.205 348.75L540.843 304.356C540.661 301.872 540.212 299.368 540.15 296.875L540.04 275.157C539.998 267.704 538.931 261.611 538.796 254.527L538.608 243.711C538.581 242.217 538.678 240.532 538.434 239.062C536.768 229.013 538.051 218.877 536.5 208.785C533.769 208.319 530.917 208.462 528.152 208.444L514.924 208.398C509.604 208.399 502.998 206.992 498.264 209.84L498.281 209.066C498.159 208.335 497.645 208.288 497.064 207.949C497.672 207.537 498.423 207.107 498.835 206.487L499.219 205.718C496.188 203.905 474.325 205.452 470.312 205.813C456.714 207.04 460.005 207.999 448.241 214.917C448.404 213.6 447.791 213.59 446.663 213.282L454.632 206.11C449.883 205.245 446.583 205.193 441.692 205.187L416.406 205.296C403.41 205.203 390.202 204.609 377.223 205.337C372.58 205.597 370.697 207.367 367.427 210.488L344.482 229.311L344.238 228.331C351.908 222.591 363.111 215.37 368.429 207.209C368.96 206.394 369.206 205.772 370.07 205.235L280.672 205.049C273.629 204.937 274.748 204.543 269.531 209.49C269.531 208.638 272.633 205.87 273.339 204.851L107.907 205.148L108.485 245.57L132.656 228.726L109.02 247.655C108.374 248.115 108.164 248.457 108.069 249.248L108.02 249.844C107.254 257.118 107.868 269.35 108.501 277.125ZM332.486 124.999C331.629 125.692 326.311 126.201 323.173 127.709L316.527 130.955C313.099 132.668 309.877 135 306.798 137.275L297.791 144.192C296.671 145.014 295.325 146.265 293.939 146.452L293.554 146.267C286.385 155.625 279.028 161.489 267.124 163.051C263.221 163.564 260.287 163.963 256.983 161.439L256.276 160.861C253.864 158.535 252.251 156.051 250.625 153.131C247.478 147.793 244.356 140.874 242.881 134.844C242.314 132.525 242.399 129.658 241.588 127.498C239.984 125.983 236.556 125.357 234.42 124.953C226.978 123.37 209.672 124.746 203.328 127.872C202.058 135.156 200.681 141.581 198.229 148.573C196.551 152.869 192.688 156.616 189.497 159.81L174.194 174.343C175.13 172.174 177.409 168.993 175.938 166.575C167.654 166.774 156.306 160.568 150.469 154.952C142.05 146.853 141.588 136.767 141.281 125.984L140.903 126.309C133.795 132.519 125.998 137.655 119.101 144.164C117.67 145.407 115.758 147.538 113.825 147.743L113.315 147.814C111.203 154.439 109.44 168.491 109.716 175.612L108.815 180.533L108.69 191.786C108.684 193.5 108.131 198.858 109.034 200.002L111.089 200.107L127.954 200.246L134.294 200.11L149.622 200.114L157.301 200.096C162.722 200.789 168.519 199.205 173.906 200.124L173.845 200.781C179.174 205.44 183.398 201.899 187.918 199.059L188.28 198.835C190.248 199.538 193.004 199.145 195.194 199.529L195.535 199.575L195.606 199.082L197.457 198.335C200.109 197.611 201.779 196.957 204.014 195.387C205.116 196.258 205.766 198.736 206.512 200.042L209.421 200.014L219.536 199.693C220.874 199.72 222.856 199.499 224.08 200.005C227.633 200.682 231.713 199.316 234.977 199.906C245.476 197.685 255.933 200.085 266.428 199.324C270.858 199.982 276.615 195.776 280.23 196.913L276.242 200.96C283.152 203.059 297.795 199.312 302.28 201.344L306.832 201.289C310.75 203.38 316.227 197.23 320.334 200.753L322.821 201.756C324.424 202.377 325.844 202 327.464 201.677C330.751 202.326 334.216 199.696 337.592 200.62C339.052 201.02 340.116 200.87 341.59 200.673L350.389 200.149C359.052 200.121 366.415 199.001 374.465 195.929C376.329 195.218 378.532 194.053 380.55 194.134C378.356 196.184 376.499 198.001 374.833 200.499L383.55 200.111L409.198 200.142C412.961 200.147 417.223 199.744 420.933 200.63L420.293 201.719C421.484 205.946 431.744 201.884 434.381 201.218C438.233 200.983 451.66 199.005 454.65 200.619C456.957 204.009 460.763 203.503 463.963 201.764C465.12 201.742 466.302 201.408 467.468 201.296L478.049 199.982C479.835 199.708 482.532 198.878 484.253 199.438C483.261 200.261 482.311 201.208 481.247 201.929C484.877 202.351 488.466 202.572 492.113 202.221C495.056 202.233 502.431 200.169 504.844 201.462C505.755 201.95 505.263 202.474 506.511 202.187L508.333 202.14C517.62 199.962 528.232 188.841 533.916 180.882L533.505 177.665L532.56 171.569C531.877 171.516 531.027 171.124 530.361 170.915L530.318 169.062C530.416 168.011 530.735 167.748 531.541 167.132C531.705 165.784 530.738 163.276 530.389 161.909L528.941 157.117C528.704 154.802 527.619 151.38 526.517 149.339L523.047 142.135C521.051 137.291 516.088 132.295 512.165 128.978C510.688 127.914 509.241 127.271 507.562 126.585L499.43 126.58C496.992 129.39 495.175 132.112 491.875 134.033L491.434 134.295C490.381 134.901 489.412 135.149 488.234 135.393L487.692 135.509C485.876 141.919 483.822 149.401 479.506 154.641C458.91 179.644 431.95 156.27 429.804 131.069C429.596 129.815 429.717 128.351 429.695 127.069C429.814 124.69 428.482 124.409 426.284 123.961L425.78 123.863C418.201 122.323 395.146 122.621 392.24 129.118C388.177 138.202 389.254 144.069 381.905 154.405C375.448 163.487 356.928 165.091 348.3 158.798C338.383 151.565 334.385 136.469 332.486 124.999ZM120.222 528.995C122.518 531.608 128.034 537.625 131.6 538.412C135.184 539.523 139.836 539.814 142.458 540.799L154.315 541.553L156.852 542.014C161.552 542.947 166.937 542.547 171.729 542.263L175.517 542.563L190.264 542.572L206.924 542.507L215.479 542.561L245.208 542.533L259.263 542.757L304.707 542.541L306.983 542.571L318.008 542.572L330.866 542.577L346.032 542.566L352.344 542.538C353.591 542.546 354.973 542.681 356.2 542.498L358.587 542.554L376.173 542.563L386.08 542.659C389.583 542.696 393.832 543.125 397.265 542.581L407.501 542.572L418.14 542.572L429.151 542.588L481.321 542.62C483.327 542.623 485.533 542.808 487.511 542.531L493.451 542.098L502.158 541.056C503.457 538.996 506.971 538.107 508.857 536.444C513.89 532.01 519.048 525.395 522.39 519.663L521.406 519.222C522.391 518.597 524.012 518.732 525.18 518.562L130.453 516.804C126.57 516.282 115.543 515.47 111.627 516.408C113.839 520.878 116.582 525.521 120.222 528.995ZM370.535 102.015C364.522 103.687 359.777 107.787 354.686 111.225C352.92 112.333 351.402 113.369 350.009 114.949L349.457 114.982C347.681 120.16 347.378 129.05 350.478 133.926L351.056 135.37C353.966 138.25 357.999 137.714 360.795 134.97L362.243 133.712C363.149 133.409 363.679 132.797 364.377 132.166L364.606 132.146C365.012 130.759 365.464 129.53 366.138 128.251L369.137 128.907L370.659 128.092L374.165 126.918L374.751 119.244C375.51 116.962 374.136 111.628 373.297 109.581C372.255 107.008 371.862 104.533 370.535 102.015ZM182.083 105.205C179.385 106.954 174.775 107.676 171.658 108.634L162.352 110.788L160.432 116.501C159.678 118.675 159.617 121.173 159.368 123.457C164.199 123.608 168.837 122.326 173.618 121.835C177.333 121.056 181.89 119.884 185.305 119.279C185.103 116.517 185.219 112.955 184.17 110.391C183.69 108.532 182.923 106.921 182.083 105.205ZM449.225 114.135C452.468 113.923 454.824 112.611 457.378 110.75C458.636 111.273 459.505 111.738 460.845 111.218L461.641 109.112C462.278 107.988 462.335 107.479 462.385 106.193C463.812 104.605 465.569 102.958 466.628 101.112C461.776 88.504 456.988 95.3864 453.257 104.505L449.225 114.135ZM525.18 518.477C524.012 518.732 522.391 518.597 521.406 519.222L522.39 519.663C519.048 525.395 513.89 532.01 508.857 536.444C506.971 538.107 503.457 538.996 502.158 541.056L503.917 540.741C513.896 538.756 527.268 526.331 533.033 517.763L525.18 518.477ZM265.373 102.207L263.615 106.259C264.518 106.061 265.272 105.916 266.204 105.964L267.646 105.916C270.284 105.768 272.226 106.824 274.76 106.745C275.656 106.852 279.014 105.242 280.148 104.918C279.818 104.054 279.685 103.147 279.516 102.242C278.447 98.6367 276.922 91.4646 271.133 94.497L270.781 94.686C267.493 96.3228 266.71 98.9898 265.373 102.207ZM322.141 110.727C316.649 111.432 311.106 113.579 307.086 117.446L319.012 117.25L332.558 117.29C333.013 115.856 333.963 112.421 333.561 111.06C329.831 110.7 325.871 110.294 322.141 110.727ZM167.417 147.523L166.326 148.492C168.957 151.157 171.123 154.014 174.006 156.466C178.971 150.651 182.307 145.316 183.914 137.757L183.282 137.539C178.358 141.334 173.183 145.1 167.417 147.523ZM165.387 103.175C169.558 102.377 175.588 102.079 179.076 99.6591C173.321 90.6334 169.016 96.4643 165.387 103.175ZM487.692 135.509L488.234 135.393C489.412 135.149 490.381 134.901 491.434 134.295L491.875 134.033C495.175 132.112 496.992 129.39 499.43 126.216L499.177 126.351C496.19 127.522 492.318 125.586 489.12 127.602C488.551 130.257 488.403 132.886 487.692 135.509ZM267.498 151.556C274.289 152.054 278.092 146.056 279.854 140.381C276.597 140.887 268.007 147.851 267.498 151.556ZM353.848 102.194C356.26 102.131 364.273 97.8441 367.78 97.025C363.721 90.6448 358.963 94.9061 355.432 99.8647L353.848 102.194ZM197.457 198.335L195.606 199.082L195.535 199.575C199.14 200.258 202.856 200.077 206.512 200.042C205.766 198.736 205.116 196.258 204.014 195.387C201.779 196.957 200.109 197.611 197.457 198.335ZM93.5709 310.469L93.7643 311.245C96.8617 312.021 100.149 312.038 103.281 311.496L103.11 311.065C99.9753 310.71 96.72 310.119 93.5709 310.469Z"/>
	<path fill="#DAD2D0" transform="matrix(0.0375 0 0 0.0375 -7.62939e-06 1.90735e-06)" d="M530.361 170.915L530.318 169.062C530.416 168.011 530.735 167.748 531.541 167.132L532.56 171.569C531.877 171.516 531.027 171.124 530.361 170.915Z"/>
	<path fill="white" transform="matrix(0.0375 0 0 0.0375 -7.62939e-06 1.90735e-06)" d="M115.119 140.901L116.25 141.479C118.874 140.614 119.457 142.059 119.101 144.164C117.67 145.407 115.758 147.538 113.825 147.743L113.315 147.814L115.119 140.901Z"/>
	<path fill="white" transform="matrix(0.0375 0 0 0.0375 -7.62939e-06 1.90735e-06)" d="M414.094 511.504C413.955 510.829 420.878 509.151 423.293 508.077L423.588 508.54C424.266 509.634 424.253 509.257 425.312 509.847L428.281 510.812C429.155 511.014 429.866 511.159 430.779 511.15L431.74 511.869C425.858 512.09 419.934 512.3 414.094 511.504Z"/>
	<path fill="#DAD2D0" transform="matrix(0.0375 0 0 0.0375 -7.62939e-06 1.90735e-06)" d="M454.392 151.963C455.779 151.1 457.63 151.394 459.105 150.568C460.774 149.634 462.847 147.18 464.688 146.925L466.179 148.212C462.692 153.194 459.793 155.586 454.392 151.963Z"/>
	<path fill="#4D4A49" transform="matrix(0.0375 0 0 0.0375 -7.62939e-06 1.90735e-06)" d="M179.076 99.6591L182.083 105.205C179.385 106.954 174.775 107.676 171.658 108.634L162.352 110.788L165.387 103.175C169.558 102.377 175.588 102.079 179.076 99.6591Z"/>
	<path fill="white" transform="matrix(0.0375 0 0 0.0375 -7.62939e-06 1.90735e-06)" d="M373.732 134.328C372.937 137.932 371.102 142.472 368.584 145.211C366.518 148.498 362.937 150.697 359.271 151.669C357.085 149.137 355.656 146.51 354.219 143.496C358.128 141.637 362.77 140.915 366.847 139.166C369.427 137.751 371.553 136.312 373.732 134.328Z"/>
	<path fill="#4D4A49" transform="matrix(0.0375 0 0 0.0375 -7.62939e-06 1.90735e-06)" d="M367.78 97.025C368.928 98.5365 369.699 100.318 370.535 102.015C364.522 103.687 359.777 107.787 354.686 111.225C352.92 112.333 351.402 113.369 350.009 114.949L349.457 114.982C349.243 111.358 351.635 105.084 353.848 102.194C356.26 102.131 364.273 97.8441 367.78 97.025Z"/>
	<path fill="#6B6968" transform="matrix(0.0375 0 0 0.0375 -7.62939e-06 1.90735e-06)" d="M263.615 106.259L265.373 102.207C269.186 103.437 275.547 102.671 279.516 102.307C279.685 103.147 279.818 104.054 280.148 104.918C279.014 105.242 275.656 106.852 274.76 106.745C272.226 106.824 270.284 105.768 267.646 105.916L266.204 105.964C265.272 105.916 264.518 106.061 263.615 106.259Z"/>
	<path fill="#332A2C" transform="matrix(0.0375 0 0 0.0375 -7.62939e-06 1.90735e-06)" d="M370.659 128.092L374.165 126.918L374.156 127.389C374.15 129.577 373.369 132.296 373.732 134.328C371.553 136.312 369.427 137.751 366.847 139.166C362.77 140.915 358.128 141.637 354.219 143.496C352.781 142.527 351.164 137.321 351.056 135.37C353.966 138.25 357.999 137.714 360.795 134.97L362.243 133.712C363.149 133.409 363.679 132.797 364.377 132.166L364.606 132.146C365.012 130.759 365.464 129.53 366.138 128.251L369.137 128.907L370.659 128.092Z"/>
	<path fill="#4D4A49" transform="matrix(0.0375 0 0 0.0375 -7.62939e-06 1.90735e-06)" d="M457.378 110.75L462.385 106.193C462.335 107.479 462.278 107.988 461.641 109.112L460.845 111.218C459.505 111.738 458.636 111.273 457.378 110.75Z"/>
	<path fill="#DAD2D0" transform="matrix(0.0375 0 0 0.0375 -7.62939e-06 1.90735e-06)" d="M115.119 140.901C118.374 130.965 130.862 122.618 141.406 125.081L141.281 125.984L140.903 126.309C133.795 132.519 125.998 137.655 119.101 144.164C119.457 142.059 118.874 140.614 116.25 141.479L115.119 140.901Z"/>
	<path fill="#DAD2D0" transform="matrix(0.0375 0 0 0.0375 -7.62939e-06 1.90735e-06)" d="M293.554 146.267L299.138 135.358C300.011 133.526 300.822 130.547 302.117 129.073C311.205 124.737 322.164 124.826 332.021 124.493L332.486 124.954C331.629 125.692 326.311 126.201 323.173 127.709L316.527 130.955C313.099 132.668 309.877 135 306.798 137.275L297.791 144.192C296.671 145.014 295.325 146.265 293.939 146.452L293.554 146.267Z"/>
	<path fill="#A79A92" transform="matrix(0.0375 0 0 0.0375 -7.62939e-06 1.90735e-06)" d="M533.916 180.882C535.232 187.439 535.883 196.744 536.158 203.572L535.865 203.47C528.4 201.046 516.569 203.296 508.333 202.242C517.62 199.962 528.232 188.841 533.916 180.882Z"/>
	<path fill="#6B6968" transform="matrix(0.0375 0 0 0.0375 -7.62939e-06 1.90735e-06)" d="M182.083 105.205C182.923 106.921 183.69 108.532 184.17 110.391C185.219 112.955 185.103 116.517 185.305 119.279C181.89 119.884 177.333 121.056 173.618 121.835C168.837 122.326 164.199 123.608 159.368 123.457C159.617 121.173 159.678 118.675 160.432 116.501L162.352 110.788L171.658 108.634C174.775 107.676 179.385 106.954 182.083 105.205ZM182.083 105.205C179.385 106.954 174.775 107.676 171.658 108.634L171.426 109.121C170.686 110.551 170.159 110.315 170.159 112.344L170.872 113.322C175.121 112.519 180.211 112.036 184.17 110.391C183.69 108.532 182.923 106.921 182.083 105.205Z"/>
	<path fill="white" transform="matrix(0.0375 0 0 0.0375 -7.62939e-06 1.90735e-06)" d="M162.352 110.788L171.658 108.634L171.426 109.121C170.686 110.551 170.159 110.315 170.159 112.344L170.872 113.322C167.185 114.049 163.731 114.63 160.432 116.501L162.352 110.788Z"/>
	<path fill="#A79A92" transform="matrix(0.0375 0 0 0.0375 -7.62939e-06 1.90735e-06)" d="M283.466 127.015L282.164 134.555C281.749 136.56 280.578 138.461 279.854 140.381C276.597 140.887 268.007 147.851 267.498 151.556C263.926 151.393 259.802 133.916 259.1 130.948C260.392 129.762 266.29 129.858 267.986 129.791C271.906 129.734 275.787 129.794 279.507 128.347C280.638 128.371 282.372 127.43 283.466 127.015Z"/>
	<path fill="#A79A92" transform="matrix(0.0375 0 0 0.0375 -7.62939e-06 1.90735e-06)" d="M461.408 111.305C464.562 110.667 467.855 109.862 471.094 109.996L471.239 115.157L471.323 122.537C471.589 123.133 471.621 123.389 471.476 124.012C471.317 124.925 471.259 126.299 470.583 126.95C465.127 128.933 459.962 130.068 454.157 130.039C452.467 129.883 451.11 130.234 449.455 129.546L449.062 129.371C448.186 128.988 447.579 128.598 446.855 127.97L446.189 128.591L446.149 128.436C444.613 124.238 446.394 117.358 449.225 114.135C452.468 113.923 454.824 112.611 457.378 110.75C458.636 111.273 459.505 111.738 460.845 111.218L461.408 111.305Z"/>
	<path fill="#6B6968" transform="matrix(0.0375 0 0 0.0375 -7.62939e-06 1.90735e-06)" d="M469.245 115.394L471.239 115.157L471.323 122.537C469.583 120.357 470.054 118.406 469.41 115.984L469.245 115.394Z"/>
	<path fill="white" transform="matrix(0.0375 0 0 0.0375 -7.62939e-06 1.90735e-06)" d="M446.855 127.97C449.137 127.226 451.775 127.017 454.141 126.5L465.717 123.881C467.405 123.499 469.476 122.626 471.2 122.858L471.476 124.012C471.317 124.925 471.259 126.299 470.583 126.95C465.127 128.933 459.962 130.068 454.157 130.039C452.467 129.883 451.11 130.234 449.455 129.546L449.062 129.371C448.186 128.988 447.579 128.598 446.855 127.97Z"/>
	<path fill="#A79A92" transform="matrix(0.0375 0 0 0.0375 -7.62939e-06 1.90735e-06)" d="M454.157 130.039C459.962 130.068 465.127 128.933 470.583 126.95C469.786 129.182 469.921 130.539 470.371 132.797L470.417 133.339C470.107 137.266 469.31 141.057 467.921 144.747C467.407 145.893 466.948 147.216 466.179 148.212L464.688 146.925C462.847 147.18 460.774 149.634 459.105 150.568C457.63 151.394 455.779 151.1 454.392 151.963L454.242 151.885C448.594 147.217 447.081 138.334 446.337 131.493C446.192 130.507 446.003 129.585 446.189 128.591L446.855 127.97C447.579 128.598 448.186 128.988 449.062 129.371L449.455 129.546C451.11 130.234 452.467 129.883 454.157 130.039Z"/>
	<path fill="#DAD2D0" transform="matrix(0.0375 0 0 0.0375 -7.62939e-06 1.90735e-06)" d="M446.189 128.591L446.855 127.97C447.579 128.598 448.186 128.988 449.062 129.371L449.455 129.546C451.11 130.234 452.467 129.883 454.157 130.039C451.855 130.15 446.87 131.945 446.678 131.883L446.337 131.493C446.192 130.507 446.003 129.585 446.189 128.591Z"/>
	<path fill="#A79A92" transform="matrix(0.0375 0 0 0.0375 -7.62939e-06 1.90735e-06)" d="M280.148 104.918C280.745 106.753 281.106 108.479 281.359 110.392C282.897 112.897 283.208 119.278 283.166 122.337C283.784 123.87 283.562 125.4 283.466 127.015C282.372 127.43 280.638 128.371 279.507 128.347C275.787 129.794 271.906 129.734 267.986 129.688C266.29 129.858 260.392 129.762 259.1 130.948C258.777 129.324 258.763 127.702 258.719 126.053C258.71 122.401 259.294 118.853 260.456 115.387L263.045 107.499L263.615 106.259C264.518 106.061 265.272 105.916 266.204 105.964L267.646 105.916C270.284 105.768 272.226 106.824 274.76 106.745C275.656 106.852 279.014 105.242 280.148 104.918Z"/>
	<path fill="white" transform="matrix(0.0375 0 0 0.0375 -7.62939e-06 1.90735e-06)" d="M278.545 123.063L282.344 120.085L283.166 122.337C283.784 123.87 283.562 125.4 283.466 127.015C282.372 127.43 280.638 128.371 279.507 128.347L280.784 127.344C278.969 126.306 278.588 125.076 278.545 123.063Z"/>
	<path fill="#DAD2D0" transform="matrix(0.0375 0 0 0.0375 -7.62939e-06 1.90735e-06)" d="M280.148 104.918C280.745 106.753 281.106 108.479 281.359 110.392C278.905 113.444 272.242 112.222 268.644 112.973C269.026 110.74 271.187 109.145 272.831 107.656C273.467 107.473 274.157 107.037 274.76 106.745C275.656 106.852 279.014 105.242 280.148 104.918Z"/>
	<path fill="#DAD2D0" transform="matrix(0.0375 0 0 0.0375 -7.62939e-06 1.90735e-06)" d="M278.545 123.063C278.588 125.076 278.969 126.306 280.784 127.344L279.507 128.347C275.787 129.794 271.906 129.734 267.986 129.688C266.29 129.858 260.392 129.762 259.1 130.948C258.777 129.324 258.763 127.702 258.719 126.053L271.474 125.858C270.381 126.744 269.292 126.826 268.639 128.372L268.56 128.628C271.626 126.146 275.223 125.168 278.545 123.063Z"/>
	<path fill="#DAD2D0" transform="matrix(0.0375 0 0 0.0375 -7.62939e-06 1.90735e-06)" d="M173.618 121.835C177.333 121.056 181.89 119.884 185.316 119.279C185.276 120.372 185.336 121.562 185.079 122.624C185.494 123.548 185.608 123.64 185.403 124.615L184.872 130.874L184.493 133.649L183.914 137.757L183.282 137.539C178.358 141.334 173.183 145.1 167.417 147.523L166.326 148.492C165.752 148.316 164.416 145.663 164.065 145.061C163.594 144.379 163.253 143.618 162.879 142.879L160.95 137.563C160.139 134.999 159.955 132.234 159.394 129.597L159.368 123.457C164.199 123.608 168.837 122.326 173.618 121.835Z"/>
	<path fill="#6B6968" transform="matrix(0.0375 0 0 0.0375 -7.62939e-06 1.90735e-06)" d="M178.505 135.148C180.467 133.502 182.61 132.069 184.872 130.874L184.493 133.649C182.565 134.427 180.639 135.479 178.505 135.148Z"/>
	<path fill="#4D4A49" transform="matrix(0.0375 0 0 0.0375 -7.62939e-06 1.90735e-06)" d="M178.505 135.148C180.639 135.479 182.565 134.427 184.493 133.649L183.914 137.757L183.282 137.539C178.358 141.334 173.183 145.1 167.417 147.523L166.326 148.492C165.752 148.316 164.416 145.663 164.065 145.061C163.594 144.379 163.253 143.618 162.879 142.879C166.935 142.078 174.883 137.286 178.505 135.148Z"/>
	<path fill="#332A2C" transform="matrix(0.0375 0 0 0.0375 -7.62939e-06 1.90735e-06)" d="M164.065 145.061C166.669 143.651 166.884 145.133 167.417 147.523L166.326 148.492C165.752 148.316 164.416 145.663 164.065 145.061Z"/>
	<path fill="#A79A92" transform="matrix(0.0375 0 0 0.0375 -7.62939e-06 1.90735e-06)" d="M173.618 121.835C177.333 121.056 181.89 119.884 185.316 119.279C185.276 120.372 185.336 121.562 185.079 122.624C185.494 123.548 185.608 123.64 185.403 124.615L185 124.176C184.472 124.531 184.131 124.916 183.708 125.383C178.468 131.187 167.139 131.457 160.95 137.563C160.139 134.999 159.955 132.234 159.394 129.597L159.368 123.457C164.199 123.608 168.837 122.326 173.618 121.835Z"/>
	<path fill="white" transform="matrix(0.0375 0 0 0.0375 -7.62939e-06 1.90735e-06)" d="M173.618 121.835C177.333 121.056 181.89 119.884 185.316 119.279C185.276 120.372 185.336 121.562 185.079 122.624L174.189 122.851C168.562 124.017 164.368 126.873 159.394 129.597L159.368 123.457C164.199 123.608 168.837 122.326 173.618 121.835Z"/>
	<path fill="#6B6968" transform="matrix(0.0375 0 0 0.0375 -7.62939e-06 1.90735e-06)" d="M370.535 102.015C371.862 104.533 372.255 107.008 373.297 109.581C374.136 111.628 375.51 116.962 374.751 119.244L374.165 126.918L370.659 128.092L369.137 128.907L366.138 128.251C365.464 129.53 365.012 130.759 364.606 132.146L364.377 132.166C363.679 132.797 363.149 133.409 362.243 133.712L360.795 134.97C357.999 137.714 353.966 138.25 351.056 135.37L350.478 133.926C347.378 129.05 347.681 120.16 349.457 114.982L350.009 114.949C351.402 113.369 352.92 112.333 354.686 111.225C359.777 107.787 364.522 103.687 370.535 102.015ZM370.535 102.015C364.522 103.687 359.777 107.787 354.686 111.225C354.711 112.36 354.559 113.869 355.021 114.913C359.915 112.746 370.512 114.01 373.297 109.581C372.255 107.008 371.862 104.533 370.535 102.015ZM370.659 128.092L374.165 126.918L374.751 119.244C371.91 121.241 369.842 123.2 367.731 125.953C368.667 126.786 369.49 127.599 370.659 128.092Z"/>
	<path fill="#4D4A49" transform="matrix(0.0375 0 0 0.0375 -7.62939e-06 1.90735e-06)" d="M364.377 132.166C363.172 129.757 363.512 128.542 366.138 128.251C365.464 129.53 365.012 130.759 364.606 132.146L364.377 132.166Z"/>
	<path fill="#DAD2D0" transform="matrix(0.0375 0 0 0.0375 -7.62939e-06 1.90735e-06)" d="M350.009 114.949C351.402 113.369 352.92 112.333 354.686 111.225C354.711 112.36 354.559 113.869 355.021 114.913C353.532 115.547 352.092 116.268 350.469 116.446L350.009 114.949Z"/>
	<path fill="white" transform="matrix(0.0375 0 0 0.0375 -7.62939e-06 1.90735e-06)" d="M350.478 133.926C350.799 129.138 356.355 128.977 360.197 128.346L362.19 131.562L362.243 133.712L360.795 134.97C357.999 137.714 353.966 138.25 351.056 135.37L350.478 133.926Z"/>
	<path fill="#A79A92" transform="matrix(0.0375 0 0 0.0375 -7.62939e-06 1.90735e-06)" d="M120.222 528.995C116.582 525.521 113.839 520.878 111.627 516.408C115.543 515.47 126.57 516.282 130.453 516.804L525.18 518.562C524.012 518.732 522.391 518.597 521.406 519.222L522.39 519.663C519.048 525.395 513.89 532.01 508.857 536.444C506.971 538.107 503.457 538.996 502.158 541.056L493.451 542.098L487.511 542.531C485.533 542.808 483.327 542.623 481.321 542.62L429.151 542.588L418.14 542.572L407.501 542.572L397.265 542.581C393.832 543.125 389.583 542.696 386.08 542.659L376.173 542.563L358.587 542.554L356.2 542.498C354.973 542.681 353.591 542.546 352.344 542.538L346.032 542.566L330.866 542.577L318.008 542.572L306.983 542.571L304.707 542.541L259.263 542.757L245.208 542.533L215.479 542.561L206.924 542.507L190.264 542.572L175.517 542.563L171.729 542.263C166.937 542.547 161.552 542.947 156.852 542.014L154.315 541.553L142.458 540.799C139.836 539.814 135.184 539.523 131.6 538.412C128.034 537.625 122.518 531.608 120.222 528.995ZM397.265 542.581L407.501 542.806C409.574 542.012 411.589 533.904 412.733 531.572C406.698 532.125 397.518 535.487 396.082 542.344L397.265 542.581ZM450.229 532.656C447.073 533.241 438.049 538.967 437.031 542.376L438.281 542.568L451.575 542.519L451.546 535.355C451.54 534.433 451.654 533.445 451.315 532.573L450.229 532.656ZM418.14 542.572L429.151 542.629L434.555 530.798C428.248 533.452 421.924 536.445 418.14 542.572ZM154.315 541.553L156.852 542.014C161.552 542.947 166.937 542.547 171.729 542.263C170.048 539.448 169.231 536.169 167.329 533.511C162.562 535.108 158.248 538.481 154.315 541.553ZM376.173 542.563L386.08 542.766C387.865 542.312 390.026 542.466 391.873 542.432C385.822 529.07 383.751 534.766 376.173 542.563Z"/>
	<path fill="#DAD2D0" transform="matrix(0.0375 0 0 0.0375 -7.62939e-06 1.90735e-06)" d="M370.61 539.079C370.965 540.055 371.341 541.012 371.551 542.031L368.502 542.129C369.317 541.196 369.945 540.121 370.61 539.079Z"/>
	<path fill="#DAD2D0" transform="matrix(0.0375 0 0 0.0375 -7.62939e-06 1.90735e-06)" d="M350.53 531.565C351.979 528.038 355.719 525.773 358.563 523.453L351.713 532.138L350.53 531.565Z"/>
	<path fill="#DAD2D0" transform="matrix(0.0375 0 0 0.0375 -7.62939e-06 1.90735e-06)" d="M285.91 532.113L294.415 527.243C292.641 529.558 291.183 531.533 290.023 534.226C288.71 532.932 287.679 532.566 285.91 532.113Z"/>
	<path fill="#DAD2D0" transform="matrix(0.0375 0 0 0.0375 -7.62939e-06 1.90735e-06)" d="M211.244 532.695C212.598 529.368 216.351 525.581 218.833 522.969L219.71 523.439C219.036 524.31 213.781 531.505 213.625 531.823L213.436 532.231L211.244 532.695Z"/>
	<path fill="white" transform="matrix(0.0375 0 0 0.0375 -7.62939e-06 1.90735e-06)" d="M478.9 521.094L479.062 521.406C475.781 526.297 471.463 529.432 466.377 532.234C469.329 527.36 473.984 523.784 478.9 521.094Z"/>
	<path fill="#DAD2D0" transform="matrix(0.0375 0 0 0.0375 -7.62939e-06 1.90735e-06)" d="M183.78 531.415C188.823 524.567 192.264 522.156 200.094 519.71L188.404 530.457L186.66 533.986L185.857 532.969C184.887 532.522 184.119 532.657 183.096 532.762L183.78 531.415Z"/>
	<path fill="white" transform="matrix(0.0375 0 0 0.0375 -7.62939e-06 1.90735e-06)" d="M466.827 533.594L467.606 533.627C469.246 535.273 469.001 539.84 469.83 542.164L461.716 542.567L458.776 542.031C461.025 539.214 463.574 535.234 466.827 533.594Z"/>
	<path fill="white" transform="matrix(0.0375 0 0 0.0375 -7.62939e-06 1.90735e-06)" d="M350.53 531.565L351.713 532.138C349.854 536.093 348.389 539.495 352.344 542.538L346.032 542.566L339.197 542.452C341.561 540.844 348.738 533.752 350.298 531.854L350.53 531.565Z"/>
	<path fill="white" transform="matrix(0.0375 0 0 0.0375 -7.62939e-06 1.90735e-06)" d="M356.2 542.498C359.592 539.538 367.319 533.079 371.352 536.248C371.313 537.229 370.92 538.156 370.61 539.079C369.945 540.121 369.317 541.196 368.502 542.129C365.313 542.395 361.762 542.152 358.587 542.503L356.2 542.498Z"/>
	<path fill="white" transform="matrix(0.0375 0 0 0.0375 -7.62939e-06 1.90735e-06)" d="M318.008 542.572C322.713 535.813 325.739 536.599 330.999 533.569L330.945 542.579L318.008 542.572Z"/>
	<path fill="white" transform="matrix(0.0375 0 0 0.0375 -7.62939e-06 1.90735e-06)" d="M213.436 532.231C214.19 534.482 215.343 539.941 215.479 542.196L206.924 542.507C205.909 541.98 204.825 542.222 203.879 541.768C205.98 538.28 208.308 535.507 211.244 532.695L213.436 532.231Z"/>
	<path fill="white" transform="matrix(0.0375 0 0 0.0375 -7.62939e-06 1.90735e-06)" d="M231.651 532.467C233.62 528.381 235.711 522.319 241.192 523.825L235.221 531.833C233.116 535.956 232.124 537.277 230.789 541.813L223.79 541.843C224.385 541.322 224.954 540.858 225.364 540.17L231.651 532.467Z"/>
	<path fill="white" transform="matrix(0.0375 0 0 0.0375 -7.62939e-06 1.90735e-06)" d="M131.6 538.412L157.103 526.045C151.725 530.656 146.808 537.231 142.458 540.715C139.836 539.814 135.184 539.523 131.6 538.412Z"/>
	<path fill="white" transform="matrix(0.0375 0 0 0.0375 -7.62939e-06 1.90735e-06)" d="M183.096 532.762C184.119 532.657 184.887 532.522 185.857 532.969L186.66 533.986L190.264 542.492L175.517 542.563C174.98 542.331 174.531 542.265 174.112 541.875L183.096 532.762Z"/>
	<path fill="white" transform="matrix(0.0375 0 0 0.0375 -7.62939e-06 1.90735e-06)" d="M487.511 542.531L478.28 542.477C480.912 539.143 488.147 528.631 492.617 532.969C493.432 535.884 493.48 539.089 493.451 542.098L487.511 542.531Z"/>
	<path fill="white" transform="matrix(0.0375 0 0 0.0375 -7.62939e-06 1.90735e-06)" d="M304.707 542.541L295.419 541.972C296.183 541.292 296.795 540.545 297.286 539.649C298.82 536.85 311.102 527.019 314.615 527.898C314.809 529.697 308.409 537.584 306.983 542.539L304.707 542.541Z"/>
	<path fill="white" transform="matrix(0.0375 0 0 0.0375 -7.62939e-06 1.90735e-06)" d="M285.91 532.113C287.679 532.566 288.71 532.932 290.023 534.226C289.943 536.955 290.401 539.819 290.736 542.526L271.972 542.519C276.942 539.43 278.95 535.041 285.91 532.113Z"/>
	<path fill="white" transform="matrix(0.0375 0 0 0.0375 -7.62939e-06 1.90735e-06)" d="M245.208 542.533L249.338 536.767C250.102 535.849 250.809 534.762 251.807 534.099L252.132 534.217C259.424 536.764 260.402 526.71 267.46 527.291L268.113 527.812C267.203 530.986 263.943 533.297 262.662 536.303C261.309 539.476 263.266 542.346 259.263 542.792L245.208 542.533Z"/>
	<path fill="#A79A92" transform="matrix(0.0375 0 0 0.0375 -7.62939e-06 1.90735e-06)" d="M332.486 124.999C334.385 136.469 338.383 151.565 348.3 158.798C356.928 165.091 375.448 163.487 381.905 154.405C389.254 144.069 388.177 138.202 392.24 129.118C395.146 122.621 418.201 122.323 425.78 123.863L426.284 123.961C428.482 124.409 429.814 124.69 429.695 127.069C429.717 128.351 429.596 129.815 429.804 131.069C431.95 156.27 458.91 179.644 479.506 154.641C483.822 149.401 485.876 141.919 487.692 135.509L488.234 135.393C489.412 135.149 490.381 134.901 491.434 134.295L491.875 134.033C495.175 132.112 496.992 129.39 499.43 126.58L507.562 126.585C509.241 127.271 510.688 127.914 512.165 128.978C516.088 132.295 521.051 137.291 523.047 142.135L526.517 149.339C527.619 151.38 528.704 154.802 528.941 157.117L530.389 161.909C530.738 163.276 531.705 165.784 531.541 167.132C530.735 167.748 530.416 168.011 530.318 169.062L530.361 170.915C531.027 171.124 531.877 171.516 532.56 171.569L533.505 177.665L533.916 180.882C528.232 188.841 517.62 199.962 508.333 202.14L506.511 202.187C505.263 202.474 505.755 201.95 504.844 201.462C502.431 200.169 495.056 202.233 492.113 202.221C488.466 202.572 484.877 202.351 481.247 201.929C482.311 201.208 483.261 200.261 484.253 199.438C482.532 198.878 479.835 199.708 478.049 199.982L467.468 201.296C466.302 201.408 465.12 201.742 463.963 201.764C460.763 203.503 456.957 204.009 454.65 200.619C451.66 199.005 438.233 200.983 434.381 201.218C431.744 201.884 421.484 205.946 420.293 201.719L420.933 200.63C417.223 199.744 412.961 200.147 409.198 200.142L383.55 200.111L374.833 200.499C376.499 198.001 378.356 196.184 380.55 194.134C378.532 194.053 376.329 195.218 374.465 195.929C366.415 199.001 359.052 200.121 350.389 200.149L341.59 200.673C340.116 200.87 339.052 201.02 337.592 200.62C334.216 199.696 330.751 202.326 327.464 201.677C325.844 202 324.424 202.377 322.821 201.756L320.334 200.753C316.227 197.23 310.75 203.38 306.832 201.289L302.28 201.344C297.795 199.312 283.152 203.059 276.242 200.96L280.23 196.913C276.615 195.776 270.858 199.982 266.428 199.324C255.933 200.085 245.476 197.685 234.977 199.906C231.713 199.316 227.633 200.682 224.08 200.005C222.856 199.499 220.874 199.72 219.536 199.693L209.421 200.014L206.512 200.042C205.766 198.736 205.116 196.258 204.014 195.387C201.779 196.957 200.109 197.611 197.457 198.335L195.606 199.082L195.535 199.575L195.194 199.529C193.004 199.145 190.248 199.538 188.28 198.835L187.918 199.059C183.398 201.899 179.174 205.44 173.845 200.781L173.906 200.124C168.519 199.205 162.722 200.789 157.301 200.096L149.622 200.114L134.294 200.11L127.954 200.246L111.089 200.107L109.034 200.002C108.131 198.858 108.684 193.5 108.69 191.786L108.815 180.533L109.716 175.612C109.44 168.491 111.203 154.439 113.315 147.814L113.825 147.743C115.758 147.538 117.67 145.407 119.101 144.164C125.998 137.655 133.795 132.519 140.903 126.309L141.281 125.984C141.588 136.767 142.05 146.853 150.469 154.952C156.306 160.568 167.654 166.774 175.938 166.575C177.409 168.993 175.13 172.174 174.194 174.343L189.497 159.81C192.688 156.616 196.551 152.869 198.229 148.573C200.681 141.581 202.058 135.156 203.328 127.872C209.672 124.746 226.978 123.37 234.42 124.953C236.556 125.357 239.984 125.983 241.588 127.498C242.399 129.658 242.314 132.525 242.881 134.844C244.356 140.874 247.478 147.793 250.625 153.131C252.251 156.051 253.864 158.535 256.276 160.861L256.983 161.439C260.287 163.963 263.221 163.564 267.124 163.051C279.028 161.489 286.385 155.625 293.554 146.267L293.939 146.452C295.325 146.265 296.671 145.014 297.791 144.192L306.798 137.275C309.877 135 313.099 132.668 316.527 130.955L323.173 127.709C326.311 126.201 331.629 125.692 332.486 124.999ZM320.334 200.753L322.821 201.756C324.424 202.377 325.844 202 327.464 201.677C330.751 202.326 334.216 199.696 337.592 200.62C339.052 201.02 340.116 200.87 341.59 200.673L339.062 200.52C339.062 200.171 339.862 199.601 340.153 199.325C341.842 197.724 343.146 196.066 344.306 194.051L344.518 193.675L343.954 193.33C342.979 192.722 342.242 192.472 341.119 192.229C335.302 191.984 326.034 194.204 321.635 197.815C321.23 198.8 320.86 199.827 320.334 200.753ZM484.253 199.438C483.261 200.261 482.311 201.208 481.247 201.929C484.877 202.351 488.466 202.572 492.113 202.221C496.212 199.85 498.07 194.657 494.688 191.319C490.985 192.137 487.696 196.773 484.757 199.052L484.253 199.438ZM380.55 194.134C378.356 196.184 376.499 198.001 374.833 200.499L383.55 200.059L388.359 194.306C390.002 192.245 391.796 190.297 392.387 187.656L391.875 187.412C387.908 188.35 383.968 192.007 380.55 194.134ZM280.23 196.913L276.242 200.983C287.706 200.591 290.033 197.443 296.246 188.061L280.23 196.913ZM454.65 200.619C456.957 204.009 460.763 203.503 463.963 201.812C465.596 200.191 469.028 196.113 467.5 193.507L465.469 193.545C461.149 194.033 457.224 197.333 454.65 200.619ZM302.28 201.344L306.832 201.289C310.771 199.951 313.802 198.376 312.812 193.281C306.702 190.609 300.216 199.752 302.28 201.344ZM149.622 200.114L157.301 200.084C161.71 197.676 164.692 192.151 167.615 188.133C161.544 192.336 154.704 194.312 149.622 200.114ZM420.933 200.63L420.293 201.719C421.484 205.946 431.744 201.884 434.381 201.218L433.324 199.751C428.852 194.428 425.308 196.613 420.933 200.63ZM530.389 161.909L528.941 157.117C524.211 158.076 523.028 167.176 529.648 165.781C530.278 164.894 530.121 163.995 530.278 162.929L530.389 161.909ZM507.562 126.61C506.189 127.234 505.635 127.788 505.083 129.233L503.946 132.656C506.682 132.046 510.094 130.94 512.165 128.978C510.688 127.914 509.241 127.271 507.562 126.61Z"/>
	<path fill="#DAD2D0" transform="matrix(0.0375 0 0 0.0375 -7.62939e-06 1.90735e-06)" d="M155.415 185.156L156.118 185.781C154.842 187.338 153.59 188.066 151.719 188.764L150.689 188.594C151.954 187.079 153.722 186.127 155.415 185.156Z"/>
	<path fill="#4D4A49" transform="matrix(0.0375 0 0 0.0375 -7.62939e-06 1.90735e-06)" d="M192.355 196.339C195.673 194.841 196.082 194.412 197.457 198.335L195.606 199.082L195.528 198.528C194.707 197.489 193.327 197.333 192.355 196.339Z"/>
	<path fill="#332A2C" transform="matrix(0.0375 0 0 0.0375 -7.62939e-06 1.90735e-06)" d="M192.355 196.339C193.327 197.333 194.707 197.489 195.528 198.528L195.606 199.082L195.535 199.575L195.194 199.529C193.004 199.145 190.248 199.538 188.28 198.835L192.355 196.339Z"/>
	<path fill="white" transform="matrix(0.0375 0 0 0.0375 -7.62939e-06 1.90735e-06)" d="M358.435 173.906L362.734 173.71C358.775 175.263 354.881 177.021 350.6 177.371L346.411 176.995C350.589 174.52 353.644 174.158 358.435 173.906Z"/>
	<path fill="white" transform="matrix(0.0375 0 0 0.0375 -7.62939e-06 1.90735e-06)" d="M127.954 200.246L123.937 199.989C128.894 196.849 132.214 193.74 138.103 192.444C136.901 195.037 135.897 197.673 134.294 200.06L127.954 200.246Z"/>
	<path fill="white" transform="matrix(0.0375 0 0 0.0375 -7.62939e-06 1.90735e-06)" d="M204.014 195.387C207.364 192.109 211.593 189.285 215.781 192.705C215.991 195.5 211.906 199.116 209.421 199.994L206.512 200.042C205.766 198.736 205.116 196.258 204.014 195.387Z"/>
	<path fill="#DAD2D0" transform="matrix(0.0375 0 0 0.0375 -7.62939e-06 1.90735e-06)" d="M344.518 193.675C346.15 191.699 348.866 190.845 351.21 192.031C352.036 194.388 352.23 197.063 352.532 199.531L350.389 200.222L341.59 200.673L339.062 200.52C339.062 200.171 339.862 199.601 340.153 199.325C341.842 197.724 343.146 196.066 344.306 194.051L344.518 193.675Z"/>
	<path fill="white" transform="matrix(0.0375 0 0 0.0375 -7.62939e-06 1.90735e-06)" d="M109.716 175.612C111.073 174.584 131.433 166.321 132.661 166.007C126.808 170.861 117.809 178.565 110.141 180.338L109.266 180.533L109.716 175.612Z"/>
	<path fill="#DAD2D0" transform="matrix(0.0375 0 0 0.0375 -7.62939e-06 1.90735e-06)" d="M226.528 196.63C228.116 196.053 228.79 191.592 239.646 189.164C241.382 188.776 243.046 188.065 244.697 187.41L245.323 188.29C241.522 190.647 234.409 194.626 234.977 199.899C231.713 199.316 227.633 200.682 224.08 200.005L226.528 196.63Z"/>
	<path fill="white" transform="matrix(0.0375 0 0 0.0375 -7.62939e-06 1.90735e-06)" d="M108.69 191.786C109.436 190.551 109.575 190.615 110.981 190.148L123.625 185.408C121.575 190.106 117.558 196.497 113.281 199.628L111.089 199.966L109.034 200.002C108.131 198.858 108.684 193.5 108.69 191.786Z"/>
	<defs>
		<linearGradient id="gradient_0" gradientUnits="userSpaceOnUse" x1="334.94971" y1="202.39313" x2="339.05774" y2="191.61916">
			<stop offset="0" stop-color="#6E6969"/>
			<stop offset="1" stop-color="#83807F"/>
		</linearGradient>
	</defs>
	<path fill="url(#gradient_0)" transform="matrix(0.0375 0 0 0.0375 -7.62939e-06 1.90735e-06)" d="M341.119 192.229C342.242 192.472 342.979 192.722 343.954 193.33L344.518 193.675L344.306 194.051C343.146 196.066 341.842 197.724 340.153 199.325C339.862 199.601 339.062 200.171 339.062 200.52L341.59 200.673C340.116 200.87 339.052 201.02 337.592 200.62C334.216 199.696 330.751 202.326 327.464 201.677C332.39 199.619 336.418 195 341.119 192.229Z"/>
	<path fill="white" transform="matrix(0.0375 0 0 0.0375 -7.62939e-06 1.90735e-06)" d="M530.361 170.915C531.027 171.124 531.877 171.516 532.56 171.569L533.505 177.665L533.916 180.882C528.232 188.841 517.62 199.962 508.333 202.14L506.511 202.187C508.593 196.569 527.907 181.913 533.083 177.588C532.367 175.948 531.771 174.892 530.291 173.825L529.959 173.594C529.55 172.619 530.043 171.9 530.361 170.915Z"/>
	<path fill="white" transform="matrix(0.0375 0 0 0.0375 -7.62939e-06 1.90735e-06)" d="M255.529 181.893C261.533 180.273 269.369 184.053 273.365 188.654C271.937 191.575 269.357 194.091 266.196 195.103L265.364 195.321C260.899 191.591 261.523 188.924 254.01 186.52C250.553 186.455 248.421 186.763 245.323 188.29L244.697 187.41C248.434 185.77 251.667 183.335 255.529 181.893Z"/>
	<path fill="white" transform="matrix(0.0375 0 0 0.0375 -7.62939e-06 1.90735e-06)" d="M526.517 149.339L526.132 149.729C523.957 151.841 519.282 153.033 516.456 154.35C503.906 160.198 496.956 165.098 482.614 164.977C491.058 156.95 503.664 160.932 516.001 147.344C517.801 145.361 520.738 143.496 523.047 142.135L526.517 149.339Z"/>
	<path fill="white" transform="matrix(0.0375 0 0 0.0375 -7.62939e-06 1.90735e-06)" d="M234.42 124.953C236.556 125.357 239.984 125.983 241.588 127.498C241.109 130.673 235.992 132.696 233.557 134.234L222.429 141.251C215.888 145.293 209.055 150.803 201.719 153.255C200.624 152.977 199.986 152.49 199.097 151.817C202.441 147.393 209.221 145.522 213.751 142.342C221.1 137.182 226.813 129.543 234.42 124.953Z"/>
	<path fill="white" transform="matrix(0.0375 0 0 0.0375 -7.62939e-06 1.90735e-06)" d="M250.625 153.131C252.251 156.051 253.864 158.535 256.276 160.861C251.956 163.595 237.545 166.86 233.122 164.474C230.858 163.529 228.492 163.759 226.086 163.485L215.281 163.349C212.821 163.323 210.247 163.397 207.837 162.842L203.2 161.646C205.281 159.119 227.362 160.431 231.902 160.098L232.433 159.719C234.434 158.555 238.651 158.174 240.898 158.705L250.625 153.131Z"/>
	<path fill="#DAD2D0" transform="matrix(0.0375 0 0 0.0375 -7.62939e-06 1.90735e-06)" d="M226.086 163.485C227.611 163.35 229.199 163.591 230.717 163.365C232.387 163.117 233.865 161.704 235.515 162.223L233.122 164.474C230.858 163.529 228.492 163.759 226.086 163.485Z"/>
	<path fill="#DAD2D0" transform="matrix(0.0375 0 0 0.0375 -7.62939e-06 1.90735e-06)" d="M231.902 160.049L232.433 159.719C234.434 158.555 238.651 158.174 240.898 158.705L237.936 160.271C235.95 160.319 233.844 160.525 231.902 160.049Z"/>
	<path fill="white" transform="matrix(0.0375 0 0 0.0375 -7.62939e-06 1.90735e-06)" d="M429.804 131.069L429.647 132.969C417.823 143.944 401.5 153.364 385.535 156.941C391.19 151.51 398.266 147.817 404.645 143.321C409.883 139.629 423.504 127.755 429.695 127.069C429.717 128.351 429.596 129.815 429.804 131.069Z"/>
	<path fill="white" transform="matrix(0.0375 0 0 0.0375 -7.62939e-06 1.90735e-06)" d="M334.787 146.094L334.984 146.186C328.753 155.269 320.255 161.221 313.197 169.381L330.139 171.554C322.253 173.849 313.903 174.001 305.865 175.551C298.792 177.13 297.011 177.704 290.278 174.64C295.185 171.694 300.8 170.29 305.781 167.412C313.482 162.962 319.719 156.477 326.712 151.076C329.193 149.159 332.189 148.155 334.558 146.282L334.787 146.094Z"/>
	<path fill="white" transform="matrix(0.0375 0 0 0.0375 -7.62939e-06 1.90735e-06)" d="M311.748 491.406L312.344 491.694C309.638 493.363 307.84 496.188 304.897 497.656L304.475 497.246C306.678 494.875 309.099 493.215 311.748 491.406Z"/>
	<path fill="#411711" transform="matrix(0.0375 0 0 0.0375 -7.62939e-06 1.90735e-06)" d="M105.288 435.006C107.484 433.452 110.014 432.282 112.417 431.079L112.334 431.444C112.185 432.012 112.254 431.804 111.875 432.347L112.266 432.189C112.863 432.001 113.016 432.028 113.579 432.33L105.225 436.9C105.39 436.235 105.327 435.682 105.288 435.006Z"/>
	<path fill="#DAD2D0" transform="matrix(0.0375 0 0 0.0375 -7.62939e-06 1.90735e-06)" d="M438.033 512.032C439.53 511.138 440.889 511.085 442.5 510.847L450.338 509.531C453.942 508.837 457.38 507.202 460.938 506.573L460.938 506.822C457.687 508.185 452.863 509.25 450.149 511.419L449.896 512.211L438.033 512.032Z"/>
	<path fill="#784247" transform="matrix(0.0375 0 0 0.0375 -7.62939e-06 1.90735e-06)" d="M305.628 311.225C309.178 311.951 304.077 312.789 302.812 317.017L302.684 317.55C299.72 319.98 297.551 322.865 294.814 325.475C297.539 320.576 299.236 315.846 304.139 312.556C304.599 312.247 304.978 312.008 305.341 311.58L305.628 311.225Z"/>
	<path fill="#A79A92" transform="matrix(0.0375 0 0 0.0375 -7.62939e-06 1.90735e-06)" d="M511.733 376.591L487.056 392.344L510.565 375.751L511.733 376.591Z"/>
	<path fill="#DAD2D0" transform="matrix(0.0375 0 0 0.0375 -7.62939e-06 1.90735e-06)" d="M454.424 404.175L478.245 396.822C477.447 397.608 476.581 398.216 475.663 398.855C470.868 400.73 466.045 402.548 461.094 403.977L454.688 405.312C455.217 405.084 455.506 404.995 456.095 404.922L454.424 404.175Z"/>
	<path fill="#A79A92" transform="matrix(0.0375 0 0 0.0375 -7.62939e-06 1.90735e-06)" d="M105.36 485.765L105.806 489.362C110.263 485.756 124.786 478.204 130.938 475.589L131.455 475.693C130.998 476.601 109.957 489.305 105.52 490.219C105.207 488.816 105.357 487.203 105.36 485.765Z"/>
	<path fill="#A79A92" transform="matrix(0.0375 0 0 0.0375 -7.62939e-06 1.90735e-06)" d="M534.493 451.938C536.987 449.685 539.148 447.382 541.288 444.794C541.289 445.428 541.402 446.288 541.269 446.894C539.761 449.396 537.688 451.358 535.428 453.193C533.371 455.333 530.739 457.171 528.374 458.971L512.659 469.844L534.493 451.938Z"/>
	<path fill="#DAD2D0" transform="matrix(0.0375 0 0 0.0375 -7.62939e-06 1.90735e-06)" d="M408.296 511.253C409.453 510.217 411.494 510.332 412.988 510.103C418.953 509.188 424.36 505.818 429.685 503.191L440.199 498.318C441.2 497.834 444.654 495.818 445.466 496.094L423.293 508.077C420.878 509.151 413.955 510.829 414.094 511.504C412.139 511.515 410.237 511.529 408.296 511.253Z"/>
	<path fill="#784247" transform="matrix(0.0375 0 0 0.0375 -7.62939e-06 1.90735e-06)" d="M321.374 245.07C325.798 240.297 338.781 231.76 344.238 228.331L344.482 229.311L321.458 248.246L321.374 245.07Z"/>
	<path fill="#DAD2D0" transform="matrix(0.0375 0 0 0.0375 -7.62939e-06 1.90735e-06)" d="M240.836 511.879C241.564 511.243 242.677 511.155 243.566 510.806L261.759 501.44C264.886 499.647 268.17 497.489 271.556 496.249L271.87 496.758C270.736 497.863 269.114 498.685 267.775 499.531L258.125 505.291C254.922 507.21 251.796 509.64 248.436 511.248L248.649 511.955C247.313 512.704 242.341 512.019 240.836 511.879Z"/>
	<path fill="#825D8A" transform="matrix(0.0375 0 0 0.0375 -7.62939e-06 1.90735e-06)" d="M510.565 375.751L526.96 365.301C532.072 362.297 538.493 359.627 542.767 355.486L542.814 357.878C534.495 364.366 521.348 369.855 511.733 376.591L510.565 375.751Z"/>
	<path fill="#784247" transform="matrix(0.0375 0 0 0.0375 -7.62939e-06 1.90735e-06)" d="M112.417 431.079C113.695 429.92 115.425 429.167 116.928 428.329L135.783 417.001C140.942 413.78 146.358 410.221 151.875 407.644L152.112 407.804C151.324 408.656 150.19 409.266 149.222 409.902L117.57 430.031C116.396 430.731 114.848 431.909 113.579 432.33C113.016 432.028 112.863 432.001 112.266 432.189L111.875 432.347C112.254 431.804 112.185 432.012 112.334 431.444L112.417 431.079Z"/>
	<path fill="#825D8A" transform="matrix(0.0375 0 0 0.0375 -7.62939e-06 1.90735e-06)" d="M146.519 317.235C146.737 316.55 178.415 294.469 181.472 292.597C180.061 296.503 176.32 294.868 180 294.844L180.543 295.167L146.78 318.308C146.815 317.581 146.885 317.942 146.519 317.235Z"/>
	<path fill="#784247" transform="matrix(0.0375 0 0 0.0375 -7.62939e-06 1.90735e-06)" d="M146.519 317.235C146.885 317.942 146.815 317.581 146.78 318.308C134.996 325.418 120.138 339.612 107.832 344.11L107.852 342.505C109.537 342.061 111.544 340.492 113.073 339.577L146.519 317.235Z"/>
	<path fill="#332A2C" transform="matrix(0.0375 0 0 0.0375 -7.62939e-06 1.90735e-06)" d="M108.501 277.125L155.156 244.549L108.518 280.03L108.501 277.125Z"/>
	<path fill="#A79A92" transform="matrix(0.0375 0 0 0.0375 -7.62939e-06 1.90735e-06)" d="M140.141 510.267C156.179 508.269 189.26 479.66 193.123 480.939L193.213 481.406C187.241 484.943 181.136 488.372 175.482 492.41L158.438 504.67C156.822 505.784 149.89 509.808 149.219 510.487L151.269 510.929C147.691 511.139 143.765 510.413 140.141 510.267Z"/>
	<defs>
		<linearGradient id="gradient_1" gradientUnits="userSpaceOnUse" x1="532.6275" y1="404.74313" x2="525.33868" y2="398.17685">
			<stop offset="0" stop-color="#86497F"/>
			<stop offset="1" stop-color="#947097"/>
		</linearGradient>
	</defs>
	<path fill="url(#gradient_1)" transform="matrix(0.0375 0 0 0.0375 -7.62939e-06 1.90735e-06)" d="M543.468 391.284L543.261 394.318L492.347 424.219L534.808 397.028C537.646 395.381 540.656 393.766 543.126 391.59L543.468 391.284Z"/>
	<path fill="#7E6A88" transform="matrix(0.0375 0 0 0.0375 -7.62939e-06 1.90735e-06)" d="M181.472 292.597C184.935 289.535 189.39 286.956 193.244 284.38L250.156 244.004C249.958 244.787 248.493 245.667 247.844 246.174L219.082 268.232L180.543 295.167L180 294.844C176.32 294.868 180.061 296.503 181.472 292.597Z"/>
	<path fill="#DAD2D0" transform="matrix(0.0375 0 0 0.0375 -7.62939e-06 1.90735e-06)" d="M541.952 435.776C541.887 436.77 541.984 438.175 541.725 439.107C541.687 439.707 541.651 443.11 541.417 443.364C541.091 442.633 541.308 442.953 540.781 442.396L536.668 442.637C534.933 443.389 533.12 444.273 531.305 444.794L487.461 468.906C496.256 462.639 520.201 446.339 530.524 443.26C534.051 441.314 539.64 439.148 541.952 435.776Z"/>
	<path fill="#DAD2D0" transform="matrix(0.0375 0 0 0.0375 -7.62939e-06 1.90735e-06)" d="M542.514 422.363C542.395 426.598 542.607 431.192 541.999 435.367L541.719 432.856C540.293 432.287 538.07 434.295 536.824 435.087C534.41 436.621 523.068 440.125 519.425 441.042C524.033 434.723 540.508 427.789 542.514 422.363Z"/>
	<path fill="#332A2C" transform="matrix(0.0375 0 0 0.0375 -7.62939e-06 1.90735e-06)" d="M113.013 365.163C124.608 356.419 137.117 349.012 149.375 341.278L178.568 322.241C196.01 310.935 213.789 299.475 229.531 285.817L229.653 286.185C214.417 299.572 197.121 310.736 180.202 321.845L157.333 337.452C143.044 346.919 128.566 356.169 114.969 366.633L113.013 365.163Z"/>
	<path fill="#332A2C" transform="matrix(0.0375 0 0 0.0375 -7.62939e-06 1.90735e-06)" d="M446.663 213.282C447.791 213.59 448.404 213.6 448.241 214.917C448.151 215.115 447.237 215.703 447.048 215.845L412.804 239.686L356.228 276.094L446.663 213.282Z"/>
	<path fill="#332A2C" transform="matrix(0.0375 0 0 0.0375 -7.62939e-06 1.90735e-06)" d="M498.264 209.84C487.786 217.996 476.169 224.671 465.103 231.978L406.536 269.617L354.259 296.963C351.475 298.274 344.008 301.06 350.229 298.146L377.505 283.822C382.367 281.273 387.515 279.04 392.251 276.281L414.299 263.362L497.064 207.949C497.645 208.288 498.159 208.335 498.281 209.066L498.264 209.84Z"/>
	<path transform="matrix(0.0375 0 0 0.0375 -7.62939e-06 1.90735e-06)" d="M321.458 248.246C321.006 251.817 321.555 255.557 319.859 258.81C315.926 261.522 312.223 261.935 308.238 258.937C307.552 256.617 307.028 254.386 306.808 251.973C305.561 238.245 316.997 231.073 321.374 245.07L321.458 248.246Z"/>
	<path transform="matrix(0.0375 0 0 0.0375 -7.62939e-06 1.90735e-06)" d="M305.628 311.225L305.47 310.994C302.859 307.057 302.263 298.258 302.6 293.75L302.632 293.196C303.352 282.839 312.739 272.592 318.287 264.418C324.004 255.995 322.881 254.552 330.565 265.625L336.795 274.842C344.824 287.553 346.583 295.906 338.771 309.594C340.969 310.124 343.218 310.647 345.451 310.996C351.27 311.908 349.135 314.068 348.98 319.013C348.795 324.912 348.947 331.134 348.007 336.962C346.848 344.152 358.123 340.595 363.906 341.487L364.256 341.537C367.28 341.997 370.132 343.33 373.214 343.738C375.545 337.393 375.489 331.663 380.048 326.094C380.002 325.555 379.95 325.452 379.603 325.027C373.1 317.081 384.558 300.189 388.804 293.882C392.044 289.069 397.319 280.006 403.048 287.235L403.376 287.643C408.694 294.344 414.477 306.618 415.021 314.801L518.594 247.044L439.996 300.96L424.688 310.557C404.124 322.407 418.4 318.211 416.474 337.781C416.388 338.652 415.768 340.507 415.995 341.256C424.989 341.37 433.983 341.628 442.502 344.921C462.353 352.596 452.74 371.332 445.294 385.434C457.746 380.189 469.094 372.177 480.055 364.335L489.924 357.259C491.811 355.881 494.266 353.701 496.445 352.93L496.901 353.594C496.397 354.103 495.894 354.481 495.312 354.896C477.351 367.729 459.746 382.453 438.801 390.137L438.861 390.533C439.983 398.546 439.399 409.501 439.985 418.524L441.003 443.198C441.041 453.669 440.728 457.677 433.163 465.549C432.849 465.875 432.056 466.528 431.972 466.929C438.22 465.415 443.322 463.319 448.594 459.599L448.711 459.9C429.838 474.301 425.364 467.25 407.728 468.679C400.043 469.302 396.056 471.399 387.14 471.214L377.692 470.765C362.975 469.561 364.822 473.38 352.344 480.073L352.208 479.786C354.996 477.973 359.864 473.68 361.85 472.805L334.415 472.786C328.977 472.808 323.156 472.461 317.787 473.408C307.312 475.255 294.41 483.34 285.406 488.671L271.87 496.758L271.556 496.249C274.514 495.12 277.732 492.587 280.462 490.883L305.979 474.501L291.016 475.735C283.534 476.504 276.599 477.295 270.012 481.208C271.899 478.818 275.222 477.441 278.009 476.478C266.728 475.283 263.302 475.505 252.148 476.43C235.398 477.818 208.37 477.909 205.032 457.07C204.146 451.542 205.105 445.338 205.148 439.742L204.958 405.145C204.911 401.943 203.878 395.849 204.225 393.187L204.265 392.916C195.528 390.092 192.035 379.426 192.124 371.089C192.303 354.311 203.445 340.024 220.936 340.721C223.422 340.82 225.968 341.318 228.454 341.574L228.444 341.317C228.243 334.443 229.944 331.385 234.523 326.534C229.558 322.615 228.949 318.265 230.76 312.097L230.921 311.562C232.79 305.133 236.887 300.294 240.495 294.783C242.9 291.111 246.227 282.382 251.875 284.678C255.723 286.243 256.855 290.736 260.041 292.68L299.834 266.094L260.382 293.382C263.868 298.287 267.165 303.534 268.809 309.385L269.066 310.312C271.183 316.777 267.297 320.341 269.876 326.361C271.785 330.815 272.248 335.478 272.55 340.266L300.412 341L302.684 317.55L302.812 317.017C304.077 312.789 309.178 311.951 305.628 311.225ZM252.226 330.359C245.756 331.825 244.518 333.723 244.762 340L245.247 340.733C246.429 340.937 247.469 340.968 248.665 340.89C251.205 340.212 253.46 339.411 255.781 338.157C257.44 335.265 255.944 330.327 252.226 330.359Z"/>
	<path fill="#FDBE47" transform="matrix(0.0375 0 0 0.0375 -7.62939e-06 1.90735e-06)" d="M320.491 281.762C323.895 275.925 323.616 276.408 326.81 281.615C324.31 281.073 322.997 281.057 320.491 281.762Z"/>
	<path fill="#411711" transform="matrix(0.0375 0 0 0.0375 -7.62939e-06 1.90735e-06)" d="M330.268 304.531L330.926 304.702C329.077 307.453 323.666 307.453 320.781 308.118L308.594 311.51L307.99 311.437C309.819 309.665 314.241 308.091 316.674 307.484L330.268 304.531Z"/>
	<path fill="#FDBE47" transform="matrix(0.0375 0 0 0.0375 -7.62939e-06 1.90735e-06)" d="M397.929 302.07C402.94 307.109 404.34 315.002 396.689 317.593C386.748 319.292 394.826 305.214 397.929 302.07Z"/>
	<path fill="#DAD2D0" transform="matrix(0.0375 0 0 0.0375 -7.62939e-06 1.90735e-06)" d="M401.616 328.534C405.871 328.541 400.155 341.303 392.344 344.198L391.558 344.083C390.629 340.057 391.014 335.31 390.981 331.188C394.196 329.738 398.127 329.086 401.616 328.534Z"/>
	<path fill="#FDBE47" transform="matrix(0.0375 0 0 0.0375 -7.62939e-06 1.90735e-06)" d="M251.542 301.093C255.551 305.025 256.591 310.337 254.759 315.603C252.868 317.406 251.008 317.809 248.55 318.395L247.969 318.4C240.103 316.975 246.728 304.798 251.542 301.093Z"/>
	<path fill="#FFDD49" transform="matrix(0.0375 0 0 0.0375 -7.62939e-06 1.90735e-06)" d="M320.491 281.762C322.997 281.057 324.31 281.073 326.81 281.615L328.261 284.293C332.797 293.216 327.851 302.83 319.375 299.057C313.907 296.623 318.789 285.131 320.491 281.762Z"/>
	<path fill="#FFDD49" transform="matrix(0.0375 0 0 0.0375 -7.62939e-06 1.90735e-06)" d="M333.916 322.042L336.848 321.554L333.993 329.297C330.704 338.083 329.115 336.363 319.754 338.089L317.16 338.551L317.278 323.586L318.264 323.353C320.802 322.582 331.109 321.282 333.916 322.042Z"/>
	<path fill="#DAD2D0" transform="matrix(0.0375 0 0 0.0375 -7.62939e-06 1.90735e-06)" d="M426.454 352.624C436.737 350.35 436.291 351.77 436.336 362.061C436.369 369.642 438.883 378.387 431.021 380.684C420.723 383.692 408.476 381.493 397.99 380L398.165 379.783C400.104 376.61 402.44 374.81 405.382 372.58L418.76 363.197C421.75 360.946 428.072 356.616 428.595 352.891C427.822 352.918 427.204 352.779 426.454 352.624Z"/>
	<path fill="#DAD2D0" transform="matrix(0.0375 0 0 0.0375 -7.62939e-06 1.90735e-06)" d="M391.472 379.824L391.249 379.898C387.019 380.907 382.414 377.122 378.5 378.137C366.993 381.121 359.711 377.254 352.646 378.588C345.411 379.954 342.11 384.234 334.375 381.506C325.359 378.325 312.169 380.829 302.362 380.059C286.969 378.85 272.743 373.214 257.264 377.576C240.05 382.427 235.903 381.211 219.844 380.281L211.698 379.983C210.028 379.917 208.327 379.993 206.737 379.433C204.941 366.726 207.737 347.485 224.702 350.566C223.489 352.489 219.644 358.572 219.464 360.781C222.57 355.935 233.779 351.162 237.012 358.281L236.094 359.95C237.59 359.814 243.625 359.198 244.524 357.969C244.759 357.648 244.677 356.872 244.907 356.54C246.359 354.445 253.561 354.001 253.866 356.871L253.906 357.419C258.489 355.5 263.548 352.867 268.635 352.754C275.108 352.61 280.567 350.202 287.092 350.204C287.66 350.781 287.409 353.034 287.42 353.921L312.524 353.219C315.37 353.55 318.626 353.315 321.386 353.974C324.59 353.71 342.999 350.709 341.285 357.374L342.116 357.031C344.479 355.724 347.503 355.574 350.163 355.161C357.137 353.756 359.282 354.996 364.748 354.64C368.064 354.424 372.696 352.971 375.936 353.608C377.849 353.983 379.689 355.907 381.835 356.331C384.395 356.836 387.431 356.262 390.054 356.218L400.897 356.117C403.283 356.095 405.746 356.182 408.086 355.646L425.977 352.694L426.454 352.624C427.204 352.779 427.822 352.918 428.595 352.891C428.072 356.616 421.75 360.946 418.76 363.197L405.382 372.58C402.44 374.81 400.104 376.61 398.165 379.783L397.99 380L391.472 379.824Z"/>
	<path fill="#4D4A49" transform="matrix(0.0375 0 0 0.0375 -7.62939e-06 1.90735e-06)" d="M312.524 353.222C315.37 353.55 318.626 353.315 321.386 353.974C317.104 355.675 313.411 356.352 308.898 356.606C309.988 355.326 311.24 354.295 312.524 353.222Z"/>
	<path fill="#A79A92" transform="matrix(0.0375 0 0 0.0375 -7.62939e-06 1.90735e-06)" d="M341.285 357.374L342.116 357.031C344.479 355.724 347.503 355.574 350.163 355.161C348.473 359.871 342.695 361.16 338.338 361.395L340.667 357.987C340.987 357.568 340.86 357.712 341.285 357.374Z"/>
	<path fill="#A79A92" transform="matrix(0.0375 0 0 0.0375 -7.62939e-06 1.90735e-06)" d="M425.977 352.694L426.454 352.624C427.204 352.779 427.822 352.918 428.595 352.891C428.072 356.616 421.75 360.946 418.76 363.197L405.382 372.58C402.44 374.81 400.104 376.61 398.165 379.783L397.99 380L391.472 379.824C393.225 378.699 394.634 376.146 396.034 374.582C404.165 365.507 422.484 358.686 426.523 353.13L425.977 352.694Z"/>
	<path fill="#DAD2D0" transform="matrix(0.0375 0 0 0.0375 -7.62939e-06 1.90735e-06)" d="M422.394 447.081C421.11 463.651 415.602 460.448 402.241 462.94C391.829 464.882 380.488 462.576 370.001 462.443L358.764 462.316C352.127 462.259 349.835 464.978 344.062 465.103L328.913 465.173C321.464 465.183 321.469 465.271 314.531 463.666C308.66 462.308 303.912 466.303 298.372 466.351C296.049 466.372 295.715 464.274 293.061 465.33C290.436 466.373 288.193 468.187 285.498 469.187C277.379 472.198 256.964 470.085 248.486 469.263C239.364 468.378 225.418 467.882 221.777 457.747L221.579 457.188C219.525 451.57 218.821 432.53 220.538 426.197C229.286 425.858 237.742 428.02 246.149 424.568C254.499 421.139 253.417 422.897 262.188 424.57C271.408 426.329 278.512 425.808 287.595 424.195L287.294 427.857C297.352 426.667 306.836 423.431 317.042 422.818C319.084 433.118 328.55 425.484 335.01 424.777C339.738 424.26 344.772 424.436 349.541 424.244C347.713 425.826 346.347 428.857 344.778 430.834C353.488 429.205 359.401 427.141 367.573 423.874C372.316 430.666 381.272 430.613 387.5 425.891C393.573 421.285 391.367 421.165 398.633 424.193C401.908 425.557 405.25 426.507 408.678 427.402C423.59 423.067 425.524 409.037 401.898 417.258C399.943 417.938 397.805 418.492 395.983 419.459L395.364 419.779C394.28 420.16 394.068 419.859 393.125 419.374L392.773 419.688C393.171 420.236 393.413 420.791 393.689 421.406L392.839 420.938C389.737 415.923 373.959 418.516 367.907 418.334C364.562 418.233 361.418 416.072 357.969 415.999L326.403 416.123C322.045 416.297 318.032 417.266 313.608 417.131C307.792 416.954 301.794 414.684 296.094 414.996C292.796 415.177 289.734 416.76 286.472 417.108C280.323 417.765 273.84 417.053 267.618 417.449L256.203 418.664C253.187 419.043 252.578 419.662 250.098 418.019C242.37 412.899 229.483 418.953 221.271 420.002C220.348 415.314 220.328 410.19 221.052 405.475C223.388 403.653 225.92 402.716 228.268 401.1C226.275 401.608 224.039 402.112 222.172 402.964L221.882 388.864L232.031 390.221C239.899 390.958 247.985 389.609 255.625 387.789L265.82 385.158C269.018 384.377 270.234 383.354 271.213 387.043L271.327 387.485C277.392 387.984 283.505 387.167 289.554 387.96C288.847 391.961 286.17 394.142 283.228 396.531C290.695 393.029 308.979 385.713 315.522 390.409L314.469 391.805C317.133 391.999 320.751 391.335 323.426 390.953L333.594 388.981C340.83 387.644 336.2 390.776 344.546 390.135L369.807 388.541L369.022 390.469C368.32 392.17 367.381 393.309 366.188 394.677C369.921 393.501 373.888 392.958 377.689 392.025C381 391.212 396.311 385.292 398.469 389.844L397.874 391.316L398.144 391.312C399.825 391.267 401.366 391.25 403.052 391.375L402.624 392.318C408.834 389.316 417.964 389.081 424.893 389.105C424.692 392.019 424.066 394.885 423.932 397.784L423.805 428.886L422.774 442.423C422.689 443.532 422.828 446.196 422.394 447.081Z"/>
	<path fill="#A79A92" transform="matrix(0.0375 0 0 0.0375 -7.62939e-06 1.90735e-06)" d="M397.122 391.55L397.874 391.316L398.144 391.312C399.825 391.267 401.366 391.25 403.052 391.375L402.624 392.318L399.751 394.646C394.448 399.803 388.37 402.76 381.962 406.214C387.192 401.608 391.579 395.647 397.122 391.55Z"/>
	<path fill="#A79A92" transform="matrix(0.0375 0 0 0.0375 -7.62939e-06 1.90735e-06)" d="M422.394 447.081L421.403 447.088C420.539 447.786 411.157 459.822 411.518 449.513C411.714 443.937 415.867 430.561 423.125 430.975C423.517 430.352 423.602 429.599 423.765 428.886L422.774 442.423C422.689 443.532 422.828 446.196 422.394 447.081Z"/>
</svg>
