<?xml version="1.0" encoding="utf-8" ?>
<svg xmlns="http://www.w3.org/2000/svg" xmlns:xlink="http://www.w3.org/1999/xlink" width="24" height="24">
	<path fill="#5D5857" transform="scale(0.0375 0.0375)" d="M247.435 95.4055C250.854 93.9073 254.989 93.1129 258.629 92.2846L291.406 87.1424C292.986 86.9592 294.495 86.4897 296.094 86.3628L305.263 85.918C309.36 85.5745 313.339 84.8451 317.472 84.7359L334.8 84.7516C337.823 84.765 340.887 84.9039 343.896 84.565C343.731 86.1785 343.643 86.8955 344.59 88.2478C343.649 88.4218 342.814 88.582 341.936 88.9877L341.178 88.6484C339.634 88.2325 338.048 87.9553 336.468 87.6629L336.188 87.6069C329.229 87.0771 328.625 86.5179 321.012 87.3283C317.737 87.1744 314.218 86.9092 310.977 87.2934C308.758 87.5564 306.796 88.6689 304.508 88.4244C296.183 88.5713 286.917 89.4264 279.08 92.4031C276.422 92.088 273.572 92.5682 270.982 93.182L270.834 93.3228C262.899 94.7194 257.228 96.2626 249.715 97.9929L249.578 97.5853C250.191 97.1759 250.646 96.9159 251.365 96.7329L252.031 96.5625C253.514 95.9583 255.291 95.96 256.577 95.3913L257.344 95.3125C258.288 94.5284 262.56 94.0484 263.975 93.9329L264.375 93.9094C265.042 93.465 265.473 93.5969 266.25 93.5969L266.719 93.2844C267.944 93.3132 272.894 92.8338 269.16 92.28C268.823 91.6469 268.743 91.3883 268.12 90.9972L250.483 95.1389C249.605 95.4512 248.993 95.7946 248.036 95.5684L247.435 95.4055Z"/>
	<path fill="#5D5857" transform="scale(0.0375 0.0375)" d="M419.979 525.447L420.713 525.245L420.532 525.46C418.643 527.537 414.798 528.762 412.256 530.068C413.038 530.804 413.889 531.724 415 531.719L416.25 531.097C417.105 530.881 417.924 530.511 418.75 530.236L419.141 530.002C419.556 529.765 419.856 529.687 420.312 529.534L420.703 529.377C421.336 529.166 421.187 529.222 421.875 529.219L424.027 529.437C419.798 529.888 415.166 532.402 411.133 533.881L395.411 539.167C371.438 546.394 332.456 551.659 306.81 549.447L319.484 548.687C319.618 548.202 319.702 547.837 319.96 547.395L320.156 547.087C317.899 547.115 315.45 547.326 313.322 546.47L312.982 546.319C316.982 546.58 321.495 546.135 325.537 546.047L339.072 546.092C341.036 546.049 343.337 546.167 345.225 545.594C369.85 545.801 396.326 537.604 417.94 526.528L419.979 525.447Z"/>
	<defs>
		<linearGradient id="gradient_0" gradientUnits="userSpaceOnUse" x1="201.30298" y1="496.20319" x2="254.25133" y2="586.80762">
			<stop offset="0" stop-color="#252424"/>
			<stop offset="1" stop-color="#4D494A"/>
		</linearGradient>
	</defs>
	<path fill="url(#gradient_0)" transform="scale(0.0375 0.0375)" d="M141.016 533.565L142.899 534.183C153.096 539.727 185.867 495.381 198.404 501.367C199.311 502.596 201.441 505.06 201.253 506.571C202.383 507.946 203.589 509.123 204.895 510.326C208.705 512.397 214.739 517.388 217.623 520.928C219.3 522.571 221.486 523.682 223.469 524.917C227.236 527.572 231.84 530.176 236.304 531.432L242.854 533.961C246.985 536.271 251.054 537.68 255.55 539.125L270.273 542.767C273.094 543.097 276.563 544.06 279.363 543.712L291.82 544.76C298.491 545.316 304.874 546.339 311.612 546.149L312.982 546.268L313.322 546.47C315.45 547.326 317.899 547.115 320.156 547.087L319.96 547.395C319.702 547.837 319.618 548.202 319.484 548.687L306.81 549.493C261.245 547.722 227.453 542.138 191.857 512.876C179.547 521.269 159.783 546.84 142.554 543.852L142.188 543.784C136.348 542.886 132.604 534.82 141.016 533.565Z"/>
	<path fill="#2B2929" transform="scale(0.0375 0.0375)" d="M343.896 84.565C350.149 83.1135 364.843 85.1431 372.053 86.8201L388.529 90.1415C393.33 91.2873 398.156 93.0177 402.833 94.5858L420.045 100.634C437.371 107.366 456.528 119.047 471.346 130.609L488.124 145.077C501.522 156.957 507.301 163.561 517.986 178.123C522.674 184.51 528.324 188.462 528.511 197.031L527.936 198.027L529.219 197.726C531.469 198.63 546.394 225.496 545.088 230.809C545.671 230.571 546.674 229.961 547.261 230.13L555.944 263.906C557.38 269.992 558.253 276.099 559.162 282.273L561.039 295.405C563.119 315.306 560.508 342.996 556.474 362.125L551.877 382.031C534.913 442.441 495.701 489.108 442.189 520.583L432.785 525.831C430.588 527.075 426.774 530.357 424.136 529.61L424.027 529.437L421.875 529.219C421.187 529.222 421.336 529.166 420.703 529.377L420.312 529.534C419.856 529.687 419.556 529.765 419.141 530.002L418.75 530.236C417.924 530.511 417.105 530.881 416.25 531.097L415 531.719C413.889 531.724 413.038 530.804 412.256 530.068C414.798 528.762 418.643 527.537 420.532 525.46L420.713 525.245L426.465 522.688L430.589 520.443L430.669 520.41C449.299 510.084 479.63 481.39 492.351 465.531C499.154 457.05 515.249 435.018 517.086 425.991C518.86 417.277 522.796 419.073 524.117 414.509C525.447 409.917 528.082 405.967 529.28 401.224C530.889 398.771 532.905 395.126 533.441 392.222L532.659 391.406C532.514 389.782 533.02 390.541 533.906 389.401C535.847 386.905 538.53 371.386 539.465 367.593C540.923 364.755 541.532 362.614 541.968 359.445C542.651 353.751 543.331 347.995 544.888 342.46C545.831 340.641 545.77 337.223 545.963 335.175L546.368 320.227L546.364 312.413L545.73 296.094C545.584 294.1 545.71 292.257 545.344 290.262C545.325 288.174 544.956 286.195 544.586 284.148L541.786 271.338L540.829 266.779C540.939 266.066 540.345 264.25 540.186 263.484L538.349 253.878C539.22 251.136 537.995 248.486 537.184 245.858C536.127 243.526 535.895 239.965 536.668 237.55C538.509 235.97 540.027 233.54 542.106 232.293L528.161 232.14C527.643 231.734 527.168 230.699 526.625 230.163L526.55 227.819L525.072 226.812C524.717 224.954 526.226 222.765 527.097 221.151L524.865 215.553L521.431 210.116L516.855 202.478C516.016 201.129 514.197 198.939 514.073 197.389L513.85 197.063C513.127 196.074 512.863 195.67 512.726 194.421C510.938 191.939 511.75 192.446 510.587 190.156C509.933 188.867 508.995 187.726 508.032 186.659L504.435 182.241L500.335 177.395C498.289 175.375 496.315 173.292 494.66 170.934C493.041 168.217 490.992 165.42 488.579 163.36L485.714 160.443C484.426 157.837 478.172 152.601 475.934 150.833L470.966 146.661C469.194 144.546 467.032 142.606 464.822 140.96C463.344 140.069 462.223 138.914 461.015 137.703C458.968 135.682 456.796 133.53 454.338 132.015L447.255 126.903C444.12 125.726 440.9 122.549 438.054 120.663L433.433 117.74C430.678 114.271 424.209 111.346 420.308 109.608L412.134 105.984L402.476 102.265L395.926 100.092C390.684 96.5851 376.671 92.5889 369.929 92.4776C368.012 91.9218 365.881 91.0279 363.897 90.9877C360.596 89.5826 356.387 88.9388 352.826 88.4514L349.624 88.0716C347.76 87.7168 346.433 87.7679 344.59 88.2478C343.643 86.8955 343.731 86.1785 343.896 84.565Z"/>
	<path fill="#DAD2D0" transform="scale(0.0375 0.0375)" d="M526.55 227.819L525.072 226.812C524.717 224.954 526.226 222.765 527.097 221.151L528.367 225.988L529.317 231.25C528.863 231.851 528.494 231.471 528.161 232.135C527.643 231.734 527.168 230.699 526.625 230.163L526.55 227.819Z"/>
	<path fill="#2B2929" transform="scale(0.0375 0.0375)" d="M247.435 95.4055L248.036 95.5684C248.993 95.7946 249.605 95.4512 250.483 95.1389L268.12 90.9972C268.743 91.3883 268.823 91.6469 269.16 92.28C272.894 92.8338 267.944 93.3132 266.719 93.2844L266.25 93.5969C265.473 93.5969 265.042 93.465 264.375 93.9094L263.975 93.9329C262.56 94.0484 258.288 94.5284 257.344 95.3125L256.577 95.3913C255.291 95.96 253.514 95.9583 252.031 96.5625L251.365 96.7329C250.646 96.9159 250.191 97.1759 249.578 97.5853L249.715 97.9929L243.734 101.992C236.403 104.952 229.031 107.569 222.213 111.637L221.787 111.932C218.978 113.861 215.843 115.186 212.946 116.971L194.649 129.399C188.003 134.265 181.925 138.806 176.79 145.336C173.912 149.192 170.78 150.153 166.987 152.876L166.218 153.491C163.106 155.935 160.506 158.838 157.775 161.683L151.294 168.312C150.025 169.748 148.894 172.046 147.551 173.195C145.371 175.315 144.853 176.877 143.555 179.573L143.569 179.602L137.976 187.228L138.663 192.014L138.538 192.357C137.382 192.444 136.055 192.432 134.942 192.758L133.85 192.458C129.559 197.769 109.711 227.892 109.528 234.907L106.704 241.934C105.498 244.274 104.885 246.997 104.29 249.55L101.402 259.781C100.468 262.255 99.7359 265.043 99.5426 267.692L97.6206 277.834C97.0105 281.115 96.1122 285.201 96.319 288.496C95.6873 291.313 94.2207 294.485 93.9677 297.284C94.3889 298.478 94.0779 299.992 94.0598 301.25L94.055 310.251C94.0648 311.568 94.2829 313.428 93.9907 314.675L94.8491 326.182C95.0304 328.522 95.3839 331.004 95.2825 333.345L96.3668 342.291L98.9166 355.493L100.409 361.957L104.494 377.834L106.75 384.332L110.295 393.106C110.63 393.797 111.021 394.49 111.263 395.218L117.286 410.027L121.136 416.376L127.182 426.211L129.128 428.702C129.863 429.922 134.585 437.875 135.355 438.194L138.514 442.628C140.161 445.915 142.888 449.553 145.393 452.249L149.17 456.863L157.497 468.458L158.437 470.336L160.264 478.985L160.367 482.417L160.24 493.059C160.204 495.156 159.956 497.434 160.198 499.509L159.146 502.576C156.987 511.55 154.852 524.586 148.086 531.237C147.688 531.628 147.807 531.434 147.643 531.832C138.06 528.613 132.947 522.007 138.729 512.964C143.146 506.054 143.596 498.448 145.74 490.732L147.476 484.887C148.456 481.894 147.965 481.987 146.035 479.276L131.693 461.113C100.301 418.965 84.1732 388.335 79.724 335.292L78.4123 308.536C78.4108 306.14 77.8544 300.582 79.305 298.753C80.3812 297.395 79.5453 293.418 79.5654 291.645C80.047 249.155 104.434 205.395 132.054 173.718C162.778 138.481 201.794 107.838 247.435 95.4055Z"/>
	<path fill="#DAD2D0" transform="scale(0.0375 0.0375)" d="M133.85 192.458L137.976 187.228L138.663 192.014L138.538 192.357C137.382 192.444 136.055 192.432 134.942 192.758L133.85 192.458Z"/>
	<path fill="#A79A92" transform="scale(0.0375 0.0375)" d="M321.012 87.2197C328.625 86.5179 329.229 87.0771 336.188 87.6069L336.468 87.6629C338.048 87.9553 339.634 88.2325 341.178 88.6484L341.936 88.9877C342.814 88.582 343.649 88.4218 344.59 88.2478C346.433 87.7679 347.76 87.7168 349.624 88.0716L352.826 88.4514C356.387 88.9388 360.596 89.5826 363.897 90.9877C365.881 91.0279 368.012 91.9218 369.929 92.4776C376.671 92.5889 390.684 96.5851 395.926 100.092L402.476 102.265L412.134 105.984L420.308 109.608C424.209 111.346 430.678 114.271 433.433 117.74C423.106 120.829 408.967 131.171 399.656 136.82L377.654 148.97C375.055 150.361 366.258 154.099 365.021 156.241C363.943 156.33 362.844 155.973 361.78 155.804C354.709 154.676 347.702 155 340.566 155.015L327.091 156.051L293.892 157.48L288.308 158.358L290.368 156.519C291.264 154.262 293.865 153.258 295.472 151.562L295.002 151.472C293.612 152.497 291.359 154.527 289.677 154.769L289.062 154.835C284.581 156.895 280.251 157.662 275.548 158.962C269.369 161.378 264.918 165.46 260.239 170.043C258.153 172.49 256.844 175.382 254.844 177.754C252.571 180.449 249.899 182.423 247.754 185.34C245.622 194.708 251.409 198.229 248.81 210.446L248.631 204.813C248.312 204.034 248.215 203.359 247.5 202.881C240.582 206.104 235.347 212.513 228.509 216.119C223.936 218.027 209.626 230.017 207.287 235.195L206.858 236.396C192.612 239.009 188.654 240.726 176.485 246.629C174.731 247.869 173.21 249.262 171.654 250.737L141.253 267.105C130.173 272.748 119.038 279.035 108.643 285.863C103.387 289.315 99.0049 293.587 93.9677 297.284C94.2207 294.485 95.6873 291.313 96.319 288.496C96.1122 285.201 97.0105 281.115 97.6206 277.834L99.5426 267.692C99.7359 265.043 100.468 262.255 101.402 259.781L104.29 249.55C104.885 246.997 105.498 244.274 106.704 241.934L109.528 234.907C109.711 227.892 129.559 197.769 133.85 192.458L134.942 192.758C136.055 192.432 137.382 192.444 138.538 192.357L138.663 192.014L137.976 187.228L143.569 179.602L143.555 179.573C144.853 176.877 145.371 175.315 147.551 173.195C148.894 172.046 150.025 169.748 151.294 168.312L157.775 161.683C160.506 158.838 163.106 155.935 166.218 153.491L166.987 152.876C170.78 150.153 173.912 149.192 176.79 145.336C181.925 138.806 188.003 134.265 194.649 129.399L212.946 116.971C215.843 115.186 218.978 113.861 221.787 111.932L222.213 111.637C229.031 107.569 236.403 104.952 243.734 101.992L249.715 97.9929C257.228 96.2626 262.899 94.7194 270.834 93.3228L270.982 93.182C273.572 92.5682 276.422 92.088 279.08 92.4031C286.917 89.4264 296.183 88.5713 304.508 88.4389C306.796 88.6689 308.758 87.5564 310.977 87.2934C314.218 86.9092 317.737 87.1744 321.012 87.2197ZM321.012 87.2197C317.737 87.1744 314.218 86.9092 310.977 87.2934C308.758 87.5564 306.796 88.6689 304.508 88.4389C296.183 88.5713 286.917 89.4264 279.08 92.4031C276.422 92.088 273.572 92.5682 270.982 93.182L270.834 93.3228C262.899 94.7194 257.228 96.2626 249.715 97.9929L243.734 101.992C236.403 104.952 229.031 107.569 222.213 111.637L221.787 111.932C218.978 113.861 215.843 115.186 212.946 116.971L194.649 129.399C188.003 134.265 181.925 138.806 176.79 145.336C173.912 149.192 170.78 150.153 166.987 152.876L166.218 153.491C163.106 155.935 160.506 158.838 157.775 161.683L151.294 168.312C150.025 169.748 148.894 172.046 147.551 173.195C148.457 173.4 151.675 173.841 152.151 174.526C155.606 175.504 156.691 175.381 156.167 179.114C156.64 180.436 157.623 181.403 158.526 182.453L158.57 182.479C161.089 180.02 164.368 174.792 167.472 173.812C171.814 172.441 175.016 169.393 179.661 168.877C183.526 166.152 187.511 164.264 192.14 163.238C193.075 162.678 194.238 162.528 195.286 162.257L201.329 160.859C212.114 157.901 218.033 154.425 227.656 148.764L313.321 99.7279C315.815 98.3886 318.287 96.8654 320.885 95.7449C324.164 93.5938 328.702 90.9884 332.485 90.0275L336.188 87.6069C329.229 87.0771 328.625 86.5179 321.012 87.2197ZM352.826 88.4514L350.942 89.5682L344.514 93.9024L343.869 94.5629L343.819 97.4937C344.432 97.7665 345.025 98.0201 345.6 98.3682C343.46 99.2362 342.329 101.134 340.984 102.912C342.384 103.337 343.734 103.739 345.183 103.971C347.007 104.37 349.547 104.057 351.387 103.784C359.128 103.941 366.168 97.4009 372.031 93.0472C371.338 92.5838 370.737 92.5845 369.929 92.4776C368.012 91.9218 365.881 91.0279 363.897 90.9877C360.596 89.5826 356.387 88.9388 352.826 88.4514Z"/>
	<path fill="#DAD2D0" transform="scale(0.0375 0.0375)" d="M343.869 94.5629L343.819 97.4937C344.432 97.7665 345.025 98.0201 345.6 98.3682C343.46 99.2362 342.329 101.134 340.984 102.912C342.384 103.337 343.734 103.739 345.183 103.971C341.718 105.544 338.982 102.791 335.796 103.839L333.315 102.57C330.769 101.338 328.004 100.747 325.276 100.058C326.845 99.0305 328.578 97.67 330.356 97.0882L335.471 98.7866C337.848 98.4387 339.117 97.8627 341.114 96.5497C341.899 95.6367 342.831 95.1522 343.869 94.5629Z"/>
	<path fill="white" transform="scale(0.0375 0.0375)" d="M344.59 88.2478C346.433 87.7679 347.76 87.7168 349.624 88.0716L352.826 88.4514L350.942 89.5682L344.514 93.9024L343.869 94.5629C342.831 95.1522 341.899 95.6367 341.114 96.5497C339.117 97.8627 337.848 98.4387 335.471 98.7866L330.356 97.0882L331.333 96.2365L341.936 88.9877C342.814 88.582 343.649 88.4218 344.59 88.2478Z"/>
	<path fill="#DAD2D0" transform="scale(0.0375 0.0375)" d="M344.514 93.9024L344.732 93.1934C345.438 90.3946 348.325 89.4387 350.942 89.5682L344.514 93.9024Z"/>
	<path fill="#DAD2D0" transform="scale(0.0375 0.0375)" d="M192.14 163.238C193.075 162.678 194.238 162.528 195.286 162.257L201.329 160.859L200.469 161.722C201.651 162.637 202.215 163.417 202.866 164.758L204.149 165.936C204.232 168.437 201.518 171.97 199.844 173.772L195.494 177.722L194.002 172.197C193.806 171.358 193.932 170.489 193.812 169.645C193.763 168.426 193.488 167.208 193.274 166.009C192.979 165.786 192.319 163.693 192.14 163.238Z"/>
	<path fill="white" transform="scale(0.0375 0.0375)" d="M104.29 249.55C114.41 247.661 123.52 240.216 131.861 234.514L147.797 223.785C152.592 220.471 157.215 216.992 162.278 214.088C160.777 215.853 158.899 217.244 157.12 218.716L109.627 253.887C107.297 255.553 103.343 257.694 101.884 260.074L101.402 259.781L104.29 249.55Z"/>
	<path fill="white" transform="scale(0.0375 0.0375)" d="M163.686 202.35L163.867 202.969C162.812 204.384 161.13 205.284 159.688 206.269L146.558 214.356C138.288 219.825 129.653 225.396 121.796 231.419L112.961 237.824C110.983 239.28 109.241 241.542 106.704 241.934L109.528 234.907C113.537 231.419 117.864 228.689 122.13 225.543L136.336 215.094C142.489 211.024 149.046 207.62 155.912 204.935L163.686 202.35Z"/>
	<path fill="white" transform="scale(0.0375 0.0375)" d="M345.6 98.3682L351.897 99.9209C352.236 99.9744 352.112 99.9195 352.309 100.037L352.734 100.47C351.351 100.473 349.048 100.947 347.833 101.583L346.752 103.281C347.982 104.032 349.932 103.591 351.387 103.784C349.547 104.057 347.007 104.37 345.183 103.971C343.734 103.739 342.384 103.337 340.984 102.912C342.329 101.134 343.46 99.2362 345.6 98.3682Z"/>
	<path fill="#5D5857" transform="scale(0.0375 0.0375)" d="M352.826 88.4514C356.387 88.9388 360.596 89.5826 363.897 90.9877C359.035 92.5717 357.633 98.3425 352.309 100.037C352.112 99.9195 352.236 99.9744 351.897 99.9209L345.6 98.3682C345.025 98.0201 344.432 97.7665 343.819 97.4937L343.869 94.5629L344.514 93.9024L350.942 89.5682L352.826 88.4514Z"/>
	<path fill="#A79A92" transform="scale(0.0375 0.0375)" d="M133.85 192.458L134.942 192.758C136.055 192.432 137.382 192.444 138.538 192.357L138.692 196.979C143.418 199.208 145.542 202.598 151.313 204.5C152.877 205.014 154.428 204.058 155.912 204.935C149.046 207.62 142.489 211.024 136.336 215.094L122.13 225.543C117.864 228.689 113.537 231.419 109.528 234.907C109.711 227.892 129.559 197.769 133.85 192.458Z"/>
	<path fill="white" transform="scale(0.0375 0.0375)" d="M99.5426 267.692C105.38 266.84 109.03 264.284 114.072 261.322L168.485 229.771C173.05 227.061 178.001 224.94 182.487 222.119C188.701 218.211 194.386 213.467 200.458 209.338L237.773 185.155L253.46 173.548C255.675 172.008 257.455 170.1 260.239 170.043C258.153 172.49 256.844 175.382 254.844 177.754C252.571 180.449 249.899 182.423 247.754 185.34L226.005 199.744L108.768 270.445C105.005 272.816 101.741 276.103 97.6206 277.834L99.5426 267.692Z"/>
	<path fill="white" transform="scale(0.0375 0.0375)" d="M395.926 100.092L402.476 102.265C401.6 103.799 399.446 104.079 397.99 104.935L354.407 130.166C346.99 133.938 339.097 136.731 331.734 140.69C324.45 144.606 317.174 151.472 309.219 153.727C304.157 155.163 298.92 155.873 293.892 157.48L288.308 158.358L290.368 156.519C291.264 154.262 293.865 153.258 295.472 151.562L295.002 151.472C293.612 152.497 291.359 154.527 289.677 154.769L289.062 154.835C284.581 156.895 280.251 157.662 275.548 158.962L275.127 158.662C276.326 154.056 292.639 144.321 296.722 141.372C307.245 133.772 308.275 130.902 321.791 130.812C336.128 131.235 339.381 135.692 353.333 126.306C363.941 121.648 372.772 115.583 382.251 109.007L389.866 103.783C391.829 102.436 393.711 101.001 395.926 100.092Z"/>
	<path fill="#5D5857" transform="scale(0.0375 0.0375)" d="M289.062 154.835C294.425 151.147 300.076 147.218 304.219 142.139L304.413 142.5C300.787 147.751 295.77 153.047 290.368 156.519C291.264 154.262 293.865 153.258 295.472 151.562L295.002 151.472C293.612 152.497 291.359 154.527 289.677 154.769L289.062 154.835Z"/>
	<path fill="#3E3736" transform="scale(0.0375 0.0375)" d="M192.14 163.238C192.319 163.693 192.979 165.786 193.274 166.009C193.488 167.208 193.763 168.426 193.812 169.645C193.743 175.956 185.663 178.977 181.414 182.646C178.155 185.461 167.789 197.76 165.502 198.281L166.154 199.688C165.624 201.035 164.86 201.525 163.686 202.35L155.912 204.935C154.428 204.058 152.877 205.014 151.313 204.5C145.542 202.598 143.418 199.208 138.692 196.979L138.538 192.357L138.663 192.014L137.976 187.228L143.569 179.602L143.555 179.573C144.853 176.877 145.371 175.315 147.551 173.195C148.457 173.4 151.675 173.841 152.151 174.526C155.606 175.504 156.691 175.381 156.167 179.114C156.64 180.436 157.623 181.403 158.526 182.453L158.57 182.479C161.089 180.02 164.368 174.792 167.472 173.812C171.814 172.441 175.016 169.393 179.661 168.877C183.526 166.152 187.511 164.264 192.14 163.238Z"/>
	<path fill="#5D5857" transform="scale(0.0375 0.0375)" d="M150.987 186.906C151.976 186.161 152.884 185.705 154.041 185.27L156.564 186.112L155.06 186.801C153.595 187.46 152.511 187.273 150.987 186.906Z"/>
	<path fill="#7B6F65" transform="scale(0.0375 0.0375)" d="M162.501 188.788L165.505 188.694L164.771 190.781C163.538 193.37 161.96 190.605 162.501 188.788Z"/>
	<path fill="white" transform="scale(0.0375 0.0375)" d="M143.569 179.602C146.25 181.329 148.323 182.626 151.374 183.665L154.071 185.051L154.041 185.27C152.884 185.705 151.976 186.161 150.987 186.906C147.192 189.469 142.833 190.271 138.663 192.014L137.976 187.228L143.569 179.602Z"/>
	<path fill="#A79A92" transform="scale(0.0375 0.0375)" d="M158.57 182.479C161.089 180.02 164.368 174.792 167.472 173.812C171.814 172.441 175.016 169.393 179.661 168.877C173.956 174.536 168.289 181.055 165.505 188.694L162.501 188.788C161.049 188.508 160.518 187.676 160.004 186.315L158.367 185.501L156.564 186.112L154.041 185.27L154.071 185.051L151.374 183.665C148.323 182.626 146.25 181.329 143.569 179.602L143.555 179.573C144.853 176.877 145.371 175.315 147.551 173.195C148.457 173.4 151.675 173.841 152.151 174.526C155.606 175.504 156.691 175.381 156.167 179.114C156.64 180.436 157.623 181.403 158.526 182.453L158.57 182.479Z"/>
	<path fill="#7B6F65" transform="scale(0.0375 0.0375)" d="M155.606 183.427L155.981 183.455C156.742 184.326 157.365 184.916 158.367 185.501L156.564 186.112L154.041 185.27L154.071 185.051L155.606 183.427Z"/>
	<path fill="#3E3736" transform="scale(0.0375 0.0375)" d="M143.569 179.602L143.555 179.573C144.853 176.877 145.371 175.315 147.551 173.195C148.457 173.4 151.675 173.841 152.151 174.526C153.055 176.368 154.708 177.636 155.936 179.261C155.808 180.386 154.875 181.242 154.167 182.079C153.222 182.844 152.579 183.137 151.472 183.581L151.374 183.665C148.323 182.626 146.25 181.329 143.569 179.602Z"/>
	<path fill="#A79A92" transform="scale(0.0375 0.0375)" d="M402.476 102.265L412.134 105.984L420.308 109.608C424.209 111.346 430.678 114.271 433.433 117.74C423.106 120.829 408.967 131.171 399.656 136.82L377.654 148.97C375.055 150.361 366.258 154.099 365.021 156.241C363.943 156.33 362.844 155.973 361.78 155.804C354.709 154.676 347.702 155 340.566 155.015L327.091 156.051L293.892 157.48C298.92 155.873 304.157 155.163 309.219 153.727C317.174 151.472 324.45 144.606 331.734 140.69C339.097 136.731 346.99 133.938 354.407 130.166L397.99 104.935C399.446 104.079 401.6 103.799 402.476 102.265Z"/>
	<path fill="white" transform="scale(0.0375 0.0375)" d="M327.091 156.051L326.908 155.73C329.471 150.329 348.906 144.877 354.466 142.026C363.541 137.374 372.082 131.796 380.774 126.502C392.185 119.552 401.112 113.91 411.841 106.192L412.134 105.984L420.308 109.608C416.768 112.611 411.422 114.632 407.266 116.772L358.577 144.903C353.01 148.183 346.929 153.567 340.566 154.991L327.091 156.051Z"/>
	<path fill="#A79A92" transform="scale(0.0375 0.0375)" d="M420.308 109.608C424.209 111.346 430.678 114.271 433.433 117.74C423.106 120.829 408.967 131.171 399.656 136.82L377.654 148.97C375.055 150.361 366.258 154.099 365.021 156.241C363.943 156.33 362.844 155.973 361.78 155.804C354.709 154.676 347.702 155 340.566 155.015C346.929 153.567 353.01 148.183 358.577 144.903L407.266 116.772C411.422 114.632 416.768 112.611 420.308 109.608Z"/>
	<path fill="#A79A92" transform="scale(0.0375 0.0375)" d="M97.6206 277.834C101.741 276.103 105.005 272.816 108.768 270.445L226.005 199.744L247.754 185.34C245.622 194.708 251.409 198.229 248.81 210.446L248.631 204.813C248.312 204.034 248.215 203.359 247.5 202.881C240.582 206.104 235.347 212.513 228.509 216.119C223.936 218.027 209.626 230.017 207.287 235.195L206.858 236.396C192.612 239.009 188.654 240.726 176.485 246.629C174.731 247.869 173.21 249.262 171.654 250.737L141.253 267.105C130.173 272.748 119.038 279.035 108.643 285.863C103.387 289.315 99.0049 293.587 93.9677 297.284C94.2207 294.485 95.6873 291.313 96.319 288.496C96.1122 285.201 97.0105 281.115 97.6206 277.834Z"/>
	<path fill="white" transform="scale(0.0375 0.0375)" d="M96.319 288.496C98.4698 286.929 101.662 286.179 104.062 284.643C110.566 280.483 116.836 276.086 123.625 272.378L170.774 247.969C172.551 247.057 174.501 245.998 176.485 246.629C174.731 247.869 173.21 249.262 171.654 250.737L141.253 267.105C130.173 272.748 119.038 279.035 108.643 285.863C103.387 289.315 99.0049 293.587 93.9677 297.284C94.2207 294.485 95.6873 291.313 96.319 288.496Z"/>
	<path fill="#A79A92" transform="scale(0.0375 0.0375)" d="M321.012 87.2197C328.625 86.5179 329.229 87.0771 336.188 87.6069L332.485 90.0275C328.702 90.9884 324.164 93.5938 320.885 95.7449C318.287 96.8654 315.815 98.3886 313.321 99.7279L227.656 148.764C218.033 154.425 212.114 157.901 201.329 160.859L195.286 162.257C194.238 162.528 193.075 162.678 192.14 163.238C187.511 164.264 183.526 166.152 179.661 168.877C175.016 169.393 171.814 172.441 167.472 173.812C164.368 174.792 161.089 180.02 158.57 182.479L158.526 182.453C157.623 181.403 156.64 180.436 156.167 179.114C156.691 175.381 155.606 175.504 152.151 174.526C151.675 173.841 148.457 173.4 147.551 173.195C148.894 172.046 150.025 169.748 151.294 168.312L157.775 161.683C160.506 158.838 163.106 155.935 166.218 153.491L166.987 152.876C170.78 150.153 173.912 149.192 176.79 145.336C181.925 138.806 188.003 134.265 194.649 129.399L212.946 116.971C215.843 115.186 218.978 113.861 221.787 111.932L222.213 111.637C229.031 107.569 236.403 104.952 243.734 101.992L249.715 97.9929C257.228 96.2626 262.899 94.7194 270.834 93.3228L270.982 93.182C273.572 92.5682 276.422 92.088 279.08 92.4031C286.917 89.4264 296.183 88.5713 304.508 88.4389C306.796 88.6689 308.758 87.5564 310.977 87.2934C314.218 86.9092 317.737 87.1744 321.012 87.2197ZM270.834 93.3228C262.899 94.7194 257.228 96.2626 249.715 97.9929L243.734 101.992C243.085 104.761 241.367 107.95 241.501 110.748L241.519 111.164C246.231 108.741 268.885 98.3229 270.834 93.3228ZM279.08 92.4031C275.494 94.3611 273.277 97.3206 270.83 100.484C274.288 99.482 277.543 97.9743 280.935 96.7821L294.949 92.1331C298.006 91.1478 301.896 90.3232 304.508 88.4389C296.183 88.5713 286.917 89.4264 279.08 92.4031Z"/>
	<path fill="#DAD2D0" transform="scale(0.0375 0.0375)" d="M166.987 152.876L167.463 153.119C170.58 154.403 174.942 152.285 178.355 153.79C177.153 157.379 169.713 160.896 166.32 160.156C165.406 157.99 165.979 155.725 166.218 153.491L166.987 152.876Z"/>
	<path fill="#DAD2D0" transform="scale(0.0375 0.0375)" d="M222.213 111.637C229.031 107.569 236.403 104.952 243.734 101.992C243.085 104.761 241.367 107.95 241.501 110.748L241.519 111.164C239.751 112.391 228.87 119.247 226.879 118.674C224.527 117.996 222.423 114.071 222.213 111.637Z"/>
	<path fill="white" transform="scale(0.0375 0.0375)" d="M321.012 87.3283C328.625 86.5179 329.229 87.0771 336.188 87.6069L332.485 90.0275C328.702 90.9884 324.164 93.5938 320.885 95.7449C318.287 96.8654 315.815 98.3886 313.321 99.7279L227.656 148.764C218.033 154.425 212.114 157.901 201.329 160.859L195.286 162.257C194.238 162.528 193.075 162.678 192.14 163.238C187.511 164.264 183.526 166.152 179.661 168.877C175.016 169.393 171.814 172.441 167.472 173.812C164.368 174.792 161.089 180.02 158.57 182.479L158.526 182.453C157.623 181.403 156.64 180.436 156.167 179.114C156.691 175.381 155.606 175.504 152.151 174.526C151.675 173.841 148.457 173.4 147.551 173.195C148.894 172.046 150.025 169.748 151.294 168.312C152.926 168.595 154.608 168.299 156.233 168.671C161.132 169.791 157.513 169.623 162.916 169.022C167.889 168.468 172.105 168.677 176.766 166.236L177.188 166.009C180.443 164.291 184.208 161.032 186.489 158.12C186.214 156.627 186.227 155.134 186.197 153.621C194.62 153.186 202.785 150.888 211.022 149.298C224.458 146.704 222.317 148.199 233.72 141.406L245.175 134.905C260.216 126.35 275.58 118.568 290.099 109.106C300.652 102.229 310.284 93.9245 321.012 87.3283Z"/>
	<path fill="#A79A92" transform="scale(0.0375 0.0375)" d="M463.241 439.143L463.594 439.547C466.622 438.662 469.875 435.805 472.611 434.06L499.209 419.148C511.989 412.864 517.717 409.109 529.28 401.224C528.082 405.967 525.447 409.917 524.117 414.509C522.796 419.073 518.86 417.277 517.086 425.991C515.249 435.018 499.154 457.05 492.351 465.531C479.63 481.39 449.299 510.084 430.669 520.41L430.589 520.443L426.465 522.688L420.713 525.245L419.979 525.447L417.94 526.528C396.326 537.604 369.85 545.801 345.225 544.972C343.337 546.167 341.036 546.049 339.072 546.092L325.537 546.017C321.495 546.135 316.982 546.58 312.982 546.082L311.612 546.218C304.874 546.339 298.491 545.316 291.82 544.758L279.363 543.712C276.563 544.06 273.094 543.097 270.273 542.767L255.55 539.125C251.054 537.68 246.985 536.271 242.854 533.961L236.304 531.432C231.84 530.176 227.236 527.572 223.469 524.917C221.486 523.682 219.3 522.571 217.623 520.928C214.739 517.388 208.705 512.397 204.895 510.326C203.589 509.123 202.383 507.946 201.253 506.571C201.441 505.06 199.311 502.596 198.404 501.367C185.867 495.381 153.096 539.727 142.899 534.183L141.016 533.565L144.844 532.911C145.979 532.686 146.749 532.606 147.643 531.832C147.807 531.434 147.688 531.628 148.086 531.237C154.852 524.586 156.987 511.55 159.146 502.576L159.853 499.509C159.956 497.434 160.204 495.156 160.24 493.059L160.316 482.417L160.264 478.985L158.437 470.336L157.497 468.458C163.311 462.132 182.02 456.303 188.885 448.931L192.886 453.078C194.36 454.025 195.918 454.482 197.572 455L202.241 455.367L202.46 455.276C204.407 454.654 206.349 455.179 208.281 454.324C210.712 456.584 229.931 456.413 234.797 457.421L239.402 457.502L280.277 458.786C281.114 460.857 280.846 460.846 282.821 461.804C289.553 465.069 288.34 465.543 295.329 462.897L295.245 462.399L295.423 461.61C296.468 460.301 297.565 459.557 298.96 458.686C301.436 458.338 303.963 458.394 306.46 458.37L329.841 458.402L333.5 457.975C346.783 454.999 355.95 457.608 368.654 457.741C370.914 457.765 373.566 457.46 375.753 457.98C378.074 457.485 380.844 457.505 383.265 457.307L392.889 456.465L412.39 456.511C416.13 456.536 420.664 456.197 424.312 456.977C426.677 456.002 433.213 455.557 436.199 454.904L450.897 450.705C457.225 448.195 460.625 445.234 463.241 439.143ZM345.225 544.972C369.85 545.801 396.326 537.604 417.94 526.528L416.595 524.452C416.066 522.901 415.519 522.11 414.428 520.899C407.411 523.213 400.151 526.757 393.764 530.449C390.065 532.586 386.857 535.131 382.826 536.692C380.37 523.783 361.179 537.806 353.742 541.312C351.134 542.542 347.348 543.478 345.225 544.972Z"/>
	<path fill="#DAD2D0" transform="scale(0.0375 0.0375)" d="M266.945 467.656C270.958 467.185 271.544 472.108 267.344 472.868C262.596 472.717 263.242 469.936 266.945 467.656Z"/>
	<path fill="#DAD2D0" transform="scale(0.0375 0.0375)" d="M426.169 519.734C427.567 519.557 429.395 519.612 430.589 520.443L426.465 522.688L420.713 525.245L419.979 525.447L419.619 524.418C420.135 521.037 423.307 520.571 426.169 519.734Z"/>
	<path fill="#DAD2D0" transform="scale(0.0375 0.0375)" d="M298.96 458.686C301.436 458.338 303.963 458.394 306.46 458.37C305.959 463.995 299.624 462.516 295.329 462.897L295.245 462.399L295.423 461.61C296.468 460.301 297.565 459.557 298.96 458.686Z"/>
	<path fill="white" transform="scale(0.0375 0.0375)" d="M481.218 458.315L477.969 454.353C483.262 451.987 488.001 457.27 490.395 461.508C487.883 461.276 485.819 460.827 483.422 460.015C482.125 459.577 482.033 459.351 481.218 458.315Z"/>
	<path fill="#DAD2D0" transform="scale(0.0375 0.0375)" d="M238.067 492.935C240.783 492.039 243.246 491.433 246.086 491.106C242.602 495.448 237.075 498.746 231.629 499.913L227.13 500.401C229.259 498.606 230.985 496.125 232.677 493.924L232.767 493.842C234.48 493.044 236.207 492.706 238.067 492.935Z"/>
	<path fill="white" transform="scale(0.0375 0.0375)" d="M232.677 493.924C230.985 496.125 229.259 498.606 227.13 500.401L211.753 507.542C210.033 508.304 206.109 509.085 204.895 510.326C203.589 509.123 202.383 507.946 201.253 506.571C206.184 499.793 224.018 496.638 232.677 493.924Z"/>
	<path fill="white" transform="scale(0.0375 0.0375)" d="M217.623 520.928C227.162 513.965 241.049 506.699 252.433 503.643C249.476 506.895 245.653 509.321 242.069 511.822L229.289 520.73C227.315 522.072 225.487 523.66 223.469 524.917C221.486 523.682 219.3 522.571 217.623 520.928Z"/>
	<defs>
		<linearGradient id="gradient_1" gradientUnits="userSpaceOnUse" x1="284.16095" y1="480.50992" x2="325.65063" y2="448.14328">
			<stop offset="0" stop-color="#D7D6D6"/>
			<stop offset="1" stop-color="white"/>
		</linearGradient>
	</defs>
	<path fill="url(#gradient_1)" transform="scale(0.0375 0.0375)" d="M333.5 457.975L333.663 458.684C332.34 460.056 330.757 460.844 329.11 461.746C319.805 466.848 311.692 473.423 302.644 478.788L295.312 482.82C293.659 483.654 290.822 485.39 289.121 483.594L288.784 483.125C289.229 482.663 289.647 482.362 290.196 482.031L290 481.667C285.67 482.159 282.538 478.897 280.152 475.331C279.03 474.024 276.419 470.905 277.812 469.18C279.968 470.074 282.629 473.232 284.104 475.044C290.456 486.315 303.73 475.29 310.449 470.423L321.011 463.114C323.56 461.402 326.796 459.024 329.841 458.475L333.5 457.975Z"/>
	<path fill="white" transform="scale(0.0375 0.0375)" d="M255.55 539.125C259.763 536.332 286.907 524.578 292.06 523.285C290.464 525.987 273.456 541.819 270.273 542.767L255.55 539.125Z"/>
	<path fill="white" transform="scale(0.0375 0.0375)" d="M279.363 543.712C291.886 535.624 306.09 528.642 320.815 525.792L304.134 539.747C299.331 543.593 298.179 544.383 291.82 544.738L279.363 543.712Z"/>
	<path fill="white" transform="scale(0.0375 0.0375)" d="M234.797 457.421L239.402 457.502C232.923 461.832 224.347 467.379 217.812 471.267L172.99 496.471C169.443 498.526 165.118 502.709 161.218 503.765L160.312 504.123C159.649 503.642 159.456 503.331 159.146 502.576L159.853 499.509C160.071 498.873 160.379 498.675 160.907 498.28C162.286 497.961 163.702 496.975 164.947 496.291L191.003 483.479C201.075 478.709 208.048 474.589 217.244 468.389L226.156 462.697C229.081 460.782 231.522 458.764 234.797 457.421Z"/>
	<path fill="#DAD2D0" transform="scale(0.0375 0.0375)" d="M160.907 498.28C161.326 500.319 161.082 501.253 160.875 503.104L161.218 503.765L160.312 504.123C159.649 503.642 159.456 503.331 159.146 502.576L159.853 499.509C160.071 498.873 160.379 498.675 160.907 498.28Z"/>
	<path fill="white" transform="scale(0.0375 0.0375)" d="M236.304 531.432C240.883 524.586 254.198 519.901 261.278 515.52C270.663 509.713 279.546 500.698 290.025 497.147C281.83 506.584 267.179 516.869 257.007 523.841C252.319 527.054 247.019 530.1 242.854 533.961L236.304 531.432Z"/>
	<path fill="white" transform="scale(0.0375 0.0375)" d="M436.199 454.904L436.355 455.35C433.507 457.204 430.108 458.509 427.068 460.054L380.513 485.194L358.705 495.919C353.408 498.44 346.096 502.894 340.156 502.787L339.863 502.344C340.997 501.229 342.725 500.781 344.181 500.202L386.339 478.948L411.534 463.136C415.396 460.849 419.786 457.593 424.312 457.009C426.677 456.002 433.213 455.557 436.199 454.904Z"/>
	<path fill="white" transform="scale(0.0375 0.0375)" d="M375.753 458.161C378.074 457.485 380.844 457.505 383.265 457.307L392.889 456.465L393.643 456.719C392.685 458.363 384.566 459.246 382.447 459.886C364.446 465.329 349.701 475.572 334.258 485.913L314.39 498.772C309.975 501.724 297.318 512.534 291.861 510.781L291.27 510C291.801 506.654 299.474 503.471 302.049 501.965L355.982 467.013C362.057 463.408 369.02 460.276 375.753 458.161Z"/>
	<path fill="white" transform="scale(0.0375 0.0375)" d="M311.612 546.218L308.753 545.603C309.413 544.868 310.704 544.302 311.562 543.794L388.655 502.003L429.334 481.067L458.156 464.625C462.134 462.153 472.408 452.704 474.069 458.594C465.172 462.393 464.137 463.931 456.239 468.638L380.55 509.674L349.44 530.467C342.509 535.478 334.023 543.967 325.537 545.908C321.495 546.135 316.982 546.58 312.982 546.082L311.612 546.218Z"/>
	<path fill="#A79A92" transform="scale(0.0375 0.0375)" d="M188.885 448.931L192.886 453.078C194.36 454.025 195.918 454.482 197.572 455L202.241 455.367L202.46 455.276C204.407 454.654 206.349 455.179 208.281 454.324C210.712 456.584 229.931 456.413 234.797 457.421C231.522 458.764 229.081 460.782 226.156 462.697L217.244 468.389C208.048 474.589 201.075 478.709 191.003 483.479L164.947 496.291C163.702 496.975 162.286 497.961 160.907 498.28C160.379 498.675 160.071 498.873 159.853 499.509C159.956 497.434 160.204 495.156 160.24 493.059L160.316 482.417L160.264 478.985L158.437 470.336L157.497 468.458C163.311 462.132 182.02 456.303 188.885 448.931Z"/>
	<path fill="white" transform="scale(0.0375 0.0375)" d="M202.241 455.367L202.46 455.276C211.718 455.746 197.805 461.316 195.859 462.403L164.688 480.307C163.446 480.961 162.004 481.903 160.693 482.365L160.367 482.417L160.264 478.985C163.731 477.949 167.441 475.791 170.608 474.023L192.765 461.335C195.959 459.41 199.03 457.297 202.241 455.367Z"/>
	<path fill="#A79A92" transform="scale(0.0375 0.0375)" d="M188.885 448.931L192.886 453.078C194.36 454.025 195.918 454.482 197.572 455L202.241 455.367C199.03 457.297 195.959 459.41 192.765 461.335L170.608 474.023C167.441 475.791 163.731 477.949 160.264 478.985L158.437 470.336L157.497 468.458C163.311 462.132 182.02 456.303 188.885 448.931Z"/>
	<path fill="white" transform="scale(0.0375 0.0375)" d="M188.885 448.931L192.886 453.078L192.8 453.432C185.655 457.188 178.022 459.9 170.826 463.594C167.068 465.522 162.627 469.883 158.437 470.336L157.497 468.458C163.311 462.132 182.02 456.303 188.885 448.931Z"/>
	<path fill="#2B2929" transform="scale(0.0375 0.0375)" d="M433.433 117.74L438.054 120.663C440.9 122.549 444.12 125.726 447.255 126.903L454.338 132.015C456.796 133.53 458.968 135.682 461.015 137.703C462.223 138.914 463.344 140.069 464.822 140.96C467.032 142.606 469.194 144.546 470.966 146.661L475.934 150.833C478.172 152.601 484.426 157.837 485.714 160.443L488.579 163.36C490.992 165.42 493.041 168.217 494.66 170.934C496.315 173.292 498.289 175.375 500.335 177.395L504.435 182.241L508.032 186.659C508.995 187.726 509.933 188.867 510.587 190.156C511.75 192.446 510.938 191.939 512.726 194.421C512.863 195.67 513.127 196.074 513.85 197.063L514.073 197.389C514.197 198.939 516.016 201.129 516.855 202.478L521.431 210.116L524.865 215.553L527.097 221.151C526.226 222.765 524.717 224.954 525.072 226.812L526.55 227.819L526.625 230.163C527.168 230.699 527.643 231.734 528.161 232.135L542.106 232.293C540.027 233.54 538.509 235.97 536.668 237.55C535.895 239.965 536.127 243.526 537.184 245.858C537.995 248.486 539.22 251.136 538.349 253.878L540.186 263.484C540.345 264.25 540.939 266.066 540.829 266.779L541.786 271.338L544.586 284.148C544.956 286.195 545.325 288.174 545.344 290.262C545.71 292.257 545.584 294.1 545.73 296.094L546.343 312.413L546.415 320.227L546.165 335.175C545.77 337.223 545.831 340.641 544.888 342.46C543.331 347.995 542.651 353.751 541.968 359.445C541.532 362.614 540.923 364.755 539.465 367.593C538.53 371.386 535.847 386.905 533.906 389.401C533.02 390.541 532.514 389.782 532.659 391.406L533.441 392.222C532.905 395.126 530.889 398.771 529.28 401.224C517.717 409.109 511.989 412.864 499.209 419.148L472.611 434.06C469.875 435.805 466.622 438.662 463.594 439.547L463.241 439.143C460.625 445.234 457.225 448.195 450.897 450.705L436.199 454.904C433.213 455.557 426.677 456.002 424.312 457.009C420.664 456.197 416.13 456.536 412.39 456.511L392.889 456.477L383.265 457.307C380.844 457.505 378.074 457.485 375.753 458.161C373.566 457.46 370.914 457.765 368.654 457.741C355.95 457.608 346.783 454.999 333.5 457.975L329.841 458.475L306.46 458.362C303.963 458.394 301.436 458.338 298.96 458.686C297.565 459.557 296.468 460.301 295.423 461.61L295.245 462.399L295.329 462.897C288.34 465.543 289.553 465.069 282.821 461.804C280.846 460.846 281.114 460.857 280.277 458.786L239.402 457.549L234.797 457.421C229.931 456.413 210.712 456.584 208.281 454.324C206.349 455.179 204.407 454.654 202.46 455.276L202.241 455.367L197.572 455C195.918 454.482 194.36 454.025 192.886 453.078L188.885 448.931C182.02 456.303 163.311 462.132 157.497 468.458L149.17 456.863L145.393 452.249C142.888 449.553 140.161 445.915 138.514 442.628L135.355 438.194C134.585 437.875 129.863 429.922 129.128 428.702L127.182 426.211L121.136 416.376L117.286 410.027L111.263 395.218C111.021 394.49 110.63 393.797 110.295 393.106L106.75 384.332L104.494 377.834L100.409 361.957L98.9166 355.493L96.3668 342.291L95.2895 333.345C95.3839 331.004 95.0304 328.522 94.8491 326.182L93.9907 314.675C94.2829 313.428 94.0648 311.568 94.0876 310.251L94.0598 301.25C94.0779 299.992 94.3889 298.478 93.9922 297.284C99.0049 293.587 103.387 289.315 108.643 285.863C119.038 279.035 130.173 272.748 141.253 267.105L171.654 250.737C173.21 249.262 174.731 247.869 176.485 246.629C188.654 240.726 192.612 239.009 206.858 236.396L207.287 235.195C209.626 230.017 223.936 218.027 228.509 216.119C235.347 212.513 240.582 206.104 247.5 202.881C248.215 203.359 248.312 204.034 248.631 204.813L248.775 210.446C251.409 198.229 245.622 194.708 247.754 185.34C249.899 182.423 252.571 180.449 254.844 177.754C256.844 175.382 258.153 172.49 260.239 170.043C264.918 165.46 269.369 161.378 275.548 158.962C280.251 157.662 284.581 156.895 289.062 154.835L289.677 154.769C291.359 154.527 293.612 152.497 295.002 151.472L295.472 151.562C293.865 153.258 291.264 154.262 290.368 156.519L288.308 158.358L293.892 157.48L327.091 156.279L340.566 154.995C347.702 155 354.709 154.676 361.78 155.804C362.844 155.973 363.943 156.33 365.021 156.241C366.258 154.099 375.055 150.361 377.654 148.97L399.656 136.82C408.967 131.171 423.106 120.829 433.433 117.74Z"/>
	<path fill="#A79A92" transform="scale(0.0375 0.0375)" d="M295.245 462.399C293.752 459.28 296.345 458.036 298.96 458.686C297.565 459.557 296.468 460.301 295.423 461.61L295.245 462.399Z"/>
	<path fill="#DAD2D0" transform="scale(0.0375 0.0375)" d="M193.401 345.376C193.281 342.275 192.96 338.137 193.691 335.156L195.087 335.678C197.345 334.577 202.46 336.186 205.091 336.558L209.479 337.089C206.82 338.935 195.626 347.82 193.762 349.71L193.678 355.438C193.078 352.451 193.444 348.473 193.401 345.376Z"/>
	<path fill="#DAD2D0" transform="scale(0.0375 0.0375)" d="M371.494 174.373L372.54 176.176C374.294 179.272 378.179 186.327 372.629 186.281L333.669 186.505L332.578 185.547L332.836 184.567C339.428 184.74 346.732 185.414 353.235 184.494L354.814 184.26C358.128 183.646 360.496 180.193 363.343 178.559C365.875 177.106 369.86 176.783 371.494 174.373Z"/>
	<path fill="white" transform="scale(0.0375 0.0375)" d="M209.479 337.089L224.175 338.093C211.55 345.994 205.553 351.261 194.112 360.651L193.709 355.438L193.762 349.71C195.626 347.82 206.82 338.935 209.479 337.089Z"/>
	<path fill="white" transform="scale(0.0375 0.0375)" d="M359.514 164.947C364.682 166.263 368.571 169.353 371.261 173.961L371.494 174.373C369.86 176.783 365.875 177.106 363.343 178.559C360.496 180.193 358.128 183.646 354.814 184.26L353.235 184.494C346.732 185.414 339.428 184.74 332.836 184.7L333.127 184.212C337.965 178.834 352.649 165.147 359.514 164.947Z"/>
	<path fill="white" transform="scale(0.0375 0.0375)" d="M340.502 163.786L349.729 163.812C352.895 164.406 356.496 164.168 359.514 164.947C352.649 165.147 337.965 178.834 333.127 184.212L332.836 184.567L332.578 185.547L333.669 186.172L322.468 186.437L302.123 186.515C305.185 186.031 306.578 186.055 309.688 184.959C317.332 182.265 325.883 173.252 332.599 168.251C333.931 166.905 334.726 165.801 335.368 163.993L340.502 163.786Z"/>
	<path fill="#DAD2D0" transform="scale(0.0375 0.0375)" d="M335.368 163.993L340.502 163.786C338.101 163.969 335.797 167.439 333.878 168.866L332.599 168.251C333.931 166.905 334.726 165.801 335.368 163.993Z"/>
	<defs>
		<linearGradient id="gradient_2" gradientUnits="userSpaceOnUse" x1="359.76898" y1="167.50914" x2="303.11996" y2="187.96677">
			<stop offset="0" stop-color="#ABA6A5"/>
			<stop offset="1" stop-color="#EFEFEF"/>
		</linearGradient>
	</defs>
	<path fill="url(#gradient_2)" transform="scale(0.0375 0.0375)" d="M349.729 163.812C352.895 164.406 356.496 164.168 359.514 164.947C352.649 165.147 337.965 178.834 333.127 184.212L332.836 184.567L332.578 185.547L333.669 186.172L322.468 186.437L302.123 186.515C305.185 186.031 306.578 186.055 309.688 184.959C317.332 182.265 325.883 173.252 332.599 168.251L333.878 168.866C328.329 173.633 323.091 178.912 318.594 184.657C319.842 184.709 321.008 184.752 322.224 185.066L323.219 184.93C330.459 183.489 346.425 169.993 350.007 164.375L349.729 163.812Z"/>
	<path fill="white" transform="scale(0.0375 0.0375)" d="M262.873 194.295L262.806 192.69C262.743 181.449 268.694 171.784 279.339 167.287C286.44 164.288 295.079 165.089 302.641 165.072C299.022 167.635 287.773 177.766 285.496 181.916L278.323 188.937C274.584 190.947 267.593 192.045 262.873 194.295Z"/>
	<path fill="white" transform="scale(0.0375 0.0375)" d="M278.323 188.937C279.306 189.011 280.238 188.757 281.194 188.557L281.229 192.454C283.126 192.748 285.144 193.009 287.043 193.396L307.58 192.965C305.647 194.312 302.151 194.828 299.843 195.888C291.38 199.773 270.571 216.481 265.667 216.242L265.611 216.11C265.205 215.233 265.059 214.439 264.902 213.496C262.087 211.274 262.086 204.662 263.131 201.871C262.3 199.469 262.569 196.781 262.873 194.295C267.593 192.045 274.584 190.947 278.323 188.937Z"/>
	<path fill="#A79A92" transform="scale(0.0375 0.0375)" d="M263.131 201.871C266.235 197.977 269.546 196.476 274.2 194.913C271.604 202.234 263.324 202.882 264.902 213.496C262.087 211.274 262.086 204.662 263.131 201.871Z"/>
	<defs>
		<linearGradient id="gradient_3" gradientUnits="userSpaceOnUse" x1="262.14279" y1="196.6783" x2="281.0174" y2="193.20004">
			<stop offset="0" stop-color="#323131"/>
			<stop offset="1" stop-color="#4E4E4E"/>
		</linearGradient>
	</defs>
	<path fill="url(#gradient_3)" transform="scale(0.0375 0.0375)" d="M278.323 188.937C279.306 189.011 280.238 188.757 281.194 188.557L281.229 192.454C283.126 192.748 285.144 193.009 287.043 193.396C285.179 193.413 282.203 193.825 280.469 193.406C277.465 192.679 276.829 194.529 274.2 194.913C269.546 196.476 266.235 197.977 263.131 201.871C262.3 199.469 262.569 196.781 262.873 194.295C267.593 192.045 274.584 190.947 278.323 188.937Z"/>
	<path fill="white" transform="scale(0.0375 0.0375)" d="M310.881 165.13C318.74 165.744 327.619 165.059 335.368 164.009C334.726 165.801 333.931 166.905 332.599 168.251C325.883 173.252 317.332 182.265 309.688 184.959C306.578 186.055 305.185 186.031 302.123 186.516C296.677 186.557 290.971 186.321 285.592 187.194C284.042 187.586 282.624 187.846 281.194 188.557C280.238 188.757 279.306 189.011 278.323 188.937L285.496 181.916C287.773 177.766 299.022 167.635 302.641 164.962C303.716 165.037 310.47 164.752 310.881 165.13Z"/>
	<defs>
		<linearGradient id="gradient_4" gradientUnits="userSpaceOnUse" x1="308.83679" y1="162.73955" x2="279.72244" y2="189.7964">
			<stop offset="0" stop-color="#646363"/>
			<stop offset="1" stop-color="#ADABAB"/>
		</linearGradient>
	</defs>
	<path fill="url(#gradient_4)" transform="scale(0.0375 0.0375)" d="M302.641 164.962C303.716 165.037 310.47 164.752 310.881 165.13C304.852 168.114 299.762 171.94 295.035 176.719L288.957 183.281C287.893 184.441 286.764 185.936 285.331 186.627L285.592 187.29C284.042 187.586 282.624 187.846 281.194 188.557C280.238 188.757 279.306 189.011 278.323 188.937L285.496 181.916C287.773 177.766 299.022 167.635 302.641 164.962Z"/>
	<path fill="#A79A92" transform="scale(0.0375 0.0375)" d="M307.58 192.812C308.377 192.41 310.453 192.541 311.358 192.534L321.589 192.506L319.167 192.957C310.996 205.39 289.882 219.564 276.498 224.709L276.183 224.95C274.912 225.909 273.663 225.694 274.585 227.188C273.541 229.903 272.265 233.081 270.619 235.478L268.826 237.075L266.533 235.981L258.393 237.88C258.989 235.721 261.361 233.379 262.76 231.626L258.664 223.87L263.099 225.83L265.345 225.451C267.725 225.105 269.652 223.922 271.537 222.502C268.852 219.924 268.197 219.13 265.667 216.242C270.571 216.481 291.38 199.773 299.843 195.888C302.151 194.828 305.647 194.312 307.58 192.812Z"/>
	<path fill="#5D5857" transform="scale(0.0375 0.0375)" d="M266.533 235.981C267.48 235.323 268.275 234.982 269.375 234.644L270.619 235.478L268.826 237.075L266.533 235.981Z"/>
	<path fill="white" transform="scale(0.0375 0.0375)" d="M318.435 323.515C334.236 324.168 331.745 347.121 331.607 357.032C328.548 360.378 324.192 361.225 319.936 362.132C305.612 363.417 305.886 354.888 305.893 343.069C305.899 332.928 305.488 326.058 318.435 323.515Z"/>
	<path fill="#DAD2D0" transform="scale(0.0375 0.0375)" d="M228.509 216.119C235.347 212.513 240.582 206.104 247.5 202.881C248.215 203.359 248.312 204.034 248.631 204.813L248.775 210.446C248.123 216.995 253.972 220.352 258.664 223.87L262.76 231.626C261.361 233.379 258.989 235.721 258.393 237.88C254.361 239.492 234.604 240.899 230.439 239.162C222.139 235.701 215.692 235.996 206.858 236.278L207.287 235.195C209.626 230.017 223.936 218.027 228.509 216.119Z"/>
	<path fill="#A79A92" transform="scale(0.0375 0.0375)" d="M321.589 192.531L346.979 192.505L356.046 192.542C357.55 192.548 359.212 192.702 360.698 192.503C360.02 193.846 359.414 194.342 358.364 195.02C352.461 198.207 347.503 202.016 342.209 206.084L308.183 233.559C306.556 234.76 304.599 235.859 303.225 237.344L303.691 237.6L282.145 238.54C277.713 238.527 273.997 238.688 269.733 237.283L268.826 237.075L270.619 235.478C272.265 233.081 273.541 229.903 274.585 227.188C273.663 225.694 274.912 225.909 276.183 224.95L276.498 224.709C289.882 219.564 310.996 205.39 319.167 192.957L321.589 192.531Z"/>
	<path fill="white" transform="scale(0.0375 0.0375)" d="M321.589 192.531L346.979 192.505C345.157 194.07 341.655 194.46 339.353 195.415C328.963 199.724 319.455 207.653 310.112 213.81L293.584 224.075C285.559 229.154 278.744 234.096 269.733 237.283L268.826 237.075L270.619 235.478C272.265 233.081 273.541 229.903 274.585 227.188C273.663 225.694 274.912 225.909 276.183 224.95L276.498 224.709C289.882 219.564 310.996 205.39 319.167 192.957L321.589 192.531Z"/>
	<path fill="white" transform="scale(0.0375 0.0375)" d="M365.557 193.043C369.052 192.398 372.746 192.461 376.286 192.419C376.238 194.239 376.372 196.41 375.953 198.172C375.497 210.161 370.358 226.552 363.77 236.384L356.595 237.26C355.168 237.409 353.572 237.412 352.188 237.768L351.894 237.795C341.557 238.795 332.884 238.856 322.41 238.562C319.851 239.341 314.519 237.512 310.738 238.187C309.232 238.235 307.903 237.886 306.45 237.542L303.691 237.6L303.225 237.344C304.599 235.859 306.556 234.76 308.183 233.559L342.209 206.084C347.503 202.016 352.461 198.207 358.364 195.02C359.414 194.342 360.02 193.846 360.698 192.788L365.557 193.043Z"/>
	<path fill="#A79A92" transform="scale(0.0375 0.0375)" d="M367.481 194.98C368.657 195.325 369.104 195.779 369.774 196.84L370.545 198.525L368.202 201.725C364.644 206.253 363.802 201.499 365.19 197.946L367.481 194.98Z"/>
	<path fill="#A79A92" transform="scale(0.0375 0.0375)" d="M306.45 237.542C312.214 236.504 317.118 235.762 322.443 233.222C332.394 228.476 328.155 234.247 322.654 238.025L322.41 238.714C319.851 239.341 314.519 237.512 310.738 238.187C309.232 238.235 307.903 237.886 306.45 237.542Z"/>
	<path fill="#DAD2D0" transform="scale(0.0375 0.0375)" d="M365.557 193.043C369.052 192.398 372.746 192.461 376.286 192.419C376.238 194.239 376.372 196.41 375.953 198.172L375.781 194.891C374.451 195.137 372.003 197.688 370.545 198.525L369.774 196.84C369.104 195.779 368.657 195.325 367.481 194.98L365.19 197.946C362.974 196.569 360.856 195.766 358.364 195.02C359.414 194.342 360.02 193.846 360.698 192.788L365.557 193.043Z"/>
	<path fill="#A79A92" transform="scale(0.0375 0.0375)" d="M182.171 377.152L182.344 389.622L182.385 398.245L182.297 411.195L182.277 417.3L182.537 424.006C182.594 425.02 182.849 426.416 182.705 427.388C183.023 429.265 184.157 433.62 183.176 435.088C183.612 435.616 187.339 446.045 188.885 448.931C182.02 456.303 163.311 462.132 157.497 468.458L149.17 456.863L145.393 452.249C142.888 449.553 140.161 445.915 138.514 442.628L135.355 438.194C134.585 437.875 129.863 429.922 129.128 428.702L127.182 426.211L121.136 416.376C125.044 414.788 128.734 410.564 132.416 408.24L158.184 393.337C166.332 388.734 175.534 383.824 182.171 377.152Z"/>
	<path fill="white" transform="scale(0.0375 0.0375)" d="M127.182 426.211C129.048 424.655 131.597 423.639 133.751 422.484L142.988 417.19C154.375 410.336 172.293 398.613 182.449 389.622L182.385 398.245C180.268 400.458 177.56 402.062 174.936 403.756L161.7 411.85C152.432 417.362 142.714 424.16 132.5 427.836L132.006 428.017C131.031 428.368 130.155 428.571 129.128 428.702L127.182 426.211Z"/>
	<path fill="#A79A92" transform="scale(0.0375 0.0375)" d="M182.494 398.245L182.297 411.195L182.277 417.3C179.599 419.567 176.353 421.14 173.352 422.897L151.036 435.369C146.886 437.687 142.844 440.7 138.514 442.628L135.355 438.194C134.585 437.875 129.863 429.922 129.128 428.702C130.155 428.571 131.031 428.368 132.006 428.017L132.5 427.836C142.714 424.16 152.432 417.362 161.7 411.85L174.936 403.756C177.56 402.062 180.268 400.458 182.494 398.245Z"/>
	<path fill="white" transform="scale(0.0375 0.0375)" d="M135.355 438.194L174.688 414.992C176.878 413.626 179.483 411.061 182.209 411.195L182.277 417.3C179.599 419.567 176.353 421.14 173.352 422.897L151.036 435.369C146.886 437.687 142.844 440.7 138.514 442.628L135.355 438.194Z"/>
	<path fill="#A79A92" transform="scale(0.0375 0.0375)" d="M138.514 442.628C142.844 440.7 146.886 437.687 151.036 435.369L173.352 422.897C176.353 421.14 179.599 419.567 182.243 417.3L182.537 424.006C182.594 425.02 182.849 426.416 182.705 427.388C183.023 429.265 184.157 433.62 183.176 435.088C183.612 435.616 187.339 446.045 188.885 448.931C182.02 456.303 163.311 462.132 157.497 468.458L149.17 456.863L145.393 452.249C142.888 449.553 140.161 445.915 138.514 442.628Z"/>
	<path fill="white" transform="scale(0.0375 0.0375)" d="M145.393 452.249C146.389 451.248 148.908 450.958 150.312 450.288C162.622 444.416 171.929 435.245 182.744 427.388C183.023 429.265 184.157 433.62 183.176 435.088C176.66 440.068 157.013 453.882 149.17 456.863L145.393 452.249Z"/>
	<path fill="#A79A92" transform="scale(0.0375 0.0375)" d="M183.176 435.088C183.612 435.616 187.339 446.045 188.885 448.931C182.02 456.303 163.311 462.132 157.497 468.458L149.17 456.863C157.013 453.882 176.66 440.068 183.176 435.088Z"/>
	<path fill="#A79A92" transform="scale(0.0375 0.0375)" d="M100.409 361.957C101.996 361.507 103.717 360.263 105.083 359.33L123.953 346.719L171.295 320.615C173.45 327.764 177.585 329.372 179.136 332.96C182.488 334.819 181.71 335.983 181.35 339.597L181.549 350.722L181.66 354.41L182.143 375.788L182.171 377.152C175.534 383.824 166.332 388.734 158.184 393.337L132.416 408.24C128.734 410.564 125.044 414.788 121.136 416.376L117.286 410.027L111.263 395.218C111.021 394.49 110.63 393.797 110.295 393.106L106.75 384.332L104.494 377.834L100.409 361.957Z"/>
	<path fill="white" transform="scale(0.0375 0.0375)" d="M179.136 332.96C182.488 334.819 181.71 335.983 181.35 339.597C178.708 341.437 175.823 342.767 173.003 344.296L114.902 378.883C112.378 380.566 109.524 383.224 106.75 384.332L104.494 377.834C106.281 376.436 108.311 375.371 110.232 374.169L173.461 336.587C175.36 335.394 176.977 333.666 179.136 332.96Z"/>
	<path fill="#A79A92" transform="scale(0.0375 0.0375)" d="M181.35 339.597L181.549 350.722L181.66 354.41C177.801 357.175 173.663 359.454 169.605 361.904L139.373 379.239C132.116 383.424 119.011 393.752 111.263 395.218C111.021 394.49 110.63 393.797 110.295 393.106L106.75 384.332C109.524 383.224 112.378 380.566 114.902 378.883L173.003 344.296C175.823 342.767 178.708 341.437 181.35 339.597Z"/>
	<path fill="white" transform="scale(0.0375 0.0375)" d="M110.295 393.106C112.644 390.884 115.48 389.11 118.192 387.362L162.159 360.88C168.044 357.405 174.758 352.179 181.543 350.722L181.66 354.41C177.801 357.175 173.663 359.454 169.605 361.904L139.373 379.239C132.116 383.424 119.011 393.752 111.263 395.218C111.021 394.49 110.63 393.797 110.295 393.106Z"/>
	<path fill="#A79A92" transform="scale(0.0375 0.0375)" d="M111.263 395.218C119.011 393.752 132.116 383.424 139.373 379.239L169.605 361.904C173.663 359.454 177.801 357.175 181.66 354.41L182.143 375.788L182.171 377.152C175.534 383.824 166.332 388.734 158.184 393.337L132.416 408.24C128.734 410.564 125.044 414.788 121.136 416.376L117.286 410.027L111.263 395.218Z"/>
	<path fill="white" transform="scale(0.0375 0.0375)" d="M117.286 410.027C119.107 408.611 121.387 407.703 123.438 406.649L177.954 374.866C178.917 374.292 180.852 372.769 181.825 372.812L182.132 375.788L182.171 377.152C175.534 383.824 166.332 388.734 158.184 393.337L132.416 408.24C128.734 410.564 125.044 414.788 121.136 416.376L117.286 410.027Z"/>
	<path fill="#A79A92" transform="scale(0.0375 0.0375)" d="M93.9922 297.284C99.0049 293.587 103.387 289.315 108.643 285.863C119.038 279.035 130.173 272.748 141.253 267.105L171.654 250.737C171.19 255.809 171.081 261.358 170.043 266.312L169.675 272.132C169.656 278.768 170.09 285.717 169.12 292.288L169.103 293.671L170.028 313.836L171.295 320.615L123.953 346.719L105.083 359.33C103.717 360.263 101.996 361.507 100.409 361.957L98.9166 355.493L96.3668 342.291L95.2895 333.345C95.3839 331.004 95.0304 328.522 94.8491 326.182L93.9907 314.675C94.2829 313.428 94.0648 311.568 94.0876 310.251L94.0598 301.25C94.0779 299.992 94.3889 298.478 93.9922 297.284Z"/>
	<path fill="white" transform="scale(0.0375 0.0375)" d="M94.0876 310.251L115.302 295.598L160.938 268.097C162.901 266.865 167.624 262.36 169.989 263.906L170.043 266.312L169.675 272.132C167.42 272.92 165.368 274.402 163.337 275.644L125.519 297.268C115.147 303.748 105.638 311.008 94.6875 316.532C94.252 315.923 94.167 315.389 93.9907 314.675C94.2829 313.428 94.0648 311.568 94.0876 310.251Z"/>
	<path fill="#A79A92" transform="scale(0.0375 0.0375)" d="M93.9907 314.675C94.167 315.389 94.252 315.923 94.6875 316.532C105.638 311.008 115.147 303.748 125.519 297.268L163.337 275.644C165.368 274.402 167.42 272.92 169.675 272.132C169.656 278.768 170.09 285.717 169.12 292.288L168.906 289.714C167.449 289.887 165.986 291.01 164.768 291.788L97.0081 331.751C96.291 332.191 95.8267 332.705 95.2895 333.345C95.3839 331.004 95.0304 328.522 94.8491 326.182L93.9907 314.675Z"/>
	<path fill="#A79A92" transform="scale(0.0375 0.0375)" d="M95.2895 333.345C95.8267 332.705 96.291 332.191 97.0081 331.751L164.768 291.788C165.986 291.01 167.449 289.887 168.906 289.714L169.12 292.288L169.103 293.671L170.028 313.836L171.295 320.615L123.953 346.719L105.083 359.33C103.717 360.263 101.996 361.507 100.409 361.957L98.9166 355.493L96.3668 342.291L95.2895 333.345Z"/>
	<path fill="white" transform="scale(0.0375 0.0375)" d="M98.9166 355.493C101.913 352.513 106.333 350.452 109.949 348.281L144.736 328.57C153.153 323.574 161.052 317.354 169.82 312.969L170.245 313.836L171.295 320.615L123.953 346.719L105.083 359.33C103.717 360.263 101.996 361.507 100.409 361.957L98.9166 355.493Z"/>
	<path fill="white" transform="scale(0.0375 0.0375)" d="M95.2895 333.345C95.8267 332.705 96.291 332.191 97.0081 331.751L164.768 291.788C165.986 291.01 167.449 289.887 168.906 289.714L169.12 292.288L169.103 293.671L169.114 298.234L107.163 334.684C103.598 337.097 99.9607 339.56 96.875 342.582L96.3668 342.291L95.2895 333.345Z"/>
	<path fill="#A79A92" transform="scale(0.0375 0.0375)" d="M433.433 117.74L438.054 120.663C440.9 122.549 444.12 125.726 447.255 126.903L454.338 132.015C456.796 133.53 458.968 135.682 461.015 137.703C462.223 138.914 463.344 140.069 464.822 140.96C467.032 142.606 469.194 144.546 470.966 146.661L475.934 150.833C478.172 152.601 484.426 157.837 485.714 160.443L488.579 163.36C490.992 165.42 493.041 168.217 494.66 170.934C496.315 173.292 498.289 175.375 500.335 177.395L504.435 182.241L508.032 186.659C508.995 187.726 509.933 188.867 510.587 190.156C511.75 192.446 510.938 191.939 512.726 194.421C512.863 195.67 513.127 196.074 513.85 197.063L514.073 197.389C514.197 198.939 516.016 201.129 516.855 202.478L521.431 210.116L524.865 215.553L464.901 251.579L460.748 244.437C456.969 240.374 453.134 237.827 448.381 235.022L443.369 233.64C434.414 233.212 427.527 235.005 420.055 234.948L407.408 236.358L407.141 236.383C403.665 236.755 400.283 238.135 396.797 238.403C392.213 238.755 387.262 237.948 382.657 237.634L374.867 237.45C374.386 237.501 370.835 237.195 370.086 237.183C371.02 236.227 371.897 235.31 372.655 234.2L372.823 233.949C374.808 230.832 377.919 226.383 380.653 223.87C382.932 221.775 385.966 219.944 387.883 217.541C388.803 216.387 388.648 214.776 389.421 213.545L389.7 213.125C389.47 212.325 389.337 211.781 389.451 210.951L389.719 207.095C389.667 203.908 389.553 200.619 390.067 197.465L389.377 191.848L388.559 185.853L384.432 172.367C382.824 169.466 380.839 166.838 378.479 164.51C374.11 161.155 370.019 158.564 365.021 156.241C366.258 154.099 375.055 150.361 377.654 148.97L399.656 136.82C408.967 131.171 423.106 120.829 433.433 117.74Z"/>
	<path fill="white" transform="scale(0.0375 0.0375)" d="M390.067 197.465C391.357 196.978 392.799 195.883 393.955 195.215L414.84 181.905L445.712 164.981C454.72 159.798 463.257 153.605 470.966 146.661L475.934 150.833L418.204 186.423L395.231 203.233C393.416 204.622 391.786 206.061 389.719 207.095C389.667 203.908 389.553 200.619 390.067 197.465Z"/>
	<path fill="white" transform="scale(0.0375 0.0375)" d="M372.823 233.949C377.919 233.53 386.786 223.153 391.135 219.408L402.81 210.314L436.236 189.707L471.955 169.917C474.563 168.409 484.279 160.761 485.714 160.443L488.579 163.36C490.992 165.42 493.041 168.217 494.66 170.934C492.294 172.775 489.638 174.338 487.409 176.338L483.27 180.256C480.019 183.38 478.334 180.256 474.492 180.271C472.836 180.001 470.673 179.132 469.043 179.438L468.438 179.564C467.346 179.002 466.852 178.281 466.142 177.299L380.091 236.448C378.518 237.583 376.63 236.904 374.867 237.21C374.386 237.501 370.835 237.195 370.086 237.183C371.02 236.227 371.897 235.31 372.655 234.2L372.823 233.949Z"/>
	<path fill="#A79A92" transform="scale(0.0375 0.0375)" d="M488.579 163.36C490.992 165.42 493.041 168.217 494.66 170.934C492.294 172.775 489.638 174.338 487.409 176.338L483.27 180.256C480.019 183.38 478.334 180.256 474.492 180.271C472.836 180.001 470.673 179.132 469.043 179.438L468.438 179.564C467.346 179.002 466.852 178.281 466.142 177.299C468.187 175.576 470.556 174.214 472.812 172.79L488.579 163.36Z"/>
	<path fill="#A79A92" transform="scale(0.0375 0.0375)" d="M461.015 137.703C462.223 138.914 463.344 140.069 464.822 140.96C467.032 142.606 469.194 144.546 470.966 146.661C463.257 153.605 454.72 159.798 445.712 164.981L414.84 181.905L393.955 195.215C392.799 195.883 391.357 196.978 390.143 197.465L389.377 191.848L388.559 185.853L388.755 185.684C390.242 184.062 392.218 183.281 394.062 182.149L399.649 178.547C401.824 175.247 415.242 169.49 419.579 166.661C423.251 164.266 426.603 161.326 430.203 158.806L461.015 137.703Z"/>
	<path fill="white" transform="scale(0.0375 0.0375)" d="M461.015 137.703C462.223 138.914 463.344 140.069 464.822 140.96C461.5 144.454 456.211 146.59 452.073 149.084L419.895 168.512C413.479 172.655 407.838 177.916 401.306 182.021C397.321 185.389 392.878 187.879 389.377 191.848L388.559 185.853L388.755 185.684C390.242 184.062 392.218 183.281 394.062 182.149L399.649 178.547C401.824 175.247 415.242 169.49 419.579 166.661C423.251 164.266 426.603 161.326 430.203 158.806L461.015 137.703Z"/>
	<defs>
		<linearGradient id="gradient_5" gradientUnits="userSpaceOnUse" x1="473.63678" y1="186.04678" x2="381.17822" y2="237.55554">
			<stop offset="0" stop-color="#ABA9A9"/>
			<stop offset="1" stop-color="#CAC9C9"/>
		</linearGradient>
	</defs>
	<path fill="url(#gradient_5)" transform="scale(0.0375 0.0375)" d="M374.867 237.45C376.63 236.904 378.518 237.583 380.091 236.448L466.142 177.299C466.852 178.281 467.346 179.002 468.438 179.564L469.043 179.438C470.673 179.132 472.836 180.001 474.492 180.271C472.649 180.3 470.674 180.238 468.903 180.808L474.894 186.792C467.978 192.538 460.379 197.143 452.83 201.996L426.15 219.895C419.556 224.626 412.437 229.899 407.408 236.358L407.141 236.383C403.665 236.755 400.283 238.135 396.797 238.403C392.213 238.755 387.262 237.948 382.657 237.634L374.867 237.45Z"/>
	<path fill="#A79A92" transform="scale(0.0375 0.0375)" d="M447.255 126.903L454.338 132.015C456.796 133.53 458.968 135.682 461.015 137.703L430.203 158.806C426.603 161.326 423.251 164.266 419.579 166.661C415.242 169.49 401.824 175.247 399.649 178.547L394.062 182.149C392.218 183.281 390.242 184.062 388.755 185.684L388.559 185.853L384.432 172.367C382.824 169.466 380.839 166.838 378.479 164.51C380.582 164.082 382.785 164.04 384.916 163.695C400.956 161.1 415.564 149.354 428.7 140.597C435.075 136.347 441.902 132.427 447.255 126.903Z"/>
	<path fill="white" transform="scale(0.0375 0.0375)" d="M447.255 126.903L454.338 132.015L453.888 132.204C453.441 132.386 453.218 132.413 452.718 132.453C446.296 132.963 431.77 144.224 426.111 147.794L384.432 172.367C382.824 169.466 380.839 166.838 378.479 164.51C380.582 164.082 382.785 164.04 384.916 163.695C400.956 161.1 415.564 149.354 428.7 140.597C435.075 136.347 441.902 132.427 447.255 126.903Z"/>
	<path fill="#A79A92" transform="scale(0.0375 0.0375)" d="M433.433 117.74L438.054 120.663C440.9 122.549 444.12 125.726 447.255 126.903C441.902 132.427 435.075 136.347 428.7 140.597C415.564 149.354 400.956 161.1 384.916 163.695C382.785 164.04 380.582 164.082 378.479 164.51C374.11 161.155 370.019 158.564 365.021 156.241C366.258 154.099 375.055 150.361 377.654 148.97L399.656 136.82C408.967 131.171 423.106 120.829 433.433 117.74Z"/>
	<path fill="white" transform="scale(0.0375 0.0375)" d="M433.433 117.74L438.054 120.663C434.198 125.337 423.284 128.429 417.706 131.324C408.69 136.004 374.089 158.225 365.021 156.241C366.258 154.099 375.055 150.361 377.654 148.97L399.656 136.82C408.967 131.171 423.106 120.829 433.433 117.74Z"/>
	<path fill="#A79A92" transform="scale(0.0375 0.0375)" d="M474.492 180.271C478.334 180.256 480.019 183.38 483.27 180.256L487.409 176.338C489.638 174.338 492.294 172.775 494.66 170.934C496.315 173.292 498.289 175.375 500.335 177.395L504.435 182.241L508.032 186.659C508.995 187.726 509.933 188.867 510.587 190.156C511.75 192.446 510.938 191.939 512.726 194.421C512.863 195.67 513.127 196.074 513.85 197.063L514.073 197.389C514.197 198.939 516.016 201.129 516.855 202.478L521.431 210.116L524.865 215.553L464.901 251.579L460.748 244.437C456.969 240.374 453.134 237.827 448.381 235.022L443.369 233.64C434.414 233.212 427.527 235.005 420.055 234.948L407.408 236.358C412.437 229.899 419.556 224.626 426.15 219.895L452.83 201.996C460.379 197.143 467.978 192.538 474.894 186.792L468.903 180.808C470.674 180.238 472.649 180.3 474.492 180.271Z"/>
	<path fill="#DAD2D0" transform="scale(0.0375 0.0375)" d="M495.845 190.784C499.957 188.409 501.865 186.085 504.435 182.241L508.032 186.659C504.866 188.762 501.445 190.064 498.325 192.366L479.249 203.427C481.598 200.479 492.552 192.598 495.845 190.784Z"/>
	<path fill="white" transform="scale(0.0375 0.0375)" d="M443.369 233.64C444.295 232.655 445.832 231.962 447.022 231.325L505.318 199.424C507.336 198.197 510.904 194.876 512.726 194.421C512.863 195.67 513.127 196.074 513.85 197.063L514.073 197.389C509.738 201.55 504.78 204.406 499.604 207.344L455.312 232.141C453.056 233.286 450.645 233.949 448.381 235.022L443.369 233.64Z"/>
	<path fill="white" transform="scale(0.0375 0.0375)" d="M474.492 180.271C478.334 180.256 480.019 183.38 483.27 180.256L487.409 176.338C489.638 174.338 492.294 172.775 494.66 170.934C496.315 173.292 498.289 175.375 500.335 177.395C497.092 178.121 488.606 182.54 487.324 186.065C486.329 188.798 460.842 204.897 456.805 207.636L420.055 234.948L407.408 236.358C412.437 229.899 419.556 224.626 426.15 219.895L452.83 201.996C460.379 197.143 467.978 192.538 474.894 186.792L468.903 180.808C470.674 180.238 472.649 180.3 474.492 180.271Z"/>
	<path fill="#A79A92" transform="scale(0.0375 0.0375)" d="M514.073 197.389C514.197 198.939 516.016 201.129 516.855 202.478L521.431 210.116L524.865 215.553L464.901 251.579L460.748 244.437C456.969 240.374 453.134 237.827 448.381 235.022C450.645 233.949 453.056 233.286 455.312 232.141L499.604 207.344C504.78 204.406 509.738 201.55 514.073 197.389Z"/>
	<path fill="white" transform="scale(0.0375 0.0375)" d="M460.748 244.437L521.431 210.116L524.865 215.553L464.901 251.579L460.748 244.437Z"/>
	<path fill="#A79A92" transform="scale(0.0375 0.0375)" d="M524.865 215.553L527.097 221.151C526.226 222.765 524.717 224.954 525.072 226.812L526.55 227.819L526.625 230.163C527.168 230.699 527.643 231.734 528.161 232.135L542.106 232.293C540.027 233.54 538.509 235.97 536.668 237.55C535.895 239.965 536.127 243.526 537.184 245.858C537.995 248.486 539.22 251.136 538.349 253.878L540.186 263.484C540.345 264.25 540.939 266.066 540.829 266.779L541.786 271.338L544.586 284.148C544.956 286.195 545.325 288.174 545.344 290.262C545.71 292.257 545.584 294.1 545.73 296.094L546.343 312.413L546.415 320.227L546.165 335.175C545.77 337.223 545.831 340.641 544.888 342.46C543.331 347.995 542.651 353.751 541.968 359.445C541.532 362.614 540.923 364.755 539.465 367.593C538.53 371.386 535.847 386.905 533.906 389.401C533.02 390.541 532.514 389.782 532.659 391.406L533.441 392.222C532.905 395.126 530.889 398.771 529.28 401.224C517.717 409.109 511.989 412.864 499.209 419.148L472.611 434.06C469.875 435.805 466.622 438.662 463.594 439.547L463.241 439.143L464.799 432.314L464.059 409.398L463.668 404.859L462.852 394.395L462.278 384.423L461.997 373.104L461.435 367.328L460.032 343.209C460.006 340.716 459.405 337.66 459.882 335.274L458.737 329.806C461.717 327.203 464.61 324.725 467.225 321.739C469.035 319.14 470.178 316.87 471.13 313.862C471.959 307.271 472.401 301.247 472.316 294.549L472.168 286.482L470.504 275.334L468.829 266.88C468.585 261.856 466.58 256.293 464.901 251.579L524.865 215.553Z"/>
	<path fill="white" transform="scale(0.0375 0.0375)" d="M461.435 367.328L461.795 364.907C467.507 360.901 473.779 357.481 479.688 353.745L537.261 317.324C540.162 315.522 543.247 313.397 546.541 312.413L546.415 320.227C543.509 322.547 539.61 324.272 536.369 326.22L504.927 344.822L481.139 360.511C474.791 364.874 468.578 369.346 461.843 373.104L461.435 367.328Z"/>
	<path fill="white" transform="scale(0.0375 0.0375)" d="M459.882 335.274C469.471 327.696 476.812 323.805 487.593 317.544L536.875 288.714C539.352 287.164 541.863 285.217 544.586 284.148C544.956 286.195 545.325 288.174 545.344 290.262L545.254 293.594C543.549 294.976 541.073 295.81 539.077 296.755L512.495 311.1C498.839 318.517 485.155 325.926 472.096 334.366C467.593 337.276 463.486 338.939 460.024 343.209C460.006 340.716 459.405 337.66 459.882 335.274Z"/>
	<path fill="#A79A92" transform="scale(0.0375 0.0375)" d="M471.13 313.862C485.146 308.196 493.039 299.608 504.668 291.6C516.475 283.469 529.78 276.316 540.393 266.633L540.829 266.779L541.786 271.338L544.586 284.148C541.863 285.217 539.352 287.164 536.875 288.714L487.593 317.544C476.812 323.805 469.471 327.696 459.612 335.274L458.737 329.806C461.717 327.203 464.61 324.725 467.225 321.739C469.035 319.14 470.178 316.87 471.13 313.862Z"/>
	<path fill="white" transform="scale(0.0375 0.0375)" d="M471.13 313.862C485.146 308.196 493.039 299.608 504.668 291.6C516.475 283.469 529.78 276.316 540.393 266.633L540.829 266.779L541.786 271.338C540.123 273.558 537.243 275.191 534.859 276.546L526.418 281.248C510.993 289.818 500.77 295.84 487.02 307.232L471.809 318.741C470.268 320.014 469.914 321.343 467.743 321.672L467.225 321.739C469.035 319.14 470.178 316.87 471.13 313.862Z"/>
	<path fill="#A79A92" transform="scale(0.0375 0.0375)" d="M472.168 286.482C474.469 284.394 478.148 282.893 480.943 281.328C492.733 274.729 504.882 268.139 516.116 260.641L530.555 250.41C532.77 248.832 534.769 247.139 537.184 245.858C537.995 248.486 539.22 251.136 538.349 253.878L540.186 263.484C540.345 264.25 540.939 266.066 540.829 266.779L540.393 266.633C529.78 276.316 516.475 283.469 504.668 291.6C493.039 299.608 485.146 308.196 471.13 313.862C471.959 307.271 472.401 301.247 472.316 294.549L472.168 286.482Z"/>
	<path fill="white" transform="scale(0.0375 0.0375)" d="M472.168 286.482C474.469 284.394 478.148 282.893 480.943 281.328C492.733 274.729 504.882 268.139 516.116 260.641L530.555 250.41C532.77 248.832 534.769 247.139 537.184 245.858C537.995 248.486 539.22 251.136 538.349 253.878C530.443 262.489 510.682 271.489 500.311 277.737C491.095 283.291 482.339 290.294 472.43 294.549L472.168 286.482Z"/>
	<path fill="#A79A92" transform="scale(0.0375 0.0375)" d="M524.865 215.553L527.097 221.151C526.226 222.765 524.717 224.954 525.072 226.812L526.55 227.819L526.625 230.163C527.168 230.699 527.643 231.734 528.161 232.135L542.106 232.293C540.027 233.54 538.509 235.97 536.668 237.55C535.895 239.965 536.127 243.526 537.184 245.858C534.769 247.139 532.77 248.832 530.555 250.41L516.116 260.641C504.882 268.139 492.733 274.729 480.943 281.328C478.148 282.893 474.469 284.394 472.079 286.482L470.504 275.334L468.829 266.88C468.585 261.856 466.58 256.293 464.901 251.579L524.865 215.553Z"/>
	<path fill="white" transform="scale(0.0375 0.0375)" d="M526.625 230.163C527.168 230.699 527.643 231.734 528.161 232.135L542.106 232.293C540.027 233.54 538.509 235.97 536.668 237.55L492.914 260.433L479.671 269.091C476.835 271.073 474.123 273.359 471.085 275.019L470.504 275.334L468.829 266.88L469.047 265.938C471.123 264.365 473.666 263.189 475.901 261.828L506.167 243.032C512.293 239.008 518.729 234.658 525.695 232.222L526.625 230.163Z"/>
	<path fill="#A79A92" transform="scale(0.0375 0.0375)" d="M524.865 215.553L527.097 221.151C526.226 222.765 524.717 224.954 525.072 226.812L526.55 227.819L526.625 230.163L525.695 232.222C518.729 234.658 512.293 239.008 506.167 243.032L475.901 261.828C473.666 263.189 471.123 264.365 469.047 265.938L468.829 266.88C468.585 261.856 466.58 256.293 464.901 251.579L524.865 215.553Z"/>
	<path fill="#A79A92" transform="scale(0.0375 0.0375)" d="M461.997 373.104C468.578 369.346 474.791 364.874 481.139 360.511L504.927 344.822L536.369 326.22C539.61 324.272 543.509 322.547 546.471 320.227L546.165 335.175C545.77 337.223 545.831 340.641 544.888 342.46C543.331 347.995 542.651 353.751 541.968 359.445C541.532 362.614 540.923 364.755 539.465 367.593C538.53 371.386 535.847 386.905 533.906 389.401C533.02 390.541 532.514 389.782 532.659 391.406L533.441 392.222C532.905 395.126 530.889 398.771 529.28 401.224C517.717 409.109 511.989 412.864 499.209 419.148L472.611 434.06C469.875 435.805 466.622 438.662 463.594 439.547L463.241 439.143L464.799 432.314L464.059 409.398L463.668 404.859L462.852 394.395L462.278 384.423L461.997 373.104Z"/>
	<path fill="white" transform="scale(0.0375 0.0375)" d="M462.278 384.423C472.237 379.85 481.641 373.153 490.854 367.4L538.057 338.593C540.278 337.155 543.196 334.183 545.963 335.175C545.77 337.223 545.831 340.641 544.888 342.46L467.769 391.659C466.274 392.684 464.623 393.917 462.852 394.395L462.278 384.423Z"/>
	<path fill="#A79A92" transform="scale(0.0375 0.0375)" d="M462.852 394.395C464.623 393.917 466.274 392.684 467.769 391.659L544.888 342.46C543.331 347.995 542.651 353.751 541.968 359.445C541.532 362.614 540.923 364.755 539.465 367.593C528.705 376.305 515.276 381.188 503.182 387.755C490.105 394.855 477.454 402.922 464.059 409.398L463.668 404.859L462.852 394.395Z"/>
	<path fill="white" transform="scale(0.0375 0.0375)" d="M463.668 404.859L539.905 359.558C540.91 359.011 540.852 359.116 541.968 359.445C541.532 362.614 540.923 364.755 539.465 367.593C528.705 376.305 515.276 381.188 503.182 387.755C490.105 394.855 477.454 402.922 464.059 409.398L463.668 404.859Z"/>
	<path fill="#A79A92" transform="scale(0.0375 0.0375)" d="M464.059 409.398C477.454 402.922 490.105 394.855 503.182 387.755C515.276 381.188 528.705 376.305 539.465 367.593C538.53 371.386 535.847 386.905 533.906 389.401C533.02 390.541 532.514 389.782 532.659 391.406L533.441 392.222C532.905 395.126 530.889 398.771 529.28 401.224C517.717 409.109 511.989 412.864 499.209 419.148L472.611 434.06C469.875 435.805 466.622 438.662 463.594 439.547L463.241 439.143L464.799 432.314L464.059 409.398Z"/>
	<path fill="white" transform="scale(0.0375 0.0375)" d="M464.799 432.314L465.114 431.615C469.396 429.869 473.537 427.019 477.571 424.757L529.13 393.997C530.492 393.258 531.874 392.361 533.441 392.222C532.905 395.126 530.889 398.771 529.28 401.224C517.717 409.109 511.989 412.864 499.209 419.148L472.611 434.06C469.875 435.805 466.622 438.662 463.594 439.547L463.241 439.143L464.799 432.314Z"/>
	<path fill="white" transform="scale(0.0375 0.0375)" d="M322.41 238.714C332.884 238.856 341.557 238.795 351.894 237.795L352.188 237.768L351.797 238.106C351.209 238.588 350.7 238.608 349.979 238.703L348.185 238.985C347.93 239.636 347.949 240.135 347.969 240.828L361.619 241.442C357.714 245.91 353.782 250.494 349.362 253.906L349.688 254.04C359.2 246.697 359.108 240.972 372.5 241.058C377.76 241.092 383.122 240.878 388.346 241.558L394.755 242.634L391.078 246.52C395.295 244.773 399.728 242.32 404.192 241.334C411.484 239.722 431.51 241.998 438.118 243.891C440.061 244.58 441.865 245.408 443.645 246.455C446.263 248.049 450.363 250.21 451.442 253.281L450.466 254.688L452.031 254.618C454.336 255.841 454.892 262.209 455.16 264.454L455.268 268.653L455.962 276.612C455.963 278.344 455.717 280.476 455.995 282.159C455.996 284.577 456.472 289.035 456.204 290.955C455.842 293.062 456.064 295.053 455.852 297.123L454.477 299.688C456.307 299.918 456.216 299.775 456.548 301.869C456.438 303.476 456.167 306.153 456.926 307.609C457.662 309.777 456.74 317.134 455.464 319.499C452.899 324.253 430.762 330.392 425.979 331.071L404.408 332.503L390.806 332.688C385.516 333.528 380.296 333.541 374.996 334.074C362.057 335.375 353.275 337.65 341.277 341.553L342.33 337.852L341.68 333.958C340.612 330.919 339.027 328.364 337.248 325.694L335.876 324.009C330.396 319.126 323.031 314.323 315.437 316.064C305.906 318.248 296.96 324.144 293.27 333.547C293.09 334.004 292.795 334.312 292.462 334.66L292.715 335.106C288.424 336.636 275.418 334.189 270.465 333.932L222.288 333.41C216.191 333.083 209.853 332.489 203.901 331.151C202.629 331.109 200.862 330.331 199.575 330.007C195.215 328.78 191.57 327.399 187.985 324.543C187.019 323.839 186.224 323.058 185.391 322.204C182.836 320.899 181.603 318.225 182.822 315.608L182.441 314.531C182.424 310.489 183.063 306.795 183.773 302.837L183.261 298.847C182.516 294.765 183.219 287.336 182.674 285.091C180.845 277.555 185.725 251.135 190.043 247.577C198.088 240.948 221.182 240.6 230.796 241.353L228.453 243.445C230.548 244.222 236.026 241.973 238.359 241.696C243.316 241.108 248.301 241.233 253.281 241.276C256.589 245.337 261.214 242.541 265.562 242.437L303.75 242.629C304.805 243.295 309.111 242.575 310.489 242.469C310.842 242.307 311.144 242.192 311.533 242.148L312.498 242.036C313.446 241.696 317.779 241.471 319.251 241.418L319.531 241.409C319.3 240.57 319.014 239.76 318.657 238.966L310.738 238.187C314.519 237.512 319.851 239.341 322.41 238.714Z"/>
	<path fill="#DAD2D0" transform="scale(0.0375 0.0375)" d="M341.68 333.958L342.143 333.565L343.775 334.516C344.435 334.941 345.639 335.031 346.408 335.234L347.877 335.053C346.255 335.813 344.375 336.993 342.651 337.355L342.33 337.852L341.68 333.958Z"/>
	<path fill="#A79A92" transform="scale(0.0375 0.0375)" d="M362.45 324.564L374.621 317.995C375.119 317.692 374.878 317.798 375.469 317.659L364.264 325.326C363.539 325.158 363.073 324.97 362.45 324.564Z"/>
	<path fill="#A79A92" transform="scale(0.0375 0.0375)" d="M454.729 304.636C455.888 303.578 456.102 303.361 456.548 301.869C456.438 303.476 456.167 306.153 456.926 307.609L454.008 307.487C453.085 307.594 452.352 307.968 451.522 308.356L451.019 306.244L454.729 304.636Z"/>
	<path fill="#DAD2D0" transform="scale(0.0375 0.0375)" d="M390.806 332.688C391.059 332.418 391.306 332.167 391.597 331.923L398.987 325.734C398.114 327.408 396.326 330.727 394.931 332.033L404.408 332.469L390.806 332.688Z"/>
	<path fill="#DAD2D0" transform="scale(0.0375 0.0375)" d="M451.522 308.356C445.71 309.382 439.387 314.417 434.688 317.896L434.222 317.656C437.377 314.737 441.325 312.479 444.96 310.212L451.019 306.244L451.522 308.356Z"/>
	<path fill="#A79A92" transform="scale(0.0375 0.0375)" d="M206.954 264.531L207.487 264.556C205.998 265.637 198.93 272.428 198.074 272.656L200.852 269.208L194.96 271.788L189.501 273.313C190.665 272.418 192.425 271.867 193.75 271.19L206.954 264.531Z"/>
	<path fill="#DAD2D0" transform="scale(0.0375 0.0375)" d="M340.917 245.156L324.219 260.565L323.798 260.709C329.403 253.838 333.139 250.018 340.917 245.156Z"/>
	<path fill="#DAD2D0" transform="scale(0.0375 0.0375)" d="M199.575 330.007C200.78 328.775 202.294 328.503 203.814 327.79L220.92 318.06C218.886 319.355 204.752 329.285 203.901 331.151C202.629 331.109 200.862 330.331 199.575 330.007Z"/>
	<path fill="#DAD2D0" transform="scale(0.0375 0.0375)" d="M446.269 296.662C445.417 296.512 435.62 300.37 433.783 301.131L421.647 306.66C429.237 300.496 438.007 296.976 447.592 295.486L446.269 296.662Z"/>
	<path fill="#A79A92" transform="scale(0.0375 0.0375)" d="M185.391 322.204L185.703 322.102C190.017 320.662 193.868 317.788 197.826 315.582L208.692 310.077C212.252 308.295 215.847 306.34 219.531 304.847L219.841 305.156C212.395 311.421 194.063 313.83 187.985 324.543C187.019 323.839 186.224 323.058 185.391 322.204Z"/>
	<defs>
		<linearGradient id="gradient_6" gradientUnits="userSpaceOnUse" x1="354.16992" y1="323.42328" x2="351.67151" y2="336.12766">
			<stop offset="0" stop-color="#BFB1AB"/>
			<stop offset="1" stop-color="#E1E5E6"/>
		</linearGradient>
	</defs>
	<path fill="url(#gradient_6)" transform="scale(0.0375 0.0375)" d="M342.143 333.565C348.296 333.602 356.929 327.14 362.45 324.564C363.073 324.97 363.539 325.158 364.264 325.326L347.877 335.053L346.408 335.234C345.639 335.031 344.435 334.941 343.775 334.516L342.143 333.565Z"/>
	<path fill="#A79A92" transform="scale(0.0375 0.0375)" d="M335.876 324.009L373.278 306.406C371.837 307.601 370.373 308.275 368.75 309.182L357.969 315.07C351.439 318.631 344.576 324.134 337.248 325.694L335.876 324.009Z"/>
	<path fill="#DAD2D0" transform="scale(0.0375 0.0375)" d="M438.118 243.891C440.061 244.58 441.865 245.408 443.645 246.455C441.571 247.165 439.504 248.255 437.512 249.169L418.463 258.777C424.77 253.58 432.569 249.794 438.118 243.891Z"/>
	<path fill="#A79A92" transform="scale(0.0375 0.0375)" d="M183.261 298.847L183.604 298.751C185.017 298.245 186.45 297.12 187.725 296.294L196.11 290.716C204.025 285.654 212.949 280.488 221.719 277.114L222.028 277.344C219.292 279.995 214.371 281.56 210.975 283.321C202.818 287.548 189.565 295.655 183.773 302.837L183.261 298.847Z"/>
	<path fill="#5D5857" transform="scale(0.0375 0.0375)" d="M322.41 238.714C332.884 238.856 341.557 238.795 351.894 237.795L352.188 237.768L351.797 238.106C351.209 238.588 350.7 238.608 349.979 238.703L348.185 238.985C347.93 239.636 347.949 240.135 347.969 240.828L361.619 241.442L310.489 242.464C310.842 242.307 311.144 242.192 311.533 242.148L312.498 242.036C313.446 241.696 317.779 241.471 319.251 241.418L319.531 241.409C319.3 240.57 319.014 239.76 318.657 238.966L310.738 238.187C314.519 237.512 319.851 239.341 322.41 238.714Z"/>
	<path fill="#A79A92" transform="scale(0.0375 0.0375)" d="M447.592 295.486C450.447 294.116 453.859 293.12 456.204 290.955C455.842 293.062 456.064 295.053 455.852 297.123C452.384 291.992 419.984 318.781 413.906 325.107L413.496 324.998C414.39 318.245 439.572 303.196 446.269 296.662L447.592 295.486Z"/>
	<path fill="#A79A92" transform="scale(0.0375 0.0375)" d="M455.16 264.454L455.268 268.653L454.957 268.82C452.506 269.94 450.341 271.481 448.049 272.883L415.825 290.695C413.146 292.084 410.185 294.195 407.244 294.892L453.041 267.398C454.424 266.479 454.817 266.065 455.16 264.454Z"/>
	<path fill="#A79A92" transform="scale(0.0375 0.0375)" d="M455.995 282.159C450.148 284.806 445.111 288.991 439.795 292.507C435.143 295.583 430.018 297.909 425.312 300.927C420.164 304.229 415.748 308.081 410.366 311.119C420.617 300.853 432.768 293.191 444.562 284.885C448.189 282.332 452.577 280.225 455.611 276.99L455.962 276.612C455.963 278.344 455.717 280.476 455.995 282.159Z"/>
	<path fill="white" transform="scale(0.0375 0.0375)" d="M437.569 334.528L446.719 332.698C447.223 333.824 446.801 334.745 446.931 335.9L447.27 341.95C447.981 343.888 447.583 346.818 447.777 348.944L448.163 349.016L448.412 358.172L448.635 362.095C448.907 364.243 450.086 375.169 449.62 376.85L448.287 378.003L449.923 377.858C450.376 380.493 450.309 383.141 450.454 385.8C450.712 390.545 448.565 388.471 445.985 391.146C455.686 389.391 448.507 392.092 451.344 396.366L451.202 399.111C451.288 403.938 452.957 408.163 447.299 409.531L451.295 409.226L451.211 420.281C450.776 420.439 450.433 420.434 450.193 420.846L451.144 420.838C452.115 424.275 451.497 442.38 450.454 444.198C448.329 447.9 433.059 450.84 429.047 451.402C422.99 452.249 415.294 451.586 410.486 452.45L401.163 452.394L368.658 452.486C367.359 452.751 365.534 452.481 364.182 452.459C356.3 452.773 348.365 454.17 340.48 453.733C338.214 453.407 335.948 453.71 333.661 453.448L323.176 453.428L313.339 453.433L293.733 453.641C289.881 453.671 292.495 451.723 293.726 449.817C296.972 442.814 304.631 436.333 310.247 431.175L310.156 430.811C303.179 436.232 297.431 443.239 290.878 449.186C286.549 452.495 283.957 454.173 278.555 453.844C268.32 453.222 258.324 452.143 248.016 452.45L243.294 452.173L222.088 452.47L214.621 452.397L214.553 452.099C212.453 452.19 208.655 451.849 206.961 450.587L204.041 448.419C203.553 447.971 203.218 447.662 202.616 447.358C201.272 446.199 200.029 443.839 199.408 442.178C199.046 441.62 198.763 441.195 198.579 440.547L198.142 438.909C197.22 437.167 196.79 433.413 196.594 431.407C196.66 430.261 196.349 429.238 196.072 428.134L195.063 419.118C195.075 417.866 194.877 416.634 194.717 415.395L194.503 403.822L194.662 389.903L194.757 389.086L194.746 387.282L194.671 378.86L194.67 375.247L194.605 364.087L194.112 360.651C205.553 351.261 211.55 345.994 224.175 338.167L234.406 338.472L255.356 338.487L259.754 338.37C269.525 338.48 280.659 337.777 290.191 340.469L288.927 341.476L288.614 341.817C290.025 342.379 293.028 340.668 293.715 342.188L293.475 344.013C293.839 345.174 293.859 345.416 293.594 346.601L290.103 349.673L293.809 347.872L294.566 357.406L286.311 362.085C289.16 361.315 292.084 359.497 294.787 358.251C296.643 362.635 298.207 365.309 302.205 368.021L305.36 369.357L305.574 369.404C312.908 371.156 326.296 367.84 332.673 364.628L337.973 361.711C338.969 361.131 339.999 360.342 341.108 360.025C342.941 359.5 339.316 359.86 338.594 359.595C339.184 353.12 344.6 351.568 349.58 348.945C365.877 340.361 369.086 338.714 386.722 337.064C388.337 336.913 390.134 337.074 391.62 336.371C392.237 336.236 393.473 336.393 394.144 336.387L400.296 336.331C412.779 337.179 425.21 336.141 437.569 334.528Z"/>
	<path fill="#DAD2D0" transform="scale(0.0375 0.0375)" d="M302.205 368.021L305.36 369.357C299.147 370.264 293.948 373.303 288.438 376.066L287.972 375.781C292.288 372.412 297.717 371.132 302.205 368.021Z"/>
	<path fill="#DAD2D0" transform="scale(0.0375 0.0375)" d="M451.202 399.111C448.01 399.735 437.209 404.664 436.406 404.613C436.717 403.98 438.984 403.018 439.673 402.668L445.845 399.31C447.572 398.392 449.188 397.91 450.716 396.617L451.002 396.366L451.202 399.111Z"/>
	<path fill="#A79A92" transform="scale(0.0375 0.0375)" d="M364.182 452.459L364.469 452.358C370.25 450.163 376.638 440.385 382.031 436.415L382.121 436.8C376.026 442.695 373.733 446.548 368.658 452.517C367.359 452.751 365.534 452.481 364.182 452.459Z"/>
	<path fill="#DAD2D0" transform="scale(0.0375 0.0375)" d="M313.339 453.433L313.528 453.202C314.462 451.934 314.229 450.115 315.255 448.906C316.613 447.306 326.537 439.829 328.594 438.597L328.903 438.906C321.021 445.377 321.143 445.226 315.326 453.028C317.741 453.033 320.853 452.656 323.176 453.153L313.339 453.433Z"/>
	<path fill="#DAD2D0" transform="scale(0.0375 0.0375)" d="M202.616 447.358C209.075 444.302 211.787 442.171 217.656 438.909L217.966 439.219C215.14 441.234 207.686 446.406 207.043 450.06L206.961 450.587L204.041 448.419C203.553 447.971 203.218 447.662 202.616 447.358Z"/>
	<path fill="#DAD2D0" transform="scale(0.0375 0.0375)" d="M401.163 452.394L401.759 451.939C411.501 448.735 418.509 438.895 410.486 452.139L401.163 452.394Z"/>
	<path fill="#A79A92" transform="scale(0.0375 0.0375)" d="M333.661 453.448C337.732 452.142 341.296 450.692 344.907 448.362C346.603 447.268 352.391 442.463 353.959 442.24C350.16 446.997 345.082 449.978 340.48 453.733C338.214 453.407 335.948 453.71 333.661 453.448Z"/>
	<path fill="#A79A92" transform="scale(0.0375 0.0375)" d="M194.717 415.395L194.988 415.377C198.449 415.073 210.504 409.359 215.156 407.972L203.681 413.935C200.588 415.399 197.512 416.632 195.063 419.118C195.075 417.866 194.877 416.634 194.717 415.395Z"/>
	<path fill="#A79A92" transform="scale(0.0375 0.0375)" d="M448.459 358.172L448.635 362.095C443.244 362.843 425.41 373.9 422.37 373.281C429.737 370.026 442.811 364.033 448.459 358.172Z"/>
	<path fill="#DAD2D0" transform="scale(0.0375 0.0375)" d="M214.621 452.397C223.519 448.689 223.819 449.511 232.545 443.288L248.591 431.406C245.411 434.148 242.232 436.944 238.849 439.433L229.974 445.709C227.442 447.689 224.351 450.183 222.088 452.479L214.621 452.397Z"/>
	<path fill="#DAD2D0" transform="scale(0.0375 0.0375)" d="M293.475 344.013C290.656 343.293 287.937 344.453 285.269 345.243L278.538 346.918C281.48 344.582 284.781 340.199 288.927 341.476L288.614 341.817C290.025 342.379 293.028 340.668 293.715 342.188L293.475 344.013Z"/>
	<path fill="#DAD2D0" transform="scale(0.0375 0.0375)" d="M255.356 338.447L259.754 338.37L246.073 348.083C244.382 349.164 242.666 350.502 240.781 351.182L240.874 350.893C246.206 347.262 250.182 342.204 255.356 338.447Z"/>
	<path fill="#A79A92" transform="scale(0.0375 0.0375)" d="M194.67 375.247C203.734 370.137 211.827 363.263 220.156 357.064L206.499 368.821C202.459 372.101 198.335 375.095 194.711 378.86L194.67 375.247Z"/>
	<path fill="#A79A92" transform="scale(0.0375 0.0375)" d="M447.27 341.95C447.981 343.888 447.583 346.818 447.777 348.944L448.163 349.016L447.031 348.727C443.79 349.759 440.692 352.611 437.778 354.389L421.239 363.281C426.263 360.394 447.653 348.462 447.291 342.262L447.27 341.95Z"/>
	<path fill="#DAD2D0" transform="scale(0.0375 0.0375)" d="M198.142 438.909L220.153 426.719L206.107 436.607C203.734 438.398 201.36 439.888 199.408 442.178C199.046 441.62 198.763 441.195 198.579 440.547L198.142 438.909Z"/>
	<path fill="#DAD2D0" transform="scale(0.0375 0.0375)" d="M243.294 452.173C245.536 450.926 247.892 449.777 249.989 448.297L272.687 430.776C273.094 430.471 272.852 430.55 273.436 430.627L248.016 452.167L243.294 452.173Z"/>
	<path fill="#DAD2D0" transform="scale(0.0375 0.0375)" d="M437.569 334.528L446.719 332.698C447.223 333.824 446.801 334.745 446.931 335.9C439.129 337.389 433.294 340.352 426.562 344.517L426.097 344.219C429.899 341.493 434.522 338.651 437.729 335.278L437.569 334.528Z"/>
	<path fill="#DAD2D0" transform="scale(0.0375 0.0375)" d="M391.62 336.726C392.237 336.236 393.473 336.393 394.144 336.387L400.296 336.331C399.533 341.579 388.357 344.731 384.321 345.664C387.552 342.948 390.747 341.349 392.421 337.221L391.62 336.726Z"/>
	<path fill="#A79A92" transform="scale(0.0375 0.0375)" d="M196.072 428.134L196.631 428.019C200.077 427.293 202.901 425.374 206.071 423.919C214.346 420.122 222.979 416.254 232.031 414.847L232.341 415.156C231.55 415.462 230.827 415.697 229.998 415.885L222.786 417.871C216.205 420.09 201.978 427.691 196.594 431.407C196.66 430.261 196.349 429.238 196.072 428.134Z"/>
	<path fill="#7B6F65" transform="scale(0.0375 0.0375)" d="M194.746 387.282C199.338 385.161 203.97 383.072 208.335 380.502L221.904 372.352C223.977 371.19 226.164 369.785 228.469 369.133C221.823 374.974 214.937 379.323 206.92 383.076C202.873 384.971 198.37 386.435 194.757 389.086L194.746 387.282Z"/>
	<path fill="#A79A92" transform="scale(0.0375 0.0375)" d="M194.662 389.903L194.695 400.102L227.294 384.062C224.342 386.582 220.37 388.496 217.047 390.56L200.625 400.584C198.678 401.662 196.574 403.014 194.503 403.822L194.662 389.903Z"/>
	<path fill="#A79A92" transform="scale(0.0375 0.0375)" d="M224.175 338.167L234.406 338.472C229.679 338.966 230.277 338.3 226.031 340.607C214.923 346.644 204.768 354.657 195.657 363.407C195.259 363.789 194.906 363.911 194.396 364.087L194.112 360.651C205.553 351.261 211.55 345.994 224.175 338.167Z"/>
</svg>
