<?xml version="1.0" encoding="utf-8" ?>
<svg xmlns="http://www.w3.org/2000/svg" xmlns:xlink="http://www.w3.org/1999/xlink" width="24" height="24">
	<path fill="#342F2F" transform="matrix(0.0375 0 0 0.0375 0 1.90735e-06)" d="M496.432 153.397C515.36 152.412 553.08 154.421 559.538 175.156C561.034 179.957 561.96 184.662 559.467 189.271C557.546 192.824 558.486 197.821 558.484 201.727L557.789 278.752L556.226 311.586C556.144 313.427 556.24 315.455 555.901 317.267C554.282 325.915 553.729 343.253 553.682 352.931L553.779 433.832C554.206 473.414 521 474.552 490.694 476.52L430 482.151L382.969 485.234C380.864 485.377 378.812 485.884 376.71 486.043L361.544 486.562C359.502 486.67 357.498 487.127 355.469 487.224L267.261 489.234C264.626 489.355 262.001 489.816 259.375 489.891L149.492 490.355C94.5057 493.04 87.5437 471.836 87.5368 419.807C87.536 413.424 86.5749 389.156 89.3989 384.053L89.6755 383.594C88.8648 379.583 89.0588 375.493 89.0552 371.421L89.1143 325.156C89.1992 322.136 89.7601 319.17 89.8427 316.143L90.1731 297.266C90.2754 295.15 90.7739 293.091 90.9092 290.982L92.7661 254.844C92.8898 252.847 93.3681 250.9 93.513 248.907L95.306 225.312C96.092 217.598 96.6413 209.529 98.0144 201.905L99.7768 191.97C100.22 189.64 100.81 189.649 99.4591 187.749C89.0147 173.061 123.501 165.584 133.906 164.595C146.383 163.41 158.87 164.217 171.372 163.762C175.399 163.616 179.268 162.675 183.288 162.565L232.074 162.412C235.85 162.329 239.506 161.476 243.281 161.357L261.37 161.052C265.044 160.881 268.655 160.196 272.344 160.095L293.791 159.876L318.636 158.375C335.232 157.41 351.798 156.536 368.45 156.42L394.858 155.873C398.411 155.828 401.813 155.224 405.312 155.058L448.124 154.949C453.498 154.874 458.782 154 464.141 153.816L496.432 153.397ZM154.812 173.578L154.052 172.958C152.681 173.263 146.502 173.901 146.014 174.266C139.722 180.494 126.684 183.978 122.259 194.763C123.035 195.259 123.894 195.93 124.747 196.253L143.109 208.349L145.814 210.25L154.92 216.852C156.705 218.226 158.609 220.118 160.573 221.15C162.145 222.76 164.379 224.782 166.576 225.378C177.486 229.524 185.465 238.565 194.578 245.44L285.085 313.738C294.431 320.664 310.337 334.003 321.677 337.078C334.065 340.438 360.273 318.601 369.738 311.155L379.182 303.134L379.487 302.887L380.027 303.13C382.131 302.519 384.448 300.381 386.254 299.073L501.577 214.832C504.783 212.438 508.068 210.176 510.729 207.163C505.794 206.343 500.726 207.236 495.754 207.554L462.266 210.004L420.543 211.362C414.366 211.605 407.732 213.197 401.55 212.001C392.693 210.287 388.387 211.222 379.495 212.09C375.238 212.507 370.891 212.251 366.618 212.534C362.573 212.803 358.624 213.772 354.531 214.029L328.438 215.218C326.002 215.342 323.565 215.805 321.134 215.994L293.779 218.234C287.276 218.925 280.85 219.397 274.4 220.578L273.764 221.1C271.035 219.418 214.996 225.544 207.69 226.68C195.684 228.549 193.243 234.261 184.968 224.096L186.722 221.27C192.204 220.884 199.171 222.17 205.948 221.859L217.148 221.26C223.085 220.784 229.078 220.409 235 219.747L248.281 218.427C249.63 218.252 250.929 217.867 252.29 217.739L262.969 217.219C272.06 216.437 281.072 215.492 290.156 214.773L316.861 212.384C318.465 212.501 321.757 212.365 323.163 211.389L334.504 210.929C337.845 211.071 341.018 209.961 344.333 210.299L356.534 210.301C365.257 210.284 365.54 208.258 372.148 202.569L380.706 193.689C388.303 185.581 396.2 176.381 405.134 169.755C399.136 177.907 392.126 185.343 385.616 193.088L378.799 201.181C377.36 202.928 375.898 205.073 374.145 206.486L372.251 208.494C376.695 208.504 384.275 208.357 388.534 207.009C391.294 206.136 393.289 204.064 396.28 203.677C401.519 202.998 407.302 205.115 412.216 203.587C413.938 203.591 414.364 202.858 415.781 202.028L416.538 201.502C416.966 201.075 417.251 200.949 417.734 200.623L419.033 199.564C423.292 196.522 427.352 191.917 430.936 188.123L442.578 176.405C444.472 174.511 445.739 171.712 448.594 171.722L448.127 172.578C447.751 173.171 447.252 173.391 446.877 174.064L445.718 175.371C444.945 176.143 443.58 177.525 443.127 178.439L422.964 198.92C421.724 200.159 420.217 201.184 418.906 202.347L416.562 204.062C415.471 204.814 414.523 205.01 413.989 206.364L410.532 208.5L440.671 206.263L441.223 205.742C442.848 203.354 445.969 201.481 448.102 199.506C458.364 190 468.326 178.82 480.205 171.348C480.758 170.838 480.817 170.812 481.561 170.699L481.825 170.809C483.901 171.606 486.679 168.112 488.752 167.202L489.129 166.964C489.861 166.608 491.653 166.516 492.394 166.886L492.656 167.06C493.399 167.478 494.114 167.817 494.844 168.284L495.271 168.547C497.074 169.703 497.617 171.518 499.08 172.83L499.141 174.533C500.504 173.75 500.351 173.309 502.099 172.893C502.542 172.759 503.351 171.955 503.775 171.63L509.69 166.997C511.351 165.737 513.173 164.757 514.818 163.428C505.548 162.525 496.494 163.694 487.258 163.761L421.444 164.619C414.9 164.825 408.33 166.009 401.797 166.146L308.447 166.235C300.921 166.337 293.518 167.712 285.972 167.82L252.969 168.019C250.103 168.121 247.318 168.829 244.433 168.939C235.264 169.289 225.764 170.17 216.807 170.284L173.03 171.092C167.795 171.106 161.54 170.382 156.719 172.864L154.812 173.578ZM191.407 417.371L192.034 417.656C191.323 420.201 189.053 421.012 187.168 422.669C183.062 426.279 179.79 430.295 176.917 434.946C174.427 437.19 171.84 439.165 168.921 440.831L167.02 442.089L158.708 448.376C156.631 449.994 154.323 452.17 151.761 452.887C146.941 454.908 139.772 450.76 144.156 445.311C146.587 442.289 149.713 439.756 152.627 437.214L152.266 435.547C153.544 432.565 159.402 431.907 158.338 427.535L129.003 447.251C123.984 451.2 120.141 456.17 115.55 460.546C113.203 462.783 110.312 464.213 107.931 466.346C113.613 476.031 122.936 480.836 133.767 481.739C138.023 482.506 142.562 482.516 146.879 482.503L155.805 482.562L163.99 483.032C164.977 483.072 166.515 483.232 167.413 482.532L174.581 483.147L189.754 483.421L195.296 483.428L216.362 483.194L227.846 482.54L236.861 482.505L253.572 482.505C256.507 482.223 260.79 482.941 263.458 481.302L275.597 481.298L285.73 480.652C288.248 480.996 291.009 480.78 293.554 480.726L307.086 479.967L318.173 479.574L337.208 478.472L349.174 477.526L345.7 477.462C346.205 476.616 347.646 475.861 348.452 475.269L372.61 454.281L438.833 407.934L436.335 405.639L379.465 359.805L376.693 357.595L362.41 346.724L360.898 345.506L355.253 341.419L352.833 339.746L346.915 336.007C327.272 349.995 321.564 349.09 301.581 337.674C298.071 335.669 297.437 333.243 294.068 335.634L191.407 417.371ZM216.167 278.77C213.167 281.173 209.714 283.105 206.552 285.306L176.449 305.373C174.975 306.265 173.363 307.084 172.072 308.229C163.853 312.946 156.249 318.837 148.438 324.199C144.353 327.004 139.933 329.431 135.974 332.395L114.648 348.05C111.034 350.592 107.486 353.35 103.518 355.315L99.6698 356.849L99.021 361.507L98.8065 376.051L98.8926 384.437L98.7386 390.425L98.7135 393.916L98.7578 402.352L98.7621 410.028C98.7646 415.209 98.3131 420.849 99.0241 425.97L99.0857 429.436C99.0472 431.381 99.0199 433.262 99.2667 435.197L100.444 445.383C100.932 447.956 101.318 450.671 102.35 453.092L104.044 457.996C105.006 460.606 106.136 464.196 107.931 466.346C110.312 464.213 113.203 462.783 115.55 460.546C120.141 456.17 123.984 451.2 129.003 447.251L158.338 427.535C159.402 431.907 153.544 432.565 152.266 435.547L152.627 437.214L166.601 426.196L291.105 331.598L283.169 326.003L275.908 321.05C275.886 320.971 263.989 312.229 261.572 310.427C260.449 309.098 258.548 307.924 257.134 306.869L248.626 300.539L243.766 296.963L242.987 296.245L241.58 295.208L234.63 290.046L231.534 287.719L228.467 285.603L227.294 284.667L221.556 280.274C221.468 280.352 221.038 280.766 220.94 280.809C219.635 279.922 217.636 279.603 216.167 278.77ZM198.939 263.583C194.648 268.443 189.261 271.042 183.846 274.496C173.272 281.24 162.404 288.363 151.25 294.099L140.144 299.652C137.91 300.75 134.9 302.03 133.022 303.625C121.896 309.434 112.385 319.013 100.332 323.079C100.242 324.787 100.5 329.759 99.7871 330.988L99.6698 356.849L103.518 355.315C107.486 353.35 111.034 350.592 114.648 348.05L135.974 332.395C139.933 329.431 144.353 327.004 148.438 324.199C156.249 318.837 163.853 312.946 172.072 308.229C173.363 307.084 174.975 306.265 176.449 305.373L206.552 285.306C209.714 283.105 213.167 281.173 216.167 278.77L217.184 276.958L213.17 273.966L208.571 270.742L203.925 266.992L198.939 263.583ZM179.207 249.142C176.02 252.092 153.868 265.968 150.028 267.624L101.333 295.899L101.233 303.917L101.214 305.851L100.332 323.079C112.385 319.013 121.896 309.434 133.022 303.625C134.9 302.03 137.91 300.75 140.144 299.652L151.25 294.099C162.404 288.363 173.272 281.24 183.846 274.496C189.261 271.042 194.648 268.443 198.939 263.583C196.881 261.823 194.703 259.816 192.191 258.746C191.409 257.716 189.982 256.855 188.934 256.052L179.207 249.142ZM152.009 228.426L149.492 232.167C147.643 233.536 145.595 234.883 143.934 236.47L128.65 245.61C126.206 247.087 123.363 248.578 121.199 250.409C115.658 254.359 109.998 258.571 103.445 260.557L103.159 263.499C102.322 267.572 102.431 272.218 102.465 276.369L102.465 277.488C101.995 281.754 101.506 285.871 101.554 290.181L101.434 295.899L150.028 267.624C153.868 265.968 176.02 252.092 179.207 249.142L177.44 248.049C175.125 245.442 171.84 243.193 169.01 241.162L165.495 238.346L156.63 231.632L155.142 230.721L152.009 228.426ZM497.341 435.917L491.483 441.553L493.197 443.18L498.265 447.764L499.769 449.21C503.766 447.52 506.673 445.816 510.221 443.341L531.265 427.374L539.883 419.975L540.138 420.396C540.718 421.38 541.096 422.136 542.031 422.986L543.777 422.411L543.797 421.701C544.623 418.032 544.057 412.991 544.04 409.191L543.95 395.697L497.341 435.917ZM139.54 221.174C137.935 223.388 135.968 224.794 133.768 226.341L117.275 237.96C113.411 240.77 109.828 244.01 105.332 245.781C104.902 246.519 104.836 247.395 104.694 248.225L104.253 251.184C103.436 253.888 103.328 257.756 103.445 260.557C109.998 258.571 115.658 254.359 121.199 250.409C123.363 248.578 126.206 247.087 128.65 245.61L143.934 236.47C145.595 234.883 147.643 233.536 149.492 232.167L152.009 228.426C149.94 226.98 147.902 225.504 145.612 224.427L139.54 221.174ZM128.311 213.591C127.284 215.021 126.299 216.395 125.017 217.609C119.505 221.029 113.835 226.241 107.481 227.701C107.045 227.801 106.715 227.923 106.324 228.136L105.93 229.624C105.91 231.347 105.954 233.037 105.394 234.704C104.403 239.004 104.804 243.839 104.694 248.225C104.836 247.395 104.902 246.519 105.332 245.781C109.828 244.01 113.411 240.77 117.275 237.96L133.768 226.341C135.968 224.794 137.935 223.388 139.54 221.174L132.48 216.748L128.311 213.591ZM509.449 457.686L514.318 460.791C526.146 456.79 539.534 447.474 542.617 434.93L519.466 451.663C516.41 453.756 512.123 455.328 509.449 457.686ZM146.014 174.266C127.468 177.418 127.913 178.675 111.586 188.646L122.259 194.763C126.684 183.978 139.722 180.494 146.014 174.266Z"/>
	<path fill="#DAD2D0" transform="matrix(0.0375 0 0 0.0375 0 1.90735e-06)" d="M217.184 276.958L221.556 280.274C221.468 280.352 221.038 280.766 220.94 280.809C219.635 279.922 217.636 279.603 216.167 278.77L217.184 276.958Z"/>
	<defs>
		<linearGradient id="gradient_0" gradientUnits="userSpaceOnUse" x1="152.72218" y1="442.9873" x2="168.55922" y2="443.90768">
			<stop offset="0" stop-color="#373334"/>
			<stop offset="1" stop-color="#999898"/>
		</linearGradient>
	</defs>
	<path fill="url(#gradient_0)" transform="matrix(0.0375 0 0 0.0375 0 1.90735e-06)" d="M167.622 435.434L169.001 434.259C168.716 436.473 168.869 438.611 168.921 440.831L167.02 442.089L158.708 448.376C156.631 449.994 154.323 452.17 151.761 452.887C152.923 451.386 154.726 451.115 155.988 449.698L156.252 449.377C157.675 448.905 158.506 447.831 158.83 446.544L158.909 446.25C158.341 445.397 158.595 443.853 158.594 442.812C157.746 443.176 156.993 443.821 156.25 444.375L155.391 445.078C154.691 445.491 154.557 445.571 153.984 446.172L154.844 444.6C158.91 441.2 163.553 438.799 167.622 435.434Z"/>
	<path fill="#A79A92" transform="matrix(0.0375 0 0 0.0375 0 1.90735e-06)" d="M169.001 434.259C175.885 427.89 183.67 422.632 191.407 417.371L192.034 417.656C191.323 420.201 189.053 421.012 187.168 422.669C183.062 426.279 179.79 430.295 176.917 434.946C174.427 437.19 171.84 439.165 168.921 440.831C168.869 438.611 168.716 436.473 169.001 434.259Z"/>
	<path fill="#DAD2D0" transform="matrix(0.0375 0 0 0.0375 0 1.90735e-06)" d="M479.612 467.305L479.157 466.406C484.237 463.033 489 460.644 494.416 456.933L504.063 465.552L479.612 467.305Z"/>
	<path fill="#DAD2D0" transform="matrix(0.0375 0 0 0.0375 0 1.90735e-06)" d="M107.26 211.287L108.872 198.06L119.765 206.747C119.322 208.285 118.673 209.284 117.254 210.089L106.426 220.385L107.26 211.287Z"/>
	<path fill="#A79A92" transform="matrix(0.0375 0 0 0.0375 0 1.90735e-06)" d="M466.832 468.684C474.567 463.535 482.231 458.735 488.425 451.68L494.416 456.933C489 460.644 484.237 463.033 479.157 466.406L479.612 467.305L466.832 468.684Z"/>
	<path fill="#A79A92" transform="matrix(0.0375 0 0 0.0375 0 1.90735e-06)" d="M119.765 206.747L128.311 213.591C127.284 215.021 126.299 216.395 125.017 217.609C119.505 221.029 113.835 226.241 107.481 227.701C107.045 227.801 106.715 227.923 106.324 228.136L105.93 229.624C105.902 226.582 105.76 223.372 106.394 220.385L117.254 210.089C118.673 209.284 119.322 208.285 119.765 206.747Z"/>
	<path fill="#A79A92" transform="matrix(0.0375 0 0 0.0375 0 1.90735e-06)" d="M543.758 424.726L542.617 434.93L519.466 451.663C516.41 453.756 512.123 455.328 509.449 457.686L505.544 454.267L536.644 430.411L543.758 424.726Z"/>
	<path fill="white" transform="matrix(0.0375 0 0 0.0375 0 1.90735e-06)" d="M481.999 446.234L488.425 451.68C482.231 458.735 474.567 463.535 466.832 468.684C460.439 469.883 454.327 470.116 447.879 470.632C449.287 469.291 452.203 468.458 453.979 467.396L471.92 455.496C475.398 452.986 480.058 450.142 481.999 446.234Z"/>
	<path fill="#DAD2D0" transform="matrix(0.0375 0 0 0.0375 0 1.90735e-06)" d="M539.883 419.975L540.138 420.396C540.718 421.38 541.096 422.136 542.031 422.986L543.777 422.411L543.758 424.726L536.644 430.411L505.544 454.267L499.769 449.21C503.766 447.52 506.673 445.816 510.221 443.341L531.265 427.374L539.883 419.975Z"/>
	<path fill="#A79A92" transform="matrix(0.0375 0 0 0.0375 0 1.90735e-06)" d="M474.908 439.895L481.999 446.234C480.058 450.142 475.398 452.986 471.92 455.496L453.979 467.396C452.203 468.458 449.287 469.291 447.879 470.674C446.228 471.213 443.322 471.077 441.57 470.949C444.113 469.513 446.47 466.449 448.556 464.372L474.908 439.895Z"/>
	<path fill="#A79A92" transform="matrix(0.0375 0 0 0.0375 0 1.90735e-06)" d="M128.311 213.591L132.48 216.748L139.54 221.174C137.935 223.388 135.968 224.794 133.768 226.341L117.275 237.96C113.411 240.77 109.828 244.01 105.332 245.781C104.902 246.519 104.836 247.395 104.694 248.225C104.804 243.839 104.403 239.004 105.394 234.704C105.954 233.037 105.91 231.347 105.93 229.624L106.324 228.136C106.715 227.923 107.045 227.801 107.481 227.701C113.835 226.241 119.505 221.029 125.017 217.609C126.299 216.395 127.284 215.021 128.311 213.591ZM128.311 213.591C127.284 215.021 126.299 216.395 125.017 217.609C119.505 221.029 113.835 226.241 107.481 227.701C107.045 227.801 106.715 227.923 106.324 228.136L105.93 229.624C105.91 231.347 105.954 233.037 105.453 234.704C109.794 231.656 113.794 227.989 118.233 225.134C122.73 222.242 127.727 220.306 131.983 217L132.48 216.748L128.311 213.591Z"/>
	<path fill="#DAD2D0" transform="matrix(0.0375 0 0 0.0375 0 1.90735e-06)" d="M128.311 213.591L132.48 216.748L131.983 217C130.892 216.742 129.564 216.357 128.542 216.993L128.125 217.276C127.097 217.893 126.148 217.793 125.017 217.609C126.299 216.395 127.284 215.021 128.311 213.591Z"/>
	<path fill="#A79A92" transform="matrix(0.0375 0 0 0.0375 0 1.90735e-06)" d="M139.54 221.174L145.612 224.427C147.902 225.504 149.94 226.98 152.009 228.426L149.492 232.167C147.643 233.536 145.595 234.883 143.934 236.47L128.65 245.61C126.206 247.087 123.363 248.578 121.199 250.409C115.658 254.359 109.998 258.571 103.445 260.557C103.328 257.756 103.436 253.888 104.253 251.184L104.694 248.225C104.836 247.395 104.902 246.519 105.332 245.781C109.828 244.01 113.411 240.77 117.275 237.96L133.768 226.341C135.968 224.794 137.935 223.388 139.54 221.174ZM133.768 226.341L117.275 237.96C113.411 240.77 109.828 244.01 105.332 245.781C104.902 246.519 104.836 247.395 104.694 248.225L104.291 251.184C105.25 250.984 106.269 250.065 107.077 249.506L134.992 231.467L138.281 228.597C137.602 228.427 136.454 227.957 136.041 227.381L133.768 226.341Z"/>
	<path fill="white" transform="matrix(0.0375 0 0 0.0375 0 1.90735e-06)" d="M139.54 221.174L145.612 224.427C143.053 227.361 138.466 229.776 134.992 231.467L138.281 228.597C137.602 228.427 136.454 227.957 136.041 227.381L133.768 226.341C135.968 224.794 137.935 223.388 139.54 221.174Z"/>
	<path fill="#A79A92" transform="matrix(0.0375 0 0 0.0375 0 1.90735e-06)" d="M465.252 431.215C467.454 433.033 469.989 435.108 471.848 437.28L474.908 439.895L448.556 464.372C446.47 466.449 444.113 469.513 441.57 470.949C437.416 471.166 432.437 471.946 428.354 471.452C426.925 472.366 419.574 473.012 417.699 472.466C423.539 464.243 440.661 449.176 449.038 442.884L459.636 435.659C461.485 434.42 463.98 433.058 465.252 431.215Z"/>
	<path fill="white" transform="matrix(0.0375 0 0 0.0375 0 1.90735e-06)" d="M471.848 437.28L474.908 439.895L448.556 464.372C446.47 466.449 444.113 469.513 441.57 470.949C437.416 471.166 432.437 471.946 428.354 471.452C429.245 470.491 430.687 469.54 431.826 468.594L457.632 447.327C462.272 443.801 467.455 441.124 471.848 437.28Z"/>
	<path fill="#DAD2D0" transform="matrix(0.0375 0 0 0.0375 0 1.90735e-06)" d="M497.341 435.917L543.95 395.697L544.04 409.191C544.057 412.991 544.623 418.032 543.797 421.701L543.777 422.411L542.031 422.986C541.096 422.136 540.718 421.38 540.138 420.396L539.883 419.975L531.265 427.374L510.221 443.341C506.673 445.816 503.766 447.52 499.769 449.21L498.265 447.764L493.197 443.18L491.483 441.553L497.341 435.917ZM543.846 409.114C543.335 411.445 541.382 411.914 539.628 413.37L508.405 439.542C505.752 442.128 502.041 446.921 498.265 447.764L499.769 449.21C503.766 447.52 506.673 445.816 510.221 443.341L531.265 427.374L539.883 419.975L540.138 420.396C540.718 421.38 541.096 422.136 542.031 422.986L543.777 422.411L543.797 421.701C544.623 418.032 544.057 412.991 544.032 409.191L543.846 409.114Z"/>
	<defs>
		<linearGradient id="gradient_1" gradientUnits="userSpaceOnUse" x1="530.1665" y1="391.16489" x2="508.55261" y2="448.90048">
			<stop offset="0" stop-color="#848282"/>
			<stop offset="1" stop-color="#C1C1C0"/>
		</linearGradient>
	</defs>
	<path fill="url(#gradient_1)" transform="matrix(0.0375 0 0 0.0375 0 1.90735e-06)" d="M497.341 435.917L543.95 395.697L544.04 409.191L543.846 409.114L543.754 401.645C542.807 403.226 539.364 404.954 537.779 406.245L512.363 427.808C508.198 431.276 503.484 434.085 499.704 438.03L493.197 443.18L491.483 441.553L497.341 435.917Z"/>
	<path fill="#A79A92" transform="matrix(0.0375 0 0 0.0375 0 1.90735e-06)" d="M543.846 409.114L544.032 409.191C544.057 412.991 544.623 418.032 543.797 421.701L543.777 422.411L542.031 422.986C541.096 422.136 540.718 421.38 540.138 420.396L539.883 419.975L531.265 427.374L510.221 443.341C506.673 445.816 503.766 447.52 499.769 449.21L498.265 447.764C502.041 446.921 505.752 442.128 508.405 439.542L539.628 413.37C541.382 411.914 543.335 411.445 543.846 409.114ZM539.883 419.975L540.138 420.396C540.718 421.38 541.096 422.136 542.031 422.986L543.777 422.411L543.789 421.701L543.781 416.108C542.595 417.512 541.227 418.726 539.883 419.975Z"/>
	<defs>
		<linearGradient id="gradient_2" gradientUnits="userSpaceOnUse" x1="397.37531" y1="441.73831" x2="448.8017" y2="456.31421">
			<stop offset="0" stop-color="#9C9B98"/>
			<stop offset="1" stop-color="#BBBAB9"/>
		</linearGradient>
	</defs>
	<path fill="url(#gradient_2)" transform="matrix(0.0375 0 0 0.0375 0 1.90735e-06)" d="M455.24 422.13L459.003 425.759L465.252 431.215C463.98 433.058 461.485 434.42 459.636 435.659L449.038 442.884C440.661 449.176 423.539 464.243 417.699 472.614L400.54 474.148C399.07 474.791 397.116 474.744 395.546 474.817L386.693 475.066L403.871 458.9C409.428 453.685 414.452 449.136 420.894 445.141L449.219 426.29C451.279 424.866 453.516 423.985 455.24 422.13Z"/>
	<path fill="white" transform="matrix(0.0375 0 0 0.0375 0 1.90735e-06)" d="M459.003 425.759L465.252 431.215C463.98 433.058 461.485 434.42 459.636 435.659L449.038 442.884C440.661 449.176 423.539 464.243 417.699 472.614L400.54 474.148C402.053 472.112 404.26 470.504 406.193 468.878L442.467 438.375L455.198 429.278C456.575 428.219 457.593 426.802 459.003 425.759Z"/>
	<path fill="#DAD2D0" transform="matrix(0.0375 0 0 0.0375 0 1.90735e-06)" d="M403.474 296.053C409.354 290.678 415.947 285.957 422.351 281.229L475.312 244.723L501.858 225.449L528.73 208.49C535.81 203.858 542.353 198.209 550.018 194.525L549.538 202.175C538.449 206.422 530.757 214.551 521.408 221.223L510.312 229.138C507.224 231.255 503.949 233.153 501.066 235.556C495.631 240.087 490.623 246.07 484.748 249.915C477.419 256.413 468.53 263.588 459.729 268.038C459.026 268.955 457.763 269.593 456.789 270.226L430.279 285.998C424.522 289.492 415.751 294.187 411.369 299.439L410.263 300.324C409.768 300.172 409.306 299.862 408.853 299.613C407.895 298.3 404.916 296.971 403.474 296.053Z"/>
	<defs>
		<linearGradient id="gradient_3" gradientUnits="userSpaceOnUse" x1="407.72263" y1="400.8309" x2="385.77963" y2="486.8046">
			<stop offset="0" stop-color="#CBC9C8"/>
			<stop offset="1" stop-color="white"/>
		</linearGradient>
	</defs>
	<path fill="url(#gradient_3)" transform="matrix(0.0375 0 0 0.0375 0 1.90735e-06)" d="M438.833 407.934L446.965 414.892L449.577 417.19L455.24 422.13C453.516 423.985 451.279 424.866 449.219 426.29L420.894 445.141C414.452 449.136 409.428 453.685 403.871 458.9L386.693 475.13L375.426 475.969L362.269 476.554L349.174 477.525L345.7 477.462C346.205 476.616 347.646 475.861 348.452 475.269L372.61 454.281L438.833 407.934Z"/>
	<path fill="#A79A92" transform="matrix(0.0375 0 0 0.0375 0 1.90735e-06)" d="M446.965 414.892L449.577 417.19C447.741 418.336 446.293 419.951 444.55 421.23L413.624 442.059C407.436 446.072 401.113 449.914 395.342 454.524C388.993 459.596 378.62 472.44 372.5 475.076L370.635 475.908L375.426 475.969L362.269 476.554C368.544 466.131 386.743 452.105 396.786 445.733L431.333 424.271C437.066 420.423 441.09 418.322 446.706 415.046L446.965 414.892Z"/>
	<defs>
		<linearGradient id="gradient_4" gradientUnits="userSpaceOnUse" x1="448.76175" y1="452.99078" x2="379.28241" y2="441.03452">
			<stop offset="0" stop-color="#CFCECE"/>
			<stop offset="1" stop-color="white"/>
		</linearGradient>
	</defs>
	<path fill="url(#gradient_4)" transform="matrix(0.0375 0 0 0.0375 0 1.90735e-06)" d="M375.426 475.969L370.635 475.908L372.5 475.076C378.62 472.44 388.993 459.596 395.342 454.524C401.113 449.914 407.436 446.072 413.624 442.059L444.55 421.23C446.293 419.951 447.741 418.336 449.577 417.19L455.24 422.13C453.516 423.985 451.279 424.866 449.219 426.29L420.894 445.141C414.452 449.136 409.428 453.685 403.871 458.9L386.693 475.13L375.426 475.969Z"/>
	<path fill="#A79A92" transform="matrix(0.0375 0 0 0.0375 0 1.90735e-06)" d="M152.009 228.426L155.142 230.721L156.63 231.632L165.495 238.346L169.01 241.162C171.84 243.193 175.125 245.442 177.44 248.049L179.207 249.142C176.02 252.092 153.868 265.968 150.028 267.624L101.434 295.899L101.554 290.181C101.506 285.871 101.995 281.754 102.465 277.488L102.465 276.369C102.431 272.218 102.322 267.572 103.159 263.499L103.445 260.557C109.998 258.571 115.658 254.359 121.199 250.409C123.363 248.578 126.206 247.087 128.65 245.61L143.934 236.47C145.595 234.883 147.643 233.536 149.492 232.167L152.009 228.426ZM147.089 265.018L109.375 286.248C107.351 287.346 102.643 288.367 101.554 290.181L101.434 295.899L150.028 267.624L149.909 267.355C148.49 267.697 146.959 269.409 145.625 269.219C146.907 268.235 150.414 266.718 150.191 265.144L149.375 264.847C149.126 265.093 148.807 265.403 148.438 265.469L147.734 265.859C147.112 265.774 147.318 265.914 147.025 265.624L147.089 265.018ZM124.246 264.847L113.125 271.533C109.763 273.514 106.315 275.514 102.465 276.369L102.465 277.488L102.486 281.449L127.519 267.191C128.222 265.929 127.737 265.541 128.903 264.375L128.594 263.909C127.827 263.909 127.802 263.917 127.189 264.377L124.246 264.847Z"/>
	<path fill="#DAD2D0" transform="matrix(0.0375 0 0 0.0375 0 1.90735e-06)" d="M163.503 241.811C165.198 241.399 166.622 241.086 168.367 241.526C165.568 243.101 162.886 244.464 160.159 246.237L151.932 251.366L151.962 250.688L150.469 251.875C150.027 250.631 149.383 250.957 149.765 249.85L149.866 249.528C150.563 248.098 161.359 243.557 163.503 241.811Z"/>
	<path fill="white" transform="matrix(0.0375 0 0 0.0375 0 1.90735e-06)" d="M121.199 250.409C121.71 251.204 122.2 251.822 121.889 252.787L121.652 253.368L107.686 262.511C106.668 263.131 104.647 264.699 103.515 264.672L103.293 263.499L103.445 260.557C109.998 258.571 115.658 254.359 121.199 250.409Z"/>
	<path fill="white" transform="matrix(0.0375 0 0 0.0375 0 1.90735e-06)" d="M124.246 264.847C124.893 264.23 126.037 263.705 126.823 263.223L143.114 253.374C145.334 252.039 147.493 250.581 149.866 249.528L149.765 249.85C149.383 250.957 150.027 250.631 150.469 251.875L151.962 250.688L151.932 251.366L127.519 267.191C128.222 265.929 127.737 265.541 128.903 264.375L128.594 263.909C127.827 263.909 127.802 263.917 127.189 264.377L124.246 264.847Z"/>
	<path fill="#DAD2D0" transform="matrix(0.0375 0 0 0.0375 0 1.90735e-06)" d="M177.44 248.049L179.207 249.142C176.02 252.092 153.868 265.968 150.028 267.624L149.909 267.355C148.49 267.697 146.959 269.409 145.625 269.219C146.907 268.235 150.414 266.718 150.191 265.144L149.375 264.847C149.126 265.093 148.807 265.403 148.438 265.469L147.734 265.859C147.112 265.774 147.318 265.914 147.025 265.624L147.089 265.018L166.484 253.658C169.969 251.684 173.611 249.236 177.44 248.049Z"/>
	<path fill="#DAD2D0" transform="matrix(0.0375 0 0 0.0375 0 1.90735e-06)" d="M152.009 228.426L155.142 230.721L156.63 231.632C154.211 233.975 151.752 235.631 148.708 237.076L121.652 253.368L121.889 252.787C122.2 251.822 121.71 251.204 121.199 250.409C123.363 248.578 126.206 247.087 128.65 245.61L143.934 236.47C145.595 234.883 147.643 233.536 149.492 232.167L152.009 228.426Z"/>
	<path fill="#A79A92" transform="matrix(0.0375 0 0 0.0375 0 1.90735e-06)" d="M179.207 249.142L188.934 256.052C189.982 256.855 191.409 257.716 192.191 258.746C194.703 259.816 196.881 261.823 198.939 263.583C194.648 268.443 189.261 271.042 183.846 274.496C173.272 281.24 162.404 288.363 151.25 294.099L140.144 299.652C137.91 300.75 134.9 302.03 133.022 303.625C121.896 309.434 112.385 319.013 100.332 323.079L101.214 305.851L101.233 303.917L101.333 295.899L150.028 267.624C153.868 265.968 176.02 252.092 179.207 249.142ZM101.233 303.917L101.214 305.851L101.164 310.104C107.256 308.339 115.086 300.936 120.41 297.315L137.173 286.161C140.13 284.138 143.133 282.41 145.628 279.796C141.656 281.73 137.601 283.725 133.805 285.984L111.633 299.316C108.537 300.995 104.96 303.158 101.504 303.865L101.233 303.917Z"/>
	<path fill="#DAD2D0" transform="matrix(0.0375 0 0 0.0375 0 1.90735e-06)" d="M147.892 285.251C153.967 276.565 182.44 257.542 192.191 258.746C190.919 260.797 188.26 261.418 186.239 262.525L160.127 277.676C155.95 280.145 151.771 282.38 147.892 285.251Z"/>
	<path fill="white" transform="matrix(0.0375 0 0 0.0375 0 1.90735e-06)" d="M516.475 163.523L519.688 163.02C521.74 162.902 523.974 163.252 526.013 163.495C542.411 165.451 547.179 171.468 550.415 187.138L550.076 187.256C546.759 188.462 543.585 190.474 540.428 192.079C526.626 199.098 517.666 201.363 502.591 202.51L482.451 203.856C481.46 203.932 479.956 203.861 479.07 204.186L440.671 206.216L441.223 205.742C442.848 203.354 445.969 201.481 448.102 199.506C458.364 190 468.326 178.82 480.205 171.348C480.758 170.838 480.817 170.812 481.561 170.699L481.825 170.809C483.901 171.606 486.679 168.112 488.752 167.202L489.129 166.964C489.861 166.608 491.653 166.516 492.394 166.886L492.656 167.06C493.399 167.478 494.114 167.817 494.844 168.284L495.271 168.547C497.074 169.703 497.617 171.518 499.08 172.83L499.141 174.533C500.504 173.75 500.351 173.309 502.099 172.893C502.542 172.759 503.351 171.955 503.775 171.63L509.69 166.997C511.351 165.737 513.173 164.757 514.818 163.46L516.475 163.523Z"/>
	<path fill="#DAD2D0" transform="matrix(0.0375 0 0 0.0375 0 1.90735e-06)" d="M534.168 167.656L535.266 167.812C534.259 171.241 514.478 184.597 511.094 186.683L510.287 186.719C517.05 180.47 526.303 172.614 534.168 167.656Z"/>
	<path fill="#A79A92" transform="matrix(0.0375 0 0 0.0375 0 1.90735e-06)" d="M514.818 163.46L516.475 163.523C506.315 170.428 497.992 179.887 489.048 188.215C485.657 191.373 481.834 193.83 478.271 196.747C478.666 195.245 482.185 192.387 483.364 191.204L502.099 172.893C502.542 172.759 503.351 171.955 503.775 171.63L509.69 166.997C511.351 165.737 513.173 164.757 514.818 163.46Z"/>
	<path fill="#726C68" transform="matrix(0.0375 0 0 0.0375 0 1.90735e-06)" d="M480.205 171.348C478.109 176.181 450.771 202.368 443.005 205.085L441.223 205.742C442.848 203.354 445.969 201.481 448.102 199.506C458.364 190 468.326 178.82 480.205 171.348Z"/>
	<path fill="#A79A92" transform="matrix(0.0375 0 0 0.0375 0 1.90735e-06)" d="M198.939 263.583L203.925 266.992L208.571 270.742L213.17 273.966L217.184 276.958L216.167 278.77C213.167 281.173 209.714 283.105 206.552 285.306L176.449 305.373C174.975 306.265 173.363 307.084 172.072 308.229C163.853 312.946 156.249 318.837 148.438 324.199C144.353 327.004 139.933 329.431 135.974 332.395L114.648 348.05C111.034 350.592 107.486 353.35 103.518 355.315L99.6698 356.849L99.7871 330.988C100.5 329.759 100.242 324.787 100.332 323.079C112.385 319.013 121.896 309.434 133.022 303.625C134.9 302.03 137.91 300.75 140.144 299.652L151.25 294.099C162.404 288.363 173.272 281.24 183.846 274.496C189.261 271.042 194.648 268.443 198.939 263.583ZM198.939 263.583C194.648 268.443 189.261 271.042 183.846 274.496C173.272 281.24 162.404 288.363 151.25 294.099L140.144 299.652C137.91 300.75 134.9 302.03 133.022 303.625C121.896 309.434 112.385 319.013 100.332 323.079C100.242 324.787 100.5 329.759 99.9795 330.988L128.782 310.785L146.543 300.54C161.209 292.618 192.287 277.949 203.925 266.992L198.939 263.583Z"/>
	<path fill="white" fill-opacity="0.65098041" transform="matrix(0.0375 0 0 0.0375 0 1.90735e-06)" d="M198.939 263.583L203.925 266.992C192.287 277.949 161.209 292.618 146.543 300.54L128.782 310.785L99.9795 330.988C100.5 329.759 100.242 324.787 100.332 323.079C112.385 319.013 121.896 309.434 133.022 303.625C134.9 302.03 137.91 300.75 140.144 299.652L151.25 294.099C162.404 288.363 173.272 281.24 183.846 274.496C189.261 271.042 194.648 268.443 198.939 263.583Z"/>
	<path fill="white" transform="matrix(0.0375 0 0 0.0375 0 1.90735e-06)" d="M208.571 270.742L213.17 273.966C209.125 276.356 205.609 279.458 201.717 282.072L170.946 300.619C167.88 302.352 164.786 304.669 161.596 306.092L112.864 337.964C108.487 341.041 103.83 343.662 99.961 347.399L99.9838 340.404C104.584 338.737 108.114 336.171 112.208 333.573L160.932 302.476L208.571 270.742Z"/>
	<defs>
		<linearGradient id="gradient_5" gradientUnits="userSpaceOnUse" x1="106.86223" y1="367.70883" x2="274.5322" y2="404.63492">
			<stop offset="0" stop-color="#B6B0AF"/>
			<stop offset="1" stop-color="#E0DFDF"/>
		</linearGradient>
	</defs>
	<path fill="url(#gradient_5)" transform="matrix(0.0375 0 0 0.0375 0 1.90735e-06)" d="M216.167 278.77C217.636 279.603 219.635 279.922 220.94 280.809C221.038 280.766 221.468 280.352 221.556 280.274L227.294 284.667L228.467 285.603L231.534 287.719L234.63 290.046L241.58 295.208L242.987 296.245L243.766 296.963L248.626 300.539L257.134 306.869C258.548 307.924 260.449 309.098 261.572 310.427C263.989 312.229 275.886 320.971 275.908 321.05L283.169 326.003L291.105 331.598L166.601 426.196L152.627 437.214L152.266 435.547C153.544 432.565 159.402 431.907 158.338 427.535L129.003 447.251C123.984 451.2 120.141 456.17 115.55 460.546C113.203 462.783 110.312 464.213 107.931 466.346C106.136 464.196 105.006 460.606 104.044 457.996L102.35 453.092C101.318 450.671 100.932 447.956 100.444 445.383L99.2667 435.197C99.0199 433.262 99.0472 431.381 99.0857 429.436L99.0241 425.97C98.3131 420.849 98.7646 415.209 98.7621 410.028L98.7578 402.352L98.7135 393.916L98.7386 390.425L98.8926 384.437L98.8065 376.051L99.021 361.507L99.6698 356.849L103.518 355.315C107.486 353.35 111.034 350.592 114.648 348.05L135.974 332.395C139.933 329.431 144.353 327.004 148.438 324.199C156.249 318.837 163.853 312.946 172.072 308.229C173.363 307.084 174.975 306.265 176.449 305.373L206.552 285.306C209.714 283.105 213.167 281.173 216.167 278.77ZM132.257 431.906C122.532 439.095 113.037 447.466 102.35 453.092L104.044 457.996L133.473 435.503C134.128 435.363 135.102 434.496 135.672 434.112L155.758 420.47C153.866 419.449 152.634 418.261 151.12 416.766L132.257 431.906Z"/>
	<defs>
		<linearGradient id="gradient_6" gradientUnits="userSpaceOnUse" x1="162.32367" y1="428.82828" x2="152.00905" y2="432.42227">
			<stop offset="0" stop-color="#D6D5D5"/>
			<stop offset="1" stop-color="#FCFCFC"/>
		</linearGradient>
	</defs>
	<path fill="url(#gradient_6)" transform="matrix(0.0375 0 0 0.0375 0 1.90735e-06)" d="M158.338 427.535L164.242 422.406C162.43 424.723 159.328 425.189 162.5 428.361L166.023 425.999L166.601 426.196L152.627 437.214L152.266 435.547C153.544 432.565 159.402 431.907 158.338 427.535Z"/>
	<path fill="white" transform="matrix(0.0375 0 0 0.0375 0 1.90735e-06)" d="M119.211 393.523C118.705 394.462 117.81 394.773 117.028 395.469C117.977 395.629 117.812 395.035 118.905 395.47L117.401 397.339C115.771 398.44 114.255 399.409 112.507 400.361L106.907 403.724C105.648 404.49 104.282 405.708 102.969 406.252L102.702 406.12C98.1011 403.898 101.69 406.238 99.391 402.891C98.6057 404.212 98.9921 407.333 99.0108 408.906L100.039 408.765C100.897 408.053 101.528 407.773 102.5 407.344L104.526 405.933C105.195 405.487 105.902 405.149 106.562 404.688L107.964 403.745C109.316 402.843 111.879 402.186 112.656 400.784L114.375 400C115.293 399.451 116.191 398.569 117.188 398.281L117.656 397.659L122.096 395.474L122.214 395.723L107.744 404.531C104.861 406.323 101.924 408.846 98.757 410.028L98.7578 402.352C102.626 402.174 106.256 400.358 109.742 398.618L119.211 393.523Z"/>
	<path fill="white" transform="matrix(0.0375 0 0 0.0375 0 1.90735e-06)" d="M115.914 409.231L110.938 413.048C111.769 412.942 111.61 412.792 112.266 412.502L112.812 412.344C113.206 412.174 113.611 411.717 113.906 411.409L114.375 411.406C114.737 411.34 115.009 411.014 115.312 410.861L116.094 410.625C117.014 409.48 118.736 408.375 120.156 408.125L119.982 408.657C119.654 409 119.45 409.278 119.219 409.682L118.799 409.844C118.532 411.856 113.54 413.81 112.066 416.052L112.109 416.484C112.677 415.889 112.893 415.843 113.516 415.391L114.941 414.336C115.529 413.895 115.971 413.467 116.717 413.389L116.637 413.789L108.787 419.347C101.418 424.485 103.755 423.672 99.0857 429.436L99.0241 425.97L98.9435 418.619C100.609 417.663 102.407 417.475 104.062 416.547C108.092 414.29 111.698 411.132 115.914 409.231Z"/>
	<path fill="#DAD2D0" transform="matrix(0.0375 0 0 0.0375 0 1.90735e-06)" d="M127.998 417.657C130.312 415.298 134.129 413.315 136.859 411.373C142.536 407.336 148.023 403.183 153.263 398.586L157.64 400.608L130.967 419.865L130.752 419.403L126.953 422.266C126.273 422.557 126.504 422.383 125.981 422.905L124.062 423.906C125.991 421.834 129.322 420.773 131.017 418.402L130.751 417.762L129.062 417.972L126.562 419.847C126.122 420.283 124.982 420.784 124.453 420.859C125.423 419.409 127.252 419.338 127.998 417.657Z"/>
	<path fill="#DAD2D0" transform="matrix(0.0375 0 0 0.0375 0 1.90735e-06)" d="M115.914 409.231C119.243 406.472 123.7 404.341 127.472 402.191L147.53 390.174C148.389 389.642 149.181 388.889 150.132 388.561C149.409 389.873 147.794 390.019 146.996 391.11L147.396 391.204C148.473 391.474 149.361 391.748 150.279 392.38L116.637 413.789L116.717 413.389C115.971 413.467 115.529 413.895 114.941 414.336L113.516 415.391C112.893 415.843 112.677 415.889 112.109 416.484L112.066 416.052C113.54 413.81 118.532 411.856 118.799 409.844L119.219 409.682C119.45 409.278 119.654 409 119.982 408.657L120.156 408.125C118.736 408.375 117.014 409.48 116.094 410.625L115.312 410.861C115.009 411.014 114.737 411.34 114.375 411.406L113.906 411.409C113.611 411.717 113.206 412.174 112.812 412.344L112.266 412.502C111.61 412.792 111.769 412.942 110.938 413.048L115.914 409.231Z"/>
	<path fill="white" transform="matrix(0.0375 0 0 0.0375 0 1.90735e-06)" d="M127.998 417.657C127.252 419.338 125.423 419.409 124.453 420.859C124.982 420.784 126.122 420.283 126.562 419.847L129.062 417.972L130.751 417.762L131.017 418.402C129.322 420.773 125.991 421.834 124.062 423.906L125.981 422.905C126.504 422.383 126.273 422.557 126.953 422.266L130.752 419.403L130.967 419.865C122.459 426.249 113.376 432.148 105.478 439.285C103.464 441.104 102.342 443.604 100.444 445.383L99.2667 435.197C104.655 433.919 108.635 430.826 113.125 427.798L127.998 417.657Z"/>
	<defs>
		<linearGradient id="gradient_7" gradientUnits="userSpaceOnUse" x1="111.1958" y1="430.75876" x2="146.24597" y2="444.57904">
			<stop offset="0" stop-color="white" stop-opacity="0"/>
			<stop offset="1" stop-color="#E2E2E1"/>
		</linearGradient>
	</defs>
	<path fill="url(#gradient_7)" transform="matrix(0.0375 0 0 0.0375 0 1.90735e-06)" d="M132.257 431.906L151.12 416.766C152.634 418.261 153.866 419.449 155.758 420.47L135.672 434.112C135.102 434.496 134.128 435.363 133.473 435.503L104.044 457.996L102.35 453.092C113.037 447.466 122.532 439.095 132.257 431.906Z"/>
	<path fill="#A79A92" transform="matrix(0.0375 0 0 0.0375 0 1.90735e-06)" d="M155.817 361.099C154.948 363.242 152.282 363.996 150.411 365.14L141.875 370.781C140.781 371.528 139.426 372.196 138.643 373.282L139.392 373.349C139.595 374.69 140.174 376.427 140.057 377.745C140.005 378.332 137.793 382.892 139.624 381.519L144.429 378.618C144.761 378.381 145.089 378.266 145.469 378.125L122.849 391.204C121.961 391.706 119.771 392.739 119.211 393.523L109.742 398.618C106.256 400.358 102.626 402.174 98.6566 402.352L98.7135 393.916L98.9062 397.207C103.504 394.964 107.933 391.855 112.335 389.226L155.817 361.099Z"/>
	<defs>
		<linearGradient id="gradient_8" gradientUnits="userSpaceOnUse" x1="233.86378" y1="286.66028" x2="110.04315" y2="407.5014">
			<stop offset="0" stop-color="#CECAC9"/>
			<stop offset="1" stop-color="#EFF0F1"/>
		</linearGradient>
	</defs>
	<path fill="url(#gradient_8)" transform="matrix(0.0375 0 0 0.0375 0 1.90735e-06)" d="M242.987 296.245L243.766 296.963L248.626 300.539C245.085 303.212 240.593 304.499 236.854 306.879L162.383 356.42C160.258 357.839 157.576 359.254 155.817 361.099L112.335 389.226C107.933 391.855 103.504 394.964 98.9062 397.207L98.6977 393.916L98.7386 390.425C107.185 389.635 115.258 382.647 122.02 378.027L179.688 339.684L206.25 319.724L231.882 303.867C234.688 302.208 237.413 300.133 240.301 298.665C241.11 297.511 241.724 296.884 242.987 296.245Z"/>
	<path fill="#DAD2D0" transform="matrix(0.0375 0 0 0.0375 0 1.90735e-06)" d="M242.987 296.245L243.766 296.963C242.812 297.856 242.198 298.167 240.947 298.491L240.301 298.665C241.11 297.511 241.724 296.884 242.987 296.245Z"/>
	<path fill="#A79A92" transform="matrix(0.0375 0 0 0.0375 0 1.90735e-06)" d="M241.58 295.208L242.987 296.245C241.724 296.884 241.11 297.511 240.301 298.665C237.413 300.133 234.688 302.208 231.882 303.867L206.25 319.724L179.688 339.684L122.02 378.027C115.258 382.647 107.185 389.635 98.7386 390.425L98.8926 384.437L111.603 374.292L241.58 295.208Z"/>
	<defs>
		<linearGradient id="gradient_9" gradientUnits="userSpaceOnUse" x1="189.47346" y1="355.78995" x2="146.85185" y2="319.52054">
			<stop offset="0" stop-color="#CAC9CA"/>
			<stop offset="1" stop-color="white"/>
		</linearGradient>
	</defs>
	<path fill="url(#gradient_9)" transform="matrix(0.0375 0 0 0.0375 0 1.90735e-06)" d="M168.375 331.093C171.378 324.3 192.881 308.505 199.391 303.483L218.323 289.257C221.182 287.314 223.686 284.82 227.294 284.667L228.467 285.603L231.534 287.719L234.63 290.046L241.58 295.208L111.603 374.292L99.0211 384.437L98.8065 376.051C99.853 374.597 103.556 373.951 105.148 373.14C109.806 370.77 114.179 367.686 118.781 365.198L168.375 331.093Z"/>
	<defs>
		<linearGradient id="gradient_10" gradientUnits="userSpaceOnUse" x1="203.67184" y1="312.97983" x2="197.53763" y2="304.91177">
			<stop offset="0" stop-color="#B4B1B1"/>
			<stop offset="1" stop-color="#DFDEDE"/>
		</linearGradient>
	</defs>
	<path fill="url(#gradient_10)" transform="matrix(0.0375 0 0 0.0375 0 1.90735e-06)" d="M168.375 331.093C171.378 324.3 192.881 308.505 199.391 303.483L218.323 289.257C221.182 287.314 223.686 284.82 227.294 284.667L228.467 285.603L231.534 287.719L234.63 290.046C230.41 293.354 228.018 294.482 223.98 297.19L211.875 305.525C199.394 313.985 183.512 328.009 168.375 331.093Z"/>
	<path fill="#DAD2D0" transform="matrix(0.0375 0 0 0.0375 0 1.90735e-06)" d="M228.467 285.603L231.534 287.719C230.42 288.753 227.36 289.219 224.688 291.306L224.375 291.094C224.92 290.549 225.476 290.091 226.118 289.663L227.031 289.062C227.256 287.856 228.027 286.752 228.467 285.603Z"/>
	<path fill="#A79A92" transform="matrix(0.0375 0 0 0.0375 0 1.90735e-06)" d="M216.167 278.77C217.636 279.603 219.635 279.922 220.94 280.809C221.038 280.766 221.468 280.352 221.556 280.274L227.294 284.667C223.686 284.82 221.182 287.314 218.323 289.257L199.391 303.483C192.881 308.505 171.378 324.3 168.375 331.093L118.781 365.198C114.179 367.686 109.806 370.77 105.148 373.14C103.556 373.951 99.853 374.597 99.0465 376.051L99.021 361.507L99.6698 356.849L103.518 355.315C107.486 353.35 111.034 350.592 114.648 348.05L135.974 332.395C139.933 329.431 144.353 327.004 148.438 324.199C156.249 318.837 163.853 312.946 172.072 308.229C173.363 307.084 174.975 306.265 176.449 305.373L206.552 285.306C209.714 283.105 213.167 281.173 216.167 278.77Z"/>
	<path fill="white" transform="matrix(0.0375 0 0 0.0375 0 1.90735e-06)" d="M216.167 278.77C217.636 279.603 219.635 279.922 220.94 280.809L205.489 291.428C201.481 294.188 172.309 314.21 169.646 314.513L105.34 358.457C103.606 359.628 101.715 361.11 99.6202 361.507L99.6698 356.849L103.518 355.315C107.486 353.35 111.034 350.592 114.648 348.05L135.974 332.395C139.933 329.431 144.353 327.004 148.438 324.199C156.249 318.837 163.853 312.946 172.072 308.229C173.363 307.084 174.975 306.265 176.449 305.373L206.552 285.306C209.714 283.105 213.167 281.173 216.167 278.77Z"/>
	<path fill="#DAD2D0" transform="matrix(0.0375 0 0 0.0375 0 1.90735e-06)" d="M484.748 249.915C490.623 246.07 495.631 240.087 501.066 235.556C503.949 233.153 507.224 231.255 510.312 229.138L521.408 221.223C530.757 214.551 538.449 206.422 549.525 202.175L548.583 212.594L548.486 221.783L548.446 227.418L548.446 250.406L548.459 258.233L548.475 267.12L548.446 272.493C548.438 276.032 548.675 279.764 548.088 283.258L547.958 283.345L547.528 288.384C547.632 292.911 547.682 297.764 547.048 302.242L546.608 306.273L546.663 307.43C546.655 310.392 546.879 313.795 546.309 316.7L546.283 320.273L546.196 325.107C546.19 325.451 546.258 326.288 546.128 326.552L545.592 331.469C546.176 333.523 546.302 339.438 545.328 341.305L545.203 344.131C545.198 345.41 545.001 346.927 544.96 348.242L544.741 355.873L544.668 359.321L544.592 369.402L544.019 381.499C544.034 385.467 544.292 389.664 543.846 393.597L543.95 395.697L497.341 435.917L491.483 441.553L432.223 390.477L376.493 347.716C368.788 341.945 360.591 335.79 351.604 332.191L401.344 298.407C401.648 297.554 402.818 296.691 403.474 296.053C404.916 296.971 407.895 298.3 408.853 299.613C409.306 299.862 409.768 300.172 410.263 300.324L411.369 299.439C415.751 294.187 424.522 289.492 430.279 285.998L456.789 270.226C457.763 269.593 459.026 268.955 459.729 268.038C468.53 263.588 477.419 256.413 484.748 249.915Z"/>
	<path fill="#726C68" transform="matrix(0.0375 0 0 0.0375 0 1.90735e-06)" d="M408.853 299.613C409.306 299.862 409.768 300.172 410.263 300.324C410.677 301.205 411.019 301.846 410.956 302.852C409.036 302.815 408.027 303.756 408.783 301.719L407.618 300.723L408.853 299.613Z"/>
	<path fill="#5F5A59" transform="matrix(0.0375 0 0 0.0375 0 1.90735e-06)" d="M401.344 298.407C401.648 297.554 402.818 296.691 403.474 296.053C404.916 296.971 407.895 298.3 408.853 299.613L407.618 300.723C405.537 299.861 403.227 299.633 401.344 298.407Z"/>
	<path fill="#A79A92" transform="matrix(0.0375 0 0 0.0375 0 1.90735e-06)" d="M547.528 288.384C547.632 292.911 547.682 297.764 547.048 302.242L546.608 306.273C546.648 298.3 541.423 303.993 537.331 306.964L508.281 327.653L522.554 317.456C523.579 316.804 525.507 314.538 526.562 314.531L526.919 314.155C527.687 313.387 526.961 314.056 527.891 313.516L533.213 309.355C534.184 308.578 535.587 307.602 536.719 306.875L541.714 303.433C545.573 300.86 547.141 304.194 546.409 298.594L546.722 298.281C546.885 296.815 547.008 294.905 546.798 293.438L545.938 293.278C544.323 292.821 544.115 291.473 542.656 292.966L542.188 292.969C541.774 293.37 541.413 293.734 541.094 294.216L540.244 294.662C539.609 295.385 538.907 295.569 538.281 296.403L537.543 296.738C537.04 297.303 536.296 297.734 535.703 298.28L535 298.75C533.957 299.559 532.893 300.399 532.031 301.403L531.206 301.782C530.358 302.63 531.244 301.801 530.234 302.422L529.702 302.997C529.226 303.537 528.942 303.622 528.359 303.984L526.191 305.85C525.401 306.638 526.204 305.916 525.234 306.484C521.556 308.642 516.834 314.405 513.047 316.797L512.397 317.48C511.32 318.665 509.379 320.428 508.047 321.172L512.258 317.044C513 316.4 514.475 315.407 514.856 314.553L547.528 288.384Z"/>
	<path fill="white" transform="matrix(0.0375 0 0 0.0375 0 1.90735e-06)" d="M518.2 355.423L520 353.438C520.649 352.901 521.388 352.225 522.109 351.797L522.656 351.562C523.603 350.89 524.448 350.031 525.469 349.375L528.984 346.797C530.474 345.919 531.96 344.598 533.33 343.477L536.875 340.625C537.272 340.28 537.62 339.942 538.053 339.639L540.472 337.188C539.966 335.862 539.847 334.541 539.847 333.125L536.016 335.391C534.587 336.222 527.109 342.357 525.547 344.061L524.141 345.078C523.26 345.592 522.805 346.115 522.109 346.873L520.469 347.812C519.624 348.669 518.14 350.064 516.961 350.234C518.113 348.733 520.808 347.18 522.343 345.949L540.448 331.4C542.366 329.834 544.084 328.074 546.054 326.552L545.592 331.469C544.745 335.824 542.216 337.031 538.864 339.741L518.2 355.423Z"/>
	<path fill="#A79A92" transform="matrix(0.0375 0 0 0.0375 0 1.90735e-06)" d="M544.741 355.873C544.631 355.659 544.725 355.79 544.535 355.418L544.375 355.098C541.898 356.434 539.549 358.34 537.273 360.013L528.203 366.016L535.547 360.859C536.096 360.458 536.33 360.101 536.484 359.453L534.688 359.139C534.32 358.961 534.123 358.988 533.81 358.675L533.281 358.125L531.016 360.078C529.39 361.026 526.822 362.912 525.547 364.373L524.453 365.078C523.777 365.513 523.623 365.567 523.047 366.172L537.53 354.417C539.869 352.613 542.17 350.551 544.691 349.014C545.183 348.714 544.786 345.105 545.203 344.131C545.198 345.41 545.001 346.927 544.96 348.242L544.741 355.873Z"/>
	<path fill="#A79A92" transform="matrix(0.0375 0 0 0.0375 0 1.90735e-06)" d="M544.019 381.499C544.034 385.467 544.292 389.664 543.846 393.597C543.602 391.964 543.733 390.218 543.74 388.571C541.532 390.395 539.026 391.844 536.719 393.539L517.656 408.548C516.075 409.79 512.491 412.309 517.5 408.125L518.359 407.422C520.138 406.388 523.314 403.786 524.844 402.188L524.375 401.639C523.948 401.427 523.714 401.379 523.284 401.094L521.016 402.266C519.36 403.094 516.835 405.462 515.469 406.875L539.531 387.78C542.618 385.466 543.483 385.164 544.019 381.499Z"/>
	<path fill="white" transform="matrix(0.0375 0 0 0.0375 0 1.90735e-06)" d="M503.922 307.688L503.93 307.293C506.637 304.289 509.908 302.015 512.441 298.92C514.384 296.546 517.904 294.511 520.312 292.5L521.172 291.797C521.911 291.367 522.003 291.286 522.578 290.627L523.359 290.234C524.067 289.763 524.179 289.736 524.766 289.064L525.547 288.672C526.254 288.2 526.367 288.174 526.953 287.502L529.688 285.625C530.093 285.317 530.42 285.015 530.869 284.766L531.172 284.609C531.081 283.947 531.005 283.94 530.627 283.436L530.159 281.094C529.606 281.276 529.07 281.878 528.569 282.212L522.655 286.641C520.837 287.779 518.949 289.226 517.276 290.596L516.875 290.938C515.917 291.694 514.438 292.878 513.594 293.75L512.891 294.453C510.943 295.661 505.553 300.229 503.984 301.797L548.475 267.12L548.446 272.493C542.874 275.527 538.079 279.775 533.047 283.659L514.274 297.988C510.662 301.004 507.401 304.507 503.922 307.688Z"/>
	<path fill="white" transform="matrix(0.0375 0 0 0.0375 0 1.90735e-06)" d="M547.975 236.283L548.03 242.365C546.537 243.793 544.88 243.965 543.287 245.173L516.825 263.281C513.61 265.325 510.31 267.067 507.188 269.293L511.562 265.938C512.076 265.579 512.59 265.32 513.125 265L523.75 258.125C524.918 257.323 526.201 256.708 527.378 255.923L530.156 254.062C529.804 253.325 529.36 252.732 528.868 252.083L528.595 250.391C528.177 250.673 527.791 250.947 527.412 251.283L527.109 251.561C526.448 251.564 526.021 252.109 525.537 252.538L523.516 253.828C522.625 254.422 521.737 254.966 520.938 255.625L520.078 256.328C517.636 257.754 515.357 259.978 512.974 261.567L506.875 265.625C506.397 265.939 505.957 266.22 505.527 266.601L503.909 267.344L547.975 236.283Z"/>
	<path fill="#A79A92" transform="matrix(0.0375 0 0 0.0375 0 1.90735e-06)" d="M545.592 331.469C546.176 333.523 546.302 339.438 545.328 341.305C543.487 341.849 540.821 345.098 539.19 346.307L519.531 359.692C520.262 359.205 520.869 358.656 521.641 358.203L524.844 355.938C525.726 355.37 527.105 354.586 527.736 353.75C526.864 353.272 525.988 353.488 525.472 352.812L524.762 352.093C524.461 351.791 524.572 351.897 524.141 351.641L521.519 353.657C520.267 354.909 521.966 353.266 520.547 354.297L519.019 355.532C517.734 356.817 514.884 359.016 513.359 359.922L518.2 355.423L538.864 339.741C542.216 337.031 544.745 335.824 545.592 331.469Z"/>
	<defs>
		<linearGradient id="gradient_11" gradientUnits="userSpaceOnUse" x1="538.59253" y1="357.73016" x2="514.47803" y2="395.20496">
			<stop offset="0" stop-color="#A4A1A1"/>
			<stop offset="1" stop-color="#C4C2BF"/>
		</linearGradient>
	</defs>
	<path fill="url(#gradient_11)" transform="matrix(0.0375 0 0 0.0375 0 1.90735e-06)" d="M544.592 369.402L544.355 367.031C543.351 366.748 542.294 367.48 541.432 368.036L522.259 381.803C519.304 383.783 516 385.058 513.001 386.939C510.522 388.493 508.284 390.393 505.712 391.798C506.778 387.583 525.505 375.296 529.747 372.099L539.089 364.531C541.212 362.807 543.881 362.097 544.668 359.321L544.592 369.402Z"/>
	<path fill="white" transform="matrix(0.0375 0 0 0.0375 0 1.90735e-06)" d="M508.687 342.095L546.21 314.375L546.313 316.7L546.283 320.273L512.578 344.766C513.097 344.178 513.28 344.016 513.909 343.594L514.372 343.203C516.028 341.818 513.654 343.736 515.391 342.578L516.328 341.953C517.072 341.468 517.843 340.849 518.535 340.283L521.25 338.281L521.105 336.991C520.731 336.523 520.766 336.456 520.627 335.936L521.097 333.594L519.59 334.717C518.219 335.839 515.749 337.095 514.844 338.591L508.662 342.657L508.687 342.095Z"/>
	<path fill="white" transform="matrix(0.0375 0 0 0.0375 0 1.90735e-06)" d="M548.446 227.418L484.583 272.876C482.855 274.029 480.785 275.789 478.828 276.455C481.571 273.766 485.705 271.704 488.906 269.375L490.234 268.359C490.986 267.915 491.011 267.89 491.564 267.189L497.033 263.359C497.935 262.787 498.811 262.203 499.688 261.562L503.047 258.984L502.347 257.969C502.347 257.269 502.276 257.483 502.503 256.914L502.031 255.938L501.328 256.641C499.499 257.818 496.694 259.888 495.234 261.561L493.828 262.578C490.88 264.297 488.343 266.903 485.469 268.75L483.286 270.317C477.47 274.195 482.25 270.596 484.974 268.65L539.198 227.877C541.041 226.549 546.852 221.593 548.281 220.899L548.541 221.783L548.446 227.418Z"/>
	<defs>
		<linearGradient id="gradient_12" gradientUnits="userSpaceOnUse" x1="512.03503" y1="301.59244" x2="497.62433" y2="372.96616">
			<stop offset="0" stop-color="#9F9B9E"/>
			<stop offset="1" stop-color="#C8C8C5"/>
		</linearGradient>
	</defs>
	<path fill="url(#gradient_12)" transform="matrix(0.0375 0 0 0.0375 0 1.90735e-06)" d="M508.687 342.095C507.263 342.707 506.004 343.741 504.672 344.531L494.265 350.782C491.155 352.644 487.701 353.877 484.492 355.568C476.71 359.669 469.481 364.555 461.016 367.194C464.676 363.588 481.559 355.86 487.812 351.357L509.829 333.965C514.124 330.72 518.886 328.135 523.139 324.851C530.8 318.935 538.135 312.038 546.663 307.43C546.655 310.392 546.879 313.795 546.309 316.7L546.21 314.375L508.687 342.095Z"/>
	<path fill="#A79A92" transform="matrix(0.0375 0 0 0.0375 0 1.90735e-06)" d="M503.922 307.688C507.401 304.507 510.662 301.004 514.274 297.988L533.047 283.659C538.079 279.775 542.874 275.527 548.474 272.493C548.438 276.032 548.675 279.764 548.088 283.258L547.958 283.345L547.5 282.758C540.81 286.34 531.054 294.543 524.893 299.359C521.235 302.218 517.42 304.723 513.992 307.884C510.215 310.535 506.676 313.675 502.996 316.481L468.72 342.109C467.762 342.812 466.688 343.899 465.625 344.382L489.16 322.279L498.802 312.744C500.383 311.199 502.265 309.858 503.624 308.086L503.922 307.688Z"/>
	<path fill="white" transform="matrix(0.0375 0 0 0.0375 0 1.90735e-06)" d="M548.447 250.406L548.459 258.233C544.055 262.447 538.557 266.053 533.503 269.534L470.156 311.559C469.215 312.232 468.051 313.432 466.953 313.74L467.034 313.281C467.545 312.99 467.841 312.676 468.284 312.344L469.062 311.875C469.502 311.541 469.721 311.205 470.245 310.972L470.547 310.859C470.455 310.191 470.571 310.453 470.242 309.961L470.002 309.609C469.363 308.157 468.137 307.059 467.502 305.623L466.719 305L465.234 306.248C464.451 306.252 463.805 307.169 463.125 307.577L462.197 308.101C461.665 308.439 461.732 308.352 461.15 308.281L548.447 250.406Z"/>
	<defs>
		<linearGradient id="gradient_13" gradientUnits="userSpaceOnUse" x1="470.85669" y1="241.45158" x2="491.04129" y2="262.0152">
			<stop offset="0" stop-color="#939295"/>
			<stop offset="1" stop-color="#C4C1BD"/>
		</linearGradient>
	</defs>
	<path fill="url(#gradient_13)" transform="matrix(0.0375 0 0 0.0375 0 1.90735e-06)" d="M484.748 249.915C490.623 246.07 495.631 240.087 501.066 235.556C503.949 233.153 507.224 231.255 510.312 229.138L521.408 221.223C530.757 214.551 538.449 206.422 549.525 202.175L548.583 212.594C548.793 211.279 549.175 208.127 547.189 208.127L546.778 208.488C545.72 209.405 544.455 210.027 543.281 210.784L519.062 228.633C513.287 232.51 507.159 236.744 501.885 241.275L481.719 259.343C474.441 265.394 466.869 270.304 458.496 274.786L424.302 294.444C420.644 296.75 416.555 298.792 413.17 301.451C412.45 301.942 411.742 302.471 410.956 302.852C411.019 301.846 410.677 301.205 410.263 300.324L411.369 299.439C415.751 294.187 424.522 289.492 430.279 285.998L456.789 270.226C457.763 269.593 459.026 268.955 459.729 268.038C468.53 263.588 477.419 256.413 484.748 249.915Z"/>
	<path fill="#A79A92" transform="matrix(0.0375 0 0 0.0375 0 1.90735e-06)" d="M411.369 299.439C412.047 300.081 412.655 300.663 413.17 301.451C412.45 301.942 411.742 302.471 410.956 302.852C411.019 301.846 410.677 301.205 410.263 300.324L411.369 299.439Z"/>
	<path fill="#DAD2D0" transform="matrix(0.0375 0 0 0.0375 0 1.90735e-06)" d="M191.407 417.371L294.068 335.634C297.437 333.243 298.071 335.669 301.581 337.674C321.564 349.09 327.272 349.995 346.915 336.007L352.833 339.746L355.253 341.419L360.898 345.506L362.41 346.724L376.693 357.595L379.465 359.805L436.335 405.639L438.833 407.934L372.61 454.281L348.452 475.269C347.646 475.861 346.205 476.616 345.7 477.462L349.174 477.526L337.208 478.472L318.173 479.574L307.086 479.967L293.554 480.726C291.009 480.78 288.248 480.996 285.73 480.652L275.597 481.298L263.458 481.302C260.79 482.941 256.507 482.223 253.572 482.505L236.861 482.505L227.846 482.54L216.362 483.194L195.296 483.428L189.754 483.421L174.581 483.147L167.413 482.532C166.515 483.232 164.977 483.072 163.99 483.032L155.805 482.562L146.879 482.503C142.562 482.516 138.023 482.506 133.767 481.739C122.936 480.836 113.613 476.031 107.931 466.346C110.312 464.213 113.203 462.783 115.55 460.546C120.141 456.17 123.984 451.2 129.003 447.251L158.338 427.535C159.402 431.907 153.544 432.565 152.266 435.547L152.627 437.214C149.713 439.756 146.587 442.289 144.156 445.311C139.772 450.76 146.941 454.908 151.761 452.887C154.323 452.17 156.631 449.994 158.708 448.376L167.02 442.089L168.921 440.831C171.84 439.165 174.427 437.19 176.917 434.946C179.79 430.295 183.062 426.279 187.168 422.669C189.053 421.012 191.323 420.201 192.034 417.656L191.407 417.371ZM129.003 447.251C123.984 451.2 120.141 456.17 115.55 460.546C113.203 462.783 110.312 464.213 107.931 466.346C113.613 476.031 122.936 480.836 133.767 481.686L141.081 473.673C142.288 471.693 142.027 470.673 144.2 469.225L145.466 468.281C144.224 468.114 143.372 467.393 142.031 467.5C136.618 467.934 139.911 468.994 139.929 464.694L145.332 459.211C141.436 456.749 135.378 455.985 130.897 456.556L131.875 456.091C134.967 454.226 135.033 455.487 133.057 451.584C131.26 450.583 131.861 449.688 131.016 448.359L131.41 447.954L129.003 447.251Z"/>
	<path fill="white" transform="matrix(0.0375 0 0 0.0375 0 1.90735e-06)" d="M167.413 482.532C170.683 478.777 175.893 475.662 179.883 472.238L197.188 456.719L188.828 464.766C189.438 465.791 190.763 465.867 191.091 467.188L191.328 467.189C192.083 467.106 192.971 465.883 193.516 465.314L199.755 460.39L200.06 460.831L183.851 474.769C180.794 477.527 178.146 480.841 174.581 482.929L167.413 482.532Z"/>
	<path fill="white" transform="matrix(0.0375 0 0 0.0375 0 1.90735e-06)" d="M146.879 482.503C150.654 478.421 154.864 475.257 159.006 471.652L180.781 452.727C180.781 453.293 180.419 453.624 179.998 453.984L179.062 454.688C177.531 455.837 176.184 457.246 174.609 458.359L173.98 459.052C173.188 459.919 172.09 460.539 171.25 461.406C174.865 465.057 173.513 464.115 177.656 461.25L179.062 460.156C179.601 459.578 179.847 459.131 180.625 458.906L182.969 457.399C175.472 463.842 166.865 469.663 160.562 477.356C158.979 479.287 157.852 481.077 155.805 482.572L146.879 482.503Z"/>
	<path fill="white" transform="matrix(0.0375 0 0 0.0375 0 1.90735e-06)" d="M263.458 481.302L263.553 481.057C267.707 477.513 272.924 475.09 277.282 471.721L297.939 454.752C299.531 453.518 301.839 451.348 303.672 450.734L302.5 451.875C301.873 452.333 302.256 452.194 301.689 452.407L301.406 452.5C301.08 452.944 300.86 453.25 300.379 453.54L299.53 454.141C297.397 455.781 298.335 455.373 299.314 457.335L300.391 458.752C301.131 458.683 302.044 457.435 302.578 456.877L307.565 453.201L307.839 453.624C300.356 459.272 294.225 466.089 287.145 472.166C283.502 475.294 278.861 477.786 275.597 481.266L263.458 481.302Z"/>
	<path fill="white" transform="matrix(0.0375 0 0 0.0375 0 1.90735e-06)" d="M278.601 450.153C278.387 450.806 278.073 451.38 277.498 451.797L277.153 451.948C274.874 452.963 273.275 455.84 271.172 457.109L270.155 458.203C270.515 459.466 272.071 461.687 273.123 462.502L275.469 460.472L280 457.031C280.414 456.63 280.774 456.266 281.094 455.784L282.656 455.199L253.572 482.179L236.861 482.505C244.272 477.109 252.19 472.623 259.418 466.873C266.06 461.589 271.838 455.265 278.601 450.153Z"/>
	<path fill="#A79A92" transform="matrix(0.0375 0 0 0.0375 0 1.90735e-06)" d="M373.355 447.701C373.314 449.95 372.725 452.044 372.61 454.281L348.452 475.269C347.646 475.861 346.205 476.616 345.7 477.462L349.174 477.526L337.208 478.472C341.446 470.191 349.35 463.918 356.618 458.312C362.396 454.978 366.889 450.969 373.355 447.701Z"/>
	<path fill="#A79A92" transform="matrix(0.0375 0 0 0.0375 0 1.90735e-06)" d="M319.063 447.209L320.472 447.344C319.605 450.347 317.658 452.715 316.879 455.862C309.843 461.707 303.854 468.425 296.132 473.42L288.009 479.037C287.352 479.517 285.961 480.243 285.73 481.009L275.597 481.298C278.861 477.786 283.502 475.294 287.145 472.166C294.225 466.089 300.356 459.272 307.839 453.624L319.063 447.209Z"/>
	<path fill="#A79A92" transform="matrix(0.0375 0 0 0.0375 0 1.90735e-06)" d="M222.584 461.795C231.483 455.838 237.959 448.373 249.05 445.541L248.394 447.586C246.661 449.853 245.787 452.123 245.134 454.874L225.746 470.611C220.237 474.84 214.1 479.335 208.484 483.324L216.362 483.365L195.296 483.428L197.969 483.045C205.174 475.1 214.473 468.818 222.584 461.795Z"/>
	<path fill="#A79A92" transform="matrix(0.0375 0 0 0.0375 0 1.90735e-06)" d="M348.144 444.833C353.181 442.519 357.571 439.684 363.09 438.444L356.068 446.071C354.733 447.471 353.033 448.962 351.952 450.555C347.186 455.698 342.249 460.642 336.868 465.15L327.025 472.703C324.2 474.854 321.233 477.468 318.028 479.005L318.173 479.45L307.086 479.967C308.673 476.469 319.46 468.356 322.941 465.316L337.969 452.172C341.242 449.541 344.661 447.175 348.144 444.833Z"/>
	<path fill="#A79A92" transform="matrix(0.0375 0 0 0.0375 0 1.90735e-06)" d="M270.409 448.009L270.961 447.791C273.994 446.576 276.799 445.134 279.973 444.235C282.967 443.386 285.985 443.285 288.906 442.067C296.168 439.04 302.316 433.738 308.906 429.551L309.036 429.929C303.99 433.44 299.134 437.364 293.904 440.584C290.551 442.649 280.237 446.534 278.601 450.153C271.838 455.265 266.06 461.589 259.418 466.873C252.19 472.623 244.272 477.109 236.861 482.52L227.846 482.54C237.484 472.989 259.463 454.469 270.409 448.009Z"/>
	<path fill="white" transform="matrix(0.0375 0 0 0.0375 0 1.90735e-06)" d="M321.685 452.477C329.379 448.521 336.26 445.588 344.531 443.175C344.051 443.982 342.553 444.094 341.724 444.37L340.391 444.766C339.386 445.131 338.228 445.524 337.188 445.781L336.406 445.938C335.899 446.177 335.903 446.391 335.267 446.538L333.123 448.127C333.612 448.229 333.784 448.279 334.216 448.594L335.938 449.847C336.453 450.196 336.782 450.44 337.378 450.641L338.672 450.783C339.93 449.931 341.581 448.957 342.578 447.814L344.844 446.562L345.391 445.939C346.695 445.037 344.944 446.516 346.079 445.54L346.719 445.312C347.1 444.832 347.288 444.626 347.877 444.434L348.144 444.833C344.661 447.175 341.242 449.541 337.969 452.172L322.941 465.316C319.46 468.356 308.673 476.469 307.086 480.14L293.554 480.726C291.009 480.78 288.248 480.996 285.73 480.652C285.961 480.243 287.352 479.517 288.009 479.037L296.132 473.42C303.854 468.425 309.843 461.707 316.879 455.862L321.685 452.477Z"/>
	<path fill="white" transform="matrix(0.0375 0 0 0.0375 0 1.90735e-06)" d="M249.874 451.736C255.204 449.586 265.401 443.86 270.409 448.009C259.463 454.469 237.484 472.989 227.846 482.649L216.362 483.194L208.484 483.324C214.1 479.335 220.237 474.84 225.746 470.611L245.134 454.874L249.874 451.736Z"/>
	<path fill="white" transform="matrix(0.0375 0 0 0.0375 0 1.90735e-06)" d="M158.338 427.535C159.402 431.907 153.544 432.565 152.266 435.547L152.627 437.214C149.713 439.756 146.587 442.289 144.156 445.311C139.772 450.76 146.941 454.908 151.761 452.887C154.323 452.17 156.631 449.994 158.708 448.376L167.02 442.089L168.921 440.831C171.84 439.165 174.427 437.19 176.917 434.946L180.466 434.688C179.294 436.336 177.664 437.719 176.258 439.178L150.122 465.586C147.244 468.444 144.128 471.004 141.081 473.673C142.288 471.693 142.027 470.673 144.2 469.225L145.466 468.281C144.224 468.114 143.372 467.393 142.031 467.5C136.618 467.934 139.911 468.994 139.929 464.694L145.332 459.211C141.436 456.749 135.378 455.985 130.897 456.556L131.875 456.091C134.967 454.226 135.033 455.487 133.057 451.584C131.26 450.583 131.861 449.688 131.016 448.359L131.41 447.954L129.003 447.251L158.338 427.535Z"/>
	<path fill="#A79A92" transform="matrix(0.0375 0 0 0.0375 0 1.90735e-06)" d="M130.897 456.556C135.378 455.985 141.436 456.749 145.332 459.211L139.929 464.694C107.804 488.611 113.767 463.92 130.897 456.556Z"/>
	<path fill="#726C68" transform="matrix(0.0375 0 0 0.0375 0 1.90735e-06)" d="M273.764 220.661L274.4 220.578L265.874 229.324C265.701 228.767 265.648 228.15 265.555 227.573C267.868 225.331 272.019 222.967 273.764 220.661Z"/>
	<path fill="#726C68" transform="matrix(0.0375 0 0 0.0375 0 1.90735e-06)" d="M240.177 254.73L230.052 262.969L238.515 254.06L240.177 254.73Z"/>
	<path fill="#A79A92" transform="matrix(0.0375 0 0 0.0375 0 1.90735e-06)" d="M366.022 297.161C367.635 296.949 369 296.806 370.625 297.073L371.036 297.136C374.638 297.73 376.841 300.662 379.487 302.887L379.182 303.134L374.639 299.723C370.513 299.202 366.451 299.917 362.412 300.67C363.536 299.352 364.69 298.264 366.022 297.161Z"/>
	<defs>
		<linearGradient id="gradient_14" gradientUnits="userSpaceOnUse" x1="420.09677" y1="251.33327" x2="422.1586" y2="255.36182">
			<stop offset="0" stop-color="#5B5C5F"/>
			<stop offset="1" stop-color="#7E7673"/>
		</linearGradient>
	</defs>
	<path fill="url(#gradient_14)" transform="matrix(0.0375 0 0 0.0375 0 1.90735e-06)" d="M408.477 262.051L424.937 250.736C427.518 248.805 429.763 245.875 432.542 244.335C430.76 250.381 426.269 252.573 421.162 255.842L410.825 262.28C410.083 262.04 409.251 262.075 408.477 262.051Z"/>
	<path fill="#5F5A59" transform="matrix(0.0375 0 0 0.0375 0 1.90735e-06)" d="M361.164 239.522C371.52 238.333 379.686 231.632 389.799 230.051C384.794 235.74 370.45 240.157 363.442 241.34L361.67 240.325L361.164 239.522Z"/>
	<path fill="#5F5A59" transform="matrix(0.0375 0 0 0.0375 0 1.90735e-06)" d="M265.555 227.573C265.648 228.15 265.701 228.767 265.874 229.324L240.177 254.73L238.515 254.06L265.555 227.573Z"/>
	<path fill="#5F5A59" transform="matrix(0.0375 0 0 0.0375 0 1.90735e-06)" d="M412.216 203.587C423.272 196.598 432.367 185.806 441.501 176.519C445.255 172.701 449.119 167.997 453.872 165.482C451.197 170.44 447.2 174.69 443.511 178.918L427.656 195.489C423.516 199.445 419.074 203.656 413.989 206.364C414.523 205.01 415.471 204.814 416.562 204.062L418.906 202.347C420.217 201.184 421.724 200.159 422.964 198.92L443.127 178.439C443.58 177.525 444.945 176.143 445.718 175.371L446.877 174.064C447.252 173.391 447.751 173.171 448.127 172.578L448.594 171.722C445.739 171.712 444.472 174.511 442.578 176.405L430.936 188.123C427.352 191.917 423.292 196.522 419.033 199.564L417.734 200.623C417.251 200.949 416.966 201.075 416.538 201.502L415.781 202.028C414.364 202.858 413.938 203.591 412.216 203.587Z"/>
	<path fill="#DAD2D0" transform="matrix(0.0375 0 0 0.0375 0 1.90735e-06)" d="M143.109 208.349C144.027 205.839 146.038 205.35 148.162 204.003L173.592 187.851C175.806 186.338 177.827 184.642 180.156 183.284L180.466 183.594C178.07 185.572 175.397 187.298 172.903 189.167L154.684 203.382C151.86 205.705 148.945 208.353 145.814 210.25L143.109 208.349Z"/>
	<path fill="#A79A92" transform="matrix(0.0375 0 0 0.0375 0 1.90735e-06)" d="M167.873 206.036L181.419 198.771C187.582 195.472 193.792 192.246 199.558 188.263C207.184 182.995 214.132 176.645 222.004 171.725C220.276 173.838 218.279 175.681 216.403 177.656L188.281 204.947L200.84 190.958C202.475 189.098 204.353 187.286 205.712 185.215C203.487 186.294 201.597 187.717 199.531 189.054L178.481 201.16C175.371 203.103 172.619 205.526 169.265 207.047L167.873 206.036Z"/>
	<defs>
		<linearGradient id="gradient_15" gradientUnits="userSpaceOnUse" x1="357.04883" y1="188.73831" x2="363.26367" y2="194.07419">
			<stop offset="0" stop-color="#796263"/>
			<stop offset="1" stop-color="#A6A091"/>
		</linearGradient>
	</defs>
	<path fill="url(#gradient_15)" transform="matrix(0.0375 0 0 0.0375 0 1.90735e-06)" d="M334.504 210.929C345.724 207.469 353.959 197.826 362.094 189.87L375.286 177.578C378.325 174.845 381.832 171.318 385.54 169.614C381.918 174.064 377.58 177.938 373.494 181.968L355.54 199.275C351.692 202.734 347.132 206.021 343.678 209.844L344.333 210.358C341.018 209.961 337.845 211.071 334.504 210.929Z"/>
	<path fill="#726C68" transform="matrix(0.0375 0 0 0.0375 0 1.90735e-06)" d="M292.822 170.156L293.314 170.377C291.513 173.074 288.81 175.023 286.28 177.002L245.362 208.594L244.783 208.502C253.775 199.658 281.024 175.695 292.822 170.156Z"/>
	<path fill="#A79A92" transform="matrix(0.0375 0 0 0.0375 0 1.90735e-06)" d="M146.014 174.266C146.502 173.901 152.681 173.263 154.052 172.958L154.812 173.578C147.167 177.802 139.714 182.303 133.127 188.096C130.235 190.639 127.817 194.004 124.747 196.253C123.894 195.93 123.035 195.259 122.259 194.763C126.684 183.978 139.722 180.494 146.014 174.266Z"/>
	<path fill="#726C68" transform="matrix(0.0375 0 0 0.0375 0 1.90735e-06)" d="M316.861 212.384C321.125 210.827 325.194 205.245 328.309 201.919L341.363 188.281C347.688 182.231 354.211 176.423 361.727 171.889C358.745 175.913 354.274 179.436 350.706 182.974L329.774 204.316C327.875 206.304 324.617 208.948 323.318 211.306L323.163 211.65C321.757 212.365 318.465 212.501 316.861 212.384Z"/>
	<path fill="#5F5A59" transform="matrix(0.0375 0 0 0.0375 0 1.90735e-06)" d="M167.873 206.036L169.265 207.047C172.714 210.763 175.562 213.591 180.506 215.242C180.941 215.388 180.783 215.288 181.068 215.582C176.298 219.066 170.782 221.029 166.576 225.378C164.379 224.782 162.145 222.76 160.573 221.15C161.482 218.599 166.269 207.069 167.873 206.036Z"/>
	<path fill="#5F5A59" transform="matrix(0.0375 0 0 0.0375 0 1.90735e-06)" d="M408.477 262.051C409.251 262.075 410.083 262.04 410.825 262.28C394.881 272.343 379.974 284.511 366.022 297.161C364.69 298.264 363.536 299.352 362.412 300.67C360.817 301.868 357.84 302.647 355.938 303.44C342.881 308.877 331.452 317.667 318.834 324.001C326.376 317.364 334.779 311.921 343.269 306.592L355.379 298.984C359.535 296.516 363.931 294.486 367.969 291.81C373.833 287.923 379.112 282.886 384.711 278.594L408.477 262.051Z"/>
	<path fill="#5F5A59" transform="matrix(0.0375 0 0 0.0375 0 1.90735e-06)" d="M418.611 238.906L406.692 248.87C396.514 256.107 385.612 262.443 374.876 268.803L334.269 291.229L306.2 307.634C302.476 309.793 298.778 312.33 294.844 314.084L294.438 314.046C298.806 308.786 306.298 304.885 312.164 301.324L393.596 255.049C402.174 250.02 409.97 243.851 418.611 238.906Z"/>
	<defs>
		<linearGradient id="gradient_16" gradientUnits="userSpaceOnUse" x1="296.45532" y1="247.34296" x2="298.17819" y2="265.64001">
			<stop offset="0" stop-color="#4A4242"/>
			<stop offset="1" stop-color="#666561"/>
		</linearGradient>
	</defs>
	<path fill="url(#gradient_16)" transform="matrix(0.0375 0 0 0.0375 0 1.90735e-06)" d="M341.258 242.705C342.404 244.534 344.124 246.09 345.153 247.886C341.483 247.613 337.633 248.334 333.968 248.687L279.531 255.936C260.975 259.575 261.928 266.866 248.337 273.133C256.124 260.827 266.903 255.527 280.255 252.571C292.135 249.94 304.609 247.902 316.719 246.629C324.982 245.76 333.363 245.579 341.258 242.705Z"/>
	<defs>
		<linearGradient id="gradient_17" gradientUnits="userSpaceOnUse" x1="314.03427" y1="254.74789" x2="322.12015" y2="272.87183">
			<stop offset="0" stop-color="#2B2627"/>
			<stop offset="1" stop-color="#6D6B6B"/>
		</linearGradient>
	</defs>
	<path fill="url(#gradient_17)" transform="matrix(0.0375 0 0 0.0375 0 1.90735e-06)" d="M341.258 242.705C347.772 240.491 354.377 240.117 361.164 239.522L361.67 240.325L363.442 241.34L363.04 241.499C361.346 242.188 359.688 242.985 359.531 244.99C356.026 247.979 351.742 249.957 347.867 252.429L328.125 264.721L285.015 288.873C282.31 290.526 278.595 293.312 275.366 293.571C280.544 288.023 287.714 283.449 294.238 279.6L327.343 262.098C330.301 260.557 347.529 252.464 347.679 248.884L345.895 248.238L345.153 247.886C344.124 246.09 342.404 244.534 341.258 242.705Z"/>
</svg>
