<?xml version="1.0" encoding="utf-8" ?>
<svg xmlns="http://www.w3.org/2000/svg" xmlns:xlink="http://www.w3.org/1999/xlink" width="24" height="24">
	<path fill="#736F70" transform="matrix(0.0375 0 0 0.0375 0 1.90735e-06)" d="M390.957 197.969C392.616 197.63 397.647 198.812 392.162 199.522C391.283 199.125 390.154 200.324 389.06 199.531C389.626 198.829 390.208 198.44 390.957 197.969Z"/>
	<path fill="#483D3D" transform="matrix(0.0375 0 0 0.0375 0 1.90735e-06)" d="M427.31 214.707C428.301 215.03 429.482 215.247 430.117 216.128L427.815 217.923C427.092 217.43 426.466 217.152 425.654 216.849C426.539 216.136 426.865 215.752 427.31 214.707Z"/>
	<path fill="#A79A92" transform="matrix(0.0375 0 0 0.0375 0 1.90735e-06)" d="M425.409 214.19C426.101 214.511 426.529 214.759 427.31 214.707C426.865 215.752 426.539 216.136 425.654 216.849C424.627 216.986 423.559 216.867 422.526 216.81C422.751 215.925 424.652 214.768 425.409 214.19Z"/>
	<path fill="#342F31" transform="matrix(0.0375 0 0 0.0375 0 1.90735e-06)" d="M335.887 177.92C337.243 178.195 339.835 178.301 340.578 179.375L339.862 180.863C338.617 181.113 337.625 181.069 336.371 180.897C336.738 180.623 337.027 180.326 337.347 180L336.971 179.397C336.704 178.576 336.525 178.517 335.887 177.92Z"/>
	<path fill="#342F31" transform="matrix(0.0375 0 0 0.0375 0 1.90735e-06)" d="M420.589 212.54L425.409 214.19C424.652 214.768 422.751 215.925 422.526 216.81C421.509 216.429 421.008 215.32 420.547 214.428L419.41 213.753C419.773 213.252 420.125 212.941 420.589 212.54Z"/>
	<path fill="#483D3D" transform="matrix(0.0375 0 0 0.0375 0 1.90735e-06)" d="M348.468 183.985L348.805 184.103C351.613 184.958 354.022 184.712 356.719 186.201L356.719 186.52C355.96 186.818 355.106 187.101 354.395 187.496L353.906 186.146C352.246 185.859 350.461 186.254 348.75 186.185L348.383 185.625C348.004 184.844 348.142 184.745 348.468 183.985Z"/>
	<path fill="#342F31" transform="matrix(0.0375 0 0 0.0375 0 1.90735e-06)" d="M434.629 217.705C438.49 218.323 443.219 218.915 446.324 221.498L446.587 222.188C446.064 222.937 445.139 222.988 444.401 223.462C443.832 223.65 443.775 223.587 443.385 224.084C442.918 224.005 442.482 223.758 442.049 223.569L442.02 223.242C441.155 222.15 440.004 221.793 438.756 221.272L439.001 220.475C438.219 219.506 437.499 219.339 436.326 219.005C435.729 218.676 435.166 218.131 434.629 217.705Z"/>
	<path fill="#1B1718" transform="matrix(0.0375 0 0 0.0375 0 1.90735e-06)" d="M274.784 173.117C278.907 171.04 299.505 167.918 302.31 171.48C305.92 176.065 316.094 176.257 321.094 174.367C323.384 173.501 327.897 170.137 327.344 174.493L324.987 176.713C326.059 176.769 335.695 177.8 335.887 177.92C336.525 178.517 336.704 178.576 336.971 179.397L337.347 180C337.027 180.326 336.738 180.623 336.371 180.897C337.625 181.069 338.617 181.113 339.862 180.863C342.073 180.718 342.27 179.573 343.211 182.106C344.661 182.036 347.077 182.209 348.282 183.03L348.468 183.985C348.142 184.745 348.004 184.844 348.383 185.625L348.75 186.185C350.461 186.254 352.246 185.859 353.906 186.146L354.395 187.496C356.523 188.931 359.478 189.146 361.77 190.469L362.656 189.728C364.393 189.675 365.812 189.679 367.517 190.12C370.132 191.049 372.221 191.14 374.397 193.004C375.252 193.818 375.973 193.925 377.112 194.139L377.782 194.858C379.409 195.949 391.341 197.196 387.874 199.626L387.761 199.674L387.522 199.794C386.276 200.387 384.995 200.594 383.651 200.841L393.75 204.017C397.79 205.13 404.178 205.164 407.177 206.683L407.776 206.996C409.01 207.534 409.746 207.771 410.273 209.087L410.489 209.651C413.329 210.106 415.663 210.66 418.247 211.978C419.129 212.385 419.589 212.585 420.589 212.54C420.125 212.941 419.773 213.252 419.41 213.753L420.547 214.428C421.008 215.32 421.509 216.429 422.526 216.81C423.559 216.867 424.627 216.986 425.654 216.849C426.466 217.152 427.092 217.43 427.815 217.923L430.117 216.128L430.541 217.293C431.881 217.428 433.316 217.437 434.629 217.705C435.166 218.131 435.729 218.676 436.326 219.005C437.499 219.339 438.219 219.506 439.001 220.475L438.756 221.272C440.004 221.793 441.155 222.15 442.02 223.242L442.049 223.569C442.482 223.758 442.918 224.005 443.385 224.084C443.775 223.587 443.832 223.65 444.401 223.462C447.219 224.191 456.864 224.575 458.292 225.905L459.096 226.775C459.471 227.548 460.113 228.186 460.928 228.497L463.196 229.077C465.559 229.739 470.518 230.802 472.102 232.656C472.561 235.119 477.867 236.134 479.844 235.89L481.121 235.575C485.859 237.751 483.241 237.188 485.346 238.628C486.564 239.462 489.511 239.526 490.965 240.042C494.872 241.428 498.664 244.007 502.436 245.741C507.401 248.025 508.749 246.888 512.881 253.007L513.349 253.111C518.418 254.276 521.457 258.978 522.999 263.667C526.739 275.038 510.981 278.199 505.231 282.027L504.977 343.476C504.97 348.525 506.248 363.332 503.902 367.294L502.447 369.688C503.998 371.906 507.522 372.654 510.24 376.904L510.494 377.288C515.522 385.021 513.511 392.62 510.056 400.474L510.216 400.716C511.8 403.236 512.526 407.312 513.415 410.19L518.735 428.75C520.737 435.779 525.157 445.844 523.235 453.279L522.647 454.951C520.968 459.186 515.513 461.026 511.324 461.401C505.703 461.905 471.066 462.422 466.591 460.433C464.211 459.376 462.495 457.573 461.16 455.363L460.932 454.994C458.258 450.395 461.348 440.616 462.487 435.938L466.401 420.697C467.155 416.798 470.212 404.991 471.868 401.082L473.016 397.69L472.572 397.332C470.81 387.284 474.484 374.243 485.239 370.781C483.544 368.782 481.505 369.976 481.282 366.094L480.02 325.781L479.466 293.849C477.993 294.834 476.226 294.963 474.577 295.539L463.36 299.727C454.058 303.636 445.647 308.986 436.151 312.564L442.547 312.121L444.83 380.229C444.914 411.228 437.686 429.257 408.063 440.651C382.143 450.621 348.469 452.578 320.509 453.381C299.473 453.985 278.326 453.237 257.37 451.61C240.272 450.283 222.117 449.643 205.718 444.164C194.913 442.331 185.5 438.582 176.434 432.623C171.015 429.909 171.364 428.775 176.743 427.986L170.88 427.457C164.713 423.637 154.685 404.074 157.031 398.654L158.128 397.969C153.042 397.327 154.694 368.695 154.697 364.443C154.7 360.707 153.741 350.126 156.035 347.102C154.351 341.737 155.511 334.783 155.558 329.203L155.658 320.191C155.729 316.921 155.573 314.679 157.551 312.003L157.805 311.664C152.346 308.676 146.425 306.467 140.618 304.26L121.177 296.64C118.928 295.42 116.825 294.269 114.442 293.316C100.054 289.595 100.808 287.63 88.3995 280.939C78.2485 276.9 74.6473 266.652 84.2188 259.067C85.3428 259.315 86.5528 259.489 85.1902 258.382L84.9579 257.188C87.8387 253.706 104.764 245.14 109.09 243.263C112.463 241.8 115.933 241.495 119.361 240.342L177.871 217.416L262.408 180.787C265.933 177.631 270.63 175.32 274.784 173.117Z"/>
	<path fill="#483D3D" transform="matrix(0.0375 0 0 0.0375 0 1.90735e-06)" d="M456.631 231.719C457.96 231.416 459.453 232.165 460.671 232.731L460.781 233.591C458.983 233.75 457.786 233.046 456.631 231.719Z"/>
	<path fill="#9F0C1F" transform="matrix(0.0375 0 0 0.0375 0 1.90735e-06)" d="M485.601 297.197L485.531 296.991C485.223 295.338 485.134 293.403 485.944 291.894C486.376 292.734 487.086 293.074 487.238 294.083C486.32 295.225 485.761 295.663 485.601 297.197Z"/>
	<path fill="#9F0C1F" transform="matrix(0.0375 0 0 0.0375 0 1.90735e-06)" d="M482.533 389.969L483.128 390.478C483.154 391.281 483.235 392.022 483.03 392.805L482.644 394.529C482.54 393.159 481.876 392.544 480.991 391.544C481.455 390.862 481.897 390.475 482.533 389.969Z"/>
	<path fill="#AE1035" transform="matrix(0.0375 0 0 0.0375 0 1.90735e-06)" d="M504.507 410.616L506.24 412.031C506.003 413.013 505.502 413.533 504.855 414.265C504.323 413.856 504.045 413.377 503.683 412.822C504.207 412.107 504.3 411.461 504.507 410.616Z"/>
	<path fill="#342F31" transform="matrix(0.0375 0 0 0.0375 0 1.90735e-06)" d="M91.3098 268.83C92.8474 270.118 94.6875 270.595 96.3121 271.668C94.8738 271.648 92.7798 271.601 91.5014 270.938L91.3098 268.83Z"/>
	<path fill="#645A57" transform="matrix(0.0375 0 0 0.0375 0 1.90735e-06)" d="M438.756 221.272C440.004 221.793 441.155 222.15 442.02 223.242L442.049 223.569C440.444 223.502 438.907 223.112 437.586 222.17L438.756 221.272Z"/>
	<path fill="#851121" transform="matrix(0.0375 0 0 0.0375 0 1.90735e-06)" d="M481.881 453.057L483.74 454.647L480.214 455.341L479.13 455.257L479.993 454.904C480.553 454.183 481.188 453.645 481.881 453.057Z"/>
	<path fill="#BE304F" transform="matrix(0.0375 0 0 0.0375 0 1.90735e-06)" d="M500.814 408.141C501.666 407.116 501.557 407.048 502.969 406.916L504.626 408.125C504.37 408.447 503.983 408.838 503.814 409.208C502.59 409.079 501.852 408.798 500.814 408.141Z"/>
	<path fill="#BE304F" transform="matrix(0.0375 0 0 0.0375 0 1.90735e-06)" d="M503.765 409.988L504.507 410.616C504.3 411.461 504.207 412.107 503.683 412.822C502.605 412.542 502.107 412.288 501.248 411.58L501.398 411.087C502.336 410.244 502.514 410.19 503.765 409.988Z"/>
	<path fill="#A79A92" transform="matrix(0.0375 0 0 0.0375 0 1.90735e-06)" d="M418.247 211.978C419.129 212.385 419.589 212.585 420.589 212.54C420.125 212.941 419.773 213.252 419.41 213.753C417.95 214.178 416.458 214.091 414.957 213.932C416.023 213.211 417.221 212.804 418.247 211.978Z"/>
	<path fill="#62152C" transform="matrix(0.0375 0 0 0.0375 0 1.90735e-06)" d="M508.786 425.038C509.055 425.664 509.147 426.139 509.215 426.812L509.707 430L508.438 429.703C507.483 429.419 507.356 429.32 506.887 428.431L507.186 428.252C508.378 427.336 508.706 426.451 508.786 425.038Z"/>
	<path fill="#AE1035" transform="matrix(0.0375 0 0 0.0375 0 1.90735e-06)" d="M493.736 295.268L496.555 293.077C496.861 293.988 497.344 294.958 497.123 295.926L496.201 296.29L495.392 296.197C494.858 295.833 494.315 295.553 493.736 295.268Z"/>
	<path fill="#AE1035" transform="matrix(0.0375 0 0 0.0375 0 1.90735e-06)" d="M485.871 310.139L485.635 309.372C486.075 308.431 486.562 307.592 487.129 306.723C487.833 307.69 488.469 308.599 488.988 309.679C487.936 310.006 486.967 310.075 485.871 310.139Z"/>
	<path fill="#342F31" transform="matrix(0.0375 0 0 0.0375 0 1.90735e-06)" d="M273.895 356.842C275.437 355.882 276.046 356.153 277.792 356.341L276.76 358.931C275.878 358.161 274.853 357.518 273.895 356.842Z"/>
	<path fill="#43143A" transform="matrix(0.0375 0 0 0.0375 0 1.90735e-06)" d="M493.219 321.66C494.229 321.1 494.71 320.126 495.865 319.655L496.317 320.449C496.24 321.555 496.057 322.752 496.153 323.853C495.09 323.373 494.128 322.4 493.219 321.66Z"/>
	<path fill="#6E1621" transform="matrix(0.0375 0 0 0.0375 0 1.90735e-06)" d="M493.801 448.431C496.448 449.887 496.246 449.925 494.379 452.147L493.313 450.712L492.409 448.716L493.801 448.431Z"/>
	<path fill="#6E1621" transform="matrix(0.0375 0 0 0.0375 0 1.90735e-06)" d="M510.485 450.953C512.26 450.999 512.417 451.973 513.848 452.524L513.517 452.74C512.428 453.467 511.937 454.246 510.47 454.012L509.964 453.906C510.373 452.647 510.577 452.33 510.485 450.953Z"/>
	<path fill="#E01952" transform="matrix(0.0375 0 0 0.0375 0 1.90735e-06)" d="M489.749 290.424C489.881 290.968 489.939 291.311 489.929 291.881C489.148 292.338 488.786 292.723 488.526 293.633L488.477 293.975C487.976 293.898 487.724 293.969 487.238 294.083C487.086 293.074 486.376 292.734 485.944 291.894L489.749 290.424Z"/>
	<path fill="#62152C" transform="matrix(0.0375 0 0 0.0375 0 1.90735e-06)" d="M479.042 406.921C479.605 406.15 480.168 405.346 480.956 404.793C481.854 405.698 482.729 406.69 483.733 407.474L482.254 407.978L480.105 407.728L479.042 406.921Z"/>
	<path fill="#411F20" transform="matrix(0.0375 0 0 0.0375 0 1.90735e-06)" d="M486.119 310.407C487.071 311.376 487.879 312.354 489.183 312.834L488.788 313.722C487.752 314.007 487.012 314.023 486.293 314.844L486.257 316.83L486.067 316.579C485.589 315.594 485.801 313.189 486.252 312.189L486.719 312.034C486.38 311.615 486.29 311.431 486.188 310.88L486.119 310.407Z"/>
	<path fill="#483D3D" transform="matrix(0.0375 0 0 0.0375 0 1.90735e-06)" d="M488.764 365.882L488.998 365.887L489.702 366.299C490.383 367.34 491.062 367.908 492.067 368.641L491.562 369.703C489.048 369.271 488.224 368.474 488.764 365.882Z"/>
	<path fill="#A79A92" transform="matrix(0.0375 0 0 0.0375 0 1.90735e-06)" d="M374.397 193.004C375.252 193.818 375.973 193.925 377.112 194.139L377.782 194.858L376.595 195.234C374.758 194.502 372.924 195.944 370.888 195.214C372.081 194.43 373.274 193.921 374.397 193.004Z"/>
	<path fill="#DAD2D0" transform="matrix(0.0375 0 0 0.0375 0 1.90735e-06)" d="M307.908 447.175C309.161 445.063 310.191 445.26 312.54 445.454L312.091 446.562C313.42 447.281 316.063 446.674 317.664 446.914L307.908 447.175Z"/>
	<path fill="#736F70" transform="matrix(0.0375 0 0 0.0375 0 1.90735e-06)" d="M464.001 235.156C466.801 235.237 469.555 235.554 471.954 237.11L471.857 237.656C469.137 237.482 466.715 236.27 464.018 235.781L464.001 235.156Z"/>
	<path fill="#A79A92" transform="matrix(0.0375 0 0 0.0375 0 1.90735e-06)" d="M407.776 206.996C409.01 207.534 409.746 207.771 410.273 209.087L410.489 209.651L409.949 209.77C408.356 209.424 404.047 209.503 403.281 208.43C405.384 208.563 406.054 208.124 407.776 206.996Z"/>
	<path fill="#736F70" transform="matrix(0.0375 0 0 0.0375 0 1.90735e-06)" d="M121.138 293.618L131.719 295.819C128.617 295.891 124.763 295.446 121.684 295.024L121.138 293.618Z"/>
	<path fill="#AE1035" transform="matrix(0.0375 0 0 0.0375 0 1.90735e-06)" d="M480.062 387.336C481.694 387.561 482.804 388.611 484.297 388.911L483.571 389.432L482.533 389.969C481.897 390.475 481.455 390.862 480.991 391.544L479.844 390.209C479.541 389.172 479.817 388.349 480.062 387.336Z"/>
	<path fill="#6E1621" transform="matrix(0.0375 0 0 0.0375 0 1.90735e-06)" d="M473.775 402.872C475.64 403.931 476.937 405.113 478.355 406.718L479.042 406.921L480.105 407.728C478.929 407.884 477.626 407.944 476.529 408.411L476.807 407.651C476.475 406.292 474.975 405.403 474.011 404.429C473.629 403.778 473.707 403.637 473.775 402.872Z"/>
	<path fill="#851121" transform="matrix(0.0375 0 0 0.0375 0 1.90735e-06)" d="M501.976 452.407C503.755 452.993 504.914 453.593 505.823 455.28L501.515 455.801L500.716 455.156C500.903 453.991 501.299 453.361 501.976 452.407Z"/>
	<path fill="#851121" transform="matrix(0.0375 0 0 0.0375 0 1.90735e-06)" d="M488.788 313.722L489.901 314.219C490.103 314.887 490.295 315.517 490.412 316.208L489.678 317.227C488.278 316.474 487.779 316.642 486.257 316.83L486.293 314.844C487.012 314.023 487.752 314.007 488.788 313.722Z"/>
	<path fill="#D53A7A" transform="matrix(0.0375 0 0 0.0375 0 1.90735e-06)" d="M487.238 294.083C487.724 293.969 487.976 293.898 488.477 293.975C489.456 294.387 490.306 294.744 490.982 295.604L490.934 295.927L489.636 296.503C488.315 296.628 486.861 297.251 485.601 297.197C485.761 295.663 486.32 295.225 487.238 294.083Z"/>
	<path fill="#6E1621" transform="matrix(0.0375 0 0 0.0375 0 1.90735e-06)" d="M501.976 452.407L502.857 450.974C505.131 452.919 507.134 451.589 507.915 454.872C507.194 455.133 506.606 455.401 505.823 455.28C504.914 453.593 503.755 452.993 501.976 452.407Z"/>
	<path fill="#8D2442" transform="matrix(0.0375 0 0 0.0375 0 1.90735e-06)" d="M491.899 295.242L493.736 295.268C494.315 295.553 494.858 295.833 495.392 296.197L492.54 298.116C491.887 298.291 491.318 298.49 490.707 298.779C490.452 298.214 490.11 297.745 489.761 297.235L489.636 296.503L490.934 295.927L490.982 295.604L491.899 295.242Z"/>
	<path fill="#991853" transform="matrix(0.0375 0 0 0.0375 0 1.90735e-06)" d="M490.934 295.927C491.959 296.747 492.122 296.882 492.54 298.116C491.887 298.291 491.318 298.49 490.707 298.779C490.452 298.214 490.11 297.745 489.761 297.235L489.636 296.503L490.934 295.927Z"/>
	<path fill="#8D182F" transform="matrix(0.0375 0 0 0.0375 0 1.90735e-06)" d="M513.699 447.515C515.685 448.299 515.973 450.417 514.457 451.973L513.848 452.524C512.417 451.973 512.26 450.999 510.485 450.953L509.923 450.865L509.629 449.825L510.625 450.546C512.355 450.559 513.618 449.176 513.699 447.515Z"/>
	<path fill="#645A57" transform="matrix(0.0375 0 0 0.0375 0 1.90735e-06)" d="M339.862 180.863C342.073 180.718 342.27 179.573 343.211 182.106C342.68 181.997 342.223 181.86 341.73 181.638L341.226 181.406C340.439 183.824 336.912 183.497 335.613 181.719L336.371 180.897C337.625 181.069 338.617 181.113 339.862 180.863Z"/>
	<path fill="#6E1621" transform="matrix(0.0375 0 0 0.0375 0 1.90735e-06)" d="M486.257 316.83C487.779 316.642 488.278 316.474 489.678 317.227C489.049 318.025 488.623 318.339 488.534 319.367L490.216 318.834L491.361 320.633C490.005 320.582 488.498 320.325 487.265 320.972L487.327 320.5C486.632 319.285 486.44 318.193 486.257 316.83Z"/>
	<path fill="#A79A92" transform="matrix(0.0375 0 0 0.0375 0 1.90735e-06)" d="M430.117 216.128L430.541 217.293C431.881 217.428 433.316 217.437 434.629 217.705C435.166 218.131 435.729 218.676 436.326 219.005L435.499 219.161C434.331 219.379 433.393 219.567 432.217 219.294L431.791 219.19C430.386 218.865 429.143 218.494 427.815 217.923L430.117 216.128Z"/>
	<path fill="#A51321" transform="matrix(0.0375 0 0 0.0375 0 1.90735e-06)" d="M506.024 423.459C507.226 423.767 508.013 423.985 508.786 425.038C508.706 426.451 508.378 427.336 507.186 428.252L506.887 428.431C506.519 427.635 505.758 427.453 504.999 427.051L504.915 425.817C505.206 424.936 505.548 424.258 506.024 423.459Z"/>
	<path fill="#645A57" transform="matrix(0.0375 0 0 0.0375 0 1.90735e-06)" d="M116.024 292.211L121.138 293.618L121.684 295.024L121.177 296.64C118.928 295.42 116.825 294.269 114.442 293.316C114.939 292.869 115.451 292.551 116.024 292.211Z"/>
	<path fill="#483D3D" transform="matrix(0.0375 0 0 0.0375 0 1.90735e-06)" d="M398.34 327.357L398.872 326.923C401.775 324.686 404.945 323.509 408.636 323.989C406.711 325.19 404.449 325.834 402.589 327.06C401.215 326.986 399.74 327.282 398.34 327.357Z"/>
	<path fill="#A79A92" transform="matrix(0.0375 0 0 0.0375 0 1.90735e-06)" d="M459.096 226.775C459.471 227.548 460.113 228.186 460.928 228.497L463.196 229.077L462.12 229.891C460.752 230.037 450.406 228.628 449.684 228.073C451.199 227.985 453.735 227.816 455.125 228.345L456.108 228.301C457.321 227.912 458.099 227.592 459.096 226.775Z"/>
	<path fill="#43143A" transform="matrix(0.0375 0 0 0.0375 0 1.90735e-06)" d="M489.183 312.834L489.885 312.838C491.18 313.935 492.922 315.123 494.651 315.185C494.268 315.76 494.117 315.855 494.057 316.567C492.717 316.068 492.366 316.171 491.418 317.294L490.216 318.834L488.534 319.367C488.623 318.339 489.049 318.025 489.678 317.227L490.412 316.208C490.295 315.517 490.103 314.887 489.901 314.219L488.788 313.722L489.183 312.834Z"/>
	<path fill="#342F31" transform="matrix(0.0375 0 0 0.0375 0 1.90735e-06)" d="M121.711 248.607C121.837 247.526 121.633 246.335 121.542 245.251C123.55 244.61 127.857 243.937 129.749 244.687L121.711 248.607Z"/>
	<path fill="#6E1621" transform="matrix(0.0375 0 0 0.0375 0 1.90735e-06)" d="M485.601 297.197C486.861 297.251 488.315 296.628 489.636 296.503L489.761 297.235C490.11 297.745 490.452 298.214 490.707 298.779L489.384 301.052L487.371 300.382L486.442 301.027C485.655 299.749 485.642 298.651 485.601 297.197Z"/>
	<path fill="#8D182F" transform="matrix(0.0375 0 0 0.0375 0 1.90735e-06)" d="M489.761 297.235C490.11 297.745 490.452 298.214 490.707 298.779L489.384 301.052L487.371 300.382L489.761 297.235Z"/>
	<path fill="#A51321" transform="matrix(0.0375 0 0 0.0375 0 1.90735e-06)" d="M493.313 450.712L494.379 452.147C494.427 456.873 490.907 456.852 487.404 454.799L489.794 453.778C491.427 452.976 492.287 452.232 493.313 450.712Z"/>
	<path fill="#342F31" transform="matrix(0.0375 0 0 0.0375 0 1.90735e-06)" d="M377.782 194.858C379.409 195.949 391.341 197.196 387.874 199.626L387.761 199.674L388.125 198.281L383.012 197.496C381.47 198.251 379.424 199.488 377.727 198.438L378.692 196.875C378.045 196.263 377.312 195.759 376.595 195.234L377.782 194.858Z"/>
	<path fill="#8D2442" transform="matrix(0.0375 0 0 0.0375 0 1.90735e-06)" d="M487.371 300.382L489.384 301.052C490.064 301.804 490.558 302.449 491.614 302.619C490.685 302.853 490.36 302.967 489.701 303.721L489.389 303.43C488.315 304.284 487.329 305.138 486.051 305.672C485.336 304.84 485.049 303.938 485.342 302.853C485.586 302.236 486.089 301.598 486.442 301.027L487.371 300.382Z"/>
	<path fill="#BE304F" transform="matrix(0.0375 0 0 0.0375 0 1.90735e-06)" d="M485.342 302.853C486.582 302.814 488.011 302.595 489.189 302.986L489.389 303.43C488.315 304.284 487.329 305.138 486.051 305.672C485.336 304.84 485.049 303.938 485.342 302.853Z"/>
	<path fill="#9F0C1F" transform="matrix(0.0375 0 0 0.0375 0 1.90735e-06)" d="M488.998 365.887C494.825 365.293 493.127 363.417 497.775 362.402C497.071 370.103 495.504 365.956 489.702 366.299L488.998 365.887Z"/>
	<path fill="#342F31" transform="matrix(0.0375 0 0 0.0375 0 1.90735e-06)" d="M410.489 209.651C413.329 210.106 415.663 210.66 418.247 211.978C417.221 212.804 416.023 213.211 414.957 213.932C414.213 213.578 413.079 212.575 412.344 212.389C411.557 212.19 411.422 212.531 410.62 212.031L409.949 209.77L410.489 209.651Z"/>
	<path fill="#342F31" transform="matrix(0.0375 0 0 0.0375 0 1.90735e-06)" d="M280.059 356.406C281.279 356.278 294.587 360.944 296.091 362.031C293.905 362.848 282.755 358.616 280.276 357.344L280.059 356.406Z"/>
	<path fill="#AE1035" transform="matrix(0.0375 0 0 0.0375 0 1.90735e-06)" d="M487.827 391.879C487.999 392.787 488.109 392.814 488.798 393.451L488.483 394.191L487.78 394.7C487.761 395.734 487.786 396.756 487.547 397.768C486.661 397.083 485.604 396.603 484.611 396.085C483.804 395.667 483.276 395.162 482.644 394.529L483.03 392.805C484.285 392.99 485.204 393.141 486.43 392.763L487.827 391.879Z"/>
	<path fill="#851121" transform="matrix(0.0375 0 0 0.0375 0 1.90735e-06)" d="M487.78 394.7C487.761 395.734 487.786 396.756 487.547 397.768C486.661 397.083 485.604 396.603 484.611 396.085L487.78 394.7Z"/>
	<path fill="#62152C" transform="matrix(0.0375 0 0 0.0375 0 1.90735e-06)" d="M491.418 317.294C492.366 316.171 492.717 316.068 494.057 316.567C494.8 317.22 495.67 317.711 495.859 318.748L495.865 319.655C494.71 320.126 494.229 321.1 493.219 321.66L491.361 320.633L490.216 318.834L491.418 317.294Z"/>
	<path fill="#991853" transform="matrix(0.0375 0 0 0.0375 0 1.90735e-06)" d="M491.614 302.619C492.162 300.582 492.962 300.741 494.795 301.479L496.11 302.969C495.981 303.309 496.003 303.524 495.666 303.693C494.726 304.219 494.426 304.218 494.082 305.312L493.386 306.269C491.517 305.946 490.578 305.541 489.701 303.721C490.36 302.967 490.685 302.853 491.614 302.619Z"/>
	<path fill="#9F0C1F" transform="matrix(0.0375 0 0 0.0375 0 1.90735e-06)" d="M489.389 303.43L489.701 303.721C490.578 305.541 491.517 305.946 493.386 306.269C492.607 308.596 489.989 308.272 488.988 309.679C488.469 308.599 487.833 307.69 487.129 306.723L486.051 305.672C487.329 305.138 488.315 304.284 489.389 303.43Z"/>
	<path fill="#342F31" transform="matrix(0.0375 0 0 0.0375 0 1.90735e-06)" d="M367.517 190.12C370.132 191.049 372.221 191.14 374.397 193.004C373.274 193.921 372.081 194.43 370.888 195.214C369.855 194.581 369.645 194.458 368.378 194.412C367.592 194.142 367.042 193.896 366.352 193.409L366.544 192.782L367.517 190.12Z"/>
	<path fill="#A79A92" transform="matrix(0.0375 0 0 0.0375 0 1.90735e-06)" d="M366.544 192.782C367.849 192.83 371.263 193.182 368.378 194.412C367.592 194.142 367.042 193.896 366.352 193.409L366.544 192.782Z"/>
	<path fill="#A51321" transform="matrix(0.0375 0 0 0.0375 0 1.90735e-06)" d="M495.666 303.693C495.188 305.663 495.027 306.156 496.147 308.007L496.327 308.281C496.077 308.972 495.787 309.59 495.44 310.238C493.133 308.537 491.181 308.731 489.739 311.562L489.885 312.838L489.183 312.834C487.879 312.354 487.071 311.376 486.119 310.407L485.871 310.139C486.967 310.075 487.936 310.006 488.988 309.679C489.989 308.272 492.607 308.596 493.386 306.269L494.082 305.312C494.426 304.218 494.726 304.219 495.666 303.693Z"/>
	<path fill="#AE1035" transform="matrix(0.0375 0 0 0.0375 0 1.90735e-06)" d="M480.105 407.728L482.254 407.978C482.922 408.702 483.632 409.389 484.105 410.261C483.622 411.022 483.166 411.547 482.511 412.167L482.306 412.186C481.165 410.876 479.552 410.813 478.202 411.738L477.847 411.547C477.29 410.907 477.147 411.002 476.291 410.886C476.057 410.359 475.928 409.773 475.768 409.219L476.529 408.411C477.626 407.944 478.929 407.884 480.105 407.728Z"/>
	<path fill="#AE1035" transform="matrix(0.0375 0 0 0.0375 0 1.90735e-06)" d="M505.889 447.113C506.211 448.235 506.463 448.763 507.322 449.564L507.453 450.196C508.321 450.837 508.864 450.764 509.923 450.865L510.485 450.953C510.577 452.33 510.373 452.647 509.964 453.906L507.915 454.872C507.134 451.589 505.131 452.919 502.857 450.974L503.8 449.37L504.004 449.319C504.306 448.346 505.149 447.798 505.889 447.113Z"/>
	<path fill="#8D2442" transform="matrix(0.0375 0 0 0.0375 0 1.90735e-06)" d="M505.889 447.113C506.211 448.235 506.463 448.763 507.322 449.564L507.453 450.196C505.794 450.214 505.457 450.122 504.004 449.319C504.306 448.346 505.149 447.798 505.889 447.113Z"/>
	<path fill="#551E23" transform="matrix(0.0375 0 0 0.0375 0 1.90735e-06)" d="M481.576 449.386C483.186 448.686 483.984 448.743 485.469 449.793L487.431 448.785L487.831 450.297C487.503 451.689 486.81 452.984 486.842 454.425C486.645 453.733 486.446 453.252 486.04 452.656L483.74 454.647L481.881 453.057C481.426 452.255 481.009 451.485 480.674 450.625L481.333 449.366L481.576 449.386Z"/>
	<path fill="#AE1035" transform="matrix(0.0375 0 0 0.0375 0 1.90735e-06)" d="M489.885 312.838L489.739 311.562C491.181 308.731 493.133 308.537 495.44 310.238C496.112 310.968 496.933 311.649 497.129 312.656L496.57 313.954L494.651 315.185C492.922 315.123 491.18 313.935 489.885 312.838Z"/>
	<path fill="#483D3D" transform="matrix(0.0375 0 0 0.0375 0 1.90735e-06)" d="M262.408 180.787C265.933 177.631 270.63 175.32 274.784 173.117C276.154 175.274 277.453 174.914 274.2 176.48C271.201 177.924 265.807 181.371 262.408 180.787Z"/>
	<path fill="white" transform="matrix(0.0375 0 0 0.0375 0 1.90735e-06)" d="M161.83 318.103C161.643 317.439 161.212 317.185 160.721 316.719C161.294 316.025 161.85 315.413 162.001 314.496L162.081 313.906C165.4 314.005 169.229 315.008 172.211 316.436C169.758 318.719 165.825 318.515 162.656 318.74L161.83 318.103Z"/>
	<path fill="#9F0C1F" transform="matrix(0.0375 0 0 0.0375 0 1.90735e-06)" d="M487.265 320.972C488.498 320.325 490.005 320.582 491.361 320.633L493.219 321.66C494.128 322.4 495.09 323.373 496.153 323.853L496.239 324.055C495.203 324.119 494.318 324.21 493.327 324.523C491.987 324.939 490.708 325.295 489.688 326.306C488.675 327.459 488.6 328.35 488.22 329.766L488.176 329.854L487.851 329.871C487.121 328.856 487.28 327.782 487.298 326.584C489.913 324.599 486.876 324.276 486.588 321.719L487.265 320.972Z"/>
	<path fill="#A79A92" transform="matrix(0.0375 0 0 0.0375 0 1.90735e-06)" d="M415.457 423.085C416.996 421.978 418.487 420.907 420.314 420.326L420.938 420.159C421.549 419.854 421.638 419.819 422.326 419.783L422.61 419.992C426.16 422.443 415.305 427.751 413.229 428.709C413.252 426.629 414.498 424.872 415.457 423.085Z"/>
	<path fill="#AE1035" transform="matrix(0.0375 0 0 0.0375 0 1.90735e-06)" d="M489.096 445.708C490 445.258 490.505 445.086 491.513 445.047L492.214 445.38L493.972 445.284C493.916 445.927 493.845 446.527 493.926 447.171L493.801 448.431L492.409 448.716L493.313 450.712C492.287 452.232 491.427 452.976 489.794 453.778L487.404 454.799L486.842 454.425C486.81 452.984 487.503 451.689 487.831 450.297L487.431 448.785C488.203 448.515 488.155 448.27 488.555 447.592L489.096 445.708Z"/>
	<path fill="#62152C" transform="matrix(0.0375 0 0 0.0375 0 1.90735e-06)" d="M489.096 445.708C490 445.258 490.505 445.086 491.513 445.047L492.214 445.38L493.972 445.284C493.916 445.927 493.845 446.527 493.926 447.171L493.801 448.431L492.409 448.716C490.603 448.543 488.678 448.353 488.008 450.285L487.831 450.297L487.431 448.785C488.203 448.515 488.155 448.27 488.555 447.592L489.096 445.708Z"/>
	<path fill="#8D2442" transform="matrix(0.0375 0 0 0.0375 0 1.90735e-06)" d="M489.096 445.708C490 445.258 490.505 445.086 491.513 445.047L492.214 445.38C490.871 446.533 490.298 447.253 488.555 447.592L489.096 445.708Z"/>
	<path fill="#BE304F" transform="matrix(0.0375 0 0 0.0375 0 1.90735e-06)" d="M489.749 290.424C491.791 289.288 494.412 287.583 496.761 287.344L497.071 287.812C496.65 288.296 496.714 288.354 496.056 288.52L494.821 288.906L495.316 289.444C497.644 290.06 498.005 291.06 496.555 293.077L493.736 295.268L491.899 295.242L490.982 295.604C490.306 294.744 489.456 294.387 488.477 293.975L488.526 293.633C488.786 292.723 489.148 292.338 489.929 291.881C489.939 291.311 489.881 290.968 489.749 290.424Z"/>
	<path fill="#D61C2B" transform="matrix(0.0375 0 0 0.0375 0 1.90735e-06)" d="M489.929 291.881C491.18 292.952 491.508 293.678 491.899 295.242L490.982 295.604C490.306 294.744 489.456 294.387 488.477 293.975L488.526 293.633C488.786 292.723 489.148 292.338 489.929 291.881Z"/>
	<path fill="#483D3D" transform="matrix(0.0375 0 0 0.0375 0 1.90735e-06)" d="M443.385 224.084C443.775 223.587 443.832 223.65 444.401 223.462C447.219 224.191 456.864 224.575 458.292 225.905L459.096 226.775C458.099 227.592 457.321 227.912 456.108 228.301L455.125 228.345C453.735 227.816 451.199 227.985 449.684 228.073L449.653 228.015C447.617 225.987 445.613 227.109 443.385 224.084Z"/>
	<path fill="#D61C2B" transform="matrix(0.0375 0 0 0.0375 0 1.90735e-06)" d="M493.327 324.523C494.318 324.21 495.203 324.119 496.239 324.055C496.841 325.228 496.485 326.184 496.419 327.461L496.614 327.832C496.443 331.307 491.251 333.762 492.4 330.347C490.74 329.559 490.305 331.598 488.176 329.854L488.22 329.766C488.6 328.35 488.675 327.459 489.688 326.306C490.708 325.295 491.987 324.939 493.327 324.523Z"/>
	<path fill="#E01952" transform="matrix(0.0375 0 0 0.0375 0 1.90735e-06)" d="M489.688 326.306C490.708 325.295 491.987 324.939 493.327 324.523C494.451 325.31 494.694 325.5 495.275 326.73C493.511 326.331 491.522 326.601 489.688 326.306Z"/>
	<path fill="#9F0C1F" transform="matrix(0.0375 0 0 0.0375 0 1.90735e-06)" d="M492.179 352.578C492.79 352.386 492.54 352.508 493.076 352.169L494.875 351.089C495.749 351.771 496.404 352.297 497.492 352.564L497.461 352.795C497.528 354.549 497.538 356.299 497.886 358.024C496.626 357.614 495.511 357.247 494.391 356.518C492.715 356.622 491.493 357.308 489.779 357.195L487.56 358.149C487.453 356.103 487.36 354.596 488.441 352.83L489.219 354.056C490.271 353.833 491.255 353.123 492.179 352.578Z"/>
	<path fill="#62152C" transform="matrix(0.0375 0 0 0.0375 0 1.90735e-06)" d="M495.386 354.519L497.461 352.795C497.528 354.549 497.538 356.299 497.886 358.024C496.626 357.614 495.511 357.247 494.391 356.518L495.386 354.519Z"/>
	<path fill="#6E1621" transform="matrix(0.0375 0 0 0.0375 0 1.90735e-06)" d="M492.179 352.578L492.427 353.422C491.274 354.589 490.37 355.646 489.779 357.195L487.56 358.149C487.453 356.103 487.36 354.596 488.441 352.83L489.219 354.056C490.271 353.833 491.255 353.123 492.179 352.578Z"/>
	<path fill="#483D3D" transform="matrix(0.0375 0 0 0.0375 0 1.90735e-06)" d="M176.434 432.623L177.344 431.923C179.418 432.437 181.485 433.497 183.487 434.281L199.166 440.742C200.91 441.466 204.571 441.452 205.451 443.32L205.718 444.164C194.913 442.331 185.5 438.582 176.434 432.623Z"/>
	<path fill="#483D3D" transform="matrix(0.0375 0 0 0.0375 0 1.90735e-06)" d="M88.3995 280.939C91.946 280.145 92.3287 282.182 95.1348 283.398C96.6655 284.061 98.3689 283.88 99.9023 284.639L107.031 288.104C110.628 290.042 113.329 290.79 116.024 292.211C115.451 292.551 114.939 292.869 114.442 293.316C100.054 289.595 100.808 287.63 88.3995 280.939Z"/>
	<path fill="#D61C2B" transform="matrix(0.0375 0 0 0.0375 0 1.90735e-06)" d="M494.391 356.518C495.511 357.247 496.626 357.614 497.886 358.024C498.214 359.653 497.865 360.805 497.775 362.402C493.127 363.417 494.825 365.293 488.998 365.887L488.764 365.882C488.655 364.282 488.621 362.612 488.249 361.049L487.56 358.149L489.779 357.195C491.493 357.308 492.715 356.622 494.391 356.518Z"/>
	<path fill="#D61C2B" transform="matrix(0.0375 0 0 0.0375 0 1.90735e-06)" d="M488.248 343.722C491.203 343.71 494.254 343.32 497.174 343.406C497.166 344.789 497.085 346.186 497.359 347.547L497.692 348.91C497.759 350.142 497.96 351.397 497.492 352.564C496.404 352.297 495.749 351.771 494.875 351.089L493.076 352.169C492.54 352.508 492.79 352.386 492.179 352.578C491.255 353.123 490.271 353.833 489.219 354.056L488.441 352.83C488.029 351.961 487.775 351.254 487.58 350.312L488.11 349.667L488.842 348.355L487.969 347.519C487.685 346.588 487.815 345.925 487.977 344.997L488.248 343.722Z"/>
	<path fill="#8D2442" transform="matrix(0.0375 0 0 0.0375 0 1.90735e-06)" d="M488.248 343.722C491.203 343.71 494.254 343.32 497.174 343.406C497.166 344.789 497.085 346.186 497.359 347.547L495.316 347.478C494.992 344.418 491.695 346.641 490.139 347.592L488.842 348.355L487.969 347.519C487.685 346.588 487.815 345.925 487.977 344.997L488.248 343.722Z"/>
	<path fill="#A51321" transform="matrix(0.0375 0 0 0.0375 0 1.90735e-06)" d="M487.977 344.997L489.941 345.105C490.512 346.024 490.307 346.547 490.139 347.592L488.842 348.355L487.969 347.519C487.685 346.588 487.815 345.925 487.977 344.997Z"/>
	<path fill="#DAD2D0" transform="matrix(0.0375 0 0 0.0375 0 1.90735e-06)" d="M409.052 323.969C413.65 320.483 428.763 314.682 433.906 314.28L434.391 315.667C434.437 316.67 434.693 318.067 434.403 319.002C433.611 319.006 432.876 318.93 432.093 318.833C429.833 319.06 427.701 320.149 425.574 320.91L415.97 323.828C414.537 324.231 413.041 324.915 411.582 325.118L410.625 324.847C410.104 325.363 409.313 325.158 408.594 325.159L409.052 323.969Z"/>
	<path fill="#AE1035" transform="matrix(0.0375 0 0 0.0375 0 1.90735e-06)" d="M496.614 327.832C497.316 330.901 497.062 332.082 496.167 335.027L497.194 339.01C497.203 340.541 496.98 341.839 497.174 343.406C494.254 343.32 491.203 343.71 488.248 343.722C488.179 342.509 487.936 341.439 487.611 340.27L487.663 338.753C487.822 337.427 488.436 336.328 488.594 334.981L487.733 334.439C487.312 333.247 487.791 331.167 487.851 329.871L488.176 329.854C490.305 331.598 490.74 329.559 492.4 330.347C491.251 333.762 496.443 331.307 496.614 327.832Z"/>
	<path fill="#8D2442" transform="matrix(0.0375 0 0 0.0375 0 1.90735e-06)" d="M496.167 335.027L497.194 339.01C492.906 336.812 491.414 335.971 487.611 340.27L487.663 338.753C488.938 338.609 491.501 335.878 492.599 334.941L493.342 335.474C494.065 335.955 494.975 336.615 495.836 336.457L496.167 335.027Z"/>
	<path fill="#D61C2B" transform="matrix(0.0375 0 0 0.0375 0 1.90735e-06)" d="M487.611 340.27C491.414 335.971 492.906 336.812 497.194 339.01C497.203 340.541 496.98 341.839 497.174 343.406C494.254 343.32 491.203 343.71 488.248 343.722C488.179 342.509 487.936 341.439 487.611 340.27Z"/>
	<path fill="#9F0C1F" transform="matrix(0.0375 0 0 0.0375 0 1.90735e-06)" d="M469.806 440.916L471.546 441.432C472.115 442.371 472.633 443.188 473.411 443.968L474.162 444.319L472.705 445.687L472.369 445.704L471.838 445.872C472.344 446.691 472.777 447.586 473.586 448.141L474.36 448.83L474.689 448.446L476.982 450.485C478.43 449.607 479.658 448.521 481.333 449.366L480.674 450.625C481.009 451.485 481.426 452.255 481.881 453.057C481.188 453.645 480.553 454.183 479.993 454.904L479.13 455.257C477.574 455.469 475.604 455.885 474.062 455.551C469.21 454.499 467.657 457.51 466.541 449.93L466.355 449.644C466.455 448.689 466.64 448.092 467.043 447.22L467.529 446.489C469.588 443.051 465.168 442.797 469.203 441.19L469.806 440.916Z"/>
	<path fill="#62152C" transform="matrix(0.0375 0 0 0.0375 0 1.90735e-06)" d="M469.806 440.916L471.546 441.432C472.115 442.371 472.633 443.188 473.411 443.968C471.324 443.65 470.498 442.741 469.203 441.19L469.806 440.916Z"/>
	<path fill="#A79A92" transform="matrix(0.0375 0 0 0.0375 0 1.90735e-06)" d="M471.838 445.872C472.344 446.691 472.777 447.586 473.586 448.141L474.36 448.83L473.183 450.877C472.951 450.923 472.233 451.9 472.031 452.132C469.474 452.169 468.934 451.371 468.744 448.749L468.933 448.152C469.439 447.13 470.829 446.306 471.838 445.872Z"/>
	<path fill="#851121" transform="matrix(0.0375 0 0 0.0375 0 1.90735e-06)" d="M503.785 427.291L504.999 427.051C505.758 427.453 506.519 427.635 506.887 428.431C507.356 429.32 507.483 429.419 508.438 429.703L509.707 430C511.789 432.422 511.473 431.85 509.696 433.813L509.741 434.987C510.191 436.447 511.451 438.03 512.698 438.906C512.462 440.132 510.655 440.67 511.579 442.015C512.81 443.808 515.139 443.889 513.466 445.964L513.699 447.515C513.618 449.176 512.355 450.559 510.625 450.546L509.629 449.825L509.923 450.865C508.864 450.764 508.321 450.837 507.453 450.196L507.322 449.564C506.463 448.763 506.211 448.235 505.889 447.113C505.149 447.798 504.306 448.346 504.004 449.319L503.8 449.37C502.554 448.651 501.985 448.973 500.893 447.783C500.279 446.573 499.296 445.791 498.307 444.893L495.92 445.797L496.615 442.865C496.97 441.916 497.475 441.035 497.949 440.141L498.171 439.112L498.947 439.164L500.846 440.008L502.069 439.405L502.252 438.993C503.108 437.629 503.725 436.209 504.371 434.739C504.788 434.197 504.647 434.194 504.571 433.551C504.675 431.547 504.397 431.362 503.243 429.834L503.499 429.056L503.785 427.291Z"/>
	<path fill="#AE1035" transform="matrix(0.0375 0 0 0.0375 0 1.90735e-06)" d="M509.741 434.987L507.969 434.99C505.43 433.189 507.757 432.293 509.696 433.813L509.741 434.987Z"/>
	<path fill="#AE1035" transform="matrix(0.0375 0 0 0.0375 0 1.90735e-06)" d="M503.785 427.291L504.999 427.051C505.758 427.453 506.519 427.635 506.887 428.431C505.767 428.748 504.676 429.147 503.499 429.056L503.785 427.291Z"/>
	<path fill="#6E1621" transform="matrix(0.0375 0 0 0.0375 0 1.90735e-06)" d="M498.307 444.893L502.714 445.156C502.579 445.589 502.516 445.83 502.226 446.188L500.893 447.783C500.279 446.573 499.296 445.791 498.307 444.893Z"/>
	<path fill="#8D182F" transform="matrix(0.0375 0 0 0.0375 0 1.90735e-06)" d="M498.171 439.112L498.947 439.164L500.846 440.008C500.025 440.83 498.925 441.703 498.495 442.796L496.615 442.865C496.97 441.916 497.475 441.035 497.949 440.141L498.171 439.112Z"/>
	<path fill="#8D2442" transform="matrix(0.0375 0 0 0.0375 0 1.90735e-06)" d="M502.069 439.405L502.252 438.993C504.509 439.089 510.844 440.355 505.781 442.429C504.382 442.007 503.406 440.159 502.069 439.405Z"/>
	<path fill="#8D182F" transform="matrix(0.0375 0 0 0.0375 0 1.90735e-06)" d="M502.226 446.188C503.766 445.907 504.667 445.635 505.884 446.719L505.889 447.113C505.149 447.798 504.306 448.346 504.004 449.319L503.8 449.37C502.554 448.651 501.985 448.973 500.893 447.783L502.226 446.188Z"/>
	<path fill="#AE1035" transform="matrix(0.0375 0 0 0.0375 0 1.90735e-06)" d="M510.778 447.774C507.049 447.343 508.738 445.045 512.136 445.058L513.466 445.964L513.699 447.515C513.618 449.176 512.355 450.559 510.625 450.546L509.629 449.825C509.83 448.707 510.031 448.581 510.778 447.774Z"/>
	<path fill="#411F20" transform="matrix(0.0375 0 0 0.0375 0 1.90735e-06)" d="M474.011 404.429C474.975 405.403 476.475 406.292 476.807 407.651L476.529 408.411L475.768 409.219C475.928 409.773 476.057 410.359 476.291 410.886C477.147 411.002 477.29 410.907 477.847 411.547L478.202 411.738C479.552 410.813 481.165 410.876 482.306 412.186L482.511 412.167L483.338 412.5C483.355 413.411 483.118 413.836 482.714 414.623C483.843 415.845 487.293 418.559 487.524 418.84L485.374 420.606C485.123 421.192 484.948 422.092 484.289 422.311L483.801 422.351C482.771 422.232 481.978 422.25 480.964 422.398L479.657 422.385C478.961 423.109 478.078 423.857 477.491 424.662C478.097 425.443 478.256 425.848 478.421 426.823L477.711 427.821L477.543 428.707L477.351 429.266C476.684 430.069 476.169 430.869 475.649 431.773L474.631 434.353C473.83 435.217 473.66 435.216 472.565 435.485C473.099 436.038 473.686 436.572 474.131 437.198C474.071 438.075 474.053 438.682 474.364 439.531L474.081 440.812L471.546 441.432L469.806 440.916L469.203 441.19C465.168 442.797 469.588 443.051 467.529 446.489L467.043 447.22L467.148 446.356C467.181 445.982 467.124 445.648 467.347 445.312L467.656 445C466.874 442.743 466.05 442.698 468.017 440.731L468.281 440.472C468.343 440.012 468.366 439.637 468.328 439.17L468.594 438.438C468.317 437.491 467.62 437.459 467.347 436.406C468.096 434.091 469.082 435.669 470.002 431.641L470.159 431.094C470.467 429.85 470.699 428.532 471.316 427.397L471.564 426.953C472.04 426.067 472.41 425.437 473.16 424.761L473.597 422.969C471.477 420.23 476.923 418.978 474.546 417.272L473.461 416.494C472.26 415.466 471.912 414.51 473.281 413.597L474.377 413.439C474.45 413.025 474.487 412.853 474.768 412.524L475.159 411.875C475.564 411.266 475.47 411.237 475.472 410.469L475.159 410C475.356 408.94 475.302 408.831 476.094 408.125C476.098 406.695 474.583 405.913 474.011 404.429Z"/>
	<path fill="#8D2442" transform="matrix(0.0375 0 0 0.0375 0 1.90735e-06)" d="M476.291 410.886C477.147 411.002 477.29 410.907 477.847 411.547C477.765 412.541 477.832 412.904 477.223 413.718C476.354 413.78 475.834 413.711 475.012 413.425L476.291 410.886Z"/>
	<path fill="#8D2442" transform="matrix(0.0375 0 0 0.0375 0 1.90735e-06)" d="M472.146 428.471C473.122 428.674 473.949 428.8 474.946 428.752L474.67 431.401L473.281 430.92C472.368 429.916 472.299 429.815 472.146 428.471Z"/>
	<path fill="#851121" transform="matrix(0.0375 0 0 0.0375 0 1.90735e-06)" d="M476.049 427.787L477.543 428.707L477.351 429.266C476.684 430.069 476.169 430.869 475.649 431.773L474.67 431.401L474.946 428.752L476.049 427.787Z"/>
	<path fill="#8D182F" transform="matrix(0.0375 0 0 0.0375 0 1.90735e-06)" d="M475.156 419.732L477.378 421.487L477.11 421.847L475.466 423.443C473.379 422.1 473.276 421.439 475.156 419.732Z"/>
	<path fill="#AE1035" transform="matrix(0.0375 0 0 0.0375 0 1.90735e-06)" d="M477.11 421.847L479.657 422.385C478.961 423.109 478.078 423.857 477.491 424.662L475.127 425.063L473.979 424.786L475.466 423.443L477.11 421.847Z"/>
	<path fill="#BE304F" transform="matrix(0.0375 0 0 0.0375 0 1.90735e-06)" d="M472.146 428.471L471.964 427.944C472.195 426.601 473.031 425.7 473.979 424.786L475.127 425.063L477.491 424.662C478.097 425.443 478.256 425.848 478.421 426.823L477.711 427.821L477.543 428.707L476.049 427.787L474.946 428.752C473.949 428.8 473.122 428.674 472.146 428.471Z"/>
	<path fill="#A51321" transform="matrix(0.0375 0 0 0.0375 0 1.90735e-06)" d="M469.806 440.916C467.349 438.416 469.922 437.607 472.031 437.422L471.719 435.098L472.565 435.485C473.099 436.038 473.686 436.572 474.131 437.198C474.071 438.075 474.053 438.682 474.364 439.531L474.081 440.812L471.546 441.432L469.806 440.916Z"/>
	<path fill="#551E23" transform="matrix(0.0375 0 0 0.0375 0 1.90735e-06)" d="M475.156 419.732L475.778 417.969C474.962 416.821 473.899 416.152 473.014 415.065L473.151 414.574C474.231 414.495 474.51 414.417 475.012 413.425C475.834 413.711 476.354 413.78 477.223 413.718C479.757 415.175 477.349 416.358 477.656 418.447L478.771 419.86L477.378 421.487L475.156 419.732Z"/>
	<path fill="#62152C" transform="matrix(0.0375 0 0 0.0375 0 1.90735e-06)" d="M478.202 411.738C479.552 410.813 481.165 410.876 482.306 412.186L482.511 412.167L483.338 412.5C483.355 413.411 483.118 413.836 482.714 414.623C481.912 415.682 481.703 416.526 481.406 417.816L480.494 418.495C479.886 418.908 479.207 419.263 478.771 419.86L477.656 418.447C477.349 416.358 479.757 415.175 477.223 413.718C477.832 412.904 477.765 412.541 477.847 411.547L478.202 411.738Z"/>
	<path fill="#BE304F" transform="matrix(0.0375 0 0 0.0375 0 1.90735e-06)" d="M478.202 411.738C479.552 410.813 481.165 410.876 482.306 412.186C480.382 414.381 479.995 413.717 478.202 411.738Z"/>
	<path fill="#851121" transform="matrix(0.0375 0 0 0.0375 0 1.90735e-06)" d="M482.714 414.623C483.843 415.845 487.293 418.559 487.524 418.84L485.374 420.606C485.123 421.192 484.948 422.092 484.289 422.311L483.801 422.351C482.771 422.232 481.978 422.25 480.964 422.398L479.657 422.385L477.11 421.847L477.378 421.487L478.771 419.86C479.207 419.263 479.886 418.908 480.494 418.495L481.406 417.816C481.703 416.526 481.912 415.682 482.714 414.623Z"/>
	<path fill="#9F0C1F" transform="matrix(0.0375 0 0 0.0375 0 1.90735e-06)" d="M480.494 418.495C481.526 418.755 482.556 418.839 483.342 419.573L483.204 419.812C482.32 421.36 482.268 421.415 483.687 422.23L483.801 422.351C482.771 422.232 481.978 422.25 480.964 422.398L479.657 422.385L477.11 421.847L477.378 421.487L478.771 419.86C479.207 419.263 479.886 418.908 480.494 418.495Z"/>
	<path fill="#A51321" transform="matrix(0.0375 0 0 0.0375 0 1.90735e-06)" d="M481.127 384.307C483.117 380.613 486.447 379.225 490.097 377.353L492.656 378.834L494.844 378.148C496.615 379.313 498.477 380.108 500.395 380.989L503.579 383.942C503.297 384.893 502.993 385.829 502.85 386.814C503.145 387.116 503.562 387.47 503.795 387.817C504.788 389.486 504.103 390.693 502.886 392.176L502.537 392.462C500.182 394.488 499.04 400.293 494.742 398.779C492.829 399.461 488.915 399.215 487.547 397.768C487.786 396.756 487.761 395.734 487.78 394.7L488.483 394.191L488.798 393.451C488.109 392.814 487.999 392.787 487.827 391.879L486.43 392.763C485.204 393.141 484.285 392.99 483.03 392.805C483.235 392.022 483.154 391.281 483.128 390.478L482.533 389.969L483.571 389.432L484.297 388.911C482.804 388.611 481.694 387.561 480.062 387.336C480.325 386.293 480.738 385.307 481.127 384.307Z"/>
	<path fill="#A79A92" transform="matrix(0.0375 0 0 0.0375 0 1.90735e-06)" d="M502.85 386.814C503.145 387.116 503.562 387.47 503.795 387.817C503.416 389.19 502.584 389.541 501.5 390.376L501.207 389.379C501.053 388.438 501.84 387.644 502.372 386.952L502.85 386.814Z"/>
	<path fill="#BE304F" transform="matrix(0.0375 0 0 0.0375 0 1.90735e-06)" d="M503.795 387.817C504.788 389.486 504.103 390.693 502.886 392.176C502.331 391.58 502.179 390.883 501.5 390.376C502.584 389.541 503.416 389.19 503.795 387.817Z"/>
	<path fill="#A79A92" transform="matrix(0.0375 0 0 0.0375 0 1.90735e-06)" d="M487.823 384.133L488.442 382.812C489.356 382.317 490.054 381.95 491.094 381.828L492.259 382.932C490.75 384.146 489.512 385.917 487.823 384.133Z"/>
	<path fill="#8D2442" transform="matrix(0.0375 0 0 0.0375 0 1.90735e-06)" d="M493.493 384.823C494.766 385.107 496.068 385.334 497.278 385.825C496.631 387.12 495.991 387.943 494.911 388.906L494.439 388.74C493.937 387.431 493.69 386.209 493.493 384.823Z"/>
	<path fill="#9F0C1F" transform="matrix(0.0375 0 0 0.0375 0 1.90735e-06)" d="M481.127 384.307C482.167 385.372 484.29 387.038 484.685 388.428L484.297 388.911C482.804 388.611 481.694 387.561 480.062 387.336C480.325 386.293 480.738 385.307 481.127 384.307Z"/>
	<path fill="#BE304F" transform="matrix(0.0375 0 0 0.0375 0 1.90735e-06)" d="M500.395 380.989L503.579 383.942C503.297 384.893 502.993 385.829 502.85 386.814L502.372 386.952C500.776 386.317 499.63 384.655 498.672 383.312C499.144 382.47 499.791 381.74 500.395 380.989Z"/>
	<path fill="#A79A92" transform="matrix(0.0375 0 0 0.0375 0 1.90735e-06)" d="M487.211 385.277C488.834 386.285 489.171 389.441 488.601 391.101L487.811 391.662L487.827 391.879L486.43 392.763C485.204 393.141 484.285 392.99 483.03 392.805C483.235 392.022 483.154 391.281 483.128 390.478L482.533 389.969L483.571 389.432L484.297 388.911L484.685 388.428L484.981 387.254L485.021 386.57C485.685 386.04 486.463 385.675 487.211 385.277Z"/>
	<path fill="#A51321" transform="matrix(0.0375 0 0 0.0375 0 1.90735e-06)" d="M482.533 389.969L483.571 389.432C484.344 390.789 485.186 391.811 486.43 392.763C485.204 393.141 484.285 392.99 483.03 392.805C483.235 392.022 483.154 391.281 483.128 390.478L482.533 389.969Z"/>
	<path fill="#A79A92" transform="matrix(0.0375 0 0 0.0375 0 1.90735e-06)" d="M491.511 395.055C493.431 393.316 498.949 392.246 497.216 396.247C496.597 397.534 496.196 398.121 494.739 398.237L494.742 398.779C492.829 399.461 488.915 399.215 487.547 397.768C487.786 396.756 487.761 395.734 487.78 394.7L488.483 394.191L488.798 393.451C489.954 393.64 490.61 393.822 491.358 394.82L491.511 395.055Z"/>
	<path fill="#9F0C1F" transform="matrix(0.0375 0 0 0.0375 0 1.90735e-06)" d="M487.78 394.7L488.483 394.191C489.272 398.744 491.131 397.141 494.739 398.237L494.742 398.779C492.829 399.461 488.915 399.215 487.547 397.768C487.786 396.756 487.761 395.734 487.78 394.7Z"/>
	<path fill="#A79A92" transform="matrix(0.0375 0 0 0.0375 0 1.90735e-06)" d="M392.541 425.544C395.188 424.043 397.692 422.092 400.221 420.39L434.68 395.506L434.673 397.686C434.699 399.284 433.69 401.381 433.305 403.034C432.823 404.098 432.392 405.248 431.768 406.233C430.881 409.653 427.157 418.761 423.074 419.677L422.326 419.783C421.638 419.819 421.549 419.854 420.938 420.159L420.314 420.326C418.487 420.907 416.996 421.978 415.457 423.085C414.498 424.872 413.252 426.629 413.229 428.709L399.299 435.321C396.037 436.75 392.518 438.313 388.992 438.936C384.79 440.346 379.044 441.118 374.607 441.406C379.737 435.599 386.336 430.184 392.541 425.544Z"/>
	<path fill="#DAD2D0" transform="matrix(0.0375 0 0 0.0375 0 1.90735e-06)" d="M431.768 406.233C427.118 408.298 424.275 412.815 420.19 415.761C422.293 411.762 427.138 406.429 430.822 403.626L431.094 403.425C431.711 402.956 432.04 402.699 432.812 402.569L433.305 403.034C432.823 404.098 432.392 405.248 431.768 406.233Z"/>
	<path fill="#DAD2D0" transform="matrix(0.0375 0 0 0.0375 0 1.90735e-06)" d="M415.028 422.963L418.414 419.613C420.053 418.135 422.723 416.053 423.074 419.677L422.326 419.783C421.638 419.819 421.549 419.854 420.938 420.159L420.314 420.326C418.487 420.907 416.996 421.978 415.457 423.085C414.498 424.872 413.252 426.629 413.229 428.709L399.299 435.321C396.037 436.75 392.518 438.313 388.992 438.936C389.676 435.736 394.8 434.334 397.432 433.055L405.901 428.495C409.34 426.707 411.917 425.338 415.028 422.963Z"/>
	<path fill="#A79A92" transform="matrix(0.0375 0 0 0.0375 0 1.90735e-06)" d="M172.211 316.436C173.135 316.645 173.454 316.552 174.018 317.344L173.762 317.969C173.88 318.056 184.544 320.979 185.058 321.044L188.224 322.243L192.492 323.957C194.985 324.884 204.683 328.349 205.378 329.428L210.708 331.672L210.385 331.76C199.987 334.493 192.218 337.836 182.18 341.265C178.021 342.685 172.184 343.176 168.518 345.557C166.471 345.33 164.857 345.007 162.938 345.835L162.352 346.051L161.723 345.902C161.507 344.711 162 343.72 162.405 342.617L161.512 342.031C160.976 340.764 162.05 340.861 162.231 339.844C162.34 339.23 161.477 336.749 161.328 335.974C161.63 334.744 161.973 333.639 161.748 332.362C161.437 331.471 161.535 330.205 161.504 329.246C161.604 325.629 161.244 321.648 161.83 318.103L162.656 318.74C165.825 318.515 169.758 318.719 172.211 316.436Z"/>
	<path fill="#DAD2D0" transform="matrix(0.0375 0 0 0.0375 0 1.90735e-06)" d="M181.946 325.119L183.645 326.535C178.532 329.343 172.864 329.462 167.596 331.643L163.678 332.302C162.993 332.441 162.441 332.404 161.748 332.362C161.437 331.471 161.535 330.205 161.504 329.246L162.5 329.185C169.43 329.798 175.572 327.695 181.946 325.119Z"/>
	<path fill="#DAD2D0" transform="matrix(0.0375 0 0 0.0375 0 1.90735e-06)" d="M167.237 342.038C170.53 340.801 171.467 341.645 176.25 339.316L175.781 341.253C177.772 340.481 179.597 339.349 181.617 338.636L191.626 335.226C196.65 333.665 201.2 332.817 205.378 329.428L210.708 331.672L210.385 331.76C199.987 334.493 192.218 337.836 182.18 341.265C178.021 342.685 172.184 343.176 168.518 345.557C166.471 345.33 164.857 345.007 162.938 345.835L162.352 346.051L161.723 345.902C161.507 344.711 162 343.72 162.405 342.617L162.646 342.138C162.944 341.728 162.805 341.852 163.249 341.54L163.75 341.204C165.343 340.123 167.122 339.566 168.898 338.848C168.364 339.72 167.508 340.715 167.277 341.71L167.237 342.038Z"/>
	<path fill="#9F0C1F" transform="matrix(0.0375 0 0 0.0375 0 1.90735e-06)" d="M488.143 407.419C490.759 407.742 489.609 409.491 494.219 408.418L494.715 408.651C496.679 409.561 497.349 407.83 499.316 407.889L500.429 408.825L500.814 408.141C501.852 408.798 502.59 409.079 503.814 409.208L503.765 409.988C502.514 410.19 502.336 410.244 501.398 411.087L501.248 411.58C502.107 412.288 502.605 412.542 503.683 412.822C504.045 413.377 504.323 413.856 504.855 414.265L504.383 416.216L505.334 416.53C509.905 418.514 507.032 419.417 505.974 420.496L505.009 421.249L504.758 422.344C505.171 422.728 505.569 423.125 506.024 423.459C505.548 424.258 505.206 424.936 504.915 425.817L504.999 427.051L503.785 427.291L503.499 429.056L503.243 429.834C504.397 431.362 504.675 431.547 504.571 433.551C504.647 434.194 504.788 434.197 504.371 434.739C503.725 436.209 503.108 437.629 502.252 438.993L502.069 439.405L500.846 440.008L498.947 439.164L498.171 439.112L497.949 440.141C497.475 441.035 496.97 441.916 496.615 442.865L495.92 445.797L493.926 447.171C493.845 446.527 493.916 445.927 493.972 445.284L492.214 445.38L491.513 445.047C490.505 445.086 490 445.258 489.096 445.708L488.555 447.592C488.155 448.27 488.203 448.515 487.431 448.785L485.469 449.793C483.984 448.743 483.186 448.686 481.576 449.386L481.333 449.366C479.658 448.521 478.43 449.607 476.982 450.485L474.689 448.446L474.36 448.83L473.586 448.141C472.777 447.586 472.344 446.691 471.838 445.872L472.369 445.704L472.705 445.687L474.162 444.319L473.411 443.968C472.633 443.188 472.115 442.371 471.546 441.432L474.081 440.812L474.364 439.531C474.053 438.682 474.071 438.075 474.131 437.198C473.686 436.572 473.099 436.038 472.565 435.485C473.66 435.216 473.83 435.217 474.631 434.353L475.649 431.773C476.169 430.869 476.684 430.069 477.351 429.266L477.543 428.707L477.711 427.821L478.421 426.823C478.256 425.848 478.097 425.443 477.491 424.662C478.078 423.857 478.961 423.109 479.657 422.385L480.964 422.398C481.978 422.25 482.771 422.232 483.801 422.351L484.289 422.311C484.948 422.092 485.123 421.192 485.374 420.606L487.524 418.84C487.293 418.559 483.843 415.845 482.714 414.623C483.118 413.836 483.355 413.411 483.338 412.5L482.511 412.167C483.166 411.547 483.622 411.022 484.105 410.261C483.632 409.389 482.922 408.702 482.254 407.978L483.733 407.474L488.143 407.419Z"/>
	<path fill="#AE1035" transform="matrix(0.0375 0 0 0.0375 0 1.90735e-06)" d="M502.855 419.459C504.24 419.447 504.869 419.664 505.974 420.496L505.009 421.249L502.72 421.363L502.855 419.459Z"/>
	<path fill="#991853" transform="matrix(0.0375 0 0 0.0375 0 1.90735e-06)" d="M492.747 410.07L493.906 409.789C495.839 411.405 493.562 411.893 491.984 412.738L492.747 410.07Z"/>
	<path fill="#953664" transform="matrix(0.0375 0 0 0.0375 0 1.90735e-06)" d="M499.111 422.743L499.872 422.786C499.914 424.43 498.984 426.006 497.207 426.186C497.239 424.437 497.561 423.719 499.111 422.743Z"/>
	<path fill="#851121" transform="matrix(0.0375 0 0 0.0375 0 1.90735e-06)" d="M503.785 427.291L503.209 427.157C502.093 426.377 501.841 424.76 503.125 424.061L504.915 425.817L504.999 427.051L503.785 427.291Z"/>
	<path fill="#AE1035" transform="matrix(0.0375 0 0 0.0375 0 1.90735e-06)" d="M487.626 424.047L491.06 427.282C489.295 427.821 489.037 427.453 487.969 425.954L486.661 425.676L487.044 424.703L487.626 424.047Z"/>
	<path fill="#953664" transform="matrix(0.0375 0 0 0.0375 0 1.90735e-06)" d="M492.747 410.07L491.984 412.738L491.094 413.76C490.321 413.573 489.964 413.287 489.369 412.769L489.236 411.506C490.548 411.305 491.591 410.682 492.747 410.07Z"/>
	<path fill="#8D2442" transform="matrix(0.0375 0 0 0.0375 0 1.90735e-06)" d="M497.002 413.512C497.824 413.333 498.605 413.005 499.395 412.716C501.894 415.067 498.886 415.775 496.644 415.156L497.002 413.512Z"/>
	<path fill="#953664" transform="matrix(0.0375 0 0 0.0375 0 1.90735e-06)" d="M479.377 435.929C479.969 436.422 480.235 436.738 480.692 437.338L480.839 437.468C481.959 435.724 482.705 436.405 483.799 437.867C482.746 438.057 481.84 438.181 480.771 438.109C480.012 438.516 479.22 438.894 478.512 439.384C478.309 437.692 478.461 437.261 479.377 435.929Z"/>
	<path fill="#8D182F" transform="matrix(0.0375 0 0 0.0375 0 1.90735e-06)" d="M493.723 421.358C496.612 417.946 496.118 420.251 498.589 422.247C496.789 422.476 494.995 422.842 493.178 422.858L493.723 421.358Z"/>
	<path fill="#8D2442" transform="matrix(0.0375 0 0 0.0375 0 1.90735e-06)" d="M487.524 418.84L490.668 420.777C489.988 421.762 488.874 422.267 487.857 422.848C486.906 422.351 486.13 421.368 485.374 420.606L487.524 418.84Z"/>
	<path fill="#8D2442" transform="matrix(0.0375 0 0 0.0375 0 1.90735e-06)" d="M498.589 422.247L499.111 422.743C497.561 423.719 497.239 424.437 497.207 426.186C495.566 425.54 493.697 424.691 493.178 422.858C494.995 422.842 496.789 422.476 498.589 422.247Z"/>
	<path fill="#AE1035" transform="matrix(0.0375 0 0 0.0375 0 1.90735e-06)" d="M500.429 408.825L500.814 408.141C501.852 408.798 502.59 409.079 503.814 409.208L503.765 409.988C502.514 410.19 502.336 410.244 501.398 411.087L501.248 411.58C500.089 411.3 498.827 411.08 499.395 412.716C498.605 413.005 497.824 413.333 497.002 413.512L497.969 411.3C498.788 410.28 499.361 409.642 500.429 408.825Z"/>
	<path fill="#8D182F" transform="matrix(0.0375 0 0 0.0375 0 1.90735e-06)" d="M504.383 416.216L505.334 416.53C509.905 418.514 507.032 419.417 505.974 420.496C504.869 419.664 504.24 419.447 502.855 419.459L502.823 418.558C502.81 418.015 502.854 417.571 502.969 417.04L504.383 416.216Z"/>
	<path fill="#AE1035" transform="matrix(0.0375 0 0 0.0375 0 1.90735e-06)" d="M504.383 416.216L505.334 416.53C505.014 418.408 504.842 419.518 502.823 418.558C502.81 418.015 502.854 417.571 502.969 417.04L504.383 416.216Z"/>
	<path fill="#991853" transform="matrix(0.0375 0 0 0.0375 0 1.90735e-06)" d="M487.116 408.894C487.928 409.406 488.868 409.885 489.136 410.89L489.236 411.506L489.369 412.769L488.922 412.89L488.612 413.093C486.495 414.505 483.868 414.502 485.656 411.511C485.489 411.129 485.41 410.719 485.307 410.316C485.926 409.996 486.564 409.338 487.116 408.894Z"/>
	<path fill="#8D2442" transform="matrix(0.0375 0 0 0.0375 0 1.90735e-06)" d="M482.072 429.646L484.057 427.804C484.457 428.225 485.002 428.992 485.469 429.292C486.089 429.691 486.497 429.102 486.97 429.928L486.578 430.3C485.208 431.921 480.256 436.073 480.287 431.895L479.412 431.2C480.16 430.555 480.953 430.127 481.821 429.663L482.072 429.646Z"/>
	<path fill="#BE304F" transform="matrix(0.0375 0 0 0.0375 0 1.90735e-06)" d="M482.072 429.646L484.433 430.331C482.926 431.473 481.774 431.095 480.287 431.895L479.412 431.2C480.16 430.555 480.953 430.127 481.821 429.663L482.072 429.646Z"/>
	<path fill="#995064" transform="matrix(0.0375 0 0 0.0375 0 1.90735e-06)" d="M482.072 429.646L484.057 427.804C484.457 428.225 485.002 428.992 485.469 429.292C486.089 429.691 486.497 429.102 486.97 429.928L486.578 430.3L484.433 430.331L482.072 429.646Z"/>
	<path fill="#6E1621" transform="matrix(0.0375 0 0 0.0375 0 1.90735e-06)" d="M490.915 442.426C493.786 439.597 492.793 438.346 497.949 440.141C497.475 441.035 496.97 441.916 496.615 442.865L495.92 445.797L493.926 447.171C493.845 446.527 493.916 445.927 493.972 445.284C494.234 444.016 493.941 443.442 492.842 442.715L490.915 442.426Z"/>
	<path fill="#995064" transform="matrix(0.0375 0 0 0.0375 0 1.90735e-06)" d="M483.799 437.867C484.699 438.927 485.388 439.569 484.595 440.928L482.199 443.693C480.881 442.403 479.917 441.095 477.945 441.05L477.344 441.046C477.139 440.325 478.186 440.254 478.512 439.384C479.22 438.894 480.012 438.516 480.771 438.109C481.84 438.181 482.746 438.057 483.799 437.867Z"/>
	<path fill="#6E1621" transform="matrix(0.0375 0 0 0.0375 0 1.90735e-06)" d="M497.68 435.658C497.624 435.144 497.275 434.567 496.819 434.268L496.273 433.986C491.509 430.444 493.955 432.439 499.844 432.749C500.413 432.176 500.811 431.905 501.562 431.609L504.571 433.551C504.647 434.194 504.788 434.197 504.371 434.739C503.725 436.209 503.108 437.629 502.252 438.993L502.069 439.405L500.846 440.008L498.947 439.164L498.171 439.112C495.604 438.33 496.447 437.983 497.808 436.586L497.813 435.989L497.68 435.658Z"/>
	<path fill="#8D2442" transform="matrix(0.0375 0 0 0.0375 0 1.90735e-06)" d="M497.813 435.989C498.542 434.98 499.213 433.69 500.469 433.452L501.964 434.997C501.018 435.804 500.337 436.301 499.146 436.678C498.782 437.648 498.646 438.132 498.947 439.164L498.171 439.112C495.604 438.33 496.447 437.983 497.808 436.586L497.813 435.989Z"/>
	<path fill="#995064" transform="matrix(0.0375 0 0 0.0375 0 1.90735e-06)" d="M501.964 434.997C503.656 435.781 502.922 434.757 504.371 434.739C503.725 436.209 503.108 437.629 502.252 438.993L502.069 439.405L500.846 440.008L498.947 439.164C498.646 438.132 498.782 437.648 499.146 436.678C500.337 436.301 501.018 435.804 501.964 434.997Z"/>
	<path fill="#A79A92" transform="matrix(0.0375 0 0 0.0375 0 1.90735e-06)" d="M485.374 420.606C486.13 421.368 486.906 422.351 487.857 422.848L487.626 424.047L487.044 424.703L486.661 425.676C485.933 426.18 485.081 426.303 484.388 426.861L484.057 427.804L482.072 429.646L481.821 429.663C480.953 430.127 480.16 430.555 479.412 431.2L479.012 431.112C478.202 430.803 477.773 429.962 477.351 429.266L477.543 428.707L477.711 427.821L478.421 426.823C478.256 425.848 478.097 425.443 477.491 424.662C478.078 423.857 478.961 423.109 479.657 422.385L480.964 422.398C481.978 422.25 482.771 422.232 483.801 422.351L484.289 422.311C484.948 422.092 485.123 421.192 485.374 420.606Z"/>
	<path fill="#995064" transform="matrix(0.0375 0 0 0.0375 0 1.90735e-06)" d="M477.711 427.821L481.821 429.663C480.953 430.127 480.16 430.555 479.412 431.2L479.012 431.112C478.202 430.803 477.773 429.962 477.351 429.266L477.543 428.707L477.711 427.821Z"/>
	<path fill="#8D182F" transform="matrix(0.0375 0 0 0.0375 0 1.90735e-06)" d="M485.374 420.606C486.13 421.368 486.906 422.351 487.857 422.848L487.626 424.047L487.044 424.703C485.21 422.504 485.016 423.017 482.815 423.76C482.156 423.384 481.564 422.863 480.964 422.398C481.978 422.25 482.771 422.232 483.801 422.351L484.289 422.311C484.948 422.092 485.123 421.192 485.374 420.606Z"/>
	<path fill="#851121" transform="matrix(0.0375 0 0 0.0375 0 1.90735e-06)" d="M484.595 440.928L486.027 441.719C486.061 440.491 486.041 440.439 485.343 439.427L486.094 439.216C487.087 439.809 488.813 440.862 489.513 441.784L490.915 442.426L492.842 442.715C493.941 443.442 494.234 444.016 493.972 445.284L492.214 445.38L491.513 445.047C490.505 445.086 490 445.258 489.096 445.708L488.555 447.592C488.155 448.27 488.203 448.515 487.431 448.785L485.469 449.793C483.984 448.743 483.186 448.686 481.576 449.386L481.538 448.461C480.997 447.795 480.507 447.264 480.304 446.406L480.886 445.545L480.909 444.709C481.381 444.527 481.571 444.416 481.921 444.027L482.199 443.693L484.595 440.928Z"/>
	<path fill="#9F0C1F" transform="matrix(0.0375 0 0 0.0375 0 1.90735e-06)" d="M492.842 442.715C493.941 443.442 494.234 444.016 493.972 445.284L492.214 445.38L491.513 445.047L491.289 443.906C491.785 442.98 491.834 443.064 492.842 442.715Z"/>
	<path fill="#6E1621" transform="matrix(0.0375 0 0 0.0375 0 1.90735e-06)" d="M480.886 445.545C482.242 445.49 482.044 445.881 483.125 446.209C484.648 446.669 487.152 445.397 489.096 445.708L488.555 447.592C488.155 448.27 488.203 448.515 487.431 448.785L485.469 449.793C483.984 448.743 483.186 448.686 481.576 449.386L481.538 448.461C480.997 447.795 480.507 447.264 480.304 446.406L480.886 445.545Z"/>
	<path fill="#8D182F" transform="matrix(0.0375 0 0 0.0375 0 1.90735e-06)" d="M472.565 435.485C473.66 435.216 473.83 435.217 474.631 434.353L475 435.29C476.162 435.717 477.346 435.665 478.566 435.686L479.377 435.929C478.461 437.261 478.309 437.692 478.512 439.384C478.186 440.254 477.139 440.325 477.344 441.046L477.945 441.05C479.917 441.095 480.881 442.403 482.199 443.693L481.921 444.027C481.571 444.416 481.381 444.527 480.909 444.709L480.886 445.545L480.304 446.406C480.507 447.264 480.997 447.795 481.538 448.461L481.576 449.386L481.333 449.366C479.658 448.521 478.43 449.607 476.982 450.485L474.689 448.446L474.36 448.83L473.586 448.141C472.777 447.586 472.344 446.691 471.838 445.872L472.369 445.704L472.705 445.687L474.162 444.319L473.411 443.968C472.633 443.188 472.115 442.371 471.546 441.432L474.081 440.812L474.364 439.531C474.053 438.682 474.071 438.075 474.131 437.198C473.686 436.572 473.099 436.038 472.565 435.485Z"/>
	<path fill="#551E23" transform="matrix(0.0375 0 0 0.0375 0 1.90735e-06)" d="M474.081 440.812L475.084 444.679L474.162 444.319L473.411 443.968C472.633 443.188 472.115 442.371 471.546 441.432L474.081 440.812Z"/>
	<path fill="#6E1621" transform="matrix(0.0375 0 0 0.0375 0 1.90735e-06)" d="M472.565 435.485C473.66 435.216 473.83 435.217 474.631 434.353L475 435.29C476.162 435.717 477.346 435.665 478.566 435.686L478.533 436.254C477.538 436.947 475.336 437.191 474.131 437.198C473.686 436.572 473.099 436.038 472.565 435.485Z"/>
	<path fill="#851121" transform="matrix(0.0375 0 0 0.0375 0 1.90735e-06)" d="M475.084 444.679C475.235 445.353 475.346 445.959 475.364 446.65L474.689 448.446L474.36 448.83L473.586 448.141C472.777 447.586 472.344 446.691 471.838 445.872L472.369 445.704L472.705 445.687L474.162 444.319L475.084 444.679Z"/>
	<path fill="#A51321" transform="matrix(0.0375 0 0 0.0375 0 1.90735e-06)" d="M475.084 444.679C475.235 445.353 475.346 445.959 475.364 446.65C474.29 446.471 473.608 446.307 472.705 445.687L474.162 444.319L475.084 444.679Z"/>
	<path fill="#A79A92" transform="matrix(0.0375 0 0 0.0375 0 1.90735e-06)" d="M210.708 331.672L234.112 342.532C229.452 344.127 219.561 349.172 215.212 351.531L188.353 366.366C183.468 368.957 178.384 372.093 172.998 373.499L172.799 373.553C169.79 374.143 165.61 374.045 163.096 375.766C162.904 373.662 163.795 371.305 163.086 369.534L162.827 369.153C162.364 368.09 162.609 366.877 163.105 365.904C162.327 364.158 162.09 362.603 163.114 360.886L162.908 359.734L162.387 355.596C162.182 354.975 162.511 353.788 162.6 353.115L162.343 352.592L162.199 350.781C162.77 349.73 162.333 348.707 162.936 347.884L162.352 346.051L162.938 345.835C164.857 345.007 166.471 345.33 168.518 345.557C172.184 343.176 178.021 342.685 182.18 341.265C192.218 337.836 199.987 334.493 210.385 331.76L210.708 331.672Z"/>
	<path fill="#DAD2D0" transform="matrix(0.0375 0 0 0.0375 0 1.90735e-06)" d="M162.343 352.592C165.578 349.694 173.407 348.554 177.782 348.022L166.919 352.743C165.675 353.226 164.312 353.93 163 353.555L162.6 353.115L162.343 352.592Z"/>
	<path fill="#DAD2D0" transform="matrix(0.0375 0 0 0.0375 0 1.90735e-06)" d="M163.105 365.904C165.783 363.608 168.341 363.482 171.476 362.155L193.125 352.237C195.916 350.808 202.686 345.45 205.578 345.36C205.28 346.477 195.119 352.659 193.551 353.595C189.432 356.057 164.553 367.888 163.086 369.534L162.827 369.153C162.364 368.09 162.609 366.877 163.105 365.904Z"/>
	<path fill="#DAD2D0" transform="matrix(0.0375 0 0 0.0375 0 1.90735e-06)" d="M438.223 230.431L445.493 233.197L450.126 235.242L459.757 239.45L463.352 241.096L468.77 243.361L478.459 247.092C479.72 247.544 481.034 247.947 482.232 248.547L484.048 249.325L485.629 250.036L499.357 256.215C501.318 257.079 503.24 257.208 504.133 259.276L505 258.786C506.928 259.369 509.063 260.482 510.637 261.734C504.107 263.076 497.723 262.933 491.123 262.124C489.659 262.13 486.613 261.506 485.454 262.259L471.505 262.161L460.73 262.43L439.152 262.473L432.293 262.484L411.827 262.826L405.753 262.831L400.42 262.837L379.43 263.385L380.255 262.344C381.886 260.831 384.716 260.383 386.716 259.252C389.11 257.899 391.293 256.212 393.663 254.821L416.36 241.605L438.223 230.431Z"/>
	<path fill="#A79A92" transform="matrix(0.0375 0 0 0.0375 0 1.90735e-06)" d="M478.459 247.092C479.72 247.544 481.034 247.947 482.232 248.547C478.081 250.392 474.711 251.288 470.171 251.361C473.012 249.935 477.057 250.383 478.459 247.092Z"/>
	<path fill="#A79A92" transform="matrix(0.0375 0 0 0.0375 0 1.90735e-06)" d="M478.653 258.566C481.732 257.448 485.371 257.81 488.125 255.737C487.989 256.582 485.498 258.431 484.786 259.229C486.318 260.245 487.6 261.002 489.375 261.554L491.123 262.109C489.659 262.13 486.613 261.506 485.454 262.259L471.505 262.161L460.73 262.43C463.233 259.836 469.77 259.384 473.069 258.309L472.007 259.572C472.83 260.212 473.879 260.465 474.86 260.804L476.484 260.049L478.653 258.566Z"/>
	<path fill="#DAD2D0" transform="matrix(0.0375 0 0 0.0375 0 1.90735e-06)" d="M395.677 213.895L397.956 214.883L426.247 225.519L428.017 226.165L436.526 229.596L438.223 230.431L416.36 241.605L393.663 254.821C391.293 256.212 389.11 257.899 386.716 259.252C384.716 260.383 381.886 260.831 380.255 262.344L379.43 263.482L375.554 263.461L317.893 264.782C317.035 263.032 316.795 261.167 315.784 259.413L315.577 259.064L314.081 257.123C317.983 256.334 334.409 247.971 338.81 245.138L356.092 235.616C359.827 232.686 365.079 231.239 369.116 228.57L395.677 213.895Z"/>
	<path fill="#A79A92" transform="matrix(0.0375 0 0 0.0375 0 1.90735e-06)" d="M395.677 213.895L397.956 214.883C391.507 217.312 385.552 220.528 379.531 223.828L368.123 229.976C364.422 231.683 360.132 235.165 356.284 236.112C355.763 236.618 355.333 236.858 354.686 237.176L353.261 237.887C349.849 239.616 345.954 241.421 342.831 243.649L340.312 245.131C334.737 248.423 321.516 257.557 315.577 259.064L314.081 257.123C317.983 256.334 334.409 247.971 338.81 245.138L356.092 235.616C359.827 232.686 365.079 231.239 369.116 228.57L395.677 213.895Z"/>
	<defs>
		<linearGradient id="gradient_0" gradientUnits="userSpaceOnUse" x1="409.99023" y1="250.95607" x2="403.33582" y2="242.01923">
			<stop offset="0" stop-color="#9E9697"/>
			<stop offset="1" stop-color="#C5C3C5"/>
		</linearGradient>
	</defs>
	<path fill="url(#gradient_0)" transform="matrix(0.0375 0 0 0.0375 0 1.90735e-06)" d="M436.526 229.596L438.223 230.431L416.36 241.605L393.663 254.821C391.293 256.212 389.11 257.899 386.716 259.252C384.716 260.383 381.886 260.831 380.255 262.344L379.43 263.482L375.554 263.461C375.98 262.72 376.307 262.317 377.055 261.889L404.086 247.115C407.637 245.033 411.077 242.838 414.796 241.056L426.875 234.708C430.653 232.551 432.166 231.603 436.136 229.788L436.526 229.596Z"/>
	<path fill="#A79A92" transform="matrix(0.0375 0 0 0.0375 0 1.90735e-06)" d="M234.112 342.532L235.993 343.227C239.821 344.845 244.309 346.205 247.742 348.509L250.625 349.374C250.975 350.066 250.871 349.73 250.99 350.364L251.264 351.406C258.745 355.161 267.639 353.518 273.411 356.589L273.895 356.842C274.853 357.518 275.878 358.161 276.76 358.931C279.027 360.66 281.725 361.753 284.101 363.369C284.955 363.69 285.996 363.832 286.471 364.625L285.919 365.409C279.943 365.589 263.742 378.536 258.594 382.034L245.625 390.303C235.617 396.336 224.948 401.033 215.132 407.422L203.036 415.784C197.694 419.458 191.792 423.19 187.285 427.892L186.362 428.912L183.084 427.184C182.079 426.243 181.171 425.23 179.858 424.742C179.333 424.186 178.927 423.583 178.489 422.958C177.754 421.756 176.226 420.887 175.283 419.767C171.415 415.173 169.006 410.698 166.993 405.055L166.017 402.172C165.578 401.295 165.434 400.327 165.232 399.375L165.807 398.514L166.082 398.266C165.206 397.343 165.036 395.981 164.735 394.779C164.306 393.238 164.428 392.871 164.846 391.303C164.521 389.634 164.028 384.123 163.935 383.844C162.787 382.139 162.806 381.441 163.839 379.739C163.723 379.336 163.428 378.889 163.231 378.515L163.096 375.766C165.61 374.045 169.79 374.143 172.799 373.553L172.998 373.499C178.384 372.093 183.468 368.957 188.353 366.366L215.212 351.531C219.561 349.172 229.452 344.127 234.112 342.532Z"/>
	<path fill="#DAD2D0" transform="matrix(0.0375 0 0 0.0375 0 1.90735e-06)" d="M178.489 422.958C181.267 420.936 188.569 416.836 191.729 415.453C191.555 415.657 183.08 422.723 182.293 423.295C181.667 423.751 180.273 424.216 179.858 424.742C179.333 424.186 178.927 423.583 178.489 422.958Z"/>
	<path fill="#DAD2D0" transform="matrix(0.0375 0 0 0.0375 0 1.90735e-06)" d="M223.271 378.281C223.928 378.175 223.948 378.302 224.514 378.594C210.09 386.601 185.366 401.938 174.531 414.184L176.25 411.719C177.252 410.334 178.534 408.725 179.957 407.727L183.984 404.609C184.667 404.213 184.898 403.74 185.539 403.354L186.72 402.422C188.789 401.093 191.467 399.483 193.184 397.774L193.439 397.502C194.412 397.498 195.762 396.222 196.562 395.625L197.422 394.922C198.303 394.402 198.958 393.706 199.844 393.125L178.883 407.701C177.129 409.147 174.839 412.452 172.229 411.527L172.031 411.097C175.739 411.184 178.336 407.296 181.109 405.274L206.418 387.555C211.837 384.085 217.589 381.279 223.271 378.281Z"/>
	<path fill="#DAD2D0" transform="matrix(0.0375 0 0 0.0375 0 1.90735e-06)" d="M247.742 348.509L250.625 349.374C250.975 350.066 250.871 349.73 250.99 350.364L250.098 351.238C248.144 351.702 245.833 353.373 244.054 354.341L213.125 373.472C208.301 376.594 203.223 379.447 198.597 382.858C194.864 385.611 192.207 389.851 188.104 392.116C185.78 393.723 183.706 395.563 181.451 397.245L174.636 402.038C170.909 404.762 171.547 404.95 166.993 405.055L166.017 402.172L170.103 400.204C175.341 398.677 179.959 395.456 184.606 392.696C186.326 390.859 188.983 389.992 190.849 388.281C202.119 377.946 209.883 372.394 223.297 364.265C231.536 359.271 240.8 355.279 247.742 348.509Z"/>
	<path fill="#DAD2D0" transform="matrix(0.0375 0 0 0.0375 0 1.90735e-06)" d="M284.101 363.369C284.955 363.69 285.996 363.832 286.471 364.625L285.919 365.409C279.943 365.589 263.742 378.536 258.594 382.034L245.625 390.303C235.617 396.336 224.948 401.033 215.132 407.422L203.036 415.784C197.694 419.458 191.792 423.19 187.285 427.892L186.362 428.912L183.084 427.184C185.889 424.669 189.476 423.062 192.583 420.914L214.375 405.635L273.787 369.342C277.081 367.156 280.078 364.051 284.101 363.369Z"/>
	<path fill="#A79A92" transform="matrix(0.0375 0 0 0.0375 0 1.90735e-06)" d="M234.112 342.532L235.993 343.227C239.821 344.845 244.309 346.205 247.742 348.509C240.8 355.279 231.536 359.271 223.297 364.265C209.883 372.394 202.119 377.946 190.849 388.281C188.983 389.992 186.326 390.859 184.606 392.696C179.959 395.456 175.341 398.677 170.103 400.204L166.017 402.172C165.578 401.295 165.434 400.327 165.232 399.375L165.807 398.514L166.082 398.266C165.206 397.343 165.036 395.981 164.735 394.779C164.306 393.238 164.428 392.871 164.846 391.303C164.521 389.634 164.028 384.123 163.935 383.844C162.787 382.139 162.806 381.441 163.839 379.739C163.723 379.336 163.428 378.889 163.231 378.515L163.096 375.766C165.61 374.045 169.79 374.143 172.799 373.553L172.998 373.499C178.384 372.093 183.468 368.957 188.353 366.366L215.212 351.531C219.561 349.172 229.452 344.127 234.112 342.532Z"/>
	<defs>
		<linearGradient id="gradient_1" gradientUnits="userSpaceOnUse" x1="198.48849" y1="381.00473" x2="163.87032" y2="389.96933">
			<stop offset="0" stop-color="#C0C0C1"/>
			<stop offset="1" stop-color="#F6F5F5"/>
		</linearGradient>
	</defs>
	<path fill="url(#gradient_1)" transform="matrix(0.0375 0 0 0.0375 0 1.90735e-06)" d="M164.846 391.303L165.121 391.23C171.805 389.376 185.464 383.06 191.583 379.882L197.728 376.562C198.754 375.999 199.739 375.236 200.836 374.846C195.262 381.193 173.234 392.172 164.735 394.779C164.306 393.238 164.428 392.871 164.846 391.303Z"/>
	<path fill="#DAD2D0" transform="matrix(0.0375 0 0 0.0375 0 1.90735e-06)" d="M234.112 342.532L235.993 343.227C234.143 344.801 231.72 345.773 229.505 346.738L179.099 372.549C177.831 373.147 176.47 373.522 175.225 374.138L170.23 375.835C167.841 376.57 165.319 377.046 163.231 378.515L163.096 375.766C165.61 374.045 169.79 374.143 172.799 373.553L172.998 373.499C178.384 372.093 183.468 368.957 188.353 366.366L215.212 351.531C219.561 349.172 229.452 344.127 234.112 342.532Z"/>
	<path fill="#DAD2D0" transform="matrix(0.0375 0 0 0.0375 0 1.90735e-06)" d="M456.721 269.257C460.831 268.841 465.236 269.027 469.375 269.013L489.689 269.048C491.569 269.071 494.541 269.526 496.316 269.011C503.329 270.256 505.973 271.675 498.062 275.762C487.74 281.576 476.228 285.475 465.443 290.391L445.994 299.327L330.506 347.853L315.308 354.96C311.745 356.618 308.15 358.379 304.344 359.405L258.959 341.158L256.927 340.157L244.561 334.262L241.148 332.714L242.5 332.812C243.206 332.579 243.901 332.413 244.642 332.341C245.721 331.61 246.84 331.495 247.93 330.908L251.25 329.219C251.761 329.029 252.113 328.992 252.617 328.721L256.875 326.562C259.995 324.544 268.426 320.481 271.987 318.862L279.064 315.002C279.761 314.9 279.477 315.002 280.098 314.668L302.29 302.944C303.224 302.52 304.128 301.813 305.137 301.611L305.469 301.562C305.469 300.85 305.293 300.547 304.844 300L302.812 299.688L303.203 298.828C303.959 297.109 306.097 295.719 307.651 294.683L310.469 292.812C310.93 292.516 311.35 292.254 311.777 291.904L312.188 291.562C312.818 291.084 313.241 290.61 313.752 290.002L314.219 290C314.872 289.318 315.64 288.677 316.406 288.125L327.5 280C327.981 279.675 328.416 279.381 328.936 279.12L329.844 278.591C330.451 278.26 330.976 278.082 331.562 277.653L332.186 277.186C332.857 276.863 332.949 276.678 333.438 276.094L335.833 274.609C336.414 274.03 336.91 273.464 337.407 272.811L336.973 272.4C338.026 271.933 340.928 272.203 342.181 272.182L424.988 270.156L426.323 269.922C433.373 270.084 440.892 270.658 447.85 269.514C450.777 268.907 453.811 268.784 456.721 269.257Z"/>
	<path fill="#A79A92" transform="matrix(0.0375 0 0 0.0375 0 1.90735e-06)" d="M256.927 340.157L266.377 334.931C264.512 337.348 261.312 339.165 258.959 341.158L256.927 340.157Z"/>
	<path fill="#A79A92" transform="matrix(0.0375 0 0 0.0375 0 1.90735e-06)" d="M496.316 269.332C503.329 270.256 505.973 271.675 498.062 275.762C498.549 275.114 498.912 274.325 499.689 274.064L499.705 273.765C494.589 271.065 486.513 277.663 481.819 279.734L480.781 278.998C478.915 280.606 477.162 282.013 475.009 283.228L476.301 280.505C473.43 281.174 473.859 283.585 471.904 284.42L464.995 287.017C464.047 287.344 463.253 287.79 462.403 288.317L457.344 290.44C456.314 290.864 453.347 292.706 452.502 292.498L452.502 292.189C453.991 291.177 455.757 290.46 457.344 289.591L472.068 281.318C474.316 280.135 476.366 278.83 478.756 277.925C483.612 274.531 490.202 274.379 496.316 269.332Z"/>
	<path fill="#A79A92" transform="matrix(0.0375 0 0 0.0375 0 1.90735e-06)" d="M447.85 269.299C450.777 268.907 453.811 268.784 456.721 269.257L454.865 269.953C451.807 270.93 440.024 276.447 437.826 277.815C431.997 281.851 420.402 288.799 414.013 291.956C408.9 294.483 403.746 296.307 398.75 299.164L398.284 298.906C411.03 290.645 422.268 283.551 436.252 277.019C439.56 275.496 446.153 272.727 447.85 269.299Z"/>
	<path fill="#A79A92" transform="matrix(0.0375 0 0 0.0375 0 1.90735e-06)" d="M432.093 318.833C432.876 318.93 433.611 319.006 434.403 319.002L434.311 319.688C435.65 321.121 435.047 328.979 435.048 331.327L435.108 334.379L435.114 342.983L435.322 344.579C435.403 346.556 435.57 348.663 435.316 350.63C436.038 353.466 435.981 357.922 435.673 360.938L435.704 361.141L435.995 363.254C436.003 364.481 435.921 372.262 436.201 372.843L436.209 376.674C435.776 379.63 436.644 382.646 435.996 385.668C435.595 386.854 435.2 387.314 434.166 388.013L435.797 388.594C435.888 389.61 435.705 390.427 435.475 391.415L435.518 391.51C435.701 392.956 435.149 394.163 434.68 395.506L400.221 420.39C397.692 422.092 395.188 424.043 392.541 425.544C386.336 430.184 379.737 435.599 374.607 441.406C371.978 442.23 369.322 442.572 366.603 442.946C363.419 444.129 355.516 444.611 351.874 444.376C348.244 444.829 343.504 445.711 339.915 445.29C337.293 446.612 330.014 446.734 327.427 446.35C324.462 446.518 320.562 447.251 317.664 446.914C316.063 446.674 313.42 447.281 312.091 446.562L312.54 445.454C310.191 445.26 309.161 445.063 307.908 447.181L307.438 447.163L296.475 447.181L282.968 447.019L276.016 446.529C272.638 446.783 268.914 446.326 265.502 446.219L261.782 445.75L256.918 445.293C253.983 445.506 250.739 445.003 247.829 444.574L232.428 442.465C230.788 442.623 228.498 441.908 226.923 441.468L223.345 440.847C220.948 440.731 218.339 440.411 216.005 439.868L205.927 437.305C202.019 436.449 197.647 434.342 193.983 432.721L190.245 431.08C188.895 430.495 187.629 429.659 186.362 428.912L187.285 427.892C191.792 423.19 197.694 419.458 203.036 415.784L215.132 407.422C224.948 401.033 235.617 396.336 245.625 390.303L258.594 382.034C263.742 378.536 279.943 365.589 285.919 365.409C285.941 365.42 292.733 367.072 293.676 367.337L303.152 369.701C304.89 368.78 306.993 368.163 308.837 367.458L339.083 352.758C342.022 351.421 344.988 349.925 348.037 348.87C351.547 346.416 356.561 344.75 360.52 343.108L375.618 336.795C383.111 333.903 391.307 331.241 398.34 327.357C399.74 327.282 401.215 326.986 402.589 327.06C404.449 325.834 406.711 325.19 408.636 323.989L409.052 323.969L408.594 325.159C409.313 325.158 410.104 325.363 410.625 324.847L411.582 325.118C413.041 324.915 414.537 324.231 415.97 323.828L425.574 320.91C427.701 320.149 429.833 319.06 432.093 318.833Z"/>
	<path fill="#DAD2D0" transform="matrix(0.0375 0 0 0.0375 0 1.90735e-06)" d="M422.229 382.285L430.546 376.142C432.109 374.928 433.687 373.075 435.469 372.278L436.201 372.843L436.209 376.674C431.476 377.292 427.139 380.779 423.094 383.229C420.118 383.704 420.88 384.544 421.933 382.793L422.229 382.285Z"/>
	<path fill="#DAD2D0" transform="matrix(0.0375 0 0 0.0375 0 1.90735e-06)" d="M296.475 447.181C299.449 444.877 307.546 442.241 312.329 439C310.277 441.428 307.81 443.86 307.438 447.163L296.475 447.181Z"/>
	<defs>
		<linearGradient id="gradient_2" gradientUnits="userSpaceOnUse" x1="395.08511" y1="329.81198" x2="397.72739" y2="333.31302">
			<stop offset="0" stop-color="#AFA8A7"/>
			<stop offset="1" stop-color="#CCCBCC"/>
		</linearGradient>
	</defs>
	<path fill="url(#gradient_2)" transform="matrix(0.0375 0 0 0.0375 0 1.90735e-06)" d="M408.636 323.989L409.052 323.969L408.594 325.159C409.313 325.158 410.104 325.363 410.625 324.847L411.582 325.118C405.142 327.835 388.732 339.339 385.323 337.543L384.6 337.018L394.449 332.944C397.847 331.809 399.987 329.367 402.589 327.06C404.449 325.834 406.711 325.19 408.636 323.989Z"/>
	<path fill="#DAD2D0" transform="matrix(0.0375 0 0 0.0375 0 1.90735e-06)" d="M418.744 351.452C424.44 348.338 429.355 343.796 434.844 340.433L435.267 342.983L435.322 344.579C432.059 344.888 429.878 346.504 427.124 348.099L419.154 352.747C417.26 354.309 414.44 356.115 412.187 357.067L411.836 356.89C411.331 357.046 410.889 357.205 410.413 357.443L409.725 357.122L418.744 351.452Z"/>
	<path fill="#DAD2D0" transform="matrix(0.0375 0 0 0.0375 0 1.90735e-06)" d="M414.733 399.853L433.994 383.906C434.695 383.554 435.064 383.918 435.707 384.219L435.996 385.668C435.595 386.854 435.2 387.314 434.166 388.013C430.621 388.864 418.386 398.428 415.405 400.826C414.765 400.431 414.914 400.51 414.733 399.853Z"/>
	<defs>
		<linearGradient id="gradient_3" gradientUnits="userSpaceOnUse" x1="377.46497" y1="340.22037" x2="358.97305" y2="346.28998">
			<stop offset="0" stop-color="#585256"/>
			<stop offset="1" stop-color="#7E7574"/>
		</linearGradient>
	</defs>
	<path fill="url(#gradient_3)" transform="matrix(0.0375 0 0 0.0375 0 1.90735e-06)" d="M348.988 350.102C352.421 348.854 355.688 346.831 359.093 345.421C366.447 342.374 373.896 340.039 381.406 337.466L390.437 334.118C391.77 333.629 392.996 332.878 394.449 332.944L384.6 337.018L351.719 351.562C352.142 351.28 352.518 351.085 352.97 350.859L359.534 347.656L358.789 346.083L350.221 350.077C348.651 350.81 346.136 352.541 344.46 352.573L344.223 352.374L348.988 350.102Z"/>
	<path fill="#DAD2D0" transform="matrix(0.0375 0 0 0.0375 0 1.90735e-06)" d="M393.697 397.96L394.377 398.843C382.429 405.545 373.743 416.712 359.659 422.892C361.117 419.579 386.604 402.013 393.697 397.96Z"/>
	<defs>
		<linearGradient id="gradient_4" gradientUnits="userSpaceOnUse" x1="209.79118" y1="416.7421" x2="212.92592" y2="422.52859">
			<stop offset="0" stop-color="#B9B6B6"/>
			<stop offset="1" stop-color="#E7E7E9"/>
		</linearGradient>
	</defs>
	<path fill="url(#gradient_4)" transform="matrix(0.0375 0 0 0.0375 0 1.90735e-06)" d="M219.446 412.645L231.495 405.18C230.222 406.412 222.7 412.911 221.319 412.953L211.028 421.909C207.219 424.959 198.951 431.062 194.31 432.591L193.983 432.721L190.245 431.08L190.704 430.455C202.225 429.008 210.704 418.849 219.178 412.831L219.446 412.645Z"/>
	<path fill="#DAD2D0" transform="matrix(0.0375 0 0 0.0375 0 1.90735e-06)" d="M223.345 440.847C233.47 432.384 245.907 427.443 257.441 421.259C252.372 426.788 233.617 437.474 226.923 441.468L223.345 440.847Z"/>
	<path fill="#DAD2D0" transform="matrix(0.0375 0 0 0.0375 0 1.90735e-06)" d="M324.732 392.379L351.739 377.027C351.452 380.053 344.394 382.707 342.266 383.913L325.817 393.262C321.593 395.976 316.852 398.071 312.456 400.513L299.445 407.89C298.577 408.404 284.788 416.554 291.159 412.052L324.732 392.379Z"/>
	<path fill="#DAD2D0" transform="matrix(0.0375 0 0 0.0375 0 1.90735e-06)" d="M339.915 445.29C336.849 444.015 344.304 442.045 345.312 441.571L362.939 433.262C360.111 438.553 356.964 440.654 352.356 444.02L351.874 444.376C348.244 444.829 343.504 445.711 339.915 445.29Z"/>
	<path fill="#DAD2D0" transform="matrix(0.0375 0 0 0.0375 0 1.90735e-06)" d="M288.817 430.253L289.128 430.836C286.576 432.271 284.35 434.313 282.058 436.121L274.46 441.739C268.355 446.725 272.541 445.338 265.502 445.98L261.782 445.75L256.918 445.293C257.289 442.827 260.974 441.178 262.798 439.869L270.922 433.65L271.345 434.269C268.109 436.842 263.722 441.231 262.038 445.17L288.817 430.253Z"/>
	<path fill="#DAD2D0" transform="matrix(0.0375 0 0 0.0375 0 1.90735e-06)" d="M390.552 379.754C391.577 379.024 392.921 378.629 394.062 378.067C401.833 374.248 408.417 368.713 415.469 363.771L432.242 352.016C433.169 351.297 434.104 350.475 435.316 350.63L435.203 353.693C431.899 356.637 427.173 358.733 423.337 360.983L411.19 368.673C404.476 373.108 399.185 377.704 391.599 380.761L391.551 380.747L390.552 379.754Z"/>
	<path fill="#DAD2D0" transform="matrix(0.0375 0 0 0.0375 0 1.90735e-06)" d="M348.037 348.87L348.514 348.95C349.545 349.078 350.987 348.127 351.89 347.665L351.456 348.291C350.971 348.493 350.611 348.74 350.158 348.984L349.828 349.131C349.397 349.36 349.236 349.703 348.988 350.102L344.223 352.374L309.684 369.183L304.562 371.299C303.178 371.884 301.88 373.365 300.773 374.375C301.401 373.108 303.013 370.966 303.152 369.701C304.89 368.78 306.993 368.163 308.837 367.458L339.083 352.758C342.022 351.421 344.988 349.925 348.037 348.87Z"/>
	<path fill="white" transform="matrix(0.0375 0 0 0.0375 0 1.90735e-06)" d="M276.016 446.529C276.762 444.445 279.89 443.753 281.745 442.839L296.472 435.5C302.628 432.354 308.069 427.801 314.265 424.889L306.861 431.344C300.353 436.404 290.976 444.269 282.968 446.645L276.016 446.529Z"/>
	<path fill="#DAD2D0" transform="matrix(0.0375 0 0 0.0375 0 1.90735e-06)" d="M435.995 363.254C432.495 366.938 427.396 369.16 423.212 372.03L395.312 391.258C391.965 393.406 388.77 395.669 385.166 397.383C389.773 393.488 394.627 390.133 399.467 386.55L427.178 366.718C429.843 364.899 432.635 362.06 435.704 361.141L435.995 363.254Z"/>
	<defs>
		<linearGradient id="gradient_5" gradientUnits="userSpaceOnUse" x1="392.71536" y1="345.24863" x2="358.73718" y2="331.26862">
			<stop offset="0" stop-color="#B5ABA7"/>
			<stop offset="1" stop-color="#BEC1C4"/>
		</linearGradient>
	</defs>
	<path fill="url(#gradient_5)" transform="matrix(0.0375 0 0 0.0375 0 1.90735e-06)" d="M398.34 327.357C399.74 327.282 401.215 326.986 402.589 327.06C399.987 329.367 397.847 331.809 394.449 332.944C392.996 332.878 391.77 333.629 390.437 334.118L381.406 337.466C373.896 340.039 366.447 342.374 359.093 345.421C355.688 346.831 352.421 348.854 348.988 350.102C349.236 349.703 349.397 349.36 349.828 349.131L350.158 348.984C350.611 348.74 350.971 348.493 351.456 348.291L351.89 347.665C350.987 348.127 349.545 349.078 348.514 348.95L348.037 348.87C351.547 346.416 356.561 344.75 360.52 343.108L375.618 336.795C383.111 333.903 391.307 331.241 398.34 327.357Z"/>
	<path fill="white" transform="matrix(0.0375 0 0 0.0375 0 1.90735e-06)" d="M312.54 445.454L332.809 438.097C336.124 437.013 340.232 435.386 343.757 435.421C336.884 442.792 333.855 442.048 327.427 446.318C324.462 446.518 320.562 447.251 317.664 446.914C316.063 446.674 313.42 447.281 312.091 446.562L312.54 445.454Z"/>
	<path fill="#DAD2D0" transform="matrix(0.0375 0 0 0.0375 0 1.90735e-06)" d="M392.105 424.208C397.005 420.255 402.676 417.094 407.812 413.422L424.508 400.292C427.526 397.954 432.265 392.309 435.518 391.51C435.701 392.956 435.149 394.163 434.68 395.506L400.221 420.39C397.692 422.092 395.188 424.043 392.541 425.544C386.336 430.184 379.737 435.599 374.607 441.406C371.978 442.23 369.322 442.572 366.603 442.946C368.4 439.658 376.016 436.047 379.229 433.834L392.105 424.208Z"/>
	<path fill="white" transform="matrix(0.0375 0 0 0.0375 0 1.90735e-06)" d="M390.552 379.754L391.551 380.747C377.023 387.54 364.654 396.972 352.021 406.716L335.413 418.732C332.567 420.629 329.73 422.645 326.653 424.147C333.553 417.792 341.182 412.208 348.547 406.412L363.847 394.642C374.725 386.47 378.456 385.256 390.552 379.754Z"/>
	<path fill="#DAD2D0" transform="matrix(0.0375 0 0 0.0375 0 1.90735e-06)" d="M435.108 334.379C426.939 337.682 418.547 342.465 411.111 347.12L376.246 367.491C368.202 371.811 360.221 376.15 351.719 379.528L351.281 379.219C352.339 377.624 354.225 376.917 355.878 376.059L376.243 365.262C384.715 360.806 393.449 356.368 401.553 351.27C412.466 344.404 422.984 336.118 435.061 331.327L435.108 334.379Z"/>
	<path fill="#DAD2D0" transform="matrix(0.0375 0 0 0.0375 0 1.90735e-06)" d="M267.542 425.218L318.032 386.719C317.074 389.494 299.144 401.713 295.521 404.793C292.2 407.616 289.433 411.233 286.088 413.878C281.852 417.226 273.159 423.477 268.401 426.413C264.026 429.851 249.73 439.607 247.829 444.538L232.428 442.465C234.083 440.968 235.828 441.549 237.886 441.25C243.932 440.372 253.821 434.659 258.751 431.42L267.542 425.218Z"/>
	<path fill="white" transform="matrix(0.0375 0 0 0.0375 0 1.90735e-06)" d="M205.927 437.305L300.121 376.281C297.885 379.436 293.031 382.209 289.901 384.583L270.766 398.48L228.75 426.585C225.939 428.665 216.697 435.02 216.01 438.594L216.005 439.868L205.927 437.305Z"/>
	<defs>
		<linearGradient id="gradient_6" gradientUnits="userSpaceOnUse" x1="258.52084" y1="328.53568" x2="224.09026" y2="192.10686">
			<stop offset="0" stop-color="#C1BEBE"/>
			<stop offset="1" stop-color="white"/>
		</linearGradient>
	</defs>
	<path fill="url(#gradient_6)" transform="matrix(0.0375 0 0 0.0375 0 1.90735e-06)" d="M129.749 244.687C134.315 242.858 138.412 240.383 142.779 238.167L213.333 207.065L283.216 178.92C297.916 173.553 295.845 173.966 310.646 179.137L348.158 194.196C349.016 194.527 349.867 194.908 350.764 195.115L363.342 200.669L365.62 201.89L382.348 208.397L385.523 209.74L395.677 213.895L369.116 228.57C365.079 231.239 359.827 232.686 356.092 235.616L338.81 245.138C334.409 247.971 317.983 256.334 314.081 257.123C311.92 255.101 309.966 253.885 307.152 252.948C305.056 252.479 302.897 252.452 300.76 252.343C290.642 254.166 281.036 263.019 286.741 273.26C293.289 282.763 305.72 285.459 314.199 276.991C315.552 275.64 316.636 274.058 317.969 272.685L319.322 273.071L331.047 272.751L336.973 272.4L337.407 272.811C336.91 273.464 336.414 274.03 335.833 274.609L333.438 276.094C332.949 276.678 332.857 276.863 332.186 277.186L331.562 277.653C330.976 278.082 330.451 278.26 329.844 278.591L328.936 279.12C328.416 279.381 327.981 279.675 327.5 280L316.406 288.125C315.64 288.677 314.872 289.318 314.219 290L313.752 290.002C313.241 290.61 312.818 291.084 312.188 291.562L311.777 291.904C311.35 292.254 310.93 292.516 310.469 292.812L307.651 294.683C306.097 295.719 303.959 297.109 303.203 298.828L302.812 299.688L304.844 300C305.293 300.547 305.469 300.85 305.469 301.562L305.137 301.611C304.128 301.813 303.224 302.52 302.29 302.944L280.098 314.668C279.477 315.002 279.761 314.9 279.064 315.002L271.987 318.862C268.426 320.481 259.995 324.544 256.875 326.562L252.617 328.721C252.113 328.992 251.761 329.029 251.25 329.219L247.93 330.908C246.84 331.495 245.721 331.61 244.642 332.341C243.901 332.413 243.206 332.579 242.5 332.812L241.148 332.714L96.3121 271.668C94.6875 270.595 92.8474 270.118 91.3098 268.83L89.3577 267.344C92.2148 261.138 97.6365 259.648 103.512 256.954L121.711 248.607L129.749 244.687Z"/>
	<path fill="#DAD2D0" transform="matrix(0.0375 0 0 0.0375 0 1.90735e-06)" d="M260.225 288.223C261.119 287.321 262.445 286.582 263.575 286.018L265.938 284.847C266.791 284.267 267.017 284.092 268.041 283.829C267.675 285.662 266.136 286.483 264.453 287.422L264.062 287.264C262.482 287.81 262.007 288.36 260.225 288.223Z"/>
	<path fill="#DAD2D0" transform="matrix(0.0375 0 0 0.0375 0 1.90735e-06)" d="M319.322 273.071L331.047 272.751C328.98 274.258 326.172 275.054 323.672 275.47L322.966 275.625C322.529 275.082 322.301 274.766 321.716 274.375L321.841 273.28C321.017 273.223 320.13 273.232 319.322 273.071Z"/>
	<path fill="#DAD2D0" transform="matrix(0.0375 0 0 0.0375 0 1.90735e-06)" d="M363.342 200.669L365.62 201.89C357.889 204.76 350.689 209.627 343.352 213.398L342.796 212.557L363.342 200.669Z"/>
	<path fill="#DAD2D0" transform="matrix(0.0375 0 0 0.0375 0 1.90735e-06)" d="M348.158 194.196C349.016 194.527 349.867 194.908 350.764 195.115C344.428 201.262 332.858 208.4 324.744 211.025L324.595 210.04C325.932 208.569 328.471 207.37 330.164 206.291L340.514 199.53C343.136 197.81 345.81 196.292 348.158 194.196Z"/>
	<path fill="#DAD2D0" transform="matrix(0.0375 0 0 0.0375 0 1.90735e-06)" d="M269.078 223.791L308.278 201.094L270.123 223.959C268.709 225.361 266.874 226.332 265.322 227.576L264.665 228.093C264.068 228.387 264.096 228.288 263.516 228.123L262.344 228.278L261.821 227.969C264.29 226.667 266.514 224.919 269.078 223.791Z"/>
	<path fill="#A79A92" transform="matrix(0.0375 0 0 0.0375 0 1.90735e-06)" d="M324.595 210.04L324.744 211.025C320.279 212.644 316.277 215.777 312.147 218.09L295.89 226.687L263.597 248.594C272.84 239.419 284.522 232.28 295.853 225.987L324.595 210.04Z"/>
	<path fill="#A79A92" transform="matrix(0.0375 0 0 0.0375 0 1.90735e-06)" d="M342.796 212.557L343.352 213.398L297.996 238.465L238.604 276.375C237.02 277.413 235.23 278.529 233.358 278.866C234.039 278.136 234.827 277.884 235.624 277.352L294.781 239.603C295.794 238.964 296.745 238.437 297.837 237.95C301.035 233.756 335.73 216.597 342.796 212.557Z"/>
	<path fill="#DAD2D0" transform="matrix(0.0375 0 0 0.0375 0 1.90735e-06)" d="M382.348 208.397L385.523 209.74L395.677 213.895L369.116 228.57C365.079 231.239 359.827 232.686 356.092 235.616L338.81 245.138C334.409 247.971 317.983 256.334 314.081 257.123C311.92 255.101 309.966 253.885 307.152 252.948C305.056 252.479 302.897 252.452 300.76 252.343C305.849 251.607 310.085 246.956 314.333 244.219C323.992 237.994 337.654 230.28 348.204 226.333L351.806 225.107C352.568 224.627 353.107 224.164 354.035 224.179C355.609 222.978 357.347 222.172 359.073 221.224L369.576 215.841C373.203 214.094 380.347 211.791 382.348 208.397Z"/>
</svg>
