<?xml version="1.0" encoding="utf-8" ?>
<svg xmlns="http://www.w3.org/2000/svg" xmlns:xlink="http://www.w3.org/1999/xlink" width="24" height="24">
	<path fill="#807369" transform="matrix(0.0375 0 0 0.0375 0 1.90735e-06)" d="M461.313 504.601C463.44 502.62 465.881 500.997 468.169 499.208L478.228 490.792C481.538 487.889 484.087 484.482 487.197 481.445L487.41 481.242L487.258 481.852C487.071 482.554 486.817 482.883 486.35 483.438L485.499 484.51C486.155 485.034 486.357 485.269 487.188 485.469L488.266 484.276C488.913 483.537 489.359 483.418 490.307 483.196C481.734 492.173 472.985 499.245 462.76 506.132C463.025 505.183 463.182 505.062 463.906 504.375L462.971 504.143C462.45 504.365 462.36 504.529 461.742 504.583L461.313 504.601Z"/>
	<defs>
		<linearGradient id="gradient_0" gradientUnits="userSpaceOnUse" x1="84.183456" y1="344.32471" x2="443.0549" y2="306.69498">
			<stop offset="0" stop-color="#453C37"/>
			<stop offset="1" stop-color="#6D5945"/>
		</linearGradient>
	</defs>
	<path fill="url(#gradient_0)" transform="matrix(0.0375 0 0 0.0375 0 1.90735e-06)" d="M274.509 86.876L278.679 86.9177L278.906 87.5C277.91 88.0015 276.859 88.0569 275.781 88.2844L274.82 88.93C250.238 94.1875 228.049 102.393 206.496 115.181L197.485 120.469C173.91 135.638 154.408 153.898 139.218 177.346C137.775 179.574 132.417 184.438 134.724 187.031L133.965 187.965C129.44 193.215 126.785 200.984 123.887 207.246C123.252 208.699 122.766 209.314 123.169 210.941C118.039 217.516 108.797 242.686 107.062 250.222C106.604 251.152 106.294 251.883 106.157 252.915L106.001 253.377C104.673 257.249 102.915 261.112 102.583 265.247L102.568 267.731C101.192 270.303 101.054 274.555 100.388 277.449L100.757 279.151C98.981 281.335 98.9478 286.537 98.7254 289.346C98.2876 291.049 98.4089 292.775 98.4572 294.516L97.78 303.676L97.7576 305.312L97.527 315.421L97.4449 317.89C97.7487 320.521 98.4616 325.738 97.527 328.037L98.2781 331.465L99.1075 340.804L99.5185 343.036C100.052 346.056 100.208 349.153 100.984 352.118L105.065 350.938C103.941 351.859 102.528 352.294 101.169 352.749L102.969 363.676L103.233 365.247C103.733 367.468 104.942 375.854 106.564 377.015L107.197 376.885L107.08 377.674L109.008 386.406C109.587 386.632 109.699 386.631 110.289 386.573L110.28 387.456L113.081 397.485L113.483 398.392L115.883 404.36C116.24 405.238 116.482 406.282 117.188 406.922L118.852 406.319L119.587 406.798C118.83 407.059 117.879 407.203 117.357 407.812C117.999 409.845 119.766 415.385 121.403 416.553L121.935 417.59C122.179 420.078 126.05 427.129 127.518 428.772L128.502 430.583C129.834 433.597 131.885 437.971 134.109 440.454L135.327 442.873L139.353 449.347L141.959 452.936C142.594 454.23 143.312 455.313 144.193 456.452L144.538 456.843C146.692 460.246 149.006 463.384 151.668 466.404L152.573 467.559L161.483 477.744L162.23 478.523L169.522 486.483L169.995 486.662L175.737 492.526L176.817 493.592C179.179 495.778 181.614 498.421 184.211 500.305L185.656 501.487C188.247 503.866 191.192 506.341 194.219 508.14L194.52 507.846C195.01 507.396 195.52 507.062 196.072 506.696L196.025 509.614L204.32 515.518L205.1 516.09L212.077 520.489L214.941 522.481L223.913 527.892C224.57 528.358 225.211 528.834 225.928 529.207L232.236 532.417L233.634 533.203L238.983 535.514L240.339 536.206L246.606 538.835L256.971 542.201C258.654 542.714 260.684 543.52 262.426 543.714L269.027 545.498L292.913 550.166L298.582 551.249C310.787 553.937 337.455 553.008 350.358 550.753C353.029 550.567 355.672 549.839 358.28 549.27L363.742 548.229C370.219 546.851 376.81 546.23 383.281 544.69C411.767 537.911 439.199 523.824 461.313 504.601L461.742 504.583C462.36 504.529 462.45 504.365 462.971 504.143L463.906 504.375C463.182 505.062 463.025 505.183 462.76 506.132L448.123 517.355C423.934 535.425 404.81 543.908 374.88 550.867L363.906 552.895C358.892 553.894 351.467 554.413 346.233 554.72L328.047 554.943C320.709 554.956 313.187 555.24 305.863 554.789C256.159 551.728 203.105 532.37 165.631 499.236C158.696 494.588 151.933 486.591 146.354 480.486C129.294 461.343 115.157 440.064 104.45 416.758L99.3105 404.407C90.8545 383.662 86.3002 361.012 83.5199 338.897L82.5895 333.489C81.1273 322.336 81.2421 301.037 82.7168 289.157C83.1435 285.719 83.984 282.178 84.6024 278.753C86.068 270.638 84.9217 270.121 88.3031 261.215L88.4114 260.938C86.6261 258.468 88.5705 254.824 89.4934 252.348L100.433 224.13C106.543 210.408 114.479 196.838 122.854 184.375C145.255 151.036 186.097 119.605 222.991 102.695C239.232 95.2514 256.997 90.2498 274.509 86.876Z"/>
	<path fill="#5A544A" transform="matrix(0.0375 0 0 0.0375 0 1.90735e-06)" d="M148.401 479.473C149.282 479.249 149.724 478.912 150.549 479.375L150.38 480.989C149.661 480.554 149.042 480.011 148.401 479.473Z"/>
	<path fill="#5A544A" transform="matrix(0.0375 0 0 0.0375 0 1.90735e-06)" d="M131.539 451.719C134.215 451.775 131.833 453.403 130.781 453.913L129.781 453.906C130.163 452.874 130.712 452.421 131.539 451.719Z"/>
	<path fill="#4A3C36" transform="matrix(0.0375 0 0 0.0375 0 1.90735e-06)" d="M102.766 395.156C105.089 394.74 108.129 394.502 105.469 397.219C103.892 397.888 102.875 397.15 101.783 395.997L102.766 395.156Z"/>
	<path fill="#4A3C36" transform="matrix(0.0375 0 0 0.0375 0 1.90735e-06)" d="M98.3303 383.906L99.7011 383.746C101.304 383.694 104.655 385.703 104.586 387.586L103.483 388.52L98.9715 389.529C98.6093 387.831 98.3495 386.202 97.8342 384.531L98.3303 383.906Z"/>
	<path fill="#4A3C36" transform="matrix(0.0375 0 0 0.0375 0 1.90735e-06)" d="M146.354 480.486L148.401 479.473C149.042 480.011 149.661 480.554 150.38 480.989C150.043 482.587 150.212 484.089 152.188 484.113L155.781 483.74L155.982 484.59C155.282 485.682 154.156 488.031 156.094 488.501L160.156 488.532C160.67 489.187 160.832 489.127 160.781 490L160.586 489.639C160.315 489.188 160.114 489.03 159.688 488.75L155.155 488.754L157.826 491.387C160.18 493.948 163.171 495.757 165.476 498.327L165.631 499.236C158.696 494.588 151.933 486.591 146.354 480.486Z"/>
	<path fill="#807369" transform="matrix(0.0375 0 0 0.0375 0 1.90735e-06)" d="M344.129 85.2748L350.255 85.848L350.778 87.1377L342.726 86.141C342.666 85.8296 341.502 85.8732 341.094 85.5081L344.129 85.2748Z"/>
	<path fill="white" transform="matrix(0.0375 0 0 0.0375 0 1.90735e-06)" d="M405.842 141.447L405.466 140.312C405.904 138.944 408.25 137.46 409.416 136.485L410.405 137.117C409.91 138.533 408.492 139.806 407.034 140.156L406.25 141.094L407.402 141.341L406.526 142.223L405.842 141.447Z"/>
	<path fill="#DAD2D0" transform="matrix(0.0375 0 0 0.0375 0 1.90735e-06)" d="M262.426 543.714C266.683 544.145 268.466 543.046 272.293 541.472L271.893 541.955C271.198 542.752 270.227 543.141 269.289 543.581L269.683 543.692C270.195 543.352 270.67 543.162 271.25 542.969L272.487 543.056C271.205 543.685 269.697 544.17 269.027 545.498L262.426 543.714Z"/>
	<path fill="#765F52" transform="matrix(0.0375 0 0 0.0375 0 1.90735e-06)" d="M350.255 85.848L355.659 86.4972L360.64 87.2973L359.777 88.6325L355.317 87.6915L350.778 87.1377L350.255 85.848Z"/>
	<path fill="#DAD2D0" transform="matrix(0.0375 0 0 0.0375 0 1.90735e-06)" d="M409.254 494.531C414.135 493.742 419.337 497.7 424.607 496.953C425.305 496.854 425.455 496.751 426.133 496.988L425.469 497.607C422.847 500.623 412.675 496.359 409.254 494.531Z"/>
	<defs>
		<linearGradient id="gradient_1" gradientUnits="userSpaceOnUse" x1="278.34195" y1="85.343071" x2="280.34348" y2="91.341316">
			<stop offset="0" stop-color="#80552E"/>
			<stop offset="1" stop-color="#A4998E"/>
		</linearGradient>
	</defs>
	<path fill="url(#gradient_1)" transform="matrix(0.0375 0 0 0.0375 0 1.90735e-06)" d="M282.455 85.9163L285.956 85.4329C286.57 85.7236 287.054 85.9786 287.566 86.4283L283.36 87.2572C277.062 89.228 276.486 92.5515 272.931 93.9488L278.696 88.3541C277.623 88.547 275.854 89.1207 274.82 88.93L275.781 88.2844C276.859 88.0569 277.91 88.0015 278.906 87.5L278.679 86.9177L274.509 86.876C276.855 86.1746 280.004 86.0452 282.455 85.9163Z"/>
	<path fill="#DAD2D0" transform="matrix(0.0375 0 0 0.0375 0 1.90735e-06)" d="M319.538 122.32L329.113 115.274L330.064 116.152L320.377 123.662C319.238 124.609 316.939 126.34 315.469 126.722C315.784 125.004 318.176 123.309 319.538 122.32Z"/>
	<path fill="#A79A92" transform="matrix(0.0375 0 0 0.0375 0 1.90735e-06)" d="M207.569 384.546L232.969 369.645L206.623 387.436C207.658 385.494 209.491 384.989 210.939 383.439L207.569 384.546Z"/>
	<path fill="#807369" transform="matrix(0.0375 0 0 0.0375 0 1.90735e-06)" d="M496.592 458.92L497.656 460.308C498.368 460.336 498.823 460.268 499.497 460.036L500.027 460.311C499.242 461.746 497.782 463.28 496.292 463.964C497.312 464.884 498.372 465.042 497.137 466.319L496.242 466.277C495.125 467.448 494.225 467.574 492.656 467.765L492.228 467.344C492.736 463.803 494.165 461.447 496.592 458.92Z"/>
	<path fill="#765F52" transform="matrix(0.0375 0 0 0.0375 0 1.90735e-06)" d="M496.242 466.277L493.694 465.781C494.495 464.989 495.309 464.508 496.292 463.964C497.312 464.884 498.372 465.042 497.137 466.319L496.242 466.277Z"/>
	<path fill="#DAD2D0" transform="matrix(0.0375 0 0 0.0375 0 1.90735e-06)" d="M280.25 479.251L310.156 463.07L281.935 480.235L281.688 479.862C282.132 479.438 281.909 479.604 282.421 479.296L283.203 478.752C283.944 478.626 284.528 478.313 285.064 477.779L285.314 477.502C286.177 477.375 288.414 476.296 289.102 475.611L289.377 475.314C290.099 475.208 291.214 474.837 291.406 474.062L280.25 479.251Z"/>
	<path fill="#DAD2D0" transform="matrix(0.0375 0 0 0.0375 0 1.90735e-06)" d="M521.442 337.299C522.142 339.297 528.325 335.131 529.893 334.261L535.758 331.334C539.32 329.356 542.351 327.4 546.193 325.899L545.935 326.69L545.664 326.847C541.706 329.188 539.937 330.47 535.519 332.701L528.068 336.481C526.306 337.363 524.514 338.451 522.494 338.452C520.348 338.452 518.658 340.77 516.775 341.757L517.812 340.312C518.752 339.573 519.715 338.911 520.472 337.969L519.162 337.993C519.993 337.574 520.517 337.391 521.442 337.299Z"/>
	<path fill="#DAD2D0" transform="matrix(0.0375 0 0 0.0375 0 1.90735e-06)" d="M221.82 406.341C225.575 402.765 235.343 397.425 239.909 395.303L221.509 408.248L215.377 412.233L215.36 411.65C214.67 411.913 214.889 411.778 214.338 412.163L215.459 411.084L215.298 410.481C215.474 410.181 216.228 409.825 216.548 409.618L221.82 406.341Z"/>
	<path fill="#DAD2D0" transform="matrix(0.0375 0 0 0.0375 0 1.90735e-06)" d="M424.611 126.358C426.732 124.633 433.363 120.906 435.469 122.659C434.549 124.104 427.489 126.323 425.658 127.31L418.35 131.977C415.618 133.552 412.592 134.801 410.405 137.117L409.416 136.485C411.287 134.308 413.426 133.615 415.781 132.163L424.611 126.358Z"/>
	<path fill="#DAD2D0" transform="matrix(0.0375 0 0 0.0375 0 1.90735e-06)" d="M267.557 123.34L267.7 124.122L269.941 123.701C268.79 124.84 268.173 125.092 268.092 126.771C266.29 128.103 264.146 129.094 262.125 130.053C262.348 130.335 262.549 130.615 262.815 130.857C261.956 131.381 260.263 132.51 259.281 132.681C257.503 133.974 255.269 134.918 253.308 135.934L239.744 142.351C235.959 143.931 235.082 144.116 239.223 142.169L245.352 139.224C250.082 136.759 254.41 133.691 259.042 131.091L259.69 130.501C262.105 127.851 264.742 125.549 267.557 123.34Z"/>
	<path fill="#DAD2D0" transform="matrix(0.0375 0 0 0.0375 0 1.90735e-06)" d="M434.96 132.174C437.275 129.765 440.364 127.444 443.123 125.552L443.692 125.781C443.912 129.522 437.635 131.742 434.909 133.238C432.307 134.108 429.557 136.182 427.043 137.419L413.041 144.226C410.78 145.3 408.441 146.06 406.321 147.424L406.03 147.616C410.34 143.042 416.186 141.284 421.728 138.663L434.96 132.174Z"/>
	<path fill="#DAD2D0" transform="matrix(0.0375 0 0 0.0375 0 1.90735e-06)" d="M511.778 267.383C513.636 266.079 515.859 265.25 517.85 264.159L530.484 257.369C532.381 256.462 534.604 256.229 536.266 254.941C536.454 255.502 536.596 256.13 536.918 256.627C534.234 257.573 532.241 259.214 529.757 260.49L518.414 265.838C514.725 267.673 511.095 269.907 507.242 271.382L507.366 270.831C507.98 270.227 508.581 269.853 509.375 269.534L511.564 268.439C512.62 268.271 513.493 267.436 514.464 267.004L517.344 265.472C515.519 265.414 513.88 267.436 511.778 267.383Z"/>
	<path fill="#DAD2D0" transform="matrix(0.0375 0 0 0.0375 0 1.90735e-06)" d="M190.352 471.719L205.312 461.403C205.321 463.887 193.283 471.855 190.877 473.295L181.336 479.598C177.857 482.482 174.001 484.643 169.995 486.662L169.522 486.483C172.643 483.227 177.627 480.033 181.452 477.637C182.431 476.094 188.699 472.666 190.352 471.719Z"/>
	<path fill="#DAD2D0" transform="matrix(0.0375 0 0 0.0375 0 1.90735e-06)" d="M540.123 369.27L539.688 368.903C534.623 371.181 529.647 375.051 524.948 378.06C514.286 384.89 498.091 396.346 485.358 397.712L496.678 392.396C501.918 390.173 507.2 388.194 512.073 385.189L533.836 371.108C535.88 369.726 537.799 367.707 540.24 367.104C540.223 367.459 540.267 369.067 540.123 369.27Z"/>
	<path fill="#A79A92" transform="matrix(0.0375 0 0 0.0375 0 1.90735e-06)" d="M362.608 89.1968L364.741 89.6888C358.238 93.4935 352.649 99.0067 346.396 103.238L330.064 116.152L329.113 115.274L347.13 100.638C347.67 99.1967 361.111 89.9945 362.608 89.1968Z"/>
	<defs>
		<linearGradient id="gradient_2" gradientUnits="userSpaceOnUse" x1="286.19882" y1="113.46549" x2="280.67618" y2="108.72201">
			<stop offset="0" stop-color="#D8AA93"/>
			<stop offset="1" stop-color="#E7D9C9"/>
		</linearGradient>
	</defs>
	<path fill="url(#gradient_2)" transform="matrix(0.0375 0 0 0.0375 0 1.90735e-06)" d="M299 97.5807L299.531 98.2844C298.939 98.9279 298.317 99.8838 297.5 100.156L296.816 101.633L269.941 123.701L267.7 124.122L267.557 123.34L299 97.5807Z"/>
	<path fill="#DAD2D0" transform="matrix(0.0375 0 0 0.0375 0 1.90735e-06)" d="M527.996 229.387L528.585 230.971C523.273 232.26 505.807 242.405 501.25 245.308L488.164 254.219C480.785 259.073 472.23 263.958 464.062 267.235L463.842 266.984C472.269 263.108 480.792 258.253 488.465 253.048L503.516 242.507C508.65 239.206 514.322 235.784 519.781 233.06L527.996 229.387Z"/>
	<path fill="#DAD2D0" transform="matrix(0.0375 0 0 0.0375 0 1.90735e-06)" d="M446.469 264.256L442.294 266.995L444.062 266.409C444.325 266.235 444.729 266.217 445 266.094L445.312 265.861C445.812 265.529 446.398 265.44 446.875 265.156L447.188 264.847C447.385 264.716 447.942 264.596 448.125 264.531L448.391 264.402C448.909 264.209 449.496 264.315 450.033 264.351L437.349 269.865C433.214 271.424 429.313 272.989 425.394 275.062L403.75 287.245C401.774 288.328 398.764 290.435 396.562 290.784L434.077 267.358L435.171 267.999C433.843 269.075 432.496 270.112 431.321 271.358L436.573 269.092L446.469 264.256Z"/>
	<path fill="#DAD2D0" transform="matrix(0.0375 0 0 0.0375 0 1.90735e-06)" d="M194.599 453.941C198.769 450.761 203.239 449.881 208.281 449.09L208.684 449.298C202.793 451.606 201.545 450.915 195.232 455.388C193.775 456.224 192.277 457.342 190.77 458.045L162.23 478.523L161.483 477.744C164.246 473.497 184.962 459.803 189.349 457.274C190.803 455.933 192.881 454.927 194.599 453.941Z"/>
	<path fill="#DAD2D0" transform="matrix(0.0375 0 0 0.0375 0 1.90735e-06)" d="M485.867 160.873L486.861 162.441L483.489 163.891L483.464 163.934C480.154 165.973 476.342 167.141 472.812 168.752L442.259 181.994C438.885 183.372 435.463 185.37 431.875 186.091C433.586 184.954 435.7 184.241 437.572 183.395L474.445 166.116C477.17 164.911 479.759 163.443 482.563 162.418L485.867 160.873Z"/>
	<path fill="#DAD2D0" transform="matrix(0.0375 0 0 0.0375 0 1.90735e-06)" d="M420.618 109.309L421.937 110.037L374.502 133.602C374.076 133.781 373.732 133.85 373.278 133.906L415.57 110.869C417.174 110.037 418.869 109.705 420.618 109.309Z"/>
	<path fill="#DAD2D0" transform="matrix(0.0375 0 0 0.0375 0 1.90735e-06)" d="M161.88 404.837C165.147 402.61 168.87 400.771 172.373 398.933L193.034 389.029C190.796 391.07 188.555 391.874 185.957 393.281L170.013 401.947C167.85 403.143 165.869 404.648 163.658 405.746C161.356 407.188 158.866 408.207 156.467 409.469L145.264 415.23C142.97 416.307 140.497 417.096 138.3 418.356L129.847 422.344C130.919 421.121 133.209 420.12 134.656 419.326L149.873 411.483C153.927 409.308 157.725 406.868 161.88 404.837Z"/>
	<path fill="#DAD2D0" transform="matrix(0.0375 0 0 0.0375 0 1.90735e-06)" d="M545.138 301.456L545.264 303.474L544.561 303.764C541.621 304.925 539.119 307.341 536.334 308.906L487.5 337.744C481.919 340.724 475.99 342.86 470.312 345.638L471.026 344.844C473.577 343.321 476.39 342.382 479.026 341.04L500.45 329.739C504.947 327.156 509.347 323.989 513.673 321.119L528.11 311.897C533.493 308.476 538.842 305.041 544.844 302.818L545.138 301.456Z"/>
	<path fill="#DAD2D0" transform="matrix(0.0375 0 0 0.0375 0 1.90735e-06)" d="M498.412 176.665L499.9 178.317L498.604 179.077C496.43 179.053 491.767 181.712 489.171 182.357L457.312 196.759L439.445 204.487L439.34 203.696L442.011 202.325L455.303 196.007L489.491 180.527C489.797 180.222 490.916 179.892 491.385 179.684L498.412 176.665Z"/>
	<path fill="#DAD2D0" transform="matrix(0.0375 0 0 0.0375 0 1.90735e-06)" d="M174.996 440.957C191.103 434.849 202.201 427.036 217.278 419.999C215.501 421.963 213.437 422.943 211.219 424.293L194.899 433.398C187.345 437.481 183.862 438.943 176.057 442.119C170.519 444.301 164.897 446.583 159.587 449.277C154.59 451.813 149.893 455.06 144.538 456.843L144.193 456.452C147.32 453.184 169.6 443.095 174.996 440.957Z"/>
	<path fill="#A79A92" transform="matrix(0.0375 0 0 0.0375 0 1.90735e-06)" d="M226.898 498.609C232.21 493.692 238.871 489.787 244.758 485.586L257.5 476.602C258.891 475.659 260.464 473.876 262.203 473.906C261.812 475.418 257.186 478.162 255.783 479.166L235.864 493.805C233.279 495.71 230.668 498.112 227.874 499.662C222.435 504.547 215.803 508.841 209.676 512.823L207.115 514.843L205.1 516.09L204.32 515.518C204.924 514.261 205.298 514.137 206.444 513.405L209.349 511.351L221.467 502.404C223.168 501.144 224.984 499.49 226.898 498.609Z"/>
	<path fill="#A79A92" transform="matrix(0.0375 0 0 0.0375 0 1.90735e-06)" d="M153.152 187.341C158.397 183.271 164.804 180.312 170.469 176.838L154.162 188.726C149.258 193.138 135.582 202.732 129.437 206.016C127.229 207.556 125.089 209.041 123.169 210.941C122.766 209.314 123.252 208.699 123.887 207.246L129.275 203.855C129.886 202.19 150.291 188.867 153.152 187.341Z"/>
	<path fill="#A79A92" transform="matrix(0.0375 0 0 0.0375 0 1.90735e-06)" d="M255.089 508.376C257.918 506.575 282.961 491.314 284.284 491.3C283.721 492.155 282.69 492.666 281.844 493.22L264.286 504.576C261.648 506.269 259.113 508.111 256.317 509.537L225.928 529.207C225.211 528.834 224.57 528.358 223.913 527.892L255.089 508.376Z"/>
	<path fill="#DAD2D0" transform="matrix(0.0375 0 0 0.0375 0 1.90735e-06)" d="M385.978 95.3983C388.557 95.938 390.752 96.8082 393.16 97.8584C392.031 98.2232 391.287 98.1179 390.121 97.9257C386.761 97.3721 372.579 108.12 368.956 110.477L342.035 126.283C341.075 126.847 340.345 127.482 339.219 127.679C339.818 126.796 340.899 126.287 341.774 125.687L362.402 112.813L385.978 95.3983Z"/>
	<path fill="#A79A92" transform="matrix(0.0375 0 0 0.0375 0 1.90735e-06)" d="M159.674 385.719L205.325 359.604C204.107 360.975 203.149 361.772 201.562 362.728L171.312 380.612C167.535 382.776 163.77 385.289 159.818 387.109L138.68 397.742C133.754 400.475 124.918 404.935 119.587 406.798L118.852 406.319L138.098 396.361L159.674 385.719Z"/>
	<path fill="#DAD2D0" transform="matrix(0.0375 0 0 0.0375 0 1.90735e-06)" d="M533.822 348.917L544.859 342.593C544.765 343.251 544.743 344.434 544.499 345.02L543.906 344.909C542.153 346.215 536.595 350.001 534.391 350.433L521.296 358.328C521.287 358.373 514.141 363.857 513.597 364.219C509.865 366.699 506.655 370.264 502.825 372.684L468.959 392.918C470.88 389.704 481.834 384.462 485.205 382.449L504.099 369.679C509.498 365.556 514.503 360.654 520.518 357.32L533.822 348.917Z"/>
	<defs>
		<linearGradient id="gradient_3" gradientUnits="userSpaceOnUse" x1="432.03528" y1="153.19052" x2="434.40866" y2="161.39946">
			<stop offset="0" stop-color="#E1CAC6"/>
			<stop offset="1" stop-color="#F4E8EB"/>
		</linearGradient>
	</defs>
	<path fill="url(#gradient_3)" transform="matrix(0.0375 0 0 0.0375 0 1.90735e-06)" d="M466.812 141.843L468.591 144.042C456.708 148.957 447.478 154.527 434.913 158.906L415.917 165.724C410.692 167.737 405.851 170.451 400.469 172.027L400.724 170.839C402.079 168.015 420.997 161.483 423.974 160.804C432.566 158.596 446.1 152.905 453.842 149.08C458.241 146.796 462.776 144.748 466.812 141.843Z"/>
	<path fill="#DAD2D0" transform="matrix(0.0375 0 0 0.0375 0 1.90735e-06)" d="M523.978 288.52C528.493 285.417 536.019 280.269 541.406 279.699L541.86 280.156C540.305 282.03 528.306 288.232 525.357 289.468L510.902 297.847C508.726 299.033 506.36 300.532 504.058 301.392C502.686 302.622 500.533 303.554 498.929 304.466C485.416 312.155 473.914 314.959 460.312 321.357L459.942 321.094C468.096 315.958 477.2 313.476 485.802 309.483C491.748 306.723 497.197 302.728 503.24 300.158L523.978 288.52Z"/>
	<path fill="#A79A92" transform="matrix(0.0375 0 0 0.0375 0 1.90735e-06)" d="M184.211 500.305L222.995 473.899L237.506 462.61C239.203 461.259 240.723 459.445 242.656 458.456C239.92 464.015 221.004 477.63 214.202 482.342L198.84 493.117C194.873 495.854 190.49 500.409 185.656 501.487L184.211 500.305Z"/>
	<path fill="#DAD2D0" transform="matrix(0.0375 0 0 0.0375 0 1.90735e-06)" d="M164.697 423.609C168.814 420.758 173.495 418.623 177.825 416.094C188.082 410.102 197.337 403.533 205.781 395.153L204.921 396.96C200.562 404.056 177.165 420.171 167.702 423.892C163.681 426.477 159.242 428.53 155.056 430.85L141.557 438.99C139.49 440.273 137.177 441.267 135.327 442.873L134.109 440.454L164.697 423.609Z"/>
	<path fill="#DAD2D0" transform="matrix(0.0375 0 0 0.0375 0 1.90735e-06)" d="M509.033 352.984C512.878 349.743 522.483 344.611 527.119 342.344L539.828 336.128C541.843 335.121 543.927 334.314 545.802 333.047L545.916 334.519C539.626 338.658 534.117 340.351 527.752 343.813L516.234 350.679C514.1 351.986 511.896 353.503 509.587 354.469L501.233 359.468L493.429 364.147C488.546 366.963 456.23 385.532 453.29 384.844L492.026 363.151L499.925 358.46L509.033 352.984Z"/>
	<path fill="#DAD2D0" transform="matrix(0.0375 0 0 0.0375 0 1.90735e-06)" d="M476.113 218.836L512.158 198.576L512.829 200.221C513.473 200.374 513.24 200.26 513.695 200.648C512.14 201.346 511.005 202.763 509.531 203.662L497.747 210.494C494.643 212.215 491.461 213.217 488.26 214.667L475.609 220.851L475.605 220.875C464.586 226.97 452.955 231.882 441.562 237.205L435.781 239.995C434.705 240.55 433.75 241.204 432.556 241.483L476.113 218.836Z"/>
	<path fill="#A79A92" transform="matrix(0.0375 0 0 0.0375 0 1.90735e-06)" d="M121.403 416.553L147.707 404.475L201.353 374.204C202.799 373.295 204.645 371.799 206.269 371.344C190.971 383.643 165.074 398.934 147.812 406.877C139.347 410.772 130.361 413.589 121.935 417.59L121.403 416.553Z"/>
	<path fill="#DAD2D0" transform="matrix(0.0375 0 0 0.0375 0 1.90735e-06)" d="M405.842 141.447L406.526 142.223C401.657 145.66 396.741 147.728 391.339 150.1L377.461 156.245C371.932 158.628 366.492 161.31 360.805 163.299L306.788 196.341C307.574 194.67 315.933 189.702 317.981 188.328L353.485 164.967C357.639 162.241 361.594 159.13 365.897 156.649L365.633 157.2C364.868 158.648 362.121 159.908 360.741 160.802L351.755 166.875C349.601 168.262 346.448 169.649 344.766 171.484C345.796 171.337 348.032 169.736 348.906 169.062L349.854 168.588C350.363 168.341 350.708 168.061 351.094 167.659L353.272 166.497C353.722 166.271 353.902 166.155 354.219 165.784L354.534 165.781C355.233 165.608 355.675 165.205 356.25 164.847L359.141 163.408C360.417 162.77 360.889 161.562 361.953 160.627L362.256 160.354C363.369 159.403 361.379 161.101 362.891 160.002L364.141 159.064C364.6 158.905 364.973 158.608 365.345 158.308L366.531 158.205L364.376 159.66C366.641 159.997 374.372 155.732 376.9 154.531L397.356 145.083C400.256 143.776 402.726 142.283 405.842 141.447Z"/>
	<path fill="#DAD2D0" transform="matrix(0.0375 0 0 0.0375 0 1.90735e-06)" d="M268.54 533.262L285.724 522.086C290.702 518.819 317.189 501.221 321.866 501.01L321.408 501.317C318.681 503.162 316.343 505.416 313.764 507.441L304.852 513.826C301.822 515.888 298.442 517.271 295.296 519.139L271.406 533.642C271.053 533.829 270.058 534.486 269.713 534.513C268.236 535.683 260.92 540.345 259.531 540.533L259.219 540.088C262.058 537.429 265.174 535.201 268.54 533.262Z"/>
	<path fill="#A79A92" transform="matrix(0.0375 0 0 0.0375 0 1.90735e-06)" d="M374.566 91.7641C375.973 92.1163 377.487 92.589 378.748 93.3307C377.203 93.844 375.836 94.4642 374.378 95.1687C369.058 99.3889 355.843 109.085 350.022 111.685L333.47 121.16C327.735 125.183 320.652 128.162 314.455 131.495L287.769 146.094L333.454 119.385L341.517 114.806C342.156 114.024 343.658 113.362 344.531 112.789L364.043 99.5312C367.263 97.2628 370.547 95.2288 373.587 92.7044L374.566 91.7641Z"/>
	<path fill="#A79A92" transform="matrix(0.0375 0 0 0.0375 0 1.90735e-06)" d="M516.043 373.913C523.3 369.11 534.137 363.585 542.01 360.241L541.44 362.583C534.804 366.136 527.934 369.122 521.545 373.137C520.757 373.632 518.583 375.335 517.796 375.431C515.748 377.001 513.429 378.33 511.283 379.774L489.767 393.571C487.792 394.844 486.204 396.731 484.315 397.936L483.828 398.206C478.012 401.56 471.575 404.081 465.593 407.211C463.326 408.397 461.171 410.466 458.906 411.451C461.615 407.572 469.018 403.976 472.969 401.493L495.56 387.277C502.928 382.414 508.362 378.484 516.043 373.913Z"/>
	<path fill="#A79A92" transform="matrix(0.0375 0 0 0.0375 0 1.90735e-06)" d="M433.264 116.974L434.122 117.599L427.714 122.565C429.03 119.519 422.62 125.021 421.3 125.967C406.2 136.789 393.819 142.374 377.862 151.387L369.348 156.477C368.767 156.836 367.077 158.133 366.531 158.205L365.345 158.308C364.973 158.608 364.6 158.905 364.141 159.064L362.891 160.002C361.379 161.101 363.369 159.403 362.256 160.354L361.953 160.627C360.889 161.562 360.417 162.77 359.141 163.408L356.25 164.847C355.675 165.205 355.233 165.608 354.534 165.781L354.219 165.784C353.902 166.155 353.722 166.271 353.272 166.497L351.094 167.659C350.708 168.061 350.363 168.341 349.854 168.588L348.906 169.062C348.032 169.736 345.796 171.337 344.766 171.484C346.448 169.649 349.601 168.262 351.755 166.875L360.741 160.802C362.121 159.908 364.868 158.648 365.633 157.2L365.897 156.649C366.381 156.032 368.126 155.219 368.839 154.771L419.41 124.875C424.31 121.942 427.795 118.913 433.264 116.974Z"/>
	<defs>
		<linearGradient id="gradient_4" gradientUnits="userSpaceOnUse" x1="234.80838" y1="480.76291" x2="237.87534" y2="486.78534">
			<stop offset="0" stop-color="#B5928A"/>
			<stop offset="1" stop-color="#CCB4B0"/>
		</linearGradient>
	</defs>
	<path fill="url(#gradient_4)" transform="matrix(0.0375 0 0 0.0375 0 1.90735e-06)" d="M196.072 506.696L196.575 506.396C198.64 505.144 200.619 503.509 202.63 502.138L216.508 493.076L291.094 450.824L196.025 509.614L196.072 506.696Z"/>
	<defs>
		<linearGradient id="gradient_5" gradientUnits="userSpaceOnUse" x1="480.20139" y1="241.15256" x2="483.74881" y2="249.52005">
			<stop offset="0" stop-color="#D6A496"/>
			<stop offset="1" stop-color="#C2B8BC"/>
		</linearGradient>
	</defs>
	<path fill="url(#gradient_5)" transform="matrix(0.0375 0 0 0.0375 0 1.90735e-06)" d="M446.469 264.256L520.335 223.891C521.131 224.256 521.65 223.762 522.031 224.375L521.63 225.2C517.72 228.18 512.741 230.375 508.518 232.969L498.021 239.584C482.604 248.686 466.419 257.134 450.033 264.351C449.496 264.315 448.909 264.209 448.391 264.402L448.125 264.531C447.942 264.596 447.385 264.716 447.188 264.847L446.875 265.156C446.398 265.44 445.812 265.529 445.312 265.861L445 266.094C444.729 266.217 444.325 266.235 444.062 266.409L442.294 266.995L446.469 264.256Z"/>
	<defs>
		<linearGradient id="gradient_6" gradientUnits="userSpaceOnUse" x1="433.94748" y1="202.03734" x2="436.17862" y2="205.9991">
			<stop offset="0" stop-color="#AF8173"/>
			<stop offset="1" stop-color="#CDCDD2"/>
		</linearGradient>
	</defs>
	<path fill="url(#gradient_6)" transform="matrix(0.0375 0 0 0.0375 0 1.90735e-06)" d="M492.759 169.096L494.067 170.915L441.05 201.366L442.011 202.325L439.34 203.696L439.445 204.487L436.285 205.743L382.516 234.23C380.538 235.327 378.474 236.698 376.325 237.402C377.007 236.672 378.313 236.153 379.19 235.658L440.678 199.562L492.759 169.096Z"/>
	<path fill="white" transform="matrix(0.0375 0 0 0.0375 0 1.90735e-06)" d="M439.34 203.696C438.717 203.83 438.154 203.884 437.521 203.942L441.05 201.366L442.011 202.325L439.34 203.696Z"/>
	<path fill="#DAD2D0" transform="matrix(0.0375 0 0 0.0375 0 1.90735e-06)" d="M519.978 212.281C520.241 212.827 520.476 213.404 520.818 213.904C509.695 219.117 499.533 225.788 489.332 232.58L462.865 250.186C460.713 251.662 458.589 253.417 456.24 254.569L435.171 267.999L434.077 267.358L456.497 251.948C458.129 248.462 505.271 219.66 511.058 216.544L519.978 212.281Z"/>
	<path fill="#A79A92" transform="matrix(0.0375 0 0 0.0375 0 1.90735e-06)" d="M434.077 267.358L456.497 251.948L454.966 253.941C452.04 256.38 447.167 258.325 444.844 261.25L447.075 259.941C447.951 259.066 446.463 260.562 447.891 259.377L448.95 258.687C449.364 258.272 449.106 258.535 449.766 258.203L450.703 257.49C451.444 256.898 452.53 256.043 453.438 255.781L453.638 255.562C454.078 255.121 453.751 255.453 454.453 255.078L456.24 254.569L435.171 267.999L434.077 267.358Z"/>
	<path fill="#A79A92" transform="matrix(0.0375 0 0 0.0375 0 1.90735e-06)" d="M297.176 84.8274L325.38 84.7555C331.595 84.7566 337.948 84.5136 344.129 85.2018L341.094 85.5081C341.502 85.8732 342.666 85.8296 342.726 86.141C340.605 86.0797 338.635 86.0702 336.538 86.4284C335.538 86.8893 334.472 87.3117 333.554 87.9205L301.613 108.463C301.245 108.665 300.495 109.205 300.092 109.254L294.45 112.446L290.396 114.879L280.77 120.757C279.202 121.67 277.622 122.773 275.983 123.533C272.046 126.223 267.18 128.971 262.815 130.857C262.549 130.615 262.348 130.335 262.125 130.053C264.146 129.094 266.29 128.103 268.092 126.771L274.277 122.948C278.935 119.414 284.519 116.571 289.56 113.599L293.718 111.206L298.461 108.331L317.5 96.3119C322.453 93.0463 327.11 89.3385 332.48 86.7768L332.275 85.9419L322.237 85.743C319.328 85.6327 316.457 85.3928 313.576 85.9394C310.059 90.1557 306.27 93.7442 301.973 97.1722L296.816 101.633L297.5 100.156C298.317 99.8838 298.939 98.9279 299.531 98.2844L299 97.5807L301.239 95.7614L306.988 90.7571C308.936 89.1867 310.982 87.783 312.635 85.8831L297.955 85.9074C294.81 86.1066 290.662 86.7848 287.566 86.4076C287.054 85.9786 286.57 85.7236 285.956 85.4329L297.176 84.8274Z"/>
	<path fill="#9E7D54" transform="matrix(0.0375 0 0 0.0375 0 1.90735e-06)" d="M285.956 85.4329L297.176 84.8274L305.939 85.3928C305.345 85.9737 299.239 85.8669 297.955 85.9011C294.81 86.1066 290.662 86.7848 287.566 86.4076C287.054 85.9786 286.57 85.7236 285.956 85.4329Z"/>
	<path fill="#A79A92" transform="matrix(0.0375 0 0 0.0375 0 1.90735e-06)" d="M456.466 133.315L457.493 134.523C454.657 135.257 452.284 136.775 449.772 138.233L423.735 154.504L423.336 154.67C420.663 155.601 418.692 157.317 416.675 159.237L398.864 169.055C396.213 170.657 393.913 172.688 391.325 174.366L359.062 193.72C351.277 198.654 361.885 191.272 363.947 189.92L418.29 154.405C430.612 146.687 443.054 139.033 456.466 133.315Z"/>
	<defs>
		<linearGradient id="gradient_7" gradientUnits="userSpaceOnUse" x1="168.50125" y1="367.62372" x2="170.95596" y2="372.1698">
			<stop offset="0" stop-color="#A47868"/>
			<stop offset="1" stop-color="#CBB4AC"/>
		</linearGradient>
	</defs>
	<path fill="url(#gradient_7)" transform="matrix(0.0375 0 0 0.0375 0 1.90735e-06)" d="M225.834 340.92C225.954 341.502 226.002 341.604 226.391 342.054L207.429 352.605L180.71 365.076L132.867 390.346C132.14 390.742 129.571 392.339 128.78 392.304C126.249 393.522 113.815 398.145 113.483 398.392L113.081 397.485C119.815 395.888 126.666 391.355 132.895 388.352L188.476 358.904L219.575 344.154C221.673 343.055 223.926 342.358 225.834 340.92Z"/>
	<path fill="#A79A92" transform="matrix(0.0375 0 0 0.0375 0 1.90735e-06)" d="M215.298 410.481L215.459 411.084L214.338 412.163C214.889 411.778 214.67 411.913 215.36 411.65L215.377 412.233L141.959 452.936L139.353 449.347C144.586 446.547 150.272 444.803 156.25 441.544L178.638 429.215L215.298 410.481Z"/>
	<path fill="#A79A92" transform="matrix(0.0375 0 0 0.0375 0 1.90735e-06)" d="M477.693 151.877L480.114 154.561C475.011 156.387 470.332 159.506 465.702 162.277L420.619 188.163L377.034 211.094L477.693 151.877Z"/>
	<path fill="#A79A92" transform="matrix(0.0375 0 0 0.0375 0 1.90735e-06)" d="M280.25 479.251L291.406 474.062C291.214 474.837 290.099 475.208 289.377 475.314L289.102 475.611C288.414 476.296 286.177 477.375 285.314 477.502L285.064 477.779C284.528 478.313 283.944 478.626 283.203 478.752L282.421 479.296C281.909 479.604 282.132 479.438 281.688 479.862L281.935 480.235C273.277 486.21 263.816 491.161 254.844 496.653L231.765 511.453C226.141 515.052 220.162 518.275 214.941 522.481L212.077 520.489C213.762 519.189 215.697 518.332 217.502 517.218L235.456 504.721C249.726 495.247 264.754 486.549 280.25 479.251Z"/>
	<defs>
		<linearGradient id="gradient_8" gradientUnits="userSpaceOnUse" x1="169.10603" y1="404.6731" x2="171.96838" y2="410.18524">
			<stop offset="0" stop-color="#C5A498"/>
			<stop offset="1" stop-color="#D9C2C3"/>
		</linearGradient>
	</defs>
	<path fill="url(#gradient_8)" transform="matrix(0.0375 0 0 0.0375 0 1.90735e-06)" d="M207.569 384.546L210.939 383.439C209.491 384.989 207.658 385.494 206.623 387.436C194.819 398.739 181.732 404.764 167.999 412.503C163.907 414.809 160.272 417.52 155.915 419.417L143.146 424.909C139.19 426.633 135.134 428.655 130.938 429.743C130.068 429.968 129.153 429.891 128.502 430.583L127.518 428.772C136.799 426.712 144.528 421.775 152.648 417.148L167.129 409.311C174.287 405.292 181.836 401.704 188.77 397.312L207.569 384.546Z"/>
	<path fill="#A79A92" transform="matrix(0.0375 0 0 0.0375 0 1.90735e-06)" d="M214.259 433.256L249.818 412.021C250.633 411.493 251.393 410.695 252.344 410.492C249.44 413.183 246.026 415.403 242.755 417.622L225.839 428.539C223.085 430.284 220.259 432.569 217.325 433.944C209.402 441.701 182.756 452.778 171.936 458.354L161.88 463.809C158.804 465.531 156.2 467.513 152.573 467.559L151.668 466.404L214.259 433.256Z"/>
	<path fill="#DAD2D0" transform="matrix(0.0375 0 0 0.0375 0 1.90735e-06)" d="M158.084 217.35L116.19 236.096C124.711 228.241 160.724 212.693 172.15 209.74L171.031 213.548L170.763 213.8C169.767 214.767 168.8 215.174 167.504 215.942L118.989 245.781C116.996 246.963 114.594 248.641 112.35 249.256L112.268 249.251L111.294 248.389C112.992 246.777 116.078 245.429 118.125 244.072L148.175 225.379C152.114 223.026 155.714 220.413 159.791 218.264C159.204 217.783 158.781 217.636 158.084 217.35Z"/>
	<path fill="white" transform="matrix(0.0375 0 0 0.0375 0 1.90735e-06)" d="M158.084 217.35C160.158 216.217 162.807 215.118 165.154 214.757C163.431 216.054 161.718 217.278 159.791 218.264C159.204 217.783 158.781 217.636 158.084 217.35Z"/>
	<path fill="#A79A92" transform="matrix(0.0375 0 0 0.0375 0 1.90735e-06)" d="M292.913 550.166C294.072 549.203 295.044 549.581 296.345 549.104C303.463 546.49 309.252 540.173 315.528 536.085L383.125 496.246C386.58 494.385 389.956 492.275 393.594 490.784L391.301 492.702C387.252 494.981 383.509 498.175 379.694 500.841L361.562 512.476C352.788 517.715 343.558 521.876 334.589 526.717C322.191 533.409 309.28 541.97 298.582 551.249L292.913 550.166Z"/>
	<path fill="#A79A92" transform="matrix(0.0375 0 0 0.0375 0 1.90735e-06)" d="M175.737 492.526C180.828 487.923 187.014 484.077 192.641 480.13L201.139 474.035C222.87 459.738 246.325 447.885 269.062 435.309L176.817 493.592L175.737 492.526Z"/>
	<path fill="#A79A92" transform="matrix(0.0375 0 0 0.0375 0 1.90735e-06)" d="M540.126 269.133C540.274 269.922 540.368 270.774 540.612 271.536C534.488 275.877 527.902 279.558 521.421 283.341L489.421 301.044C479.89 305.849 469.831 310.292 460.647 315.714L421.097 338.281C428.959 331.667 450.54 319.318 459.517 314.64L540.126 269.133Z"/>
	<path fill="#A79A92" transform="matrix(0.0375 0 0 0.0375 0 1.90735e-06)" d="M506.352 188.273L507.544 190.285C500.868 195.447 493.113 199.572 485.938 204.033L433.257 236.668C432.818 236.935 432.013 237.554 431.54 237.673C429.304 239.561 426.355 241.11 423.832 242.596L384.222 266.094L431.004 236.053L445.649 225.616L487.761 199.926C493.955 196.353 500.809 192.793 506.352 188.273Z"/>
	<path fill="#A79A92" transform="matrix(0.0375 0 0 0.0375 0 1.90735e-06)" d="M544.137 291.724L544.419 295.11C544.444 295.581 544.43 295.413 544.607 295.936C543.005 296.687 541.559 297.777 540.003 298.632L524.411 307.485C506.886 318.005 483.714 333.972 465.029 341.687C463.727 342.664 462.119 343.362 460.693 344.15L416.577 368.906L465.899 338.858L543.968 294.307L544.137 291.724Z"/>
	<path fill="#A79A92" transform="matrix(0.0375 0 0 0.0375 0 1.90735e-06)" d="M272.293 541.472C286.544 535.201 299.173 526.888 312.277 518.601L339.384 502.329C348.263 497.166 356.932 491.646 366.875 488.749L367.031 488.991C362.963 490.921 359.789 492.919 356.094 495.506L317.9 520.753C314.815 522.588 311.519 524.082 308.325 525.718L279.307 540.169C277.07 541.175 274.826 542.31 272.487 543.056L271.25 542.969C270.67 543.162 270.195 543.352 269.683 543.692L269.289 543.581C270.227 543.141 271.198 542.752 271.893 541.955L272.293 541.472Z"/>
	<path fill="#A79A92" transform="matrix(0.0375 0 0 0.0375 0 1.90735e-06)" d="M421.795 502.468C432.14 493.522 430.997 492.516 446.42 488.457C439.689 493.537 430.334 497.92 422.953 503.305L400.061 519.653C396.568 523.052 391.867 525.789 388.045 528.893C383.519 532.569 379.427 536.815 374.782 540.335L367.478 545.727C366.392 546.479 364.531 547.218 363.742 548.229L358.28 549.27C355.672 549.839 353.029 550.567 350.358 550.753C357.933 544.358 368.645 541.347 375.02 533.443L375.28 533.112C376.319 531.831 377.022 528.882 378.065 528.059C378.865 527.428 381.177 527.224 382.243 526.727L397.605 518.672L421.795 502.468Z"/>
	<path fill="#A79A92" transform="matrix(0.0375 0 0 0.0375 0 1.90735e-06)" d="M403.684 101.817L405.734 102.685L407.189 103.429L409.397 103.988C406.167 106.765 402.556 108.713 398.889 110.846L368.281 129.549L294.844 170.714L373.914 121.077C375.717 117.643 388.887 110.371 393.121 107.966L403.684 101.817Z"/>
	<path fill="#DAD2D0" transform="matrix(0.0375 0 0 0.0375 0 1.90735e-06)" d="M403.684 101.817L405.734 102.685L407.189 103.429C401.174 108.765 392.933 112.079 386.044 116.179C382.79 119.126 377.771 121.688 373.594 123.284L373.203 123.439C372.494 123.675 371.88 123.582 371.15 123.539L373.914 121.077C375.717 117.643 388.887 110.371 393.121 107.966L403.684 101.817Z"/>
	<path fill="white" transform="matrix(0.0375 0 0 0.0375 0 1.90735e-06)" d="M405.734 102.685L407.189 103.429C401.174 108.765 392.933 112.079 386.044 116.179L386.124 115.648C387.049 114.941 388.324 114.515 389.127 113.717L389.377 113.439C390.073 113.337 389.789 113.44 390.41 113.105L394.175 111.05C395.995 110.222 397.647 108.933 399.531 108.125L398.84 107.699C395.508 107.816 392.41 112.222 389.404 111.979L405.734 102.685Z"/>
	<path fill="white" transform="matrix(0.0375 0 0 0.0375 0 1.90735e-06)" d="M457.493 134.523L466.812 141.843C462.776 144.748 458.241 146.796 453.842 149.08C446.1 152.905 432.566 158.596 423.974 160.804L423.748 159.998C424.064 159.042 424.172 158.471 424.739 157.572L424.45 157.476C422.347 157.921 420.373 158.765 418.281 159.154L417.859 159.238C417.456 159.303 417.078 159.269 416.675 159.237C418.692 157.317 420.663 155.601 423.336 154.67L423.735 154.504L449.772 138.233C452.284 136.775 454.657 135.257 457.493 134.523Z"/>
	<defs>
		<linearGradient id="gradient_9" gradientUnits="userSpaceOnUse" x1="440.60635" y1="146.12065" x2="448.14365" y2="151.37935">
			<stop offset="0" stop-color="#F9DFDF"/>
			<stop offset="1" stop-color="#F1EDED"/>
		</linearGradient>
	</defs>
	<path fill="url(#gradient_9)" transform="matrix(0.0375 0 0 0.0375 0 1.90735e-06)" d="M435.721 152.682L448.289 146.144C450.452 145.12 452.344 144.016 454.68 143.385L453.72 144.424L454.618 144.844L450.126 147.347L437.225 153.359L435.721 152.682Z"/>
	<path fill="#DAD2D0" transform="matrix(0.0375 0 0 0.0375 0 1.90735e-06)" d="M423.735 154.504L424.073 155.29C425.479 155.928 433.561 153.336 435.721 152.682L437.225 153.359L424.739 157.572L424.45 157.476C422.347 157.921 420.373 158.765 418.281 159.154L417.859 159.238C417.456 159.303 417.078 159.269 416.675 159.237C418.692 157.317 420.663 155.601 423.336 154.67L423.735 154.504Z"/>
	<path fill="#A79A92" transform="matrix(0.0375 0 0 0.0375 0 1.90735e-06)" d="M516.775 341.757L475.006 365.695L432.349 388.35C431.144 388.986 429.783 390.481 428.379 390.156L539.407 322.425C541.78 320.907 544.007 319.747 545.65 317.372L546.016 321.798C546.054 323.134 545.976 324.586 546.193 325.899C542.351 327.4 539.32 329.356 535.758 331.334L529.893 334.261C528.325 335.131 522.142 339.297 521.442 337.299C520.517 337.391 519.993 337.574 519.162 337.993L520.472 337.969C519.715 338.911 518.752 339.573 517.812 340.312L516.775 341.757ZM521.442 337.299C522.142 339.297 528.325 335.131 529.893 334.261L535.758 331.334C539.32 329.356 542.351 327.4 546.193 325.899C545.976 324.586 546.054 323.134 546.016 321.798L521.442 337.299Z"/>
	<path fill="#A79A92" transform="matrix(0.0375 0 0 0.0375 0 1.90735e-06)" d="M524.098 221.757C524.364 222.436 524.733 222.849 525.198 223.398L521.63 225.2L522.031 224.375C521.65 223.762 521.131 224.256 520.335 223.891L524.098 221.757Z"/>
	<defs>
		<linearGradient id="gradient_10" gradientUnits="userSpaceOnUse" x1="483.54907" y1="266.13339" x2="495.43488" y2="281.84473">
			<stop offset="0" stop-color="#C0AFAE"/>
			<stop offset="1" stop-color="#E6C7C4"/>
		</linearGradient>
	</defs>
	<path fill="url(#gradient_10)" transform="matrix(0.0375 0 0 0.0375 0 1.90735e-06)" d="M507.242 271.382C506.957 271.725 505.904 272.118 505.462 272.338L449.025 295.342C437.89 300.409 427.073 306.23 416.422 312.238C411.307 315.123 406.203 318.554 400.938 321.097L532.115 244.349L532.351 244.608C532.647 244.915 532.929 245.121 533.281 245.354L533.848 246.932C534.797 249.133 535.948 252.568 536.266 254.941C534.604 256.229 532.381 256.462 530.484 257.369L517.85 264.159C515.859 265.25 513.636 266.079 511.778 267.383C513.88 267.436 515.519 265.414 517.344 265.472L514.464 267.004C513.493 267.436 512.62 268.271 511.564 268.439L509.375 269.534C508.581 269.853 507.98 270.227 507.366 270.831L507.242 271.382ZM533.848 246.932C529.037 249.416 524.948 252.773 520.625 255.955C510.397 263.482 498.301 269.484 487.041 275.227L467.527 284.875C472.725 284.495 477.282 281.939 482.031 280.018L501.895 271.954C503.075 271.441 511.607 267.315 511.778 267.383C513.636 266.079 515.859 265.25 517.85 264.159L530.484 257.369C532.381 256.462 534.604 256.229 536.266 254.941C535.948 252.568 534.797 249.133 533.848 246.932Z"/>
	<defs>
		<linearGradient id="gradient_11" gradientUnits="userSpaceOnUse" x1="297.03125" y1="513.48969" x2="279.21875" y2="492.76031">
			<stop offset="0" stop-color="#B4A4A2"/>
			<stop offset="1" stop-color="#EBCDCA"/>
		</linearGradient>
	</defs>
	<path fill="url(#gradient_11)" transform="matrix(0.0375 0 0 0.0375 0 1.90735e-06)" d="M232.236 532.417C234.299 530.192 237.563 529.1 240.088 527.454L262.941 513.367L305.781 491.317L345.86 471.889C347.027 471.272 348.294 470.43 349.556 470.054L246.606 538.835L240.339 536.206L238.983 535.514L233.634 533.203L232.236 532.417ZM295.554 499.766L278.42 508.545C267.69 513.565 251.223 520.943 243.94 529.624C243.087 530.961 241.51 533.554 239.998 534.061L238.983 535.514L240.339 536.206C251.901 532.534 255.611 526.954 264.713 520.899L296.069 500.551L295.554 499.766Z"/>
	<path fill="#DAD2D0" transform="matrix(0.0375 0 0 0.0375 0 1.90735e-06)" d="M295.554 499.766L302.713 495.359C300.994 497.417 298.831 499.917 296.069 500.551L295.554 499.766Z"/>
	<path fill="white" transform="matrix(0.0375 0 0 0.0375 0 1.90735e-06)" d="M233.634 533.203C235.194 532.018 243.026 527.329 244.569 527.825C244.331 528.275 244.188 528.634 244.057 529.134L243.94 529.624C243.087 530.961 241.51 533.554 239.998 534.061L238.983 535.514L233.634 533.203Z"/>
	<defs>
		<linearGradient id="gradient_12" gradientUnits="userSpaceOnUse" x1="561.79199" y1="288.18134" x2="356.61749" y2="285.3075">
			<stop offset="0" stop-color="#443931"/>
			<stop offset="1" stop-color="#5A584F"/>
		</linearGradient>
	</defs>
	<path fill="url(#gradient_12)" transform="matrix(0.0375 0 0 0.0375 0 1.90735e-06)" d="M360.64 87.2973C368.417 87.955 376.327 89.3587 383.899 91.2604C391.239 92.5943 398.461 95.3487 405.473 97.8675C447.306 112.895 491.761 143.035 517.372 180.062L533.057 205.771C534.989 209.282 537.146 212.644 538.926 216.241C558.273 255.321 564.813 306.395 559.677 349.688C555.92 381.357 541.164 422.035 523.086 449.07C520.264 453.288 501.831 478.732 496.323 478.522C494.121 479.85 492.331 481.636 490.307 483.196C489.359 483.418 488.913 483.537 488.266 484.276L487.188 485.469C486.357 485.269 486.155 485.034 485.499 484.51L486.35 483.438C486.817 482.883 487.071 482.554 487.258 481.852L487.41 481.242C487.565 480.709 488.377 479.919 488.739 479.457C485.349 479.493 481.399 480.087 478.113 480.884C483.432 476.037 493.381 471.548 496.909 466.654L497.137 466.319C498.372 465.042 497.312 464.884 496.292 463.964C497.782 463.28 499.242 461.746 500.027 460.311L499.497 460.036C498.823 460.268 498.368 460.336 497.656 460.308L496.592 458.92L499.589 455.929C508.43 447.37 513.675 437.718 518.972 426.783L534.116 391.339L524.688 397.36C524.026 397.839 522.645 398.524 521.877 398.752L531.634 391.545C537.642 386.874 539.288 376.455 540.123 369.27C540.267 369.067 540.223 367.459 540.24 367.104L541.44 362.583L542.01 360.241L544.499 345.02C544.743 344.434 544.765 343.251 544.859 342.593C545.663 340.622 545.772 336.709 545.916 334.519L545.802 333.047C546.449 331.137 546.2 328.651 545.935 326.69L546.193 325.899C545.976 324.586 546.054 323.134 546.016 321.798L545.65 317.372C546.944 314.961 545.414 306.368 545.264 303.474L545.138 301.456L544.607 295.936C544.43 295.413 544.444 295.581 544.419 295.11L544.137 291.724C543.447 285.271 542.415 277.754 540.612 271.536C540.368 270.774 540.274 269.922 540.126 269.133C539.608 265.447 538.463 260.072 536.918 256.627C536.596 256.13 536.454 255.502 536.266 254.941C535.948 252.568 534.797 249.133 533.848 246.932L533.281 245.354C532.929 245.121 532.647 244.915 532.351 244.608L532.115 244.349L532.681 243.645C532.416 240.153 530.391 233.861 528.585 230.971L527.996 229.387C527.34 227.23 526.687 225.15 525.198 223.398C524.733 222.849 524.364 222.436 524.098 221.757C524.095 219.364 521.963 216.003 520.818 213.904C520.476 213.404 520.241 212.827 519.978 212.281C519.416 209.825 515.682 202.651 513.695 200.648C513.24 200.26 513.473 200.374 512.829 200.221L512.158 198.576C512.548 198.283 512.37 198.497 512.501 197.812L507.544 190.285L506.352 188.273C504.367 184.891 501.616 181.822 499.9 178.317L498.412 176.665L494.067 170.915L492.759 169.096C491.178 166.669 488.882 164.518 486.861 162.441L485.867 160.873C484.411 158.623 481.928 156.609 480.114 154.561L477.693 151.877L468.591 144.042L466.812 141.843L457.493 134.523L456.466 133.315C454.233 131.251 451.498 129.516 449.005 127.774L434.122 117.599L433.264 116.974L421.937 110.037L420.618 109.309L416.41 107.242C414.101 106.174 411.564 105.315 409.397 103.988L407.189 103.429L405.734 102.685L403.684 101.817L393.16 97.8584C390.752 96.8082 388.557 95.938 385.978 95.3983L383.123 94.5442L378.748 93.3307C377.487 92.589 375.973 92.1163 374.566 91.7641C371.481 90.7532 367.986 89.7222 364.741 89.6888L362.608 89.1968L359.777 88.6325L360.64 87.2973Z"/>
	<path fill="#5A544A" transform="matrix(0.0375 0 0 0.0375 0 1.90735e-06)" d="M555.375 337.656L555.931 339.844C555.877 340.689 555.465 341.011 554.844 341.49C554.376 340.846 554.207 339.994 554.091 339.219L555.375 337.656Z"/>
	<path fill="#5A544A" transform="matrix(0.0375 0 0 0.0375 0 1.90735e-06)" d="M556.63 318.906L556.971 318.949C557.426 319.833 556.911 321.639 556.719 322.653L556.094 322.589L555.042 321.868C554.947 320.86 556.037 319.75 556.63 318.906Z"/>
	<path fill="#4A3C36" transform="matrix(0.0375 0 0 0.0375 0 1.90735e-06)" d="M552.803 345.156L553.445 345.181C554.291 346.545 554.412 349.101 552.966 350.156C552.188 348.936 551.426 348.111 551.354 346.629L552.803 345.156Z"/>
	<path fill="#5A544A" transform="matrix(0.0375 0 0 0.0375 0 1.90735e-06)" d="M499.589 455.929C500.463 457.04 500.754 459.051 500.027 460.311L499.497 460.036C498.823 460.268 498.368 460.336 497.656 460.308L496.592 458.92L499.589 455.929Z"/>
	<path fill="#DAD2D0" transform="matrix(0.0375 0 0 0.0375 0 1.90735e-06)" d="M175.856 300.738C179.218 298.759 187.212 295.735 190.843 295.032C190.147 295.637 189.596 296.201 188.748 296.561L188.056 296.961C184.831 298.855 180.183 301.203 176.536 302.057C176.948 301.484 176.754 301.697 177.28 301.204L175.856 300.738Z"/>
	<path fill="#A79A92" transform="matrix(0.0375 0 0 0.0375 0 1.90735e-06)" d="M181.148 318.611C185.452 316.175 191.877 313.392 196.753 312.785L176.208 322.364C176.941 321.136 178.189 320.801 179.375 320.159L180.312 319.688C180.891 319.396 180.893 319.144 181.148 318.611Z"/>
	<path fill="#DAD2D0" transform="matrix(0.0375 0 0 0.0375 0 1.90735e-06)" d="M144.081 368.512C153.283 362.65 175.084 351.155 184.688 347.573L184.768 347.835C182.82 349.163 180.57 349.955 178.454 350.966L150.515 366.513C148.771 367.407 146.968 368.607 145.146 369.281L144.081 368.512Z"/>
	<path fill="#A79A92" transform="matrix(0.0375 0 0 0.0375 0 1.90735e-06)" d="M144.081 368.512L145.146 369.281L130.372 377.752L110.28 387.456L110.289 386.573L129.735 376.323L144.081 368.512Z"/>
	<path fill="#A79A92" transform="matrix(0.0375 0 0 0.0375 0 1.90735e-06)" d="M100.583 326.994L141.274 303.528C146.52 300.625 151.512 297.441 157.031 295.047L165.284 291.477L101.62 328.315L101.396 328.501C100.164 329.505 98.7223 329.917 98.2781 331.465L97.832 328.037C98.7461 327.867 99.7167 327.354 100.583 326.994Z"/>
	<path fill="#A79A92" transform="matrix(0.0375 0 0 0.0375 0 1.90735e-06)" d="M175.856 300.738L177.28 301.204C176.754 301.697 176.948 301.484 176.536 302.057L161.314 309.092C158.248 310.595 154.818 312.901 151.588 313.861L144.185 317.781C143.415 318.18 142.122 319.068 141.324 319.197L130.028 325.191C128.018 326.525 125.436 328.143 123.177 328.964C121.056 330.934 114.549 334.14 111.877 335.495L99.5185 343.036L99.1075 340.804L110.336 334.521L121.964 327.702L129.169 323.915L140.228 317.999C141.017 316.884 149.175 313.175 151.111 312.351C153.774 309.514 171.815 302.355 175.856 300.738Z"/>
	<defs>
		<linearGradient id="gradient_13" gradientUnits="userSpaceOnUse" x1="141.4745" y1="337.00998" x2="144.99066" y2="344.65341">
			<stop offset="0" stop-color="#BA9282"/>
			<stop offset="1" stop-color="#CCBBB4"/>
		</linearGradient>
	</defs>
	<path fill="url(#gradient_13)" transform="matrix(0.0375 0 0 0.0375 0 1.90735e-06)" d="M102.969 363.676C104.375 362.608 106.111 361.761 107.614 360.818L119.544 353.272C121.701 351.84 123.453 349.889 125.625 348.447C139.332 339.345 165.202 324.305 181.148 318.611C180.893 319.144 180.891 319.396 180.312 319.688L179.375 320.159C178.189 320.801 176.941 321.136 176.208 322.364C160.421 330.25 144.787 338.773 129.923 348.286C123.048 352.686 117.361 358.165 109.925 361.796C107.712 362.876 105.232 363.791 103.233 365.247L102.969 363.676Z"/>
	<path fill="#A79A92" transform="matrix(0.0375 0 0 0.0375 0 1.90735e-06)" d="M97.5053 315.421C98.6575 314.637 100.091 314.171 101.343 313.549L181.694 272.037L182.128 273.151C175.791 275.83 169.679 279.66 163.629 282.944L103.125 315.024C101.2 315.92 99.4326 317.12 97.4449 317.89L97.5053 315.421Z"/>
	<path fill="#A79A92" transform="matrix(0.0375 0 0 0.0375 0 1.90735e-06)" d="M188.446 338.561L211.719 328.357L207.635 331.039C202.627 333.947 194.396 338.329 189.003 340.147L120.858 371.442C116.277 373.754 112.074 376.293 107.08 377.674L107.197 376.885C108.857 375.692 111.457 374.767 113.306 373.726L128.594 365.31L176.124 343.67C180.198 341.901 184.198 339.889 188.446 338.561Z"/>
	<path fill="#DAD2D0" transform="matrix(0.0375 0 0 0.0375 0 1.90735e-06)" d="M177.189 261.281L177.453 261.768C174.754 262.768 172.344 264.379 169.82 265.753L158.338 271.839L145.717 278.254L145.107 277.282L157.797 270.398C162.125 268.134 166.349 265.672 170.795 263.635C172.881 262.679 175.188 262.369 177.189 261.281Z"/>
	<path fill="#A79A92" transform="matrix(0.0375 0 0 0.0375 0 1.90735e-06)" d="M145.107 277.282L145.717 278.254L116.878 294.884C112.346 298.492 103.487 303.354 97.7576 305.312L97.78 303.676L109.223 297.502C111.737 295.995 114.167 294.083 116.871 292.954C121.898 288.667 139.407 279.611 145.107 277.282Z"/>
	<path fill="#A79A92" transform="matrix(0.0375 0 0 0.0375 0 1.90735e-06)" d="M98.7254 289.346C98.5684 294.893 101.604 290.921 106.376 288.373L174.18 252.644L174.703 254.468C172.466 255.035 170.605 256.423 168.569 257.457L115.85 285.78C110.645 288.657 104.388 293.33 98.4572 294.516C98.4089 292.775 98.2876 291.049 98.7254 289.346Z"/>
	<path fill="#A79A92" transform="matrix(0.0375 0 0 0.0375 0 1.90735e-06)" d="M170.056 233.303L170.424 237.178C168.248 238.388 166.389 239.924 164.369 241.361L155.407 247.302C153.591 248.489 151.723 249.9 149.781 250.856L132.611 261.33L109.872 274.191C106.847 275.886 103.591 277.162 100.757 279.151L100.388 277.449L100.722 277.581C103.332 276.79 105.371 274.995 107.712 273.687L130.707 260.769L150.261 248.605C150.982 247.213 168.171 236.685 169.971 235.781L170.056 233.303Z"/>
	<path fill="#DAD2D0" transform="matrix(0.0375 0 0 0.0375 0 1.90735e-06)" d="M170.056 233.303L170.424 237.178C168.248 238.388 166.389 239.924 164.369 241.361L155.407 247.302C153.591 248.489 151.723 249.9 149.781 250.856L149.613 250.45C148.942 250.494 148.196 251.253 147.578 251.564L144.688 253.438C143.494 254.19 142.385 254.994 141.133 255.669L139.847 256.406C139.387 256.634 138.802 257.071 138.31 256.984L150.261 248.605C150.982 247.213 168.171 236.685 169.971 235.781L170.056 233.303Z"/>
	<path fill="#A79A92" transform="matrix(0.0375 0 0 0.0375 0 1.90735e-06)" d="M111.294 248.389L112.268 249.251C110.125 250.301 108.273 251.96 106.157 252.915C106.294 251.883 106.604 251.152 107.062 250.222C108.626 249.998 109.929 249.141 111.294 248.389Z"/>
	<path fill="#A79A92" transform="matrix(0.0375 0 0 0.0375 0 1.90735e-06)" d="M102.583 265.247C105.529 264.605 109.353 261.499 112.008 259.939L159.756 231.345C163.491 229.083 169.01 227.426 169.972 222.71C169.923 224.291 169.925 225.88 169.675 227.444C164.914 231.059 159.143 233.759 154.066 237.004L117.691 259.563C112.809 262.417 107.8 265.559 102.568 267.731L102.583 265.247Z"/>
	<path fill="#4A3C36" transform="matrix(0.0375 0 0 0.0375 0 1.90735e-06)" d="M172.15 209.74C177.586 187.118 191.611 176.066 212.886 167.381C216.098 166.07 219.382 164.649 222.744 163.769C249.543 156.758 259.625 179.334 270.996 197.625L279.136 210.258C287.03 221.909 296.264 234.195 289.983 248.766C287.453 254.635 282.404 256.231 277.215 259.167C268.046 264.354 246.355 280.296 253.663 292.857L263.281 307.405C264.171 307.289 264.114 306.483 264.947 306.719L263.891 308C265.489 310.651 280.949 331.121 282.969 332.298L283.137 332.812C286.674 337.717 291.073 342 295.057 346.533C308.614 361.963 335.892 392.526 353.231 399.007C363.485 392.7 364.788 377.931 378.18 370.818C378.985 370.39 380.711 369.277 381.599 369.377L381.719 369.59C385.062 369.09 387.978 368.485 391.406 368.768C406.05 369.975 436.791 400.878 447.605 410.44L452.188 414.404C467.85 426.886 465.983 445.401 453.99 460.291C448.267 467.396 439.545 471.983 431.486 475.89C395.815 493.184 382.195 487.681 348.731 464.797C341.235 459.671 333.819 454.336 326.829 448.536L301.894 426.043C290.22 415.189 278.622 404.279 268.003 392.371L230.744 347.54C229.485 345.929 228.015 343.19 226.391 342.054C226.002 341.604 225.954 341.502 225.834 340.92L196.836 299.736C195.478 297.574 193.888 295.503 192.684 293.255L185.708 280.035C184.582 277.842 183.618 275.581 182.33 273.474L182.128 273.151L181.694 272.037C181.038 268.589 178.925 264.948 177.453 261.768L177.189 261.281C176.902 259.131 175.611 256.44 174.703 254.468L174.18 252.644C173.914 250.116 172.962 247.665 172.337 245.215L170.424 237.178L170.056 233.303C169.93 231.429 169.645 229.29 169.946 227.444C169.925 225.88 169.923 224.291 169.972 222.71C169.967 219.552 170.404 216.631 171.031 213.548L172.15 209.74Z"/>
	<path fill="#A79A92" transform="matrix(0.0375 0 0 0.0375 0 1.90735e-06)" d="M440.085 418.269L450.933 426.725C454.15 429.309 457.534 431.687 459.804 435.203C458.157 445.866 453.365 450.889 446.12 458.726C436.699 468.915 429.226 478.459 414.519 478.44C405.804 478.429 397.889 477.262 389.743 473.818L389.371 473.724C395.054 464.925 403.676 457.911 410.845 450.336L433.819 424.202C435.758 421.924 438.489 420.845 440.085 418.269Z"/>
	<path fill="#A79A92" transform="matrix(0.0375 0 0 0.0375 0 1.90735e-06)" d="M341.913 405.677C355.285 412.108 364.224 402.32 372.187 392.303C384.604 376.685 383.15 371.537 402.444 386.067C405.765 388.568 424.237 403.627 426.078 406.951L429.872 410.162L436.976 415.908L440.085 418.269C438.489 420.845 435.758 421.924 433.819 424.202L410.845 450.336C403.676 457.911 395.054 464.925 389.371 473.724C387.956 473.658 384.758 471.484 383.347 470.783C381.72 469.339 377.722 467.436 375.714 466.174L371.218 463.335C369.502 462.616 367.396 460.678 365.839 459.547L349.611 447.445L344.852 444.269L321.408 425.378L320.449 424.277L318.526 422.212C320.11 420.61 322.426 419.402 324.206 417.955C327.069 415.629 337.295 406.231 338.21 403.732C339.241 404.228 341.182 404.858 341.913 405.677Z"/>
	<path fill="#DAD2D0" transform="matrix(0.0375 0 0 0.0375 0 1.90735e-06)" d="M320.449 424.277C322.684 422.344 325.752 419.287 328.644 418.673C326.371 420.557 323.92 424.03 321.408 425.378L320.449 424.277Z"/>
	<defs>
		<linearGradient id="gradient_14" gradientUnits="userSpaceOnUse" x1="394.91235" y1="426.98969" x2="406.55457" y2="447.04745">
			<stop offset="0" stop-color="#AFABA7"/>
			<stop offset="1" stop-color="#D7CFD0"/>
		</linearGradient>
	</defs>
	<path fill="url(#gradient_14)" transform="matrix(0.0375 0 0 0.0375 0 1.90735e-06)" d="M426.078 406.951L429.872 410.162C424.336 419.61 403.975 439.883 395.997 446.886C389.156 452.89 381.063 458.786 375.714 466.174L371.218 463.335C376.44 458.329 382.739 454.589 388.125 449.659C393.964 444.315 399.944 438.705 405.302 432.879L413.785 422.969C417.468 419.066 422.451 415.074 425.222 410.455L426.704 408.282C426.446 407.945 426.312 407.722 426.179 407.309L426.078 406.951Z"/>
	<path fill="#A79A92" transform="matrix(0.0375 0 0 0.0375 0 1.90735e-06)" d="M429.872 410.162L436.976 415.908L440.085 418.269C438.489 420.845 435.758 421.924 433.819 424.202L410.845 450.336C403.676 457.911 395.054 464.925 389.371 473.724C387.956 473.658 384.758 471.484 383.347 470.783C381.72 469.339 377.722 467.436 375.714 466.174C381.063 458.786 389.156 452.89 395.997 446.886C403.975 439.883 424.336 419.61 429.872 410.162Z"/>
	<path fill="#DAD2D0" transform="matrix(0.0375 0 0 0.0375 0 1.90735e-06)" d="M436.976 415.908L440.085 418.269C438.489 420.845 435.758 421.924 433.819 424.202L410.845 450.336C403.676 457.911 395.054 464.925 389.371 473.724C387.956 473.658 384.758 471.484 383.347 470.783C386.628 466.132 392.124 463.387 396.163 459.52L427.435 428.121C431.615 423.419 433.122 420.992 436.601 416.39L436.976 415.908Z"/>
	<path fill="#A79A92" transform="matrix(0.0375 0 0 0.0375 0 1.90735e-06)" d="M207.854 289.472C203.938 284.35 191.579 262.09 191.494 258.407C191.436 255.878 190.116 253.429 189.378 251.028L185.843 238.463C180.78 218.023 184.273 199.348 197.987 183.701C204.192 176.622 209.452 171.531 218.906 169.222C242.367 163.492 255.193 188.253 264.763 204.954L267.656 209.812L282.152 231.813C283.611 234.04 285.323 236.215 285.683 238.906L285.748 239.322C286.929 248.182 281.147 252.331 274.447 255.589C262.658 261.322 251.366 266.667 245.062 278.95C236.672 295.298 250.186 308.786 260.049 321.57L292.409 360.097C303.311 372.399 314.582 385.102 327.188 395.708L336.93 402.777L338.21 403.732C337.295 406.231 327.069 415.629 324.206 417.955C322.426 419.402 320.11 420.61 318.526 422.212C317.555 421.033 316.496 420.134 315.314 419.185C313.962 417.334 311.933 415.717 310.265 414.131L290.351 395.826L287.568 393.213L282.401 388.153C281.215 387.122 279.138 385.522 278.542 384.062L279.167 383.489C277.075 382.727 274.302 381.158 274.411 378.594L273.281 378.549C271.813 377.704 271.236 376.902 270.378 375.494L267.312 372.012L228.484 320.662L225.448 316.431L224.568 315.183L222.921 312.778L209.883 292.819L207.854 289.472Z"/>
	<path fill="#DAD2D0" transform="matrix(0.0375 0 0 0.0375 0 1.90735e-06)" d="M214.194 287.053L214.405 287.691C212.659 289.284 211.431 291.061 209.883 292.819L207.854 289.472C210.614 289.407 212.024 288.629 214.194 287.053Z"/>
	<path fill="#DAD2D0" transform="matrix(0.0375 0 0 0.0375 0 1.90735e-06)" d="M267.312 372.012C268.273 371.284 269.521 370.296 270.808 370.426L271.136 370.474C272.902 370.709 274.893 368.708 276.595 368.192C274.851 370.666 273.093 374.082 270.378 375.494L267.312 372.012Z"/>
	<path fill="white" transform="matrix(0.0375 0 0 0.0375 0 1.90735e-06)" d="M336.93 402.777L338.21 403.732C337.295 406.231 327.069 415.629 324.206 417.955C322.426 419.402 320.11 420.61 318.526 422.212C317.555 421.033 316.496 420.134 315.314 419.185C316.418 417.918 317.767 416.846 319.028 415.738C324.589 411.879 330.069 404.157 336.93 402.777Z"/>
</svg>
